<?xml version="1.0" encoding="UTF-8"?>
<!DOCTYPE svg PUBLIC "-//W3C//DTD SVG 1.0//EN" 
         "http://www.w3.org/TR/2001/REC-SVG-20010904/DTD/svg10.dtd">
<svg xmlns="http://www.w3.org/2000/svg" width="2880" height="1024">
  <path d="M2448 250 L1805 931 L1805 930 L1803 930 L1800 931 L1798 931 L1796 931 L1795 931 L1794 931 L1793 931 L1791 931 L1790 931 L1789 931 L1788 931 L1787 930 L1786 929 L1785 928 L1784 928 L1784 927 L1783 927 L1782 925 L1781 925 L1778 923 L1776 921 L1772 919 L1770 917 L1767 916 L1762 914 L1759 911 L1754 909 L1751 908 L1747 906 L1741 903 L1729 898 L1722 896 L1715 894 L1708 892 L1700 890 L1691 888 L1683 886 L1674 884 L1664 882 L1653 881 L1642 878 L1632 877 L1621 875 L1598 872 L1586 871 L1574 869 L1560 868 L1547 865 L1534 864 L1520 863 L1506 862 L1491 861 L1476 859 L1461 856 L1290 839 L1273 836 L1258 834 L1242 832 L1227 829 L1209 827 L1193 823 L1174 819 L1156 815 L1139 810 L1123 805 L1107 801 L1080 793 L1068 788 L1056 783 L1031 773 L1019 768 L1006 763 L994 756 L981 750 L969 743 L957 736 L932 722 L918 714 L905 707 L892 700 L879 693 L863 683 L851 676 L835 667 L819 658 L803 648 L787 641 L753 622 L737 612 L719 603 L704 595 L685 585 L670 576 L651 564 L632 554 L614 544 L596 536 L563 519 L547 511 L531 502 L516 493 L500 483 L487 476 L474 469 L458 460 L442 451 L428 442 L415 435 L402 428 L376 412 L363 405 L350 398 L337 391 L324 384 L313 378 L300 371 L289 365 L278 358 L265 351 L254 344 L243 339 L217 325 L206 318 L195 311 L182 304 L171 299 L160 293 L149 288 L138 283 L127 278 L116 273 L104 269 L93 265 L72 258 L62 255 L53 252 L43 248 L33 246 L25 244 L17 241 L8 239 L1 237 L0 235 L0 234 L0 233 L0 232 L0 230 L1 230 L2 229 L3 229 L5 227 L11 225 L14 224 L17 223 L20 223 L25 221 L29 220 L33 219 L38 218 L43 218 L50 218 L63 218 L71 218 L78 218 L86 218 L94 218 L103 218 L112 218 L121 219 L130 220 L140 221 L157 223 L166 226 L174 227 L182 229 L190 230 L208 233 L216 234 L225 236 L232 238 L240 240 L247 242 L254 244 L284 253 L295 256 L300 257 L305 258 L310 260 L319 263 L323 264 L331 266 L334 267 L337 268 L340 269 L342 270 L348 272 L351 274 L353 275 L355 276 L359 278 L362 279 L368 282 L372 284 L378 286 L383 289 L387 292 L392 294 L397 297 L408 303 L412 305 L414 307 L422 312 L428 316 L434 321 L439 325 L445 330 L459 339 L465 343 L471 347 L476 351 L480 354 L486 357 L495 362 L500 365 L504 368 L510 372 L511 372 L512 373 L513 373 L516 374 L518 375 L520 376 L522 376 L524 377 L527 378 L529 378 L531 379 L533 380 L534 380 L537 381 L538 381 L539 381 L540 381 L541 381 L541 380 L540 380 L539 380 L536 381 L534 381 L532 382 L527 383 L525 383 L523 384 L517 384 L514 384 L511 384 L507 384 L502 384 L498 384 L493 384 L477 384 L471 383 L464 382 L456 380 L448 378 L439 376 L425 370 L408 365 L390 358 L382 354 L372 349 L362 345 L344 336 L334 331 L324 325 L315 320 L305 313 L293 307 L282 300 L271 293 L258 285 L232 267 L218 257 L204 246 L187 236 L170 223 L140 202 L125 190 L111 178 L98 167 L88 158 L78 149 L69 140 L62 131 L61 130 L58 127 L56 121 L54 117 L53 113 L52 108 L52 104 L52 96 L54 91 L55 88 L57 83 L60 80 L63 75 L63 74 L64 73 L66 71 L70 68 L77 64 L78 63 L81 61 L89 57 L107 50 L116 47 L127 44 L138 42 L149 39 L160 38 L170 38 L182 38 L192 38 L194 38 L200 39 L210 41 L220 44 L229 48 L240 52 L250 56 L270 64 L279 68 L288 73 L296 77 L305 81 L312 85 L319 89 L327 93 L333 98 L340 102 L349 108 L354 113 L357 116 L360 119 L363 123 L365 126 L365 127 L365 128 L365 129 L365 131 L365 132 L365 135 L365 137 L365 142 L363 145 L362 147 L359 150 L358 152 L356 154 L353 157 L351 159 L348 161 L343 164 L309 170 L302 170 L294 170 L286 168 L267 165 L260 163 L250 161 L242 158 L232 156 L223 153 L214 150 L206 146 L196 142 L188 139 L163 125 L155 120 L147 115 L139 108 L131 103 L124 96 L117 90 L109 84 L103 77 L97 71 L90 65 L88 62 L86 59 L84 56 L81 53 L78 48 L75 41 L75 40 L75 39 L75 38 L76 36 L78 35 L82 32 L86 30 L89 29 L93 28 L99 26 L105 25 L110 24 L124 23 L132 23 L142 23 L152 23 L161 23 L172 23 L181 23 L192 25 L202 27 L211 30 L222 33 L232 36 L252 41 L262 44 L270 48 L279 51 L297 58 L304 61 L305 62 L307 63 L312 66 L317 69 L323 73 L329 76 L333 80 L337 82 L338 82 L339 84 L339 85 L341 87 L342 89 L343 92 L345 98 L340 108 L338 110 L334 113 L327 118 L324 121 L321 122 L319 122 L307 124 L300 125 L292 126 L284 127 L274 127 L265 127 L256 127 L237 128 L229 128 L221 129 L211 129 L202 129 L187 127 L169 122 L163 120 L152 117 L149 115 L145 113 L141 111 L137 107 L136 105 L136 104 L136 103 L136 102 L136 98 L136 95 L137 92 L139 89 L141 86 L142 82 L145 78 L147 75 L151 72 L156 69 L160 66 L172 61 L179 58 L182 57 L183 57 L184 57 L185 56 L191 55 L200 55 L209 55 L220 55 L232 55 L256 55 L268 56 L281 57 L295 60 L321 65 L335 69 L348 72 L362 75 L374 79 L386 82 L399 85 L409 89 L419 92 L429 95 L445 108 L445 109 L445 111 L445 112 L445 113 L445 115 L445 117 L445 119 L443 121 L442 123 L440 126 L438 128 L436 130 L429 135 L424 138 L419 141 L413 144 L408 147 L402 150 L395 153 L379 158 L372 161 L364 163 L346 169 L337 171 L328 173 L319 176 L312 178 L305 180 L299 181 L290 182 L282 183 L270 185 L264 185 L261 185 L257 186 L253 186 L250 186 L247 186 L244 186 L242 186 L240 186 L238 185 L235 184 L233 184 L232 182 L230 180 L229 179 L228 176 L227 173 L226 171 L226 168 L225 164 L225 160 L225 157 L225 156 L225 155 L225 153 L227 150 L231 143 L235 140 L237 138 L238 138 L238 137 L241 136 L249 134 L254 133 L320 129 L339 129 L347 129 L348 129 L349 129 L353 129 L354 129 L357 129 L362 131 L370 133 L377 136 L383 139 L390 142 L396 145 L404 151 L405 152 L406 153 L408 155 L409 157 L411 159 L412 162 L412 164 L412 166 L412 167 L412 171 L412 173 L412 175 L411 175 L411 176 L410 176 L409 176 L407 178 L405 179 L402 181 L391 185 L387 187 L381 189 L375 191 L370 193 L363 194 L356 196 L349 197 L343 198 L336 199 L329 200 L318 202 L313 203 L307 204 L302 204 L297 204 L293 204 L291 204 L289 204 L287 203 L285 202 L283 202 L281 201 L279 200 L277 198 L276 197 L274 194 L274 192 L272 190 L271 187 L271 183 L271 180 L271 176 L271 174 L271 172 L272 169 L273 167 L276 164 L279 160 L283 157 L288 153 L294 149 L299 145 L302 143 L306 141 L312 139 L417 123 L430 123 L447 121 L457 121 L469 121 L481 121 L493 121 L504 121 L516 121 L527 122 L537 123 L538 123 L541 125 L545 126 L550 128 L554 129 L562 135 L566 136 L569 138 L573 141 L577 144 L578 145 L579 147 L580 149 L581 150 L581 152 L582 154 L582 157 L582 159 L582 161 L582 163 L582 164 L579 166 L577 167 L573 169 L568 171 L564 173 L559 174 L554 177 L547 179 L530 183 L522 184 L512 185 L507 186 L506 186 L504 186 L498 186 L492 185 L485 184 L480 183 L478 182 L475 181 L470 180 L467 179 L464 177 L461 176 L457 175 L455 174 L454 173 L454 172 L454 171 L454 170 L454 169 L454 168 L454 165 L455 163 L457 161 L459 157 L460 155 L461 154 L463 153 L470 148 L475 145 L480 143 L486 141 L493 139 L500 137 L508 135 L518 133 L527 131 L545 128 L551 127 L554 127 L559 127 L567 127 L575 127 L583 126 L592 126 L600 126 L616 128 L622 129 L634 131 L638 133 L643 134 L647 136 L650 138 L654 138 L656 140 L657 141 L657 142 L658 142 L658 143 L658 144 L658 145 L658 146 L658 147 L656 148 L653 153 L651 155 L649 157 L647 160 L643 161 L639 164 L631 169 L630 169 L629 169 L626 169 L619 170 L610 171 L599 172 L587 174 L575 175 L563 175 L550 175 L542 175 L541 175 L536 175 L526 173 L515 171 L504 168 L493 165 L482 162 L473 160 L465 158 L452 154 L447 152 L443 150 L439 148 L437 147 L433 144 L431 143 L431 142 L431 141 L431 139 L431 138 L431 136 L431 134 L431 132 L432 129 L435 121 L436 119 L437 118 L438 117 L441 114 L445 112 L448 109 L449 109 L451 108 L455 106 L461 104 L468 102 L476 101 L485 100 L495 98 L506 97 L529 97 L541 97 L553 98 L566 99 L581 102 L596 104 L612 106 L644 114 L663 119 L682 125 L701 130 L736 143 L753 150 L770 157 L785 163 L800 169 L809 173 L815 176 L823 180 L837 189 L842 192 L846 195 L853 200 L857 204 L861 209 L865 214 L869 218 L872 222 L874 227 L877 233 L878 236 L878 239 L878 243 L877 248 L876 251 L875 255 L873 260 L871 263 L864 273 L858 277 L853 281 L847 285 L841 289 L837 291 L834 292 L829 294 L819 297 L808 300 L797 304 L784 306 L770 308 L757 310 L747 312 L743 312 L734 312 L725 312 L715 312 L704 312 L695 312 L687 312 L679 312 L672 312 L666 312 L662 312 L658 312 L655 312 L653 311 L649 310 L649 309 L648 308 L647 308 L647 307 L647 306 L647 305 L647 303 L647 300 L647 296 L647 292 L647 285 L647 278 L647 270 L647 259 L649 235 L650 223 L651 215 L652 205 L654 194 L655 182 L656 181 L656 179 L658 174 L661 165 L664 157 L672 136 L676 128 L681 121 L684 117 L688 113 L693 109 L703 101 L709 97 L715 94 L722 91 L728 89 L733 87 L734 87 L737 86 L741 86 L745 86 L749 86 L754 86 L759 86 L763 86 L768 87 L777 91 L782 92 L785 95 L811 118 L814 123 L817 128 L820 132 L822 137 L823 140 L823 141 L823 142 L824 144 L825 147 L825 151 L825 160 L825 164 L823 169 L821 174 L819 180 L816 186 L813 192 L810 197 L807 201 L800 208 L798 210 L794 211 L788 214 L783 217 L770 221 L763 223 L756 224 L748 225 L741 226 L740 226 L738 226 L733 225 L726 223 L711 219 L704 216 L696 213 L696 212 L695 212 L693 211 L690 208 L686 205 L681 200 L678 195 L673 190 L669 185 L662 173 L659 167 L657 160 L655 153 L653 146 L652 141 L651 135 L651 134 L651 132 L651 128 L654 122 L656 117 L660 111 L663 107 L667 102 L672 98 L685 90 L693 87 L700 84 L708 82 L718 79 L727 78 L736 77 L747 75 L758 74 L770 73 L782 73 L808 73 L823 73 L838 73 L851 74 L865 75 L879 78 L894 80 L921 86 L933 89 L945 92 L957 96 L1038 133 L1044 138 L1049 142 L1053 146 L1057 149 L1062 156 L1063 159 L1064 162 L1065 165 L1065 168 L1065 171 L1065 175 L1065 178 L1065 181 L1063 186 L1062 188 L1062 189 L1061 189 L1056 191 L1052 194 L1046 197 L1039 199 L1032 201 L1013 206 L1002 208 L991 209 L970 209 L959 209 L949 209 L943 209 L940 209 L933 208 L923 207 L914 204 L904 201 L896 199 L888 197 L879 195 L872 193 L865 191 L855 186 L850 184 L847 183 L845 181 L843 180 L842 178 L841 176 L840 174 L840 172 L839 169 L839 164 L839 163 L839 161 L840 156 L845 147 L848 140 L852 133 L856 127 L867 114 L874 108 L880 102 L886 97 L893 93 L903 88 L921 81 L931 78 L942 74 L953 72 L975 69 L987 68 L1000 67 L1011 67 L1023 67 L1037 67 L1050 67 L1074 67 L1086 67 L1096 68 L1107 69 L1118 70 L1127 71 L1176 87 L1177 88 L1177 89 L1177 90 L1177 92 L1177 93 L1177 94 L1176 97 L1174 99 L1173 102 L1170 105 L1168 109 L1165 112 L1162 116 L1159 120 L1155 123 L1152 127 L1146 131 L1142 134 L1137 138 L1135 139 L1131 141 L1125 144 L1118 147 L1112 150 L1105 153 L1097 156 L1088 159 L1081 161 L1075 163 L1070 165 L1064 165 L1061 166 L1056 168 L1055 168 L1057 167 L1057 166 L1058 165 L1060 163 L1063 159 L1066 156 L1070 151 L1076 145 L1081 139 L1089 133 L1095 127 L1101 121 L1109 114 L1116 108 L1117 108 L1117 107 L1120 105 L1125 101 L1130 97 L1136 93 L1142 90 L1148 87 L1153 84 L1161 81 L1166 79 L1172 77 L1178 75 L1184 74 L1189 72 L1195 71 L1201 70 L1206 69 L1224 69 L1228 69 L1232 69 L1236 69 L1241 69 L1245 70 L1250 71 L1256 75 L1259 76 L1263 78 L1266 81 L1270 83 L1273 86 L1276 88 L1280 93 L1282 95 L1283 98 L1285 101 L1287 105 L1288 108 L1289 111 L1292 119 L1292 122 L1292 125 L1292 128 L1292 131 L1292 132 L1292 133 L1292 135 L1291 138 L1290 140 L1289 143 L1287 146 L1286 148 L1284 151 L1283 152 L1281 154 L1281 155 L1277 155 L1275 156 L1272 157 L1268 158 L1259 159 L1254 159 L1249 159 L1242 159 L1235 159 L1228 159 L1217 157 L1208 154 L1199 151 L1191 148 L1174 141 L1164 137 L1156 133 L1147 129 L1140 125 L1134 121 L1128 117 L1122 113 L1117 108 L1113 103 L1110 99 L1109 99 L1109 98 L1109 96 L1108 94 L1108 91 L1108 87 L1108 83 L1108 78 L1108 74 L1108 70 L1109 65 L1146 26 L1166 17 L1175 14 L1184 12 L1203 9 L1213 9 L1222 9 L1230 9 L1234 9 L1235 9 L1238 9 L1251 12 L1257 14 L1264 16 L1269 18 L1275 21 L1281 24 L1286 27 L1292 29 L1296 31 L1305 38 L1309 42 L1312 44 L1314 48 L1317 51 L1319 54 L1323 61 L1325 66 L1326 70 L1326 74 L1327 79 L1328 83 L1328 87 L1328 91 L1328 97 L1328 102 L1328 107 L1328 113 L1315 154 L1310 161 L1284 180 L1282 181 L1279 182 L1275 182 L1270 183 L1265 184 L1259 184 L1254 184 L1247 184 L1241 184 L1234 185 L1228 185 L1218 184 L1214 183 L1210 182 L1206 180 L1203 179 L1200 177 L1197 176 L1195 174 L1193 173 L1192 171 L1190 169 L1189 167 L1188 161 L1187 157 L1186 155 L1186 152 L1186 148 L1186 144 L1186 140 L1186 136 L1186 131 L1186 127 L1186 123 L1186 122 L1186 121 L1188 118 L1190 115 L1193 112 L1197 108 L1201 104 L1206 102 L1211 99 L1217 96 L1222 93 L1228 91 L1238 89 L1246 88 L1254 87 L1261 86 L1270 85 L1278 85 L1286 85 L1304 85 L1313 85 L1321 86 L1331 87 L1340 89 L1349 91 L1357 93 L1367 96 L1375 101 L1385 104 L1392 108 L1401 112 L1408 116 L1420 126 L1426 131 L1431 136 L1436 140 L1441 145 L1450 158 L1454 164 L1457 169 L1460 175 L1463 181 L1466 187 L1468 193 L1470 199 L1471 204 L1472 215 L1472 216 L1472 217 L1472 218 L1472 221 L1471 225 L1470 228 L1469 233 L1467 236 L1465 240 L1464 242 L1462 245 L1461 248 L1458 251 L1456 252 L1454 252 L1452 252 L1450 253 L1449 253 L1448 253 L1445 253 L1441 253 L1437 253 L1432 253 L1426 253 L1420 252 L1415 250 L1409 248 L1401 246 L1392 243 L1385 240 L1384 240 L1384 239 L1381 237 L1376 233 L1371 229 L1367 225 L1362 222 L1357 219 L1352 215 L1349 211 L1345 206 L1342 202 L1339 197 L1336 191 L1334 187 L1333 181 L1331 175 L1330 170 L1329 165 L1327 157 L1327 151 L1327 147 L1327 146 L1327 144 L1329 142 L1331 139 L1334 137 L1337 134 L1341 132 L1345 129 L1350 126 L1354 124 L1360 121 L1366 120 L1372 118 L1379 116 L1386 115 L1393 114 L1399 113 L1414 112 L1421 112 L1429 112 L1436 112 L1443 112 L1449 112 L1462 112 L1469 113 L1474 114 L1479 115 L1483 117 L1488 119 L1492 121 L1496 123 L1499 125 L1501 127 L1503 129 L1508 133 L1510 135 L1511 137 L1512 139 L1513 142 L1513 144 L1513 147 L1513 149 L1513 152 L1513 155 L1513 158 L1513 161 L1512 165 L1508 173 L1506 177 L1502 182 L1498 187 L1493 192 L1489 196 L1486 197 L1481 200 L1478 202 L1475 202 L1468 204 L1460 205 L1450 206 L1441 208 L1430 209 L1419 210 L1409 210 L1398 210 L1387 210 L1366 210 L1357 209 L1346 207 L1336 206 L1328 205 L1320 203 L1313 201 L1306 199 L1301 197 L1296 197 L1292 195 L1289 193 L1286 192 L1281 189 L1280 187 L1279 187 L1279 185 L1279 184 L1279 182 L1279 180 L1279 177 L1279 174 L1279 171 L1279 167 L1279 163 L1279 159 L1279 148 L1279 142 L1281 138 L1281 137 L1282 136 L1283 134 L1286 131 L1288 128 L1291 124 L1293 121 L1296 116 L1300 111 L1304 108 L1307 103 L1309 99 L1315 94 L1320 91 L1323 88 L1327 86 L1330 85 L1333 83 L1336 82 L1340 80 L1344 79 L1347 78 L1349 78 L1352 77 L1354 77 L1356 77 L1360 77 L1361 77 L1363 77 L1364 77 L1364 78 L1365 78 L1365 79 L1366 80 L1366 81 L1366 82 L1366 83 L1366 84 L1367 86 L1367 89 L1368 92 L1369 98 L1371 110 L1371 115 L1371 122 L1371 129 L1371 136 L1371 142 L1371 149 L1371 157 L1371 165 L1371 180 L1371 187 L1371 193 L1371 200 L1371 204 L1371 206 L1370 209 L1369 213 L1369 217 L1368 223 L1366 229 L1365 233 L1363 238 L1361 242 L1358 248 L1355 253 L1353 256 L1349 261 L1343 268 L1339 271 L1336 273 L1331 275 L1327 277 L1322 279 L1318 280 L1312 280 L1301 280 L1296 280 L1291 280 L1285 280 L1280 280 L1273 280 L1267 279 L1261 277 L1255 274 L1250 271 L1242 267 L1236 263 L1225 255 L1219 250 L1214 245 L1209 240 L1206 235 L1203 229 L1200 223 L1197 217 L1194 211 L1192 206 L1190 200 L1188 194 L1188 193 L1188 190 L1188 185 L1188 180 L1188 174 L1189 167 L1190 162 L1191 155 L1193 149 L1195 143 L1196 139 L1196 138 L1197 137 L1201 135 L1204 132 L1209 129 L1214 126 L1218 125 L1223 123 L1228 121 L1233 119 L1239 117 L1244 116 L1249 114 L1259 114 L1264 114 L1268 114 L1273 114 L1278 114 L1282 114 L1287 114 L1292 115 L1296 117 L1301 120 L1311 127 L1315 130 L1320 134 L1325 139 L1330 144 L1335 149 L1339 154 L1344 160 L1348 167 L1352 173 L1356 180 L1364 194 L1367 201 L1372 208 L1375 216 L1378 224 L1380 229 L1380 230 L1380 231 L1380 232 L1382 238 L1383 242 L1384 248 L1385 253 L1386 259 L1387 265 L1387 270 L1387 274 L1387 278 L1387 281 L1387 285 L1387 289 L1385 293 L1383 296 L1383 297 L1382 297 L1380 299 L1378 300 L1373 303 L1363 307 L1357 309 L1352 310 L1345 311 L1337 312 L1328 313 L1319 313 L1317 313 L1312 313 L1305 313 L1297 312 L1289 311 L1281 310 L1274 308 L1267 306 L1260 304 L1253 302 L1236 297 L1230 294 L1226 292 L1222 290 L1220 289 L1218 287 L1216 285 L1213 282 L1212 279 L1209 276 L1207 271 L1204 263 L1203 259 L1202 256 L1202 255 L1202 254 L1202 252 L1204 249 L1204 246 L1206 241 L1209 236 L1212 232 L1212 231 L1214 229 L1218 227 L1222 224 L1229 221 L1237 218 L1244 215 L1253 213 L1263 211 L1272 208 L1282 207 L1291 206 L1302 205 L1313 204 L1323 204 L1334 204 L1343 204 L1353 204 L1364 205 L1383 209 L1392 212 L1401 214 L1409 217 L1416 220 L1423 224 L1429 227 L1434 230 L1437 232 L1441 234 L1443 237 L1446 240 L1453 252 L1455 257 L1456 260 L1456 264 L1456 268 L1456 272 L1456 277 L1456 281 L1456 286 L1456 297 L1455 303 L1454 308 L1454 309 L1453 310 L1452 312 L1449 317 L1445 322 L1441 327 L1437 333 L1432 339 L1426 345 L1414 355 L1406 360 L1399 366 L1392 370 L1384 375 L1376 379 L1367 384 L1360 388 L1352 391 L1335 397 L1329 399 L1322 401 L1315 403 L1308 405 L1302 406 L1297 407 L1291 408 L1287 408 L1283 408 L1280 408 L1277 408 L1275 408 L1271 408 L1270 407 L1269 406 L1268 405 L1268 404 L1267 403 L1266 401 L1266 399 L1266 396 L1265 393 L1265 389 L1264 384 L1264 379 L1264 374 L1264 367 L1264 360 L1264 353 L1264 339 L1265 330 L1266 323 L1268 316 L1270 309 L1272 304 L1275 298 L1279 292 L1283 286 L1293 275 L1298 270 L1303 266 L1309 262 L1313 258 L1319 255 L1325 252 L1331 250 L1336 248 L1341 246 L1347 245 L1351 244 L1356 243 L1358 242 L1359 242 L1360 242 L1362 242 L1363 242 L1364 242 L1366 244 L1367 245 L1367 246 L1368 247 L1369 249 L1370 250 L1370 253 L1370 256 L1370 259 L1370 261 L1370 262 L1370 263 L1369 265 L1369 266 L1368 268 L1367 272 L1365 278 L1362 282 L1359 288 L1356 294 L1352 300 L1348 306 L1344 312 L1339 317 L1334 322 L1330 327 L1325 333 L1320 338 L1316 343 L1311 348 L1306 352 L1296 358 L1290 361 L1284 365 L1280 368 L1275 371 L1271 373 L1266 374 L1263 376 L1259 378 L1256 379 L1254 379 L1252 380 L1250 381 L1248 381 L1246 381 L1245 381 L1242 381 L1240 381 L1239 381 L1238 381 L1237 380 L1235 379 L1234 377 L1233 375 L1232 373 L1230 370 L1229 367 L1228 362 L1226 356 L1226 351 L1224 345 L1223 339 L1222 334 L1221 328 L1221 320 L1221 313 L1221 307 L1221 300 L1221 295 L1221 289 L1221 285 L1221 281 L1223 276 L1226 270 L1227 267 L1229 265 L1230 264 L1231 263 L1232 262 L1233 261 L1235 259 L1237 258 L1239 256 L1241 256 L1244 255 L1246 254 L1247 253 L1249 253 L1250 253 L1251 253 L1252 253 L1253 253 L1255 253 L1256 253 L1256 254 L1257 255 L1258 257 L1258 258 L1260 260 L1262 263 L1263 267 L1265 270 L1267 276 L1268 280 L1270 286 L1271 292 L1272 298 L1274 304 L1275 311 L1276 318 L1278 325 L1279 332 L1280 347 L1280 356 L1280 365 L1280 373 L1280 382 L1279 390 L1277 397 L1275 404 L1273 411 L1270 419 L1267 428 L1263 435 L1259 442 L1254 451 L1250 458 L1245 464 L1240 470 L1234 475 L1229 479 L1223 484 L1217 488 L1210 491 L1204 494 L1199 496 L1198 496 L1196 496 L1192 496 L1187 496 L1182 496 L1169 496 L1164 496 L1158 495 L1154 494 L1148 492 L1142 490 L1138 489 L1133 487 L1130 484 L1126 483 L1120 477 L1116 475 L1113 472 L1110 470 L1108 466 L1106 464 L1105 461 L1103 458 L1101 454 L1100 451 L1098 447 L1096 442 L1096 441 L1095 440 L1094 437 L1092 432 L1090 427 L1084 412 L1081 407 L1079 400 L1077 394 L1075 387 L1074 382 L1073 377 L1073 373 L1073 369 L1073 366 L1073 362 L1075 360 L1077 358 L1079 354 L1082 352 L1085 350 L1090 348 L1100 342 L1106 339 L1112 337 L1118 335 L1125 333 L1130 332 L1137 331 L1144 330 L1151 329 L1156 329 L1167 329 L1173 329 L1178 329 L1184 329 L1188 329 L1192 329 L1196 330 L1201 331 L1205 333 L1210 335 L1220 340 L1225 344 L1230 347 L1233 350 L1237 353 L1241 357 L1241 359 L1243 362 L1244 366 L1245 370 L1246 374 L1247 379 L1249 385 L1250 390 L1250 396 L1250 401 L1250 406 L1250 412 L1250 417 L1250 423 L1250 428 L1249 428 L1248 431 L1244 435 L1241 439 L1236 444 L1231 450 L1224 455 L1217 461 L1210 466 L1201 471 L1193 476 L1173 484 L1163 489 L1159 490 L1151 493 L1141 494 L1130 496 L1119 498 L1109 499 L1098 501 L1087 502 L1076 503 L1066 503 L1043 503 L1034 503 L1024 502 L1016 501 L1007 500 L1000 498 L994 496 L988 493 L982 490 L977 487 L973 484 L965 476 L963 473 L961 470 L959 465 L957 459 L957 454 L956 448 L955 443 L954 437 L954 430 L954 423 L954 417 L954 410 L954 398 L956 391 L958 385 L960 379 L963 373 L967 367 L971 360 L976 354 L981 348 L986 342 L997 330 L1003 324 L1010 319 L1016 315 L1023 310 L1033 305 L1040 301 L1047 298 L1053 295 L1054 295 L1055 295 L1057 294 L1060 293 L1065 292 L1068 292 L1071 292 L1074 292 L1077 292 L1080 292 L1083 292 L1085 292 L1087 293 L1088 293 L1089 293 L1089 294 L1089 296 L1089 297 L1089 298 L1089 300 L1089 302 L1089 305 L1089 309 L1089 314 L1089 319 L1088 325 L1086 331 L1083 336 L1080 342 L1076 348 L1072 356 L1067 362 L1065 364 L1061 367 L1056 373 L1049 381 L1042 388 L1035 396 L1027 405 L1012 421 L1003 429 L996 437 L987 446 L979 454 L972 460 L965 466 L956 474 L951 478 L946 483 L940 488 L935 493 L930 497 L925 500 L920 505 L917 509 L915 511 L914 512 L913 512 L913 513 L912 514 L912 515 L912 514 L912 513 L912 512 L912 510 L912 507 L913 504 L915 501 L916 496 L918 492 L919 489 L920 488 L922 484 L923 481 L926 476 L929 473 L933 468 L936 463 L940 457 L946 449 L950 443 L953 440 L956 435 L960 431 L964 426 L966 423 L969 421 L971 418 L974 416 L977 413 L980 412 L986 409 L988 408 L990 407 L992 406 L994 406 L997 405 L998 405 L999 405 L1002 405 L1003 405 L1004 405 L1005 405 L1006 405 L1007 405 L1008 406 L1008 407 L1009 409 L1010 411 L1010 413 L1011 415 L1012 417 L1013 423 L1013 428 L1014 431 L1014 435 L1014 439 L1014 443 L1014 446 L1014 448 L1014 451 L1014 455 L1013 460 L1007 475 L1004 479 L997 490 L989 501 L985 506 L979 512 L975 517 L968 522 L962 527 L955 531 L948 535 L941 539 L932 543 L924 546 L914 549 L904 552 L895 554 L885 555 L864 557 L853 559 L843 559 L837 559 L832 558 L826 556 L819 554 L812 552 L804 550 L797 547 L791 544 L785 541 L779 537 L774 533 L769 530 L761 524 L758 520 L755 517 L752 513 L750 509 L748 505 L743 494 L740 488 L739 482 L738 477 L737 470 L736 463 L735 456 L735 448 L735 440 L735 432 L735 424 L736 416 L738 407 L740 400 L742 394 L743 393 L743 392 L745 389 L749 385 L753 380 L757 376 L762 371 L768 366 L775 362 L779 358 L785 354 L793 348 L800 344 L808 341 L825 334 L835 331 L843 327 L853 325 L860 323 L869 321 L878 320 L886 319 L894 319 L901 319 L907 319 L915 319 L922 319 L929 319 L934 319 L941 319 L946 319 L952 320 L958 321 L967 325 L970 327 L974 330 L977 332 L979 335 L982 337 L984 339 L986 342 L986 344 L987 347 L988 350 L989 353 L989 357 L989 363 L989 368 L989 375 L989 380 L989 387 L989 394 L987 401 L982 415 L978 423 L975 432 L971 439 L967 446 L963 455 L957 463 L952 472 L945 481 L939 490 L932 498 L925 507 L917 515 L910 524 L902 533 L894 540 L887 548 L878 556 L871 562 L863 567 L855 574 L846 579 L841 583 L831 590 L825 594 L819 597 L813 600 L808 601 L804 603 L799 604 L796 605 L794 606 L792 606 L791 606 L790 606 L789 606 L788 606 L788 605 L788 604 L787 602 L786 600 L786 598 L785 595 L784 592 L782 586 L781 580 L780 575 L779 568 L777 560 L776 550 L775 542 L773 533 L772 523 L771 514 L770 505 L768 496 L766 480 L766 472 L766 464 L766 456 L766 447 L766 441 L766 434 L767 427 L769 420 L770 412 L771 407 L772 403 L774 398 L777 394 L780 389 L783 384 L790 375 L794 371 L799 368 L803 365 L810 361 L815 358 L821 356 L827 354 L833 352 L841 350 L848 348 L854 347 L859 346 L865 345 L870 345 L876 345 L881 345 L887 345 L892 345 L896 346 L902 348 L907 350 L911 352 L915 354 L922 358 L924 360 L926 363 L928 365 L929 367 L930 371 L931 374 L931 379 L931 383 L931 388 L931 394 L931 402 L931 403 L929 406 L927 413 L924 421 L921 429 L918 436 L914 445 L909 453 L905 463 L900 471 L894 480 L888 489 L881 499 L875 509 L868 517 L861 527 L855 536 L851 541 L847 545 L844 550 L839 556 L833 562 L828 568 L823 574 L820 578 L816 583 L812 586 L809 590 L806 592 L804 595 L802 596 L801 597 L800 598 L799 598 L798 598 L798 596 L796 593 L795 588 L793 584 L791 578 L789 572 L787 564 L785 557 L783 549 L781 540 L779 533 L778 527 L776 518 L774 510 L772 502 L770 493 L769 485 L767 470 L766 462 L765 454 L764 446 L763 439 L762 432 L761 425 L760 418 L759 411 L759 405 L759 398 L759 392 L759 386 L759 373 L760 368 L762 362 L764 357 L764 356 L765 354 L767 352 L769 350 L773 346 L777 343 L781 340 L786 337 L791 334 L795 332 L800 331 L805 329 L810 328 L814 327 L824 326 L828 326 L833 326 L838 326 L842 326 L847 326 L852 326 L855 327 L859 328 L862 330 L866 332 L868 334 L870 336 L873 339 L875 341 L876 343 L878 345 L878 346 L878 347 L878 348 L878 350 L879 353 L879 357 L879 361 L879 372 L878 379 L876 386 L874 393 L872 400 L869 407 L866 415 L864 422 L859 430 L855 439 L851 446 L846 454 L840 463 L835 473 L828 483 L823 491 L816 500 L811 506 L811 507 L804 514 L796 520 L787 528 L779 535 L769 543 L759 551 L749 557 L739 563 L729 568 L719 574 L710 578 L701 582 L691 586 L690 586 L687 586 L682 586 L678 586 L674 586 L670 586 L667 586 L664 586 L662 586 L660 586 L658 585 L657 584 L655 582 L655 581 L654 579 L654 578 L654 577 L654 575 L654 574 L654 572 L654 567 L655 560 L657 552 L657 550 L658 544 L660 537 L662 529 L664 521 L666 513 L668 504 L671 496 L674 488 L676 478 L677 471 L679 463 L681 456 L683 448 L685 440 L687 435 L688 428 L690 421 L692 415 L694 408 L696 402 L697 397 L701 387 L702 383 L704 380 L704 377 L706 374 L707 371 L709 369 L710 368 L711 365 L713 364 L714 362 L715 361 L716 361 L717 360 L719 360 L722 359 L724 358 L726 358 L729 358 L732 358 L735 358 L739 358 L743 358 L748 359 L755 363 L759 364 L763 367 L768 370 L773 373 L777 377 L782 379 L786 383 L789 387 L793 390 L797 395 L801 400 L803 404 L805 409 L807 415 L809 421 L810 426 L811 432 L812 437 L813 444 L814 450 L814 463 L814 470 L814 477 L814 485 L814 492 L814 495 L813 500 L811 506 L809 513 L806 518 L803 526 L800 533 L797 540 L794 546 L790 553 L786 560 L782 566 L777 572 L771 579 L761 591 L755 597 L749 603 L744 608 L732 618 L724 624 L718 628 L704 636 L703 636 L702 636 L698 637 L692 638 L685 639 L680 640 L673 641 L668 641 L661 641 L655 641 L654 641 L653 641 L651 640 L648 638 L644 637 L640 634 L635 630 L632 628 L630 626 L628 623 L625 620 L623 616 L621 613 L618 609 L615 600 L613 596 L611 591 L608 587 L606 581 L605 576 L603 572 L602 571 L602 570 L601 567 L600 563 L598 558 L597 554 L596 549 L596 545 L595 541 L594 535 L594 532 L594 530 L594 527 L594 525 L593 522 L593 518 L593 514 L593 511 L593 507 L595 502 L596 498 L599 493 L601 490 L603 486 L606 482 L609 478 L611 475 L615 471 L619 468 L623 465 L628 462 L633 459 L637 457 L643 455 L648 453 L652 451 L661 448 L666 446 L669 445 L672 444 L676 443 L681 442 L685 442 L688 442 L691 442 L694 442 L697 442 L699 442 L701 442 L704 442 L706 443 L708 443 L709 444 L710 444 L712 446 L713 447 L714 450 L715 453 L716 456 L717 458 L718 461 L718 465 L718 469 L718 474 L718 480 L719 487 L719 494 L718 501 L718 502 L717 504 L716 508 L714 513 L711 521 L708 526 L705 534 L701 542 L697 549 L693 558 L687 568 L682 575 L677 584 L671 593 L665 602 L658 611 L652 619 L645 628 L639 636 L632 644 L624 654 L612 670 L604 679 L596 687 L590 694 L584 700 L576 707 L569 712 L563 717 L557 722 L549 727 L543 731 L536 734 L529 739 L522 742 L515 745 L506 747 L499 749 L492 751 L486 752 L479 753 L472 753 L465 753 L452 753 L446 752 L440 750 L437 748 L432 746 L428 745 L424 742 L421 739 L419 737 L415 733 L412 730 L410 725 L408 721 L406 716 L405 712 L404 708 L402 702 L401 696 L400 691 L400 685 L400 678 L400 672 L400 658 L400 650 L400 643 L402 638 L404 632 L406 624 L410 615 L413 608 L416 601 L419 594 L422 587 L426 581 L430 573 L434 566 L438 560 L442 554 L450 542 L454 536 L458 531 L461 528 L461 527 L461 526 L463 524 L466 521 L468 519 L472 515 L475 513 L479 510 L483 507 L487 506 L491 504 L496 502 L499 500 L504 499 L508 497 L512 496 L515 496 L518 495 L524 495 L527 495 L528 495 L529 495 L530 495 L533 495 L535 496 L537 497 L539 499 L540 500 L541 501 L541 502 L542 504 L543 506 L543 509 L543 512 L543 515 L543 519 L543 522 L543 523 L543 525 L541 529 L539 533 L537 536 L537 537 L535 539 L533 542 L529 547 L525 553 L521 558 L517 563 L513 568 L507 574 L502 579 L496 585 L490 590 L484 595 L477 600 L471 604 L463 608 L456 613 L449 616 L446 617 L440 619 L434 621 L427 623 L421 625 L415 626 L403 628 L398 629 L394 629 L389 629 L385 629 L382 629 L379 629 L377 628 L375 628 L373 626 L371 625 L370 623 L368 622 L367 620 L365 617 L365 614 L364 610 L362 605 L361 601 L360 595 L359 591 L358 585 L357 579 L355 565 L354 558 L353 551 L352 544 L351 537 L350 530 L350 522 L350 514 L350 508 L350 501 L350 494 L350 486 L350 479 L350 475 L350 470 L350 462 L351 456 L352 451 L354 444 L356 438 L359 433 L362 427 L368 415 L369 414 L371 411 L375 408 L379 403 L382 399 L387 394 L392 391 L397 387 L402 383 L406 379 L411 376 L416 373 L420 371 L426 368 L431 366 L435 364 L439 362 L442 361 L445 360 L448 359 L450 358 L455 358 L456 358 L457 358 L458 358 L459 358 L460 358 L461 359 L461 360 L461 361 L461 362 L462 364 L464 367 L464 370 L466 374 L468 380 L469 386 L471 391 L473 397 L475 404 L477 412 L479 421 L481 428 L483 436 L487 454 L489 461 L491 469 L491 470 L492 473 L493 480 L495 487 L497 495 L498 503 L498 504 L498 507 L498 511 L498 518 L498 525 L498 530 L498 535 L498 542 L498 548 L498 553 L498 559 L496 564 L494 569 L491 575 L489 579 L486 583 L480 590 L476 594 L473 596 L468 598 L464 601 L459 603 L455 604 L449 605 L443 606 L438 607 L432 607 L426 607 L420 607 L416 607 L411 607 L405 607 L399 606 L394 604 L385 601 L381 598 L378 596 L374 594 L371 591 L369 589 L366 588 L362 583 L359 581 L358 578 L356 576 L355 574 L353 572 L352 569 L351 567 L350 565 L350 563 L348 561 L347 558 L347 556 L346 555 L345 553 L345 551 L345 550 L344 549 L344 548 L344 547 L344 546 L344 547 L345 549 L347 550 L352 555 L354 557 L357 560 L361 563 L366 567 L371 571 L377 575 L387 583 L393 588 L400 593 L407 598 L413 603 L419 608 L427 615 L434 620 L441 625 L449 632 L456 637 L473 650 L482 655 L492 662 L501 668 L511 675 L520 682 L529 688 L552 701 L560 708 L570 715 L581 722 L593 729 L618 743 L634 752 L649 760 L662 767 L678 776 L688 782 L700 787 L704 790 L714 794 L727 800 L741 806 L758 812 L775 819 L792 824 L824 833 L844 838 L862 842 L878 846 L894 850 L908 854 L922 858 L935 860 L961 864 L974 866 L986 867 L999 868 L1000 868 L1005 868 L1016 868 L1027 868 L1037 868 L1049 868 L1061 868 L1073 868 L1085 868 L1097 868 L1121 867 L1132 867 L1138 866 L1139 866 L1143 865 L1152 864 L1161 863 L1169 862 L1175 862 L1177 861 L1183 861 L1191 861 L1201 861 L1209 860 L1218 859 L1228 858 L1247 855 L1256 854 L1266 852 L1275 851 L1285 850 L1295 848 L1306 846 L1317 844 L1327 843 L1348 840 L1360 838 L1371 837 L1383 834 L1395 833 L1406 832 L1418 831 L1431 830 L1443 829 L1455 829 L1482 829 L1495 829 L1507 829 L1520 829 L1532 829 L1545 829 L1557 829 L1570 829 L1584 829 L1592 829 L1594 829 L1600 829 L1632 830 L1655 831 L1666 832 L1676 833 L1687 834 L1697 835 L1757 836 L1762 836 L1765 836 L1768 836 L1771 836 L1777 836 L1780 835 L1782 835 L1787 834 L1789 832 L1792 831 L1795 830 L1798 829 L1807 826 L1810 825 L1814 824 L1818 822 L1823 820 L1826 818 L1834 815 L1837 813 L1839 812 L1844 810 L1847 809 L1850 807 L1854 805 L1863 802 L1867 800 L1870 798 L1875 796 L1879 795 L1887 791 L1892 789 L1895 788 L1898 786 L1901 785 L1904 785 L1906 783 L1909 781 L1909 780 L1910 780 L1911 779 L1911 778 L1911 777 L1912 776 L1912 775 L1912 774 L1912 773 L1912 772 L1912 771 L1913 770 L1913 769 L1913 768 L1914 768 L1914 767 L1915 767 L1916 766 L1917 765 L1918 765 L1923 763 L1925 762 L1927 761 L1930 760 L1932 759 L1935 759 L1938 758 L1942 757 L1945 757 L1948 756 L1954 756 L1957 755 L1959 755 L1961 755 L1962 755 L1964 754 L1965 754 L1965 753 L1964 753 L1963 753 L1962 753 L1960 753 L1959 753 L1958 753 L1957 753 L1956 753 L1955 753 L1954 754 L1953 755 L1952 756 L1951 757 L1950 758 L1950 759 L1949 759 L1949 760 L1948 761 L1947 761 L1946 762 L1945 762 L1944 762 L1943 762 L1942 762 L1941 762 L1939 763 L1938 763 L1937 763 L1935 763 L1934 763 L1932 763 L1930 763 L1929 763 L1928 763 L1926 763 L1925 763 L1924 763 L1923 763 L1921 763 L1919 762 L1917 761 L1915 761 L1912 760 L1911 758 L1909 757 L1903 754 L1900 751 L1898 750 L1894 747 L1891 745 L1888 742 L1884 739 L1879 735 L1874 731 L1869 727 L1860 717 L1855 712 L1850 706 L1843 700 L1837 692 L1831 685 L1824 678 L1818 670 L1810 661 L1804 651 L1797 642 L1783 622 L1774 612 L1767 604 L1767 603 L1764 600 L1760 592 L1755 582 L1749 573 L1745 560 L1740 548 L1736 537 L1731 527 L1728 518 L1728 517 L1727 513 L1727 507 L1725 498 L1724 490 L1724 483 L1725 476 L1728 468 L1730 461 L1733 453 L1740 436 L1758 414 L1765 405 L1772 397 L1781 390 L1790 383 L1801 377 L1823 364 L1834 358 L1844 352 L1845 352 L1849 350 L1860 346 L1872 342 L1903 332 L1920 327 L1938 323 L1957 319 L1975 317 L1993 313 L2008 310 L2042 305 L2060 303 L2077 302 L2091 301 L2108 301 L2241 313 L2259 317 L2278 323 L2295 328 L2312 334 L2329 341 L2367 356 L2385 364 L2402 371 L2504 438 L2513 447 L2530 465 L2538 473 L2544 483 L2550 493 L2554 502 L2558 510 L2562 519 L2564 526 L2564 528 L2564 532 L2564 538 L2563 546 L2562 555 L2559 565 L2556 573 L2550 594 L2547 604 L2543 612 L2539 620 L2535 630 L2529 640 L2524 649 L2520 656 L2515 665 L2511 669 L2506 675 L2500 682 L2497 686 L2493 689 L2488 694 L2482 699 L2476 704 L2470 709 L2463 715 L2455 719 L2448 723 L2441 727 L2432 730 L2417 735 L2410 737 L2399 739 L2391 741 L2383 742 L2375 743 L2365 743 L2359 743 L2352 743 L2344 743 L2334 743 L2326 743 L2317 743 L2307 740 L2298 738 L2288 735 L2279 733 L2269 730 L2248 722 L2239 718 L2238 717 L2232 714 L2222 707 L2143 642 L2129 624 L2123 617 L2115 606 L2108 596 L2108 595 L2106 591 L2103 584 L2100 576 L2097 566 L2094 555 L2090 543 L2088 532 L2086 520 L2085 508 L2084 497 L2084 485 L2084 473 L2084 461 L2085 449 L2086 436 L2092 410 L2095 397 L2143 307 L2152 297 L2161 287 L2170 276 L2179 266 L2189 256 L2199 246 L2209 237 L2232 220 L2242 214 L2248 209 L2258 204 L2270 197 L2285 191 L2302 184 L2319 179 L2336 174 L2355 169 L2373 165 L2394 160 L2412 158 L2433 155 L2456 152 L2481 151 L2506 149 L2553 149 L2565 149 L2572 149 L2589 151 L2612 152 L2636 152 L2665 155 L2693 158 L2716 161 L2739 164 L2766 169 L2789 172 L2809 174 L2833 179 L2855 185 L2876 189 L2879 194 L2879 200 L2879 205 L2879 208 L2879 212 L2879 218 L2879 224 L2879 231 L2879 237 L2879 243 L2879 251 L2879 260 L2879 267 L2879 274 L2879 281 L2879 287 L2879 294 L2879 302 L2879 317 L2879 318 L2879 321 L2878 326 L2876 335 L2869 353 L2861 372 L2856 383 L2851 394 L2846 405 L2841 416 L2835 427 L2828 440 L2767 538 L2760 547 L2748 565 L2743 572 L2738 581 L2732 588 L2726 596 L2722 601 L2718 606 L2713 612 L2709 617 L2705 622 L2701 628 L2694 636 L2690 640 L2687 643 L2684 646 L2682 648 L2679 651 L2676 653 L2674 654 L2671 655 L2666 657 L2663 657 L2660 657 L2657 657 L2654 657 L2650 657 L2640 657 L2635 657 L2628 657 L2621 656 L2611 654 L2600 651 L2591 648 L2580 643 L2569 639 L2558 635 L2545 629 L2533 624 L2521 619 L2520 618 L2517 617 L2509 614 L2499 609 L2489 605 L2480 600 L2470 594 L2461 589 L2451 583 L2443 579 L2434 574 L2428 569 L2422 563 L2416 559 L2410 555 L2404 550 L2399 545 L2394 542 L2389 538 L2389 537 L2389 536 L2389 535 L2387 533 L2386 531 L2384 529 L2383 526 L2383 523 L2382 520 L2381 517 L2380 513 L2380 510 L2380 507 L2380 503 L2380 502 L2380 500 L2380 497 L2381 495 L2382 493 L2382 491 L2383 489 L2384 486 L2385 485 L2386 484 L2387 483 L2388 481 L2389 481 L2389 480 L2390 480 L2391 479 L2392 479 L2393 479 L2393 478 L2394 478 L2394 479 L2394 480 L2394 481 L2394 482 L2394 484 L2393 486 L2392 489 L2391 492 L2391 493 L2391 494 L2390 496 L2389 499 L2389 502 L2388 505 L2386 509 L2385 514 L2384 518 L2383 524 L2381 529 L2380 534 L2379 538 L2378 544 L2376 548 L2375 555 L2375 557 L2374 560 L2372 564 L2371 570 L2369 574 L2367 580 L2365 586 L2364 592 L2362 599 L2360 604 L2358 610 L2353 622 L2350 628 L2347 634 L2343 640 L2339 646 L2335 652 L2330 658 L2325 664 L2319 670 L2316 675 L2312 679 L2310 681 L2301 688 L2299 691 L2293 696 L2287 700 L2280 704 L2272 708 L2265 712 L2258 716 L2249 721 L2240 725 L2230 728 L2220 732 L2210 736 L2189 742 L2178 746 L2074 775 L2059 778 L2042 783 L2025 789 L2010 791 L1994 795 L1977 800 L1961 803 L1945 807 L1929 811 L1908 815 L1872 822 L1853 826 L1835 828 L1818 831 L1800 833 L1785 834 L1770 837 L1755 839 L1739 841 L1724 844 L1707 845 L1690 846 L1675 847 L1658 849 L1627 849 L1613 849 L1597 849 L1537 849 L1283 811 L1266 806 L1234 797 L1214 792 L1196 788 L1174 782 L1153 778 L1131 772 L1112 767 L1091 761 L1071 755 L1052 750 L1020 741 L1001 736 L984 731 L968 727 L951 722 L932 716 L916 711 L901 707 L888 703 L874 699 L862 695 L850 691 L828 684 L819 681 L811 678 L802 675 L796 671 L791 668 L783 665 L776 662 L769 659 L763 657 L750 652 L745 649 L739 647 L734 645 L730 644 L727 643 L726 643 L724 642 L723 642 L723 643 L723 644 L723 645 L723 646 L723 647 L723 648 L723 649 L723 650 L724 650 L724 651 L725 651 L725 652 L725 653 L726 654 L726 655 L726 656 L727 657 L727 658 L727 659 L727 660 L727 661 L728 661 L728 662 L728 663 L729 664 L729 665 L729 666 L730 667 L730 668 L731 668 L731 669 L732 670 L732 672 L733 673 L734 674 L734 675 L734 676 L735 676 L735 678 L735 680 L736 680 L737 681 L737 682 L738 684 L739 685 L740 687 L741 688 L741 690 L743 691 L743 692 L744 692 L744 693 L745 693 L745 694 L746 695 L747 696 L747 697 L748 698 L748 699 L749 700 L750 701 L750 702 L750 703 L750 704 L751 704 L752 705 L753 707 L754 707 L754 708 L755 709 L756 711 L757 712 L758 713 L760 715 L761 716 L763 718 L766 721 L768 723 L769 724 L771 726 L773 726 L773 727 L774 728 L775 728 L777 730 L780 731 L783 733 L786 734 L789 736 L793 738 L799 741 L804 743 L807 745 L810 746 L815 748 L818 750 L823 750 L827 752 L831 753 L835 754 L839 756 L843 757 L848 757 L852 759 L857 760 L860 762 L864 763 L873 764 L877 766 L883 767 L886 767 L887 767 L889 767 L892 768 L896 769 L900 769 L904 769 L908 769 L914 769 L919 769 L923 769 L927 769 L932 769 L937 769 L941 769 L950 768 L954 767 L959 765 L963 764 L968 762 L972 760 L977 758 L980 756 L985 755 L989 753 L994 751 L1003 747 L1007 745 L1012 742 L1015 740 L1020 737 L1026 734 L1030 732 L1035 729 L1040 725 L1043 722 L1047 720 L1051 716 L1054 714 L1058 710 L1061 706 L1068 700 L1071 697 L1073 694 L1076 691 L1078 689 L1080 686 L1083 683 L1086 679 L1087 677 L1089 675 L1093 670 L1096 668 L1098 666 L1100 664 L1102 662 L1106 658 L1108 656 L1112 652 L1117 648 L1119 647 L1120 646 L1121 645 L1124 643 L1128 639 L1131 635 L1136 631 L1141 629 L1146 625 L1150 622 L1154 619 L1159 617 L1162 615 L1165 613 L1169 611 L1171 609 L1172 609 L1173 609 L1175 608 L1176 607 L1178 606 L1180 606 L1183 606 L1185 605 L1187 604 L1189 604 L1191 603 L1194 602 L1196 601 L1199 601 L1204 601 L1207 600 L1211 599 L1219 598 L1220 598 L1222 597 L1228 597 L1235 596 L1243 593 L1253 592 L1262 591 L1284 588 L1295 586 L1307 584 L1320 583 L1333 582 L1347 579 L1359 578 L1372 576 L1385 575 L1399 573 L1408 572 L1409 571 L1415 570 L1427 569 L1441 567 L1454 565 L1469 562 L1484 560 L1500 558 L1514 556 L1531 554 L1562 549 L1684 543 L1715 543 L1727 543 L1741 543 L1756 543 L1770 543 L1785 543 L1799 543 L1816 546 L1846 549 L1861 552 L1877 554 L1890 556 L1903 560 L1917 562 L1930 565 L1955 572 L1969 576 L1981 581 L1993 585 L2007 589 L2019 593 L2031 599 L2039 602 L2059 612 L2071 619 L2093 631 L2104 639 L2114 645 L2123 652 L2131 658 L2140 666 L2155 679 L2162 685 L2169 691 L2175 699 L2180 706 L2185 713 L2191 720 L2207 764 L2209 769 L2215 805 L2216 811 L2217 818 L2218 826 L2219 833 L2221 845 L2222 851 L2223 857 L2224 862 L2225 868 L2226 873 L2227 879 L2228 883 L2228 888 L2230 896 L2231 899 L2232 904 L2233 907 L2233 910 L2234 913 L2235 915 L2236 917 L2236 920 L2237 922 L2238 923 L2238 925 L2240 928 L2240 929 L2240 930 L2240 931 L2240 932 L2239 933 L2238 933 L2237 933 L2236 933 L2235 933 L2234 933 L2231 933 L2228 934 L2225 934 L2222 934 L2218 934 L2215 934 L2212 934 L2207 934 L2202 934 L2197 934 L2190 934 L2183 934 L2169 932 L2160 931 L2153 929 L2143 928 L2132 927 L2123 925 L2115 924 L2105 923 L2097 922 L2089 921 L2081 920 L2073 919 L2064 918 L2047 915 L2039 913 L2032 913 L2025 913 L2018 913 L2010 913 L2004 913 L1998 913 L1991 913 L1986 913 L1981 913 L1975 913 L1968 913 L1958 913 L1953 912 L1948 912 L1942 912 L1938 911 L1933 911 L1928 910 L1924 909 L1920 909 L1915 908 L1911 907 L1907 907 L1903 907 L1900 907 L1897 907 L1894 907 L1890 907 L1887 907 L1885 907 L1884 907 L1883 907 L1882 907 L1881 907 L1880 907 L1879 907 L1878 907 L1877 907 L1876 907 L1875 907 L1874 907 L1873 907 L1873 908" style="stroke:black;stroke-width:1;fill:none;"></path>
</svg>
