<?xml version="1.0" encoding="UTF-8"?>
<!DOCTYPE svg PUBLIC "-//W3C//DTD SVG 1.0//EN" 
         "http://www.w3.org/TR/2001/REC-SVG-20010904/DTD/svg10.dtd">
<svg xmlns="http://www.w3.org/2000/svg" width="2880" height="1024">
  <path d="M2557 365 L1925 930 L1925 928 L1926 925 L1927 919 L1929 913 L1930 906 L1932 898 L1933 888 L1935 876 L1936 864 L1938 854 L1939 843 L1939 831 L1939 819 L1939 807 L1939 799 L1939 798 L1939 797 L1939 789 L1939 780 L1939 768 L1939 756 L1938 744 L1935 731 L1933 717 L1920 637 L1917 625 L1915 613 L1914 600 L1912 587 L1911 575 L1909 563 L1906 550 L1905 538 L1904 526 L1903 514 L1902 502 L1901 467 L1901 457 L1901 446 L1901 435 L1901 423 L1901 413 L1901 402 L1901 391 L1901 380 L1901 369 L1901 358 L1901 348 L1901 337 L1901 326 L1901 317 L1901 306 L1902 297 L1903 287 L1904 278 L1905 269 L1906 260 L1907 252 L1908 247 L1908 246 L1908 245 L1908 244 L1908 242 L1908 240 L1908 238 L1909 238 L1909 239 L1909 241 L1909 243 L1909 246 L1909 249 L1910 249 L1910 250 L1910 252 L1912 255 L1912 260 L1914 265 L1916 271 L1918 278 L1920 285 L1922 292 L1924 300 L1926 310 L1930 318 L1932 328 L1935 337 L1938 347 L1940 358 L1944 369 L1947 380 L1949 390 L1952 401 L1956 412 L1959 425 L1961 437 L1965 450 L1968 462 L1971 476 L1976 490 L1981 506 L1985 522 L1990 539 L1993 555 L1996 563 L1998 574 L2001 588 L2006 601 L2011 618 L2016 635 L2020 651 L2025 670 L2030 686 L2035 703 L2040 720 L2047 735 L2053 749 L2058 760 L2064 773 L2070 785 L2074 796 L2077 803 L2081 812 L2086 822 L2089 831 L2092 841 L2096 851 L2101 858 L2105 864 L2109 870 L2110 873 L2110 874 L2111 874 L2112 876 L2114 878 L2116 879 L2117 881 L2119 882 L2120 882 L2121 882 L2122 881 L2123 881 L2123 880 L2124 880 L2124 879 L2126 876 L2127 874 L2129 872 L2130 869 L2132 864 L2134 860 L2136 854 L2139 849 L2142 843 L2145 836 L2147 829 L2150 821 L2152 811 L2155 801 L2156 799 L2158 794 L2160 785 L2163 776 L2165 765 L2168 754 L2172 743 L2194 641 L2196 627 L2198 615 L2201 603 L2207 550 L2208 541 L2209 529 L2212 517 L2213 505 L2215 491 L2217 478 L2219 466 L2223 452 L2226 440 L2229 428 L2233 417 L2235 406 L2238 395 L2241 386 L2245 376 L2247 366 L2250 358 L2253 350 L2256 344 L2259 336 L2261 329 L2263 322 L2266 317 L2269 311 L2271 305 L2273 300 L2273 299 L2273 298 L2274 295 L2276 292 L2277 289 L2279 287 L2280 285 L2283 283 L2284 282 L2285 281 L2287 279 L2289 278 L2290 278 L2291 277 L2291 276 L2292 276 L2294 276 L2295 275 L2296 275 L2297 275 L2298 275 L2299 275 L2300 275 L2302 275 L2304 276 L2308 278 L2310 281 L2313 284 L2315 288 L2315 289 L2317 292 L2321 298 L2325 305 L2329 312 L2332 322 L2334 328 L2335 331 L2337 338 L2340 347 L2343 360 L2347 373 L2349 385 L2351 399 L2353 412 L2356 424 L2358 438 L2360 451 L2361 464 L2363 478 L2364 489 L2366 502 L2367 515 L2368 527 L2369 539 L2371 553 L2373 566 L2374 577 L2375 586 L2377 597 L2378 608 L2379 618 L2380 629 L2380 638 L2380 648 L2380 656 L2380 664 L2380 672 L2380 679 L2380 684 L2380 689 L2380 694 L2380 697 L2380 700 L2380 702 L2379 704 L2379 706 L2379 704 L2379 701 L2378 698 L2377 694 L2376 688 L2375 682 L2374 673 L2373 667 L2373 662 L2373 661 L2372 655 L2371 647 L2370 638 L2369 636 L2368 633 L2366 626 L2364 617 L2361 605 L2357 592 L2354 581 L2351 570 L2348 560 L2344 547 L2342 537 L2340 526 L2337 515 L2334 504 L2332 494 L2330 485 L2329 475 L2327 467 L2326 459 L2325 452 L2325 445 L2325 439 L2325 432 L2325 424 L2325 416 L2325 409 L2326 405 L2327 399 L2328 393 L2330 388 L2332 383 L2334 378 L2337 374 L2340 369 L2343 364 L2348 357 L2353 351 L2358 345 L2363 340 L2368 335 L2374 330 L2381 326 L2389 320 L2398 316 L2407 313 L2417 309 L2429 305 L2440 302 L2451 299 L2462 295 L2474 292 L2486 289 L2487 289 L2488 289 L2494 288 L2505 287 L2515 287 L2529 287 L2541 287 L2554 286 L2569 285 L2583 285 L2597 287 L2607 289 L2608 289 L2612 291 L2620 295 L2630 299 L2641 305 L2652 310 L2662 316 L2672 322 L2682 329 L2692 337 L2701 344 L2705 349 L2712 355 L2717 363 L2722 370 L2726 377 L2731 386 L2735 396 L2737 404 L2739 414 L2741 423 L2742 433 L2743 441 L2744 450 L2744 460 L2743 469 L2741 480 L2739 486 L2737 490 L2733 497 L2728 506 L2721 516 L2717 523 L2711 531 L2702 539 L2692 548 L2680 558 L2666 568 L2653 576 L2637 584 L2619 592 L2602 601 L2582 608 L2563 613 L2545 616 L2533 618 L2518 619 L2500 620 L2480 622 L2458 622 L2439 622 L2419 621 L2396 618 L2373 615 L2351 610 L2327 604 L2303 598 L2283 590 L2263 582 L2244 572 L2226 562 L2210 551 L2193 540 L2179 528 L2166 517 L2156 507 L2146 495 L2136 484 L2128 470 L2120 457 L2114 446 L2108 432 L2103 417 L2098 403 L2095 390 L2086 271 L2087 257 L2090 244 L2095 232 L2097 225 L2097 224 L2098 222 L2102 217 L2109 209 L2118 201 L2126 195 L2135 188 L2146 183 L2159 177 L2173 171 L2189 166 L2206 161 L2221 159 L2223 159 L2227 159 L2240 159 L2258 159 L2280 159 L2305 159 L2328 162 L2351 165 L2375 169 L2395 172 L2417 176 L2441 182 L2462 188 L2478 192 L2479 192 L2484 194 L2493 199 L2505 203 L2517 210 L2528 217 L2540 223 L2550 231 L2556 236 L2563 243 L2569 249 L2577 258 L2583 266 L2589 276 L2594 285 L2598 294 L2601 304 L2603 315 L2605 324 L2606 335 L2607 347 L2607 358 L2607 370 L2606 382 L2604 394 L2600 406 L2597 418 L2594 426 L2589 432 L2582 442 L2571 454 L2562 464 L2553 474 L2541 484 L2524 497 L2505 512 L2486 524 L2467 535 L2449 543 L2427 553 L2402 562 L2379 569 L2357 577 L2333 583 L2309 587 L2288 592 L2268 594 L2245 596 L2223 596 L2204 596 L2182 596 L2162 595 L2142 593 L2124 590 L2103 586 L2084 582 L2071 578 L1991 522 L1983 511 L1977 501 L1970 490 L1964 479 L1960 468 L1957 455 L1954 443 L1952 431 L1950 419 L1949 406 L1949 394 L1949 380 L1950 367 L1952 355 L1955 342 L1958 328 L1962 316 L1966 304 L1970 293 L1976 281 L1981 272 L1988 263 L1996 255 L2005 246 L2015 239 L2025 232 L2035 227 L2046 221 L2057 215 L2064 212 L2065 212 L2068 212 L2076 212 L2088 212 L2101 212 L2115 212 L2130 213 L2145 215 L2160 217 L2176 221 L2192 225 L2204 226 L2214 228 L2225 231 L2236 237 L2247 242 L2258 249 L2270 256 L2281 262 L2291 270 L2299 278 L2308 285 L2314 292 L2320 299 L2326 308 L2332 316 L2337 325 L2340 331 L2343 338 L2345 347 L2346 357 L2347 366 L2347 376 L2347 386 L2346 397 L2344 408 L2342 414 L2340 419 L2337 429 L2332 441 L2325 454 L2318 467 L2309 483 L2294 503 L2279 522 L2262 542 L2255 555 L2253 557 L2248 561 L2234 573 L2212 590 L2184 609 L2161 622 L2129 637 L2115 643 L2114 644 L2105 647 L2079 657 L2042 672 L1659 760 L1606 768 L1553 776 L1501 780 L1452 782 L1403 782 L1349 782 L1298 782 L1249 782 L1224 782 L1182 777 L1138 772 L1090 764 L1037 754 L986 744 L935 731 L884 717 L835 703 L787 690 L749 682 L725 675 L689 662 L653 648 L616 631 L580 615 L543 594 L511 577 L484 560 L452 540 L422 521 L395 504 L368 486 L341 467 L316 449 L293 431 L273 414 L261 404 L251 394 L239 382 L225 367 L210 352 L198 337 L186 323 L176 308 L168 297 L160 286 L153 275 L148 264 L142 254 L139 244 L137 236 L136 228 L136 222 L136 216 L136 209 L137 203 L140 197 L144 192 L149 186 L154 180 L160 175 L168 170 L175 166 L183 161 L190 158 L199 155 L210 152 L221 149 L233 145 L246 143 L260 142 L274 141 L289 141 L305 141 L321 141 L336 141 L353 141 L370 144 L391 146 L412 151 L431 155 L452 159 L473 165 L495 170 L514 176 L525 180 L526 180 L528 181 L535 185 L546 189 L557 196 L570 203 L584 211 L595 221 L606 230 L614 238 L623 247 L631 256 L637 265 L643 275 L647 284 L650 294 L652 304 L654 314 L655 324 L655 334 L653 346 L650 357 L646 370 L640 382 L633 395 L624 408 L614 422 L604 436 L594 447 L582 459 L564 473 L545 488 L520 506 L495 523 L466 538 L437 553 L406 567 L373 581 L337 594 L305 602 L274 613 L250 619 L248 619 L233 621 L205 624 L169 627 L130 629 L89 631 L62 631 L26 631 L0 631 L0 630 L0 627 L0 623 L0 618 L0 611 L0 604 L0 597 L0 589 L0 581 L0 574 L0 565 L0 555 L0 545 L0 535 L0 526 L0 517 L0 507 L0 497 L0 487 L0 477 L0 466 L0 454 L0 442 L0 429 L0 416 L0 403 L0 391 L0 379 L1 365 L2 353 L4 341 L7 329 L12 318 L16 310 L20 301 L27 292 L34 282 L42 274 L51 265 L62 256 L74 248 L87 239 L100 232 L115 223 L131 215 L146 208 L163 203 L176 199 L194 196 L212 192 L233 189 L253 186 L276 183 L296 182 L319 181 L338 181 L360 181 L379 181 L398 181 L415 181 L431 183 L446 185 L464 188 L480 192 L493 195 L507 198 L520 202 L533 206 L545 212 L556 216 L567 221 L577 226 L585 232 L594 238 L602 243 L610 250 L616 255 L624 261 L629 266 L634 271 L638 278 L642 287 L645 294 L648 302 L651 311 L653 319 L654 326 L654 331 L654 338 L654 345 L653 353 L651 362 L648 371 L644 380 L640 388 L634 398 L628 407 L621 415 L615 424 L607 433 L598 440 L589 448 L580 455 L568 461 L557 468 L546 474 L535 479 L523 484 L509 488 L497 492 L483 494 L470 496 L457 497 L443 498 L430 498 L417 498 L402 496 L389 493 L376 489 L362 486 L347 481 L333 476 L318 470 L302 462 L290 457 L277 450 L266 443 L256 437 L248 430 L240 423 L233 415 L226 408 L221 400 L216 393 L210 386 L206 376 L202 366 L199 358 L195 348 L193 338 L191 329 L190 319 L190 310 L190 299 L190 289 L190 278 L190 267 L191 258 L193 248 L195 239 L199 230 L203 222 L208 213 L214 206 L219 199 L226 190 L234 182 L243 175 L253 167 L264 160 L275 155 L286 149 L298 144 L312 139 L326 134 L341 130 L357 124 L373 121 L391 118 L406 116 L424 113 L439 112 L440 112 L446 112 L459 111 L474 111 L490 111 L510 113 L536 116 L564 119 L590 122 L621 127 L650 132 L680 138 L703 142 L730 149 L757 157 L782 163 L803 167 L815 170 L833 175 L852 182 L875 192 L898 201 L923 210 L946 221 L969 232 L990 242 L1011 252 L1029 264 L1051 276 L1069 288 L1086 299 L1100 309 L1116 320 L1128 329 L1140 339 L1152 348 L1162 357 L1171 367 L1180 376 L1187 386 L1194 395 L1200 403 L1206 411 L1206 412 L1206 413 L1207 417 L1208 423 L1209 428 L1209 432 L1209 438 L1209 443 L1208 448 L1206 454 L1204 458 L1202 463 L1199 467 L1195 472 L1191 476 L1188 479 L1184 483 L1181 486 L1177 488 L1174 491 L1170 493 L1167 494 L1165 496 L1164 496 L1163 496 L1162 496 L1161 497 L1160 497 L1160 496 L1160 494 L1160 492 L1161 487 L1163 483 L1166 477 L1169 471 L1172 464 L1177 455 L1182 446 L1182 445 L1184 441 L1190 434 L1195 427 L1202 419 L1209 410 L1216 403 L1224 394 L1233 386 L1242 379 L1252 370 L1262 361 L1273 353 L1284 346 L1297 339 L1308 334 L1320 328 L1335 321 L1349 316 L1366 311 L1382 306 L1401 301 L1418 295 L1434 292 L1452 289 L1473 285 L1496 282 L1517 279 L1540 276 L1563 274 L1583 272 L1603 271 L1625 271 L1644 270 L1664 270 L1680 270 L1697 270 L1712 271 L1727 273 L1740 276 L1753 279 L1765 282 L1776 284 L1787 289 L1798 292 L1807 296 L1816 301 L1822 305 L1828 309 L1834 313 L1839 316 L1844 321 L1849 326 L1852 331 L1856 336 L1859 341 L1861 345 L1863 350 L1864 354 L1864 359 L1864 365 L1864 370 L1864 377 L1862 383 L1860 389 L1858 393 L1858 394 L1857 394 L1856 396 L1852 400 L1845 405 L1838 412 L1829 417 L1819 424 L1810 429 L1801 435 L1790 441 L1779 447 L1772 450 L1771 450 L1767 450 L1761 451 L1757 451 L1751 451 L1747 452 L1743 452 L1740 452 L1736 451 L1732 449 L1729 447 L1725 446 L1723 443 L1721 441 L1718 438 L1715 434 L1713 431 L1710 426 L1707 420 L1704 413 L1701 407 L1699 404 L1697 397 L1695 389 L1693 379 L1690 369 L1688 358 L1686 349 L1685 338 L1684 327 L1682 315 L1682 305 L1682 293 L1682 292 L1682 290 L1683 284 L1685 274 L1688 266 L1692 258 L1696 249 L1700 242 L1704 236 L1708 230 L1713 222 L1719 216 L1726 211 L1733 206 L1741 202 L1752 197 L1762 193 L1772 190 L1783 186 L1795 183 L1806 181 L1817 179 L1827 178 L1838 177 L1850 177 L1862 177 L1874 177 L1885 177 L1896 177 L1906 177 L1911 178 L1919 180 L1928 183 L1939 186 L1948 192 L1960 198 L1969 203 L1979 208 L1989 215 L1998 222 L2003 225 L2009 230 L2015 237 L2021 244 L2028 252 L2034 260 L2041 269 L2047 279 L2053 287 L2058 297 L2062 307 L2067 317 L2069 324 L2071 328 L2072 335 L2074 344 L2075 353 L2076 362 L2077 373 L2078 383 L2078 392 L2078 401 L2078 411 L2077 419 L2075 428 L2072 437 L2068 445 L2064 452 L2061 458 L2058 464 L2054 470 L2050 476 L2050 477 L2049 477 L2047 478 L2044 480 L2041 481 L2038 482 L2032 484 L2028 485 L2024 487 L2021 487 L2018 487 L2016 487 L2015 487 L2013 487 L2012 487 L2011 487 L2011 486 L2011 485 L2012 482 L2014 477 L2015 475 L2015 474 L2016 474 L2016 473 L2017 473 L2019 470 L2025 465 L2030 461 L2036 456 L2043 450 L2051 446 L2060 442 L2070 439 L2080 434 L2091 431 L2102 428 L2114 424 L2126 422 L2138 420 L2150 418 L2164 416 L2176 415 L2189 413 L2201 413 L2214 413 L2227 413 L2239 413 L2251 413 L2263 414 L2274 416 L2284 419 L2292 421 L2298 423 L2300 424 L2303 426 L2306 429 L2310 431 L2313 434 L2317 437 L2319 440 L2321 443 L2323 448 L2323 451 L2324 454 L2325 457 L2325 461 L2325 465 L2325 471 L2325 475 L2324 480 L2322 487 L2319 495 L2316 502 L2312 509 L2307 518 L2302 525 L2302 526 L2300 529 L2298 532 L2296 535 L2292 540 L2284 548 L2277 555 L2267 564 L2256 574 L2246 584 L2236 594 L2226 603 L2216 613 L2206 622 L2194 632 L2184 641 L2173 650 L2163 659 L2154 668 L2153 668 L2149 671 L2141 676 L2134 682 L2127 687 L2117 692 L2108 698 L2101 702 L2095 706 L2088 710 L2057 721 L2054 722 L2051 722 L2047 722 L2043 722 L2038 722 L2034 722 L2030 722 L2026 722 L2022 721 L2018 719 L2015 717 L2011 716 L2008 714 L2005 711 L2001 709 L1998 706 L1995 704 L1992 701 L1988 699 L1986 696 L1982 692 L1980 688 L1977 685 L1974 681 L1972 676 L1970 673 L1968 670 L1967 665 L1965 661 L1964 658 L1963 655 L1962 652 L1962 649 L1962 646 L1962 643 L1962 641 L1962 639 L1964 638 L1965 636 L1966 635 L1967 634 L1968 634 L1969 633 L1970 632 L1972 632 L1973 631 L1975 631 L1978 631 L1981 631 L1984 631 L1987 631 L1990 631 L1994 631 L1998 631 L2002 631 L2008 632 L2013 634 L2018 635 L2025 637 L2031 639 L2038 642 L2039 642 L2042 643 L2047 646 L2051 649 L2057 653 L2063 657 L2071 662 L2077 667 L2083 672 L2089 678 L2095 684 L2102 690 L2108 696 L2114 703 L2119 711 L2125 719 L2130 727 L2140 754 L2142 761 L2147 792 L2148 798 L2149 805 L2149 806 L2149 808 L2149 811 L2149 813 L2148 816 L2148 819 L2147 823 L2147 826 L2146 830 L2145 832 L2144 834 L2143 836 L2142 838 L2141 840 L2140 840 L2140 841 L2139 842 L2138 842 L2137 842 L2136 843 L2135 843 L2134 843" style="stroke:black;stroke-width:1.0;fill:none;"></path>
</svg>
