<?xml version="1.0" encoding="UTF-8"?>
<!DOCTYPE svg PUBLIC "-//W3C//DTD SVG 1.0//EN" 
         "http://www.w3.org/TR/2001/REC-SVG-20010904/DTD/svg10.dtd">
<svg xmlns="http://www.w3.org/2000/svg" width="7680" height="4320">
  <path d="M3264 588 L2669 1837 L2669 1835 L2670 1835 L2672 1835 L2673 1835 L2676 1835 L2677 1835 L2678 1835 L2680 1835 L2684 1835 L2688 1835 L2694 1835 L2701 1835 L2710 1835 L2720 1835 L2728 1835 L2738 1835 L2748 1835 L2758 1835 L2769 1835 L2780 1839 L2792 1841 L2802 1843 L2813 1845 L2822 1847 L2833 1847 L2844 1847 L2856 1847 L2866 1847 L2876 1847 L2886 1847 L2898 1847 L2908 1847 L2918 1847 L2929 1847 L2940 1847 L2949 1847 L2960 1847 L2970 1847 L2980 1847 L2990 1847 L2998 1847 L3008 1847 L3018 1847 L3028 1847 L3037 1847 L3045 1847 L3054 1847 L3064 1847 L3072 1847 L3081 1847 L3090 1847 L3100 1847 L3108 1847 L3116 1847 L3125 1847 L3132 1847 L3141 1847 L3148 1847 L3157 1847 L3166 1847 L3172 1847 L3173 1847 L3176 1847 L3181 1847 L3188 1847 L3193 1847 L3201 1847 L3208 1847 L3217 1847 L3226 1847 L3234 1847 L3244 1847 L3254 1847 L3265 1849 L3274 1852 L3285 1854 L3296 1854 L3305 1856 L3316 1856 L3326 1858 L3338 1860 L3349 1862 L3361 1864 L3372 1866 L3385 1871 L3396 1873 L3406 1875 L3417 1877 L3430 1879 L3441 1881 L3450 1885 L3460 1887 L3470 1890 L3480 1892 L3489 1894 L3498 1896 L3508 1898 L3516 1900 L3525 1902 L3534 1904 L3544 1904 L3552 1906 L3558 1908 L3566 1908 L3573 1908 L3578 1908 L3584 1908 L3589 1908 L3593 1908 L3597 1908 L3601 1908 L3605 1908 L3608 1908 L3610 1908 L3612 1908 L3613 1908 L3614 1908 L3614 1906 L3614 1904 L3614 1900 L3614 1894 L3614 1885 L3614 1877 L3614 1866 L3614 1856 L3614 1841 L3614 1828 L3614 1816 L3614 1801 L3614 1784 L3614 1767 L3614 1755 L3616 1740 L3617 1723 L3618 1704 L3620 1687 L3622 1668 L3624 1651 L3625 1630 L3628 1611 L3629 1590 L3630 1573 L3633 1552 L3649 1400 L3650 1385 L3657 1312 L3658 1299 L3660 1284 L3660 1274 L3660 1261 L3660 1255 L3660 1250 L3660 1244 L3660 1238 L3660 1233 L3660 1227 L3660 1221 L3660 1212 L3660 1206 L3660 1200 L3660 1193 L3660 1187 L3660 1181 L3660 1174 L3660 1168 L3660 1160 L3660 1153 L3660 1147 L3660 1141 L3660 1132 L3660 1126 L3661 1120 L3662 1113 L3662 1103 L3664 1094 L3665 1088 L3666 1080 L3666 1069 L3668 1061 L3669 1052 L3670 1050 L3670 1048 L3670 1046 L3670 1037 L3670 1031 L3672 1023 L3673 1014 L3674 1006 L3676 995 L3677 987 L3678 978 L3678 968 L3680 959 L3680 957 L3680 955 L3680 949 L3681 942 L3682 936 L3682 930 L3684 923 L3685 915 L3685 909 L3685 902 L3686 896 L3686 890 L3688 883 L3689 877 L3689 871 L3689 864 L3689 858 L3690 852 L3690 845 L3692 841 L3692 837 L3693 831 L3693 826 L3693 820 L3693 816 L3694 810 L3694 805 L3696 799 L3696 795 L3696 791 L3697 788 L3697 784 L3697 778 L3697 774 L3698 772 L3700 767 L3700 761 L3700 759 L3701 757 L3702 753 L3702 748 L3704 744 L3704 742 L3704 738 L3704 734 L3705 729 L3706 727 L3706 723 L3706 721 L3706 719 L3706 717 L3706 712 L3706 708 L3708 708 L3708 706 L3708 704 L3708 702 L3708 698 L3708 696 L3708 693 L3708 691 L3708 689 L3708 687 L3708 685 L3708 683 L3708 681 L3709 679 L3709 677 L3709 675 L3709 672 L3708 672 L3706 672 L3704 672 L3701 675 L3698 675 L3694 677 L3692 679 L3688 681 L3684 681 L3678 683 L3673 683 L3669 683 L3664 683 L3656 683 L3652 683 L3646 683 L3641 683 L3637 683 L3632 683 L3628 683 L3622 683 L3617 683 L3612 683 L3606 683 L3600 683 L3592 683 L3585 683 L3577 683 L3569 683 L3560 683 L3550 683 L3541 683 L3530 683 L3520 683 L3509 683 L3498 683 L3488 683 L3477 683 L3465 683 L3454 683 L3444 683 L3433 681 L3421 679 L3409 677 L3396 675 L3385 672 L3374 670 L3362 668 L3349 666 L3338 664 L3326 662 L3314 660 L3306 658 L3294 656 L3285 651 L3274 649 L3264 647 L3254 645 L3244 643 L3233 641 L3224 639 L3213 637 L3202 634 L3190 632 L3182 630 L3173 628 L3165 626 L3156 624 L3149 622 L3140 620 L3130 620 L3122 618 L3116 615 L3106 613 L3098 613 L3092 613 L3081 613 L3073 611 L3066 609 L3058 607 L3052 605 L3044 605 L3040 605 L3034 603 L3030 601 L3025 601 L3018 599 L3013 596 L3006 594 L3001 594 L2996 594 L2990 592 L2986 592 L2981 590 L2976 588 L2973 588 L2968 586 L2964 586 L2960 584 L2956 584 L2953 582 L2949 580 L2946 580 L2944 577 L2940 577 L2937 575 L2934 573 L2933 573 L2930 573 L2929 571 L2928 569 L2926 569 L2925 569 L2924 569 L2922 567 L2922 569 L2922 573 L2922 577 L2922 582 L2922 588 L2922 594 L2922 603 L2922 611 L2922 620 L2922 628 L2922 637 L2922 647 L2922 656 L2922 664 L2922 672 L2922 681 L2922 691 L2922 702 L2922 712 L2921 721 L2920 727 L2918 738 L2918 746 L2918 757 L2918 769 L2917 778 L2917 791 L2916 801 L2916 810 L2916 822 L2914 833 L2914 845 L2913 854 L2913 862 L2913 869 L2912 875 L2912 881 L2912 888 L2910 896 L2909 907 L2908 915 L2906 926 L2906 934 L2906 942 L2905 951 L2904 961 L2902 970 L2902 972 L2901 974 L2901 980 L2900 985 L2898 993 L2897 999 L2897 1008 L2897 1014 L2896 1020 L2896 1029 L2894 1037 L2893 1046 L2893 1052 L2892 1058 L2892 1065 L2892 1071 L2892 1077 L2890 1084 L2889 1090 L2889 1094 L2889 1101 L2888 1105 L2888 1111 L2888 1117 L2888 1124 L2886 1130 L2885 1136 L2885 1143 L2885 1147 L2884 1151 L2884 1155 L2884 1160 L2882 1166 L2882 1172 L2882 1177 L2881 1179 L2881 1183 L2881 1187 L2881 1191 L2881 1193 L2881 1196 L2881 1198 L2881 1200 L2881 1202 L2881 1204 L2881 1206 L2881 1208 L2881 1210 L2881 1212 L2881 1215 L2880 1217 L2878 1217 L2877 1217 L2876 1219 L2874 1219 L2873 1219 L2869 1221 L2866 1223 L2864 1225 L2860 1225 L2856 1225 L2852 1227 L2846 1229 L2840 1229 L2834 1231 L2826 1233 L2821 1236 L2814 1236 L2806 1236 L2800 1236 L2792 1236 L2785 1236 L2778 1236 L2718 1238 L2710 1238 L2704 1238 L2696 1238 L2689 1238 L2680 1238 L2674 1236 L2666 1233 L2660 1231 L2652 1229 L2644 1227 L2637 1225 L2629 1223 L2622 1223 L2614 1221 L2606 1219 L2601 1217 L2596 1217 L2589 1217 L2582 1217 L2577 1215 L2572 1215 L2564 1212 L2558 1210 L2553 1208 L2546 1208 L2542 1206 L2537 1204 L2532 1202 L2528 1202 L2524 1202 L2520 1202 L2516 1202 L2509 1200 L2505 1198 L2501 1196 L2497 1196 L2493 1196 L2489 1193 L2485 1191 L2481 1189 L2477 1189 L2473 1189 L2469 1187 L2465 1185 L2458 1183 L2454 1183 L2450 1181 L2446 1181 L2442 1181 L2438 1179 L2434 1177 L2430 1174 L2426 1172 L2422 1172 L2418 1170 L2416 1168 L2412 1166 L2408 1166 L2405 1166 L2402 1166 L2401 1164 L2398 1164 L2396 1162 L2394 1162 L2393 1162 L2390 1162 L2389 1162 L2389 1160 L2388 1160 L2386 1160 L2385 1160 L2384 1158 L2382 1158 L2382 1155 L2381 1155 L2380 1155 L2378 1155 L2377 1155 L2376 1155 L2374 1155 L2373 1155 L2372 1155 L2370 1153 L2369 1153 L2368 1153 L2366 1153 L2364 1153 L2362 1151 L2360 1151 L2357 1149 L2353 1149 L2350 1149 L2348 1149 L2344 1147 L2340 1147 L2336 1145 L2332 1143 L2326 1143 L2320 1141 L2314 1139 L2309 1139 L2301 1136 L2294 1134 L2285 1132 L2276 1130 L2266 1128 L2256 1124 L2246 1120 L2234 1115 L2222 1111 L2209 1105 L2197 1098 L2182 1094 L2168 1088 L2153 1084 L2138 1075 L2124 1069 L2108 1065 L2092 1061 L2076 1052 L2057 1046 L2040 1042 L2024 1035 L2005 1029 L1988 1023 L1966 1014 L1946 1010 L1926 1004 L1902 999 L1878 993 L1850 985 L1820 978 L1792 972 L1764 963 L1733 957 L1702 951 L1674 947 L1642 936 L1609 930 L1577 921 L1542 911 L1512 904 L1473 894 L1445 890 L1432 888 L1409 881 L1380 873 L1353 866 L1321 858 L1286 847 L1256 841 L1225 835 L1197 831 L1166 820 L1134 812 L1106 805 L1078 797 L1048 791 L1020 782 L993 776 L961 769 L938 765 L910 759 L886 753 L862 748 L838 742 L818 738 L798 731 L777 727 L757 723 L737 717 L718 715 L701 710 L684 706 L670 704 L658 702 L644 698 L628 693 L612 689 L596 687 L581 683 L566 679 L550 677 L536 672 L520 668 L505 666 L492 664 L477 662 L464 658 L452 656 L437 653 L425 651 L412 647 L402 645 L400 643 L394 641 L386 639 L377 637 L366 634 L357 632 L348 630 L340 630 L333 628 L325 628 L317 626 L309 624 L302 624 L294 622 L286 620 L280 620 L274 618 L268 618 L262 615 L257 615 L253 615 L249 615 L245 615 L241 615 L238 615 L236 615 L233 615 L229 615 L228 615 L226 615 L225 615 L224 613 L224 611 L224 609 L224 603 L224 599 L224 592 L224 586 L224 577 L224 573 L224 567 L224 558 L224 552 L224 544 L224 535 L224 529 L224 525 L224 516 L224 508 L224 497 L224 489 L224 485 L224 476 L224 470 L224 468 L224 466 L224 459 L225 447 L226 438 L228 430 L230 417 L233 405 L236 392 L237 381 L240 369 L240 356 L241 345 L244 333 L246 320 L249 312 L252 301 L254 293 L256 282 L258 274 L261 263 L265 253 L269 244 L270 236 L274 227 L278 219 L281 213 L285 204 L289 196 L292 187 L296 183 L298 179 L302 170 L305 166 L309 160 L350 111 L356 107 L362 101 L369 97 L373 94 L377 92 L382 90 L389 88 L393 86 L398 84 L405 80 L410 75 L417 73 L422 69 L429 69 L434 67 L438 65 L440 65 L442 63 L448 61 L452 61 L457 61 L465 59 L472 59 L480 56 L488 54 L493 54 L500 54 L505 54 L513 54 L521 54 L530 54 L540 54 L549 54 L560 54 L569 54 L577 56 L589 61 L604 65 L616 71 L628 75 L640 82 L641 82 L644 84 L652 90 L664 97 L674 103 L688 111 L701 122 L713 128 L726 137 L740 147 L753 158 L765 170 L778 181 L792 191 L804 204 L813 213 L825 223 L833 234 L833 236 L834 238 L834 240 L836 242 L838 246 L841 257 L845 265 L849 276 L852 286 L853 295 L856 305 L857 314 L858 320 L860 329 L860 341 L860 350 L860 358 L860 369 L860 379 L860 390 L858 400 L857 409 L856 417 L853 428 L852 436 L848 449 L844 461 L840 474 L836 487 L830 499 L826 512 L821 525 L816 537 L810 552 L805 567 L797 584 L790 599 L784 613 L777 630 L769 645 L761 660 L754 677 L748 689 L738 702 L730 715 L722 729 L716 742 L708 753 L701 763 L693 774 L686 784 L680 795 L672 805 L664 812 L656 820 L649 828 L642 835 L634 841 L626 847 L618 854 L613 860 L605 866 L598 873 L593 879 L585 883 L578 885 L573 890 L565 892 L560 896 L552 898 L546 900 L538 902 L533 904 L528 904 L521 904 L520 904 L517 904 L513 902 L508 900 L504 898 L497 896 L492 892 L485 885 L480 881 L473 875 L466 871 L461 864 L456 858 L449 850 L444 843 L437 833 L432 822 L426 810 L421 795 L417 782 L410 763 L406 748 L402 734 L398 715 L394 693 L392 670 L389 649 L388 630 L385 607 L385 584 L385 565 L385 542 L385 525 L386 518 L389 504 L393 489 L397 476 L402 461 L409 442 L414 428 L421 413 L428 398 L434 386 L442 375 L450 364 L460 354 L469 343 L478 335 L490 322 L502 314 L518 301 L530 293 L545 286 L560 278 L576 272 L588 267 L594 265 L608 263 L625 261 L637 259 L652 257 L668 257 L685 257 L701 257 L718 257 L738 257 L758 261 L778 267 L798 272 L820 280 L845 288 L864 299 L886 310 L908 320 L926 329 L946 339 L962 350 L978 360 L993 371 L1006 381 L1018 394 L1030 405 L1042 417 L1054 430 L1064 442 L1072 453 L1078 466 L1084 478 L1088 491 L1090 506 L1093 518 L1093 521 L1093 523 L1093 531 L1092 544 L1086 561 L1082 582 L1078 603 L1073 626 L1065 651 L1056 675 L1048 698 L1036 725 L1025 755 L1013 782 L1000 812 L984 843 L970 873 L954 904 L936 936 L922 957 L921 957 L918 961 L909 976 L893 995 L874 1020 L854 1046 L836 1071 L813 1096 L790 1120 L772 1143 L750 1166 L732 1183 L714 1198 L697 1212 L682 1225 L669 1236 L657 1246 L644 1255 L630 1261 L620 1265 L609 1269 L601 1274 L593 1276 L588 1278 L582 1278 L577 1278 L574 1278 L570 1278 L568 1278 L565 1278 L565 1276 L564 1276 L564 1274 L564 1271 L562 1267 L561 1265 L561 1261 L561 1255 L561 1248 L561 1240 L561 1227 L561 1215 L561 1198 L561 1174 L561 1151 L561 1126 L564 1101 L566 1073 L572 1042 L576 1008 L584 966 L593 919 L604 873 L613 826 L625 774 L640 723 L654 670 L668 622 L672 601 L677 582 L688 554 L705 518 L722 483 L738 451 L756 419 L776 390 L798 364 L817 343 L834 329 L849 316 L850 314 L856 314 L870 307 L889 303 L906 299 L926 295 L946 293 L965 293 L985 293 L1006 293 L1029 293 L1050 297 L1066 299 L1080 301 L1096 307 L1114 314 L1134 320 L1157 333 L1177 345 L1196 358 L1217 375 L1234 390 L1254 405 L1272 419 L1290 438 L1305 455 L1318 472 L1333 487 L1346 504 L1360 521 L1370 533 L1374 542 L1381 554 L1388 569 L1396 586 L1402 601 L1408 622 L1413 643 L1417 660 L1420 681 L1422 700 L1424 721 L1425 742 L1425 765 L1425 788 L1425 805 L1425 831 L1424 856 L1421 881 L1417 909 L1414 940 L1409 974 L1402 1010 L1396 1044 L1389 1086 L1384 1120 L1377 1153 L1370 1189 L1362 1229 L1358 1263 L1352 1293 L1345 1328 L1338 1358 L1330 1390 L1324 1415 L1318 1440 L1310 1468 L1305 1491 L1300 1510 L1293 1531 L1288 1552 L1281 1571 L1274 1586 L1269 1601 L1262 1615 L1257 1628 L1252 1641 L1245 1651 L1240 1662 L1236 1670 L1230 1676 L1224 1685 L1220 1691 L1214 1693 L1210 1698 L1206 1704 L1201 1706 L1201 1708 L1200 1708 L1196 1708 L1194 1708 L1193 1708 L1190 1708 L1188 1706 L1184 1706 L1181 1702 L1178 1700 L1176 1695 L1170 1691 L1166 1685 L1164 1681 L1160 1676 L1157 1668 L1152 1657 L1146 1647 L1142 1636 L1137 1620 L1133 1605 L1130 1596 L1130 1594 L1129 1594 L1129 1586 L1126 1569 L1121 1548 L1117 1525 L1114 1501 L1112 1476 L1109 1451 L1105 1425 L1104 1398 L1104 1368 L1104 1341 L1104 1314 L1104 1282 L1104 1252 L1108 1221 L1110 1191 L1113 1160 L1118 1126 L1124 1092 L1129 1063 L1137 1031 L1145 1006 L1153 982 L1161 959 L1172 934 L1182 913 L1193 896 L1204 877 L1217 858 L1233 839 L1248 822 L1258 812 L1270 799 L1286 788 L1302 778 L1321 769 L1338 761 L1357 753 L1374 746 L1394 742 L1416 738 L1436 731 L1456 729 L1477 727 L1497 727 L1516 727 L1536 727 L1553 729 L1573 731 L1590 738 L1609 740 L1622 744 L1640 748 L1653 755 L1670 763 L1685 769 L1700 778 L1714 788 L1726 797 L1741 805 L1754 816 L1768 826 L1780 839 L1790 850 L1798 860 L1809 875 L1818 888 L1829 900 L1836 913 L1844 930 L1850 945 L1856 957 L1862 972 L1868 989 L1872 1006 L1876 1025 L1878 1042 L1881 1056 L1884 1075 L1885 1096 L1886 1113 L1888 1132 L1888 1149 L1888 1160 L1888 1170 L1888 1187 L1886 1204 L1884 1225 L1881 1244 L1877 1265 L1873 1286 L1868 1305 L1864 1326 L1858 1347 L1853 1364 L1846 1385 L1842 1396 L1837 1409 L1832 1423 L1825 1438 L1817 1455 L1808 1470 L1800 1487 L1792 1501 L1782 1518 L1773 1533 L1764 1550 L1756 1563 L1746 1575 L1736 1590 L1726 1601 L1716 1611 L1706 1622 L1698 1632 L1689 1643 L1678 1651 L1672 1657 L1666 1660 L1664 1660 L1661 1660 L1657 1660 L1654 1660 L1652 1657 L1648 1655 L1645 1655 L1642 1651 L1640 1649 L1638 1647 L1636 1645 L1633 1641 L1632 1638 L1629 1634 L1628 1630 L1625 1626 L1624 1620 L1622 1611 L1621 1607 L1620 1601 L1620 1588 L1620 1571 L1620 1554 L1620 1535 L1620 1512 L1620 1491 L1620 1466 L1620 1440 L1620 1413 L1620 1383 L1622 1352 L1626 1324 L1632 1299 L1634 1284 L1638 1263 L1644 1240 L1650 1215 L1657 1187 L1664 1168 L1670 1147 L1680 1126 L1690 1105 L1700 1084 L1710 1065 L1718 1050 L1729 1033 L1738 1018 L1740 1016 L1741 1014 L1748 1010 L1756 1001 L1766 995 L1777 987 L1788 980 L1797 976 L1809 972 L1820 968 L1832 966 L1840 963 L1852 961 L1862 961 L1873 961 L1885 961 L1898 963 L1909 966 L1918 968 L1930 972 L2025 1020 L2036 1029 L2046 1037 L2057 1046 L2066 1054 L2077 1063 L2086 1073 L2094 1084 L2102 1094 L2110 1105 L2117 1115 L2125 1126 L2132 1139 L2138 1149 L2144 1162 L2150 1174 L2156 1187 L2161 1200 L2165 1212 L2172 1227 L2177 1240 L2180 1252 L2185 1267 L2188 1280 L2193 1295 L2196 1307 L2200 1320 L2204 1335 L2206 1347 L2210 1360 L2213 1373 L2217 1385 L2218 1392 L2221 1404 L2225 1415 L2229 1425 L2232 1436 L2236 1449 L2240 1461 L2245 1470 L2250 1480 L2257 1493 L2264 1506 L2270 1516 L2277 1527 L2284 1537 L2290 1548 L2298 1556 L2305 1563 L2310 1571 L2318 1577 L2326 1586 L2337 1592 L2346 1598 L2357 1605 L2366 1611 L2380 1617 L2390 1624 L2404 1632 L2416 1636 L2429 1643 L2442 1647 L2454 1649 L2468 1653 L2480 1655 L2494 1657 L2509 1662 L2525 1662 L2538 1662 L2553 1662 L2569 1662 L2586 1662 L2604 1662 L2624 1662 L2642 1662 L2662 1662 L2681 1660 L2701 1655 L2725 1651 L2749 1645 L2764 1643 L2780 1641 L2800 1634 L2824 1630 L2848 1624 L2878 1615 L2908 1607 L2938 1596 L2968 1584 L3000 1571 L3032 1558 L3272 1453 L3297 1442 L3437 1381 L3452 1373 L3466 1366 L3480 1360 L3490 1354 L3501 1347 L3512 1341 L3521 1335 L3529 1328 L3538 1322 L3544 1318 L3550 1314 L3557 1307 L3561 1303 L3565 1301 L3570 1295 L3574 1290 L3577 1286 L3581 1282 L3584 1278 L3585 1276 L3588 1271 L3589 1265 L3592 1261 L3593 1257 L3596 1252 L3596 1248 L3596 1246 L3597 1242 L3598 1236 L3600 1229 L3600 1223 L3601 1215 L3601 1204 L3602 1196 L3604 1187 L3605 1177 L3606 1166 L3606 1153 L3606 1143 L3608 1130 L3609 1120 L3609 1107 L3609 1096 L3610 1084 L3612 1073 L3613 1061 L3613 1052 L3614 1039 L3617 1027 L3620 1016 L3621 1006 L3624 997 L3625 991 L3625 989 L3625 987 L3626 982 L3629 974 L3630 968 L3633 959 L3636 949 L3638 940 L3640 930 L3644 919 L3646 911 L3649 898 L3653 885 L3656 877 L3658 866 L3660 858 L3662 847 L3665 839 L3668 826 L3669 818 L3669 810 L3670 803 L3672 797 L3673 788 L3674 782 L3674 776 L3676 769 L3677 763 L3678 755 L3678 750 L3678 744 L3678 738 L3678 731 L3678 725 L3678 721 L3678 717 L3678 712 L3678 710 L3678 708 L3677 706 L3676 706 L3676 704 L3676 702 L3676 700 L3674 700 L3674 698 L3673 696 L3673 693 L3672 691 L3672 689 L3669 685 L3668 683 L3665 681 L3664 677 L3662 672 L3660 668 L3658 664 L3656 660 L3653 653 L3649 647 L3645 643 L3640 637 L3634 628 L3628 624 L3621 618 L3613 611 L3608 605 L3600 599 L3592 592 L3582 586 L3574 577 L3569 573 L3565 571 L3560 567 L3553 561 L3545 556 L3538 552 L3532 546 L3524 542 L3516 537 L3509 531 L3504 527 L3497 523 L3492 521 L3484 514 L3477 510 L3472 506 L3465 502 L3460 497 L3454 495 L3449 489 L3445 485 L3438 483 L3434 476 L3429 472 L3425 470 L3418 466 L3414 461 L3410 457 L3405 455 L3401 451 L3396 447 L3392 447 L3386 442 L3382 438 L3378 438 L3374 436 L3372 434 L3370 434 L3369 432 L3368 432 L3364 432 L3361 432 L3357 432 L3354 432 L3350 432 L3348 432 L3344 432 L3340 432 L3337 432 L3333 432 L3329 432 L3328 432 L3326 432 L3324 434 L3320 436 L3314 438 L3310 442 L3305 447 L3297 453 L3289 459 L3282 464 L3273 472 L3265 478 L3254 487 L3242 495 L3232 504 L3221 512 L3210 525 L3198 535 L3188 550 L3176 561 L3166 571 L3153 586 L3142 599 L3132 613 L3120 626 L3109 641 L3098 653 L3086 668 L3074 681 L3065 696 L3056 706 L3054 706 L3052 710 L3046 717 L3040 727 L3032 738 L3025 746 L3024 748 L3021 750 L3016 759 L3008 772 L3001 782 L2993 795 L2984 807 L2976 820 L2968 835 L2961 845 L2954 858 L2948 871 L2941 883 L2934 896 L2930 907 L2926 915 L2921 926 L2917 938 L2912 951 L2908 963 L2904 976 L2898 989 L2894 1001 L2890 1010 L2885 1023 L2882 1035 L2878 1048 L2874 1063 L2870 1075 L2866 1086 L2862 1098 L2858 1109 L2854 1120 L2850 1132 L2848 1145 L2844 1160 L2840 1174 L2836 1191 L2832 1202 L2829 1215 L2825 1229 L2821 1246 L2817 1257 L2814 1269 L2810 1284 L2808 1299 L2804 1312 L2800 1326 L2796 1343 L2762 1457 L2757 1474 L2752 1489 L2746 1503 L2740 1518 L2733 1531 L2726 1548 L2718 1563 L2712 1575 L2704 1592 L2697 1605 L2690 1617 L2684 1630 L2674 1643 L2666 1655 L2658 1670 L2652 1683 L2644 1693 L2636 1706 L2629 1717 L2621 1727 L2612 1738 L2605 1748 L2600 1759 L2593 1767 L2586 1778 L2580 1786 L2573 1795 L2569 1801 L2562 1809 L2557 1816 L2553 1822 L2548 1828 L2545 1833 L2544 1835 L2542 1837 L2540 1839 L2537 1841 L2536 1845 L2532 1847 L2530 1849 L2528 1854 L2526 1858 L2525 1862 L2522 1864 L2521 1868 L2518 1873 L2517 1881 L2516 1885 L2514 1892 L2512 1898 L2510 1904 L2508 1913 L2506 1917 L2504 1923 L2501 1927 L2501 1930 L2501 1932 L2500 1932 L2498 1934 L2497 1938 L2494 1940 L2493 1944 L2490 1946 L2489 1951 L2488 1953 L2485 1955 L2484 1959 L2480 1961 L2480 1963 L2478 1963 L2477 1965 L2476 1968 L2474 1970 L2472 1972 L2472 1974 L2470 1974 L2469 1976 L2466 1978 L2465 1978 L2465 1980 L2464 1980 L2462 1982 L2461 1984 L2460 1987 L2458 1987 L2458 1989 L2457 1989 L2456 1989 L2456 1991 L2454 1993 L2453 1995 L2452 1995 L2450 1997 L2449 1997 L2449 1995 L2449 1991 L2450 1989 L2452 1987 L2453 1980 L2454 1980 L2456 1978 L2456 1976 L2458 1974 L2458 1972 L2460 1970 L2461 1968 L2462 1968 L2464 1965 L2465 1963 L2465 1961 L2466 1961 L2468 1959 L2469 1957" style="stroke:black;stroke-width:1.0;fill:none;"></path>
</svg>
