<?xml version="1.0" encoding="UTF-8"?>
<!DOCTYPE svg PUBLIC "-//W3C//DTD SVG 1.0//EN" 
         "http://www.w3.org/TR/2001/REC-SVG-20010904/DTD/svg10.dtd">
<svg xmlns="http://www.w3.org/2000/svg" width="5760" height="2048">
  <path d="M5114 730 L3850 1860 L3850 1856 L3852 1850 L3854 1838 L3858 1826 L3860 1812 L3864 1796 L3866 1776 L3870 1752 L3872 1728 L3876 1708 L3878 1686 L3878 1662 L3878 1638 L3878 1614 L3878 1598 L3878 1596 L3878 1594 L3878 1578 L3878 1560 L3878 1536 L3878 1512 L3876 1488 L3870 1462 L3866 1434 L3840 1274 L3834 1250 L3830 1226 L3828 1200 L3824 1174 L3822 1150 L3818 1126 L3812 1100 L3810 1076 L3808 1052 L3806 1028 L3804 1004 L3802 934 L3802 914 L3802 892 L3802 870 L3802 846 L3802 826 L3802 804 L3802 782 L3802 760 L3802 738 L3802 716 L3802 696 L3802 674 L3802 652 L3802 634 L3802 612 L3804 594 L3806 574 L3808 556 L3810 538 L3812 520 L3814 504 L3816 494 L3816 492 L3816 490 L3816 488 L3816 484 L3816 480 L3816 476 L3818 476 L3818 478 L3818 482 L3818 486 L3818 492 L3818 498 L3820 498 L3820 500 L3820 504 L3824 510 L3824 520 L3828 530 L3832 542 L3836 556 L3840 570 L3844 584 L3848 600 L3852 620 L3860 636 L3864 656 L3870 674 L3876 694 L3880 716 L3888 738 L3894 760 L3898 780 L3904 802 L3912 824 L3918 850 L3922 874 L3930 900 L3936 924 L3942 952 L3952 980 L3962 1012 L3970 1044 L3980 1078 L3986 1110 L3992 1126 L3996 1148 L4002 1176 L4012 1202 L4022 1236 L4032 1270 L4040 1302 L4050 1340 L4060 1372 L4070 1406 L4080 1440 L4094 1470 L4106 1498 L4116 1520 L4128 1546 L4140 1570 L4148 1592 L4154 1606 L4162 1624 L4172 1644 L4178 1662 L4184 1682 L4192 1702 L4202 1716 L4210 1728 L4218 1740 L4220 1746 L4220 1748 L4222 1748 L4224 1752 L4228 1756 L4232 1758 L4234 1762 L4238 1764 L4240 1764 L4242 1764 L4244 1762 L4246 1762 L4246 1760 L4248 1760 L4248 1758 L4252 1752 L4254 1748 L4258 1744 L4260 1738 L4264 1728 L4268 1720 L4272 1708 L4278 1698 L4284 1686 L4290 1672 L4294 1658 L4300 1642 L4304 1622 L4310 1602 L4312 1598 L4316 1588 L4320 1570 L4326 1552 L4330 1530 L4336 1508 L4344 1486 L4388 1282 L4392 1254 L4396 1230 L4402 1206 L4414 1100 L4416 1082 L4418 1058 L4424 1034 L4426 1010 L4430 982 L4434 956 L4438 932 L4446 904 L4452 880 L4458 856 L4466 834 L4470 812 L4476 790 L4482 772 L4490 752 L4494 732 L4500 716 L4506 700 L4512 688 L4518 672 L4522 658 L4526 644 L4532 634 L4538 622 L4542 610 L4546 600 L4546 598 L4546 596 L4548 590 L4552 584 L4554 578 L4558 574 L4560 570 L4566 566 L4568 564 L4570 562 L4574 558 L4578 556 L4580 556 L4582 554 L4582 552 L4584 552 L4588 552 L4590 550 L4592 550 L4594 550 L4596 550 L4598 550 L4600 550 L4604 550 L4608 552 L4616 556 L4620 562 L4626 568 L4630 576 L4630 578 L4634 584 L4642 596 L4650 610 L4658 624 L4664 644 L4668 656 L4670 662 L4674 676 L4680 694 L4686 720 L4694 746 L4698 770 L4702 798 L4706 824 L4712 848 L4716 876 L4720 902 L4722 928 L4726 956 L4728 978 L4732 1004 L4734 1030 L4736 1054 L4738 1078 L4742 1106 L4746 1132 L4748 1154 L4750 1172 L4754 1194 L4756 1216 L4758 1236 L4760 1258 L4760 1276 L4760 1296 L4760 1312 L4760 1328 L4760 1344 L4760 1358 L4760 1368 L4760 1378 L4760 1388 L4760 1394 L4760 1400 L4760 1404 L4758 1408 L4758 1412 L4758 1408 L4758 1402 L4756 1396 L4754 1388 L4752 1376 L4750 1364 L4748 1346 L4746 1334 L4746 1324 L4746 1322 L4744 1310 L4742 1294 L4740 1276 L4738 1272 L4736 1266 L4732 1252 L4728 1234 L4722 1210 L4714 1184 L4708 1162 L4702 1140 L4696 1120 L4688 1094 L4684 1074 L4680 1052 L4674 1030 L4668 1008 L4664 988 L4660 970 L4658 950 L4654 934 L4652 918 L4650 904 L4650 890 L4650 878 L4650 864 L4650 848 L4650 832 L4650 818 L4652 810 L4654 798 L4656 786 L4660 776 L4664 766 L4668 756 L4674 748 L4680 738 L4686 728 L4696 714 L4706 702 L4716 690 L4726 680 L4736 670 L4748 660 L4762 652 L4778 640 L4796 632 L4814 626 L4834 618 L4858 610 L4880 604 L4902 598 L4924 590 L4948 584 L4972 578 L4974 578 L4976 578 L4988 576 L5010 574 L5030 574 L5058 574 L5082 574 L5108 572 L5138 570 L5166 570 L5194 574 L5214 578 L5216 578 L5224 582 L5240 590 L5260 598 L5282 610 L5304 620 L5324 632 L5344 644 L5364 658 L5384 674 L5402 688 L5410 698 L5424 710 L5434 726 L5444 740 L5452 754 L5462 772 L5470 792 L5474 808 L5478 828 L5482 846 L5484 866 L5486 882 L5488 900 L5488 920 L5486 938 L5482 960 L5478 972 L5474 980 L5466 994 L5456 1012 L5442 1032 L5434 1046 L5422 1062 L5404 1078 L5384 1096 L5360 1116 L5332 1136 L5306 1152 L5274 1168 L5238 1184 L5204 1202 L5164 1216 L5126 1226 L5090 1232 L5066 1236 L5036 1238 L5000 1240 L4960 1244 L4916 1244 L4878 1244 L4838 1242 L4792 1236 L4746 1230 L4702 1220 L4654 1208 L4606 1196 L4566 1180 L4526 1164 L4488 1144 L4452 1124 L4420 1102 L4386 1080 L4358 1056 L4332 1034 L4312 1014 L4292 990 L4272 968 L4256 940 L4240 914 L4228 892 L4216 864 L4206 834 L4196 806 L4190 780 L4172 542 L4174 514 L4180 488 L4190 464 L4194 450 L4194 448 L4196 444 L4204 434 L4218 418 L4236 402 L4252 390 L4270 376 L4292 366 L4318 354 L4346 342 L4378 332 L4412 322 L4442 318 L4446 318 L4454 318 L4480 318 L4516 318 L4560 318 L4610 318 L4656 324 L4702 330 L4750 338 L4790 344 L4834 352 L4882 364 L4924 376 L4956 384 L4958 384 L4968 388 L4986 398 L5010 406 L5034 420 L5056 434 L5080 446 L5100 462 L5112 472 L5126 486 L5138 498 L5154 516 L5166 532 L5178 552 L5188 570 L5196 588 L5202 608 L5206 630 L5210 648 L5212 670 L5214 694 L5214 716 L5214 740 L5212 764 L5208 788 L5200 812 L5194 836 L5188 852 L5178 864 L5164 884 L5142 908 L5124 928 L5106 948 L5082 968 L5048 994 L5010 1024 L4972 1048 L4934 1070 L4898 1086 L4854 1106 L4804 1124 L4758 1138 L4714 1154 L4666 1166 L4618 1174 L4576 1184 L4536 1188 L4490 1192 L4446 1192 L4408 1192 L4364 1192 L4324 1190 L4284 1186 L4248 1180 L4206 1172 L4168 1164 L4142 1156 L3982 1044 L3966 1022 L3954 1002 L3940 980 L3928 958 L3920 936 L3914 910 L3908 886 L3904 862 L3900 838 L3898 812 L3898 788 L3898 760 L3900 734 L3904 710 L3910 684 L3916 656 L3924 632 L3932 608 L3940 586 L3952 562 L3962 544 L3976 526 L3992 510 L4010 492 L4030 478 L4050 464 L4070 454 L4092 442 L4114 430 L4128 424 L4130 424 L4136 424 L4152 424 L4176 424 L4202 424 L4230 424 L4260 426 L4290 430 L4320 434 L4352 442 L4384 450 L4408 452 L4428 456 L4450 462 L4472 474 L4494 484 L4516 498 L4540 512 L4562 524 L4582 540 L4598 556 L4616 570 L4628 584 L4640 598 L4652 616 L4664 632 L4674 650 L4680 662 L4686 676 L4690 694 L4692 714 L4694 732 L4694 752 L4694 772 L4692 794 L4688 816 L4684 828 L4680 838 L4674 858 L4664 882 L4650 908 L4636 934 L4618 966 L4588 1006 L4558 1044 L4524 1084 L4510 1110 L4506 1114 L4496 1122 L4468 1146 L4424 1180 L4368 1218 L4322 1244 L4258 1274 L4230 1286 L4228 1288 L4210 1294 L4158 1314 L4084 1344 L3318 1520 L3212 1536 L3106 1552 L3002 1560 L2904 1564 L2806 1564 L2698 1564 L2596 1564 L2498 1564 L2448 1564 L2364 1554 L2276 1544 L2180 1528 L2074 1508 L1972 1488 L1870 1462 L1768 1434 L1670 1406 L1574 1380 L1498 1364 L1450 1350 L1378 1324 L1306 1296 L1232 1262 L1160 1230 L1086 1188 L1022 1154 L968 1120 L904 1080 L844 1042 L790 1008 L736 972 L682 934 L632 898 L586 862 L546 828 L522 808 L502 788 L478 764 L450 734 L420 704 L396 674 L372 646 L352 616 L336 594 L320 572 L306 550 L296 528 L284 508 L278 488 L274 472 L272 456 L272 444 L272 432 L272 418 L274 406 L280 394 L288 384 L298 372 L308 360 L320 350 L336 340 L350 332 L366 322 L380 316 L398 310 L420 304 L442 298 L466 290 L492 286 L520 284 L548 282 L578 282 L610 282 L642 282 L672 282 L706 282 L740 288 L782 292 L824 302 L862 310 L904 318 L946 330 L990 340 L1028 352 L1050 360 L1052 360 L1056 362 L1070 370 L1092 378 L1114 392 L1140 406 L1168 422 L1190 442 L1212 460 L1228 476 L1246 494 L1262 512 L1274 530 L1286 550 L1294 568 L1300 588 L1304 608 L1308 628 L1310 648 L1310 668 L1306 692 L1300 714 L1292 740 L1280 764 L1266 790 L1248 816 L1228 844 L1208 872 L1188 894 L1164 918 L1128 946 L1090 976 L1040 1012 L990 1046 L932 1076 L874 1106 L812 1134 L746 1162 L674 1188 L610 1204 L548 1226 L500 1238 L496 1238 L466 1242 L410 1248 L338 1254 L260 1258 L178 1262 L124 1262 L52 1262 L0 1262 L0 1260 L0 1254 L0 1246 L0 1236 L0 1222 L0 1208 L0 1194 L0 1178 L0 1162 L0 1148 L0 1130 L0 1110 L0 1090 L0 1070 L0 1052 L0 1034 L0 1014 L0 994 L0 974 L0 954 L0 932 L0 908 L0 884 L0 858 L0 832 L0 806 L0 782 L0 758 L2 730 L4 706 L8 682 L14 658 L24 636 L32 620 L40 602 L54 584 L68 564 L84 548 L102 530 L124 512 L148 496 L174 478 L200 464 L230 446 L262 430 L292 416 L326 406 L352 398 L388 392 L424 384 L466 378 L506 372 L552 366 L592 364 L638 362 L676 362 L720 362 L758 362 L796 362 L830 362 L862 366 L892 370 L928 376 L960 384 L986 390 L1014 396 L1040 404 L1066 412 L1090 424 L1112 432 L1134 442 L1154 452 L1170 464 L1188 476 L1204 486 L1220 500 L1232 510 L1248 522 L1258 532 L1268 542 L1276 556 L1284 574 L1290 588 L1296 604 L1302 622 L1306 638 L1308 652 L1308 662 L1308 676 L1308 690 L1306 706 L1302 724 L1296 742 L1288 760 L1280 776 L1268 796 L1256 814 L1242 830 L1230 848 L1214 866 L1196 880 L1178 896 L1160 910 L1136 922 L1114 936 L1092 948 L1070 958 L1046 968 L1018 976 L994 984 L966 988 L940 992 L914 994 L886 996 L860 996 L834 996 L804 992 L778 986 L752 978 L724 972 L694 962 L666 952 L636 940 L604 924 L580 914 L554 900 L532 886 L512 874 L496 860 L480 846 L466 830 L452 816 L442 800 L432 786 L420 772 L412 752 L404 732 L398 716 L390 696 L386 676 L382 658 L380 638 L380 620 L380 598 L380 578 L380 556 L380 534 L382 516 L386 496 L390 478 L398 460 L406 444 L416 426 L428 412 L438 398 L452 380 L468 364 L486 350 L506 334 L528 320 L550 310 L572 298 L596 288 L624 278 L652 268 L682 260 L714 248 L746 242 L782 236 L812 232 L848 226 L878 224 L880 224 L892 224 L918 222 L948 222 L980 222 L1020 226 L1072 232 L1128 238 L1180 244 L1242 254 L1300 264 L1360 276 L1406 284 L1460 298 L1514 314 L1564 326 L1606 334 L1630 340 L1666 350 L1704 364 L1750 384 L1796 402 L1846 420 L1892 442 L1938 464 L1980 484 L2022 504 L2058 528 L2102 552 L2138 576 L2172 598 L2200 618 L2232 640 L2256 658 L2280 678 L2304 696 L2324 714 L2342 734 L2360 752 L2374 772 L2388 790 L2400 806 L2412 822 L2412 824 L2412 826 L2414 834 L2416 846 L2418 856 L2418 864 L2418 876 L2418 886 L2416 896 L2412 908 L2408 916 L2404 926 L2398 934 L2390 944 L2382 952 L2376 958 L2368 966 L2362 972 L2354 976 L2348 982 L2340 986 L2334 988 L2330 992 L2328 992 L2326 992 L2324 992 L2322 994 L2320 994 L2320 992 L2320 988 L2320 984 L2322 974 L2326 966 L2332 954 L2338 942 L2344 928 L2354 910 L2364 892 L2364 890 L2368 882 L2380 868 L2390 854 L2404 838 L2418 820 L2432 806 L2448 788 L2466 772 L2484 758 L2504 740 L2524 722 L2546 706 L2568 692 L2594 678 L2616 668 L2640 656 L2670 642 L2698 632 L2732 622 L2764 612 L2802 602 L2836 590 L2868 584 L2904 578 L2946 570 L2992 564 L3034 558 L3080 552 L3126 548 L3166 544 L3206 542 L3250 542 L3288 540 L3328 540 L3360 540 L3394 540 L3424 542 L3454 546 L3480 552 L3506 558 L3530 564 L3552 568 L3574 578 L3596 584 L3614 592 L3632 602 L3644 610 L3656 618 L3668 626 L3678 632 L3688 642 L3698 652 L3704 662 L3712 672 L3718 682 L3722 690 L3726 700 L3728 708 L3728 718 L3728 730 L3728 740 L3728 754 L3724 766 L3720 778 L3716 786 L3716 788 L3714 788 L3712 792 L3704 800 L3690 810 L3676 824 L3658 834 L3638 848 L3620 858 L3602 870 L3580 882 L3558 894 L3544 900 L3542 900 L3534 900 L3522 902 L3514 902 L3502 902 L3494 904 L3486 904 L3480 904 L3472 902 L3464 898 L3458 894 L3450 892 L3446 886 L3442 882 L3436 876 L3430 868 L3426 862 L3420 852 L3414 840 L3408 826 L3402 814 L3398 808 L3394 794 L3390 778 L3386 758 L3380 738 L3376 716 L3372 698 L3370 676 L3368 654 L3364 630 L3364 610 L3364 586 L3364 584 L3364 580 L3366 568 L3370 548 L3376 532 L3384 516 L3392 498 L3400 484 L3408 472 L3416 460 L3426 444 L3438 432 L3452 422 L3466 412 L3482 404 L3504 394 L3524 386 L3544 380 L3566 372 L3590 366 L3612 362 L3634 358 L3654 356 L3676 354 L3700 354 L3724 354 L3748 354 L3770 354 L3792 354 L3812 354 L3822 356 L3838 360 L3856 366 L3878 372 L3896 384 L3920 396 L3938 406 L3958 416 L3978 430 L3996 444 L4006 450 L4018 460 L4030 474 L4042 488 L4056 504 L4068 520 L4082 538 L4094 558 L4106 574 L4116 594 L4124 614 L4134 634 L4138 648 L4142 656 L4144 670 L4148 688 L4150 706 L4152 724 L4154 746 L4156 766 L4156 784 L4156 802 L4156 822 L4154 838 L4150 856 L4144 874 L4136 890 L4128 904 L4122 916 L4116 928 L4108 940 L4100 952 L4100 954 L4098 954 L4094 956 L4088 960 L4082 962 L4076 964 L4064 968 L4056 970 L4048 974 L4042 974 L4036 974 L4032 974 L4030 974 L4026 974 L4024 974 L4022 974 L4022 972 L4022 970 L4024 964 L4028 954 L4030 950 L4030 948 L4032 948 L4032 946 L4034 946 L4038 940 L4050 930 L4060 922 L4072 912 L4086 900 L4102 892 L4120 884 L4140 878 L4160 868 L4182 862 L4204 856 L4228 848 L4252 844 L4276 840 L4300 836 L4328 832 L4352 830 L4378 826 L4402 826 L4428 826 L4454 826 L4478 826 L4502 826 L4526 828 L4548 832 L4568 838 L4584 842 L4596 846 L4600 848 L4606 852 L4612 858 L4620 862 L4626 868 L4634 874 L4638 880 L4642 886 L4646 896 L4646 902 L4648 908 L4650 914 L4650 922 L4650 930 L4650 942 L4650 950 L4648 960 L4644 974 L4638 990 L4632 1004 L4624 1018 L4614 1036 L4604 1050 L4604 1052 L4600 1058 L4596 1064 L4592 1070 L4584 1080 L4568 1096 L4554 1110 L4534 1128 L4512 1148 L4492 1168 L4472 1188 L4452 1206 L4432 1226 L4412 1244 L4388 1264 L4368 1282 L4346 1300 L4326 1318 L4308 1336 L4306 1336 L4298 1342 L4282 1352 L4268 1364 L4254 1374 L4234 1384 L4216 1396 L4202 1404 L4190 1412 L4176 1420 L4114 1442 L4108 1444 L4102 1444 L4094 1444 L4086 1444 L4076 1444 L4068 1444 L4060 1444 L4052 1444 L4044 1442 L4036 1438 L4030 1434 L4022 1432 L4016 1428 L4010 1422 L4002 1418 L3996 1412 L3990 1408 L3984 1402 L3976 1398 L3972 1392 L3964 1384 L3960 1376 L3954 1370 L3948 1362 L3944 1352 L3940 1346 L3936 1340 L3934 1330 L3930 1322 L3928 1316 L3926 1310 L3924 1304 L3924 1298 L3924 1292 L3924 1286 L3924 1282 L3924 1278 L3928 1276 L3930 1272 L3932 1270 L3934 1268 L3936 1268 L3938 1266 L3940 1264 L3944 1264 L3946 1262 L3950 1262 L3956 1262 L3962 1262 L3968 1262 L3974 1262 L3980 1262 L3988 1262 L3996 1262 L4004 1262 L4016 1264 L4026 1268 L4036 1270 L4050 1274 L4062 1278 L4076 1284 L4078 1284 L4084 1286 L4094 1292 L4102 1298 L4114 1306 L4126 1314 L4142 1324 L4154 1334 L4166 1344 L4178 1356 L4190 1368 L4204 1380 L4216 1392 L4228 1406 L4238 1422 L4250 1438 L4260 1454 L4280 1508 L4284 1522 L4294 1584 L4296 1596 L4298 1610 L4298 1612 L4298 1616 L4298 1622 L4298 1626 L4296 1632 L4296 1638 L4294 1646 L4294 1652 L4292 1660 L4290 1664 L4288 1668 L4286 1672 L4284 1676 L4282 1680 L4280 1680 L4280 1682 L4278 1684 L4276 1684 L4274 1684 L4272 1686 L4270 1686 L4268 1686" style="stroke:black;stroke-width:1.0;fill:none;"></path>
</svg>
