<?xml version="1.0" encoding="UTF-8"?>
<!DOCTYPE svg PUBLIC "-//W3C//DTD SVG 1.0//EN" 
         "http://www.w3.org/TR/2001/REC-SVG-20010904/DTD/svg10.dtd">
<svg xmlns="http://www.w3.org/2000/svg" width="2880" height="1024">
  <path d="M1915 903 L1902 920 L1903 920 L1904 920 L1906 919 L1907 919 L1907 918 L1908 918 L1909 918 L1909 917 L1910 916 L1911 914 L1913 912 L1915 910 L1916 908 L1919 904 L1921 901 L1922 899 L1925 895 L1926 892 L1928 889 L1929 887 L1931 883 L1934 880 L1935 877 L1937 873 L1939 870 L1941 865 L1944 862 L1947 857 L1949 853 L1952 847 L1955 841 L1958 835 L1961 830 L1964 824 L1968 818 L1972 811 L1976 804 L1981 795 L1986 785 L1990 777 L1993 772 L1996 768 L2000 760 L2004 753 L2010 744 L2015 736 L2020 728 L2024 721 L2028 715 L2033 708 L2037 701 L2041 695 L2045 689 L2046 685 L2048 681 L2051 675 L2055 669 L2058 664 L2062 659 L2065 655 L2067 650 L2070 645 L2073 640 L2076 635 L2079 630 L2081 626 L2083 621 L2085 618 L2087 614 L2088 611 L2090 607 L2092 602 L2093 599 L2093 596 L2098 568 L2098 565 L2098 561 L2098 557 L2098 553 L2098 548 L2098 544 L2098 541 L2098 537 L2097 533 L2096 528 L2095 524 L2094 520 L2093 516 L2092 513 L2090 510 L2089 506 L2088 502 L2087 501 L2086 500 L2085 498 L2083 496 L2082 495 L2080 492 L2078 490 L2077 488 L2075 486 L2074 483 L2071 475 L2069 472 L2068 466 L2066 460 L2064 454 L2062 447 L2060 440 L2058 433 L2056 426 L2052 417 L2050 407 L2048 399 L2046 389 L2044 380 L2042 371 L2040 363 L2038 356 L2035 348 L2033 339 L2029 324 L2027 317 L2025 310 L2023 303 L2021 297 L2019 290 L2018 285 L2017 279 L2015 273 L2013 269 L2011 263 L2009 258 L2008 254 L2008 250 L2006 246 L2004 243 L2003 239 L2002 235 L2000 232 L1999 229 L1999 226 L1997 224 L1996 222 L1995 219 L1994 217 L1993 215 L1993 214 L1991 211 L1990 209 L1989 208 L1988 207 L1988 206 L1987 205 L1986 203 L1985 202 L1984 201 L1984 200 L1983 200 L1982 200 L1982 199 L1981 199 L1980 198 L1978 197 L1977 196 L1976 196 L1974 195 L1973 195 L1971 194 L1969 193 L1968 193 L1966 193 L1965 192 L1962 191 L1960 191 L1958 191 L1956 190 L1955 189 L1952 188 L1950 188 L1948 188 L1946 187 L1944 187 L1942 187 L1939 186 L1937 186 L1935 186 L1933 186 L1931 185 L1929 185 L1925 184 L1923 184 L1920 183 L1917 183 L1915 183 L1912 183 L1910 182 L1907 181 L1905 180 L1902 180 L1899 180 L1897 180 L1895 180 L1894 179 L1893 179 L1890 178 L1889 178 L1888 178 L1887 178 L1886 178 L1885 178 L1884 178 L1883 178 L1882 178 L1880 178 L1879 178 L1878 178 L1869 179 L1864 180 L1861 180 L1857 181 L1851 182 L1846 183 L1840 184 L1836 185 L1830 186 L1823 187 L1818 188 L1811 189 L1803 190 L1797 190 L1792 190 L1786 190 L1780 190 L1774 190 L1769 190 L1763 190 L1758 191 L1752 191 L1748 191 L1743 191 L1738 192 L1735 192 L1732 192 L1729 193 L1726 193 L1724 194 L1722 194 L1721 194 L1719 195 L1718 195 L1717 195 L1715 195 L1714 195 L1713 195 L1712 195 L1711 195 L1710 195 L1710 196 L1709 196 L1708 196 L1707 196 L1706 196 L1705 196 L1704 196 L1705 196 L1705 195 L1706 195 L1706 194 L1707 193 L1709 192 L1710 192 L1711 191 L1713 190 L1714 190 L1716 188 L1717 187 L1719 187 L1721 185 L1724 184 L1726 184 L1728 183 L1731 181 L1734 181 L1738 179 L1741 178 L1744 177 L1747 176 L1752 174 L1756 172 L1761 170 L1764 169 L1768 167 L1774 164 L1779 162 L1780 162 L1783 161 L1786 159 L1791 156 L1795 155 L1800 153 L1806 150 L1810 148 L1815 146 L1818 144 L1823 142 L1827 140 L1830 138 L1835 136 L1838 135 L1842 133 L1844 132 L1846 130 L1848 129 L1851 128 L1852 127 L1853 127 L1856 125 L1857 124 L1858 124 L1859 124 L1860 123 L1861 122 L1862 121 L1862 120 L1863 120 L1864 119 L1866 119 L1867 118 L1868 117 L1870 116 L1873 116 L1875 116 L1878 115 L1880 114 L1883 114 L1887 113 L1891 113 L1896 113 L1900 113 L1905 112 L1912 112 L1919 112 L1926 112 L1932 112 L1940 112 L1948 112 L1958 112 L1967 112 L1975 112 L1983 112 L1992 112 L2002 112 L2010 112 L2018 112 L2027 113 L2035 114 L2044 115 L2053 116 L2061 117 L2070 119 L2077 121 L2084 123 L2092 125 L2098 127 L2103 129 L2135 146 L2138 148 L2139 150 L2141 152 L2143 155 L2145 158 L2146 160 L2148 163 L2148 165 L2150 167 L2150 169 L2151 171 L2152 174 L2152 177 L2153 180 L2153 183 L2153 185 L2154 188 L2154 191 L2155 194 L2156 196 L2156 199 L2156 202 L2157 205 L2157 208 L2157 211 L2157 214 L2157 217 L2157 221 L2157 224 L2157 227 L2157 231 L2157 234 L2157 237 L2157 241 L2157 244 L2157 247 L2157 250 L2157 253 L2157 255 L2157 257 L2157 259 L2157 261 L2157 262 L2157 263 L2157 264 L2156 265 L2156 263 L2157 261 L2157 258 L2158 254 L2160 249 L2162 243 L2163 238 L2165 231 L2167 224 L2169 217 L2171 207 L2173 200 L2176 193 L2178 185 L2180 176 L2182 169 L2184 162 L2186 154 L2187 147 L2189 143 L2191 137 L2193 132 L2195 128 L2196 124 L2197 119 L2198 116 L2200 113 L2201 110 L2202 108 L2203 106 L2203 105 L2204 104 L2205 103 L2206 103 L2207 103 L2207 102 L2208 101 L2208 102 L2208 103 L2208 105 L2208 106 L2209 108 L2210 110 L2211 113 L2211 115 L2212 117 L2213 119 L2214 121 L2214 124 L2215 126 L2216 128 L2217 130 L2218 132 L2219 133 L2219 134 L2219 135 L2220 137 L2221 138 L2223 139 L2224 140 L2225 141 L2225 142 L2226 143 L2227 144 L2228 145 L2228 146 L2229 146 L2230 146 L2231 146 L2232 146 L2233 146 L2234 146 L2235 146 L2236 146 L2236 145 L2237 144 L2239 143 L2240 141 L2243 140 L2245 138 L2247 135 L2249 133 L2252 131 L2254 128 L2257 125 L2259 121 L2261 119 L2262 117 L2263 116 L2264 114 L2266 113 L2267 112 L2268 111 L2269 110 L2270 110 L2271 110 L2271 111 L2271 112 L2272 113 L2272 114 L2273 117 L2273 119 L2274 120 L2274 122 L2275 124 L2275 126 L2276 128 L2277 131 L2278 133 L2278 136 L2279 138 L2279 140 L2279 142 L2280 145 L2280 147 L2281 149 L2281 151 L2281 153 L2282 155 L2282 158 L2283 159 L2283 160 L2283 162 L2283 163 L2283 164 L2283 165 L2284 166 L2285 166 L2286 164 L2286 162 L2287 160 L2289 157 L2290 153 L2292 150 L2293 146 L2295 141 L2296 138 L2298 133 L2299 130 L2300 127 L2302 124 L2304 122 L2305 119 L2307 117 L2308 115 L2309 114 L2310 113 L2311 113 L2312 113 L2313 113 L2314 113 L2315 114 L2316 114 L2316 115 L2317 116 L2317 117 L2319 118 L2320 120 L2322 122 L2323 124 L2324 125 L2325 128 L2326 128 L2326 129 L2326 130 L2326 131 L2327 132 L2328 132 L2328 133 L2328 134 L2329 135 L2329 136 L2329 137 L2330 138 L2330 139 L2331 140 L2332 140 L2333 140 L2334 140 L2335 139 L2337 138 L2337 137 L2338 136 L2340 135 L2341 133 L2343 132 L2345 130 L2346 129 L2348 128 L2348 127 L2349 127 L2350 127 L2350 128 L2350 129 L2351 131 L2352 132 L2353 134 L2353 136 L2353 139 L2354 141 L2355 143 L2355 145 L2357 147 L2358 150 L2358 152 L2360 154 L2361 156 L2361 158 L2362 160 L2363 162 L2364 164 L2364 165 L2365 167 L2365 168 L2365 169 L2366 170 L2366 171 L2366 172 L2367 172 L2367 173 L2368 173 L2369 173 L2370 173 L2371 173 L2372 173 L2372 172 L2373 171 L2375 170 L2376 169 L2378 168 L2380 167 L2381 167 L2383 166 L2385 165 L2386 165 L2387 164 L2389 164 L2390 164 L2391 164 L2392 164 L2393 164 L2393 165 L2394 165 L2394 166 L2395 166 L2396 167 L2396 168 L2397 169 L2397 171 L2397 172 L2398 172 L2399 173 L2399 174 L2400 175 L2400 177 L2401 178 L2402 179 L2402 180 L2402 181 L2403 182 L2404 183 L2404 184 L2405 185 L2405 186 L2406 186 L2407 186 L2408 186 L2409 186 L2409 185 L2410 184 L2410 183 L2412 182 L2413 180 L2415 178 L2415 177 L2417 176 L2418 174 L2420 173 L2423 171 L2425 169 L2427 167 L2429 165 L2433 164 L2435 162 L2438 160 L2440 159 L2442 158 L2445 157 L2447 157 L2448 157 L2450 157 L2451 157 L2452 157 L2453 157 L2454 157 L2455 157 L2455 158 L2455 159 L2455 160 L2455 161 L2455 162 L2455 163 L2455 164 L2455 165 L2455 166 L2455 167 L2455 168 L2455 169 L2455 170 L2455 171 L2455 172 L2456 173 L2457 173 L2458 173 L2459 173 L2459 172 L2460 172 L2461 171 L2461 170 L2463 168 L2464 167 L2465 165 L2467 164 L2468 162 L2469 160 L2470 158 L2472 156 L2473 154 L2475 151 L2476 149 L2478 147 L2479 145 L2481 142 L2482 141 L2483 140 L2484 139 L2485 138 L2485 139 L2485 140 L2485 142 L2485 144 L2485 146 L2485 148 L2485 151 L2485 152 L2485 154 L2485 155 L2485 157 L2485 158 L2485 159 L2485 160 L2485 162 L2485 163 L2485 164 L2485 165 L2485 166 L2485 167 L2486 168 L2486 169 L2487 169 L2488 169 L2489 169 L2490 169 L2491 169 L2492 169 L2492 168 L2493 168 L2493 167 L2494 166 L2495 166 L2495 164 L2496 163 L2497 161 L2499 160 L2500 159 L2502 157 L2503 156 L2503 155 L2504 155 L2505 154 L2506 153 L2507 153 L2507 152 L2508 152 L2509 152 L2509 153 L2510 154 L2510 155 L2510 156 L2510 158 L2511 160 L2512 162 L2512 164 L2513 166 L2513 168 L2514 170 L2515 173 L2515 175 L2515 176 L2515 177 L2515 178 L2516 179 L2517 180 L2517 181 L2518 182 L2519 182 L2520 182 L2521 182 L2522 182 L2523 182 L2523 181 L2523 180 L2523 179 L2524 178 L2525 176 L2526 174 L2526 171 L2527 169 L2529 166 L2529 163 L2531 161 L2532 158 L2532 154 L2533 151 L2534 148 L2535 146 L2536 143 L2537 141 L2539 137 L2539 135 L2540 135 L2540 134 L2540 133 L2541 132 L2541 130 L2542 128 L2541 128 L2540 129 L2540 130 L2540 131 L2540 132 L2540 133 L2540 134 L2540 135 L2540 136 L2540 138 L2540 140 L2541 142 L2542 143 L2543 146 L2543 147 L2544 148 L2544 150 L2545 151 L2545 152 L2546 153 L2547 154 L2548 155 L2549 155 L2550 155 L2552 153 L2553 152 L2554 151 L2557 149 L2558 148 L2560 145 L2562 144 L2563 142 L2565 140 L2567 138 L2568 137 L2570 135 L2571 134 L2573 132 L2574 130 L2576 129 L2577 126 L2579 125 L2580 124 L2581 123 L2581 122 L2583 121 L2584 121 L2585 120 L2586 120 L2587 120 L2588 120 L2589 120 L2590 120 L2590 121 L2591 121 L2591 122 L2591 123 L2591 124 L2592 125 L2593 128 L2593 130 L2594 132 L2595 135 L2596 137 L2596 140 L2596 143 L2597 146 L2597 149 L2597 151 L2597 153 L2597 154 L2597 155 L2597 156 L2597 159 L2597 161 L2598 163 L2598 165 L2598 167 L2599 169 L2599 172 L2599 173 L2600 174 L2600 175 L2600 176 L2601 177 L2602 178 L2602 179 L2603 179 L2604 178 L2605 177 L2606 177 L2606 176 L2607 174 L2607 173 L2609 171 L2609 170 L2610 169 L2610 167 L2612 165 L2613 163 L2615 161 L2616 159 L2618 156 L2619 154 L2621 152 L2622 150 L2624 147 L2626 145 L2628 143 L2629 141 L2630 140 L2632 139 L2633 139 L2634 138 L2636 137 L2637 137 L2638 136 L2639 136 L2640 136 L2640 137 L2640 138 L2641 140 L2641 141 L2641 142 L2641 143 L2641 144 L2641 145 L2641 147 L2641 148 L2641 150 L2641 151 L2642 152 L2642 154 L2642 155 L2642 156 L2643 156 L2643 157 L2644 158 L2645 158 L2646 158 L2647 158 L2648 158 L2649 158 L2650 158 L2651 158 L2651 157 L2653 157 L2653 156 L2654 156 L2655 155 L2656 154 L2658 153 L2660 152 L2661 152 L2664 150 L2666 149 L2667 149 L2669 148 L2671 147 L2672 147 L2674 146 L2676 145 L2679 145 L2681 145 L2683 145 L2684 145 L2686 145 L2688 145 L2690 145 L2691 145 L2692 145 L2695 147 L2696 148 L2697 149 L2699 151 L2699 152 L2700 153 L2700 155 L2701 158 L2702 160 L2703 162 L2703 163 L2703 165 L2703 167 L2703 169 L2703 171 L2703 173 L2703 174 L2703 176 L2703 178 L2703 179 L2703 180 L2703 182 L2703 183 L2703 184 L2703 185 L2703 186 L2703 187 L2703 188 L2704 188 L2704 187 L2705 186 L2706 184 L2706 183 L2707 182 L2709 180 L2710 177 L2711 176 L2712 174 L2714 171 L2715 170 L2717 169 L2718 168 L2719 167 L2720 167 L2721 167 L2722 167 L2723 167 L2724 167 L2724 168 L2724 170 L2724 171 L2724 172 L2724 174 L2724 177 L2724 178 L2724 180 L2724 182 L2724 183 L2724 185 L2724 186 L2724 187 L2724 188 L2724 189 L2724 190 L2724 191 L2724 192 L2724 193 L2725 193 L2725 194 L2726 195 L2726 196 L2726 198 L2727 200 L2728 202 L2728 204 L2729 207 L2730 210 L2731 212 L2733 216 L2735 219 L2735 222 L2736 224 L2738 227 L2739 231 L2741 234 L2742 236 L2743 239 L2745 243 L2747 246 L2748 249 L2750 253 L2752 256 L2753 259 L2755 263 L2757 266 L2758 269 L2760 271 L2761 275 L2763 278 L2764 280 L2764 282 L2766 285 L2767 289 L2768 291 L2769 294 L2770 296 L2770 299 L2771 301 L2772 304 L2773 307 L2774 311 L2774 314 L2774 317 L2774 319 L2775 322 L2775 325 L2775 327 L2775 330 L2775 332 L2775 335 L2775 338 L2775 341 L2775 343 L2775 346 L2775 348 L2775 351 L2775 353 L2775 356 L2775 359 L2775 361 L2775 364 L2775 367 L2775 370 L2775 373 L2775 376 L2775 379 L2775 382 L2775 385 L2775 388 L2775 391 L2775 394 L2775 397 L2775 400 L2775 403 L2775 406 L2775 409 L2775 412 L2775 413 L2775 414 L2775 417 L2775 419 L2775 421 L2774 424 L2774 427 L2773 430 L2772 432 L2772 435 L2772 437 L2772 441 L2772 443 L2772 445 L2772 447 L2772 449 L2771 450 L2771 452 L2771 453 L2770 453 L2770 454 L2770 455 L2770 456 L2770 457 L2770 458 L2769 459 L2768 459 L2767 459 L2766 459 L2765 459 L2764 459 L2763 459 L2762 459 L2761 459 L2760 459 L2759 457 L2757 456 L2756 455 L2754 453 L2753 452 L2752 450 L2751 448 L2748 446 L2747 444 L2746 444 L2745 443 L2744 441 L2743 441 L2742 440 L2740 439 L2739 439 L2739 438 L2738 437 L2737 437 L2735 436 L2734 436 L2733 436 L2732 435 L2732 434 L2731 434 L2730 433 L2729 433 L2729 432 L2728 431 L2726 431 L2725 430 L2723 429 L2720 428 L2718 426 L2716 426 L2714 424 L2711 423 L2707 421 L2704 419 L2701 418 L2696 416 L2693 414 L2688 412 L2683 410 L2678 409 L2674 407 L2668 404 L2662 401 L2656 399 L2650 396 L2644 394 L2638 391 L2630 388 L2623 386 L2616 383 L2609 380 L2602 377 L2594 374 L2587 371 L2579 368 L2569 364 L2560 361 L2550 358 L2542 356 L2532 354 L2524 351 L2514 348 L2506 345 L2505 345 L2502 345 L2495 343 L2487 339 L2477 337 L2468 334 L2457 332 L2446 329 L2436 326 L2427 324 L2417 321 L2408 318 L2397 316 L2387 315 L2376 313 L2367 309 L2357 307 L2348 305 L2338 304 L2330 302 L2320 300 L2311 299 L2303 298 L2296 298 L2289 298 L2283 298 L2277 298 L2272 298 L2266 298 L2261 298 L2257 298 L2253 298 L2250 298 L2247 298 L2244 298 L2241 298 L2239 298 L2238 298 L2237 298 L2236 298 L2235 299 L2235 300 L2234 301 L2234 302 L2234 303 L2234 305 L2234 307 L2234 309 L2234 311 L2234 314 L2234 316 L2234 318 L2234 320 L2234 322 L2234 325 L2235 328 L2236 331 L2236 334 L2238 339 L2240 343 L2241 347 L2243 352 L2245 356 L2246 361 L2247 364 L2248 365 L2248 367 L2250 370 L2252 374 L2254 379 L2256 383 L2259 389 L2262 394 L2265 400 L2269 406 L2273 411 L2277 416 L2280 420 L2283 425 L2287 430 L2291 433 L2293 436 L2297 439 L2300 443 L2304 447 L2308 450 L2312 453 L2316 456 L2321 459 L2325 462 L2330 465 L2333 468 L2337 470 L2341 472 L2346 475 L2349 477 L2353 479 L2357 481 L2361 483 L2364 483 L2368 485 L2371 486 L2376 487 L2379 488 L2382 488 L2384 488 L2385 488 L2386 488 L2388 488 L2389 488 L2391 488 L2392 488 L2394 488 L2395 488 L2397 487 L2398 487 L2398 486 L2399 486 L2400 485 L2400 484 L2400 483 L2400 481 L2400 479 L2400 477 L2400 475 L2400 472 L2400 468 L2400 464 L2400 460 L2400 454 L2400 448 L2400 442 L2398 435 L2396 428 L2393 421 L2390 414 L2387 407 L2382 399 L2378 393 L2373 387 L2367 381 L2361 373 L2355 368 L2350 363 L2344 358 L2338 354 L2332 351 L2326 348 L2322 347 L2317 345 L2313 343 L2308 342 L2305 341 L2302 341 L2299 340 L2296 340 L2294 340 L2292 340 L2290 340 L2289 340 L2288 340 L2287 340 L2286 341 L2285 342 L2284 342 L2284 343 L2284 344 L2284 345 L2284 346 L2285 347 L2285 349 L2286 352 L2288 356 L2289 359 L2290 363 L2292 368 L2294 372 L2296 376 L2298 380 L2301 385 L2304 388 L2307 393 L2309 397 L2312 400 L2316 404 L2319 407 L2322 411 L2325 413 L2329 415 L2332 418 L2335 420 L2338 422 L2341 423 L2345 425 L2349 426 L2353 428 L2356 428 L2360 429 L2364 430 L2368 431 L2372 432 L2377 433 L2380 433 L2384 433 L2388 433 L2392 433 L2396 433 L2400 433 L2403 433 L2407 433 L2410 433 L2414 433 L2417 433 L2420 433 L2424 432 L2427 431 L2428 430 L2429 429 L2431 428 L2432 427 L2433 426 L2433 425 L2433 423 L2433 422 L2433 421 L2433 419 L2433 417 L2433 415 L2433 413 L2433 411 L2431 409 L2430 407 L2428 406 L2426 404 L2424 403 L2421 402 L2419 401 L2417 401 L2414 401 L2411 401 L2407 400 L2404 400 L2400 400 L2396 400 L2392 400 L2389 400 L2386 400 L2383 400 L2380 401 L2377 402 L2374 404 L2370 405 L2368 407 L2365 408 L2363 410 L2360 411 L2359 413 L2358 414 L2356 416 L2355 418 L2355 419 L2354 421 L2354 423 L2353 425 L2353 426 L2353 427 L2353 429 L2353 431 L2353 432 L2353 433 L2353 435 L2353 436 L2353 437 L2353 439 L2353 440 L2354 440 L2355 441 L2356 442 L2356 443 L2357 443 L2358 443 L2359 443 L2361 444 L2363 445 L2364 445 L2365 445 L2366 445 L2368 445 L2371 446 L2374 446 L2378 446 L2382 446 L2388 446 L2393 447 L2399 447 L2404 447 L2410 447 L2415 447 L2421 446 L2427 445 L2432 444 L2438 443 L2443 442 L2450 440 L2456 439 L2462 437 L2468 436 L2475 434 L2480 433 L2486 431 L2492 429 L2497 427 L2503 425 L2508 423 L2514 420 L2518 418 L2523 417 L2526 415 L2529 413 L2534 412 L2534 413 L2534 414 L2534 417 L2534 420 L2534 423 L2534 426 L2534 429 L2534 432 L2534 436 L2534 440 L2534 443 L2534 447 L2534 448 L2534 449 L2534 451 L2534 454 L2535 456 L2536 459 L2537 462 L2538 465 L2540 468 L2542 471 L2543 473 L2545 475 L2546 477 L2547 479 L2549 480 L2551 482 L2553 483 L2555 484 L2557 485 L2559 485 L2560 486 L2563 487 L2565 487 L2567 487 L2569 487 L2570 487 L2573 487 L2575 487 L2576 487 L2577 487 L2579 487 L2582 487 L2584 486 L2586 485 L2588 483 L2591 482 L2593 480 L2595 479 L2598 476 L2601 474 L2604 470 L2607 467 L2609 463 L2612 460 L2614 457 L2615 453 L2617 449 L2619 444 L2621 440 L2623 435 L2623 431 L2624 427 L2625 422 L2626 418 L2626 415 L2626 412 L2626 410 L2626 408 L2626 406 L2626 405 L2625 405 L2624 405 L2623 406 L2622 407 L2621 409 L2620 411 L2619 413 L2618 415 L2617 417 L2616 420 L2615 423 L2614 426 L2614 429 L2613 432 L2613 435 L2613 439 L2613 443 L2613 447 L2613 450 L2613 454 L2613 457 L2613 460 L2613 463 L2614 466 L2616 471 L2618 474 L2620 477 L2623 480 L2624 481 L2625 481 L2626 483 L2629 484 L2632 485 L2635 487 L2637 487 L2639 488 L2642 489 L2645 490 L2647 490 L2649 490 L2651 490 L2653 490 L2655 490 L2657 490 L2658 490 L2659 490 L2661 490 L2661 489 L2662 489 L2663 487 L2664 487 L2664 486 L2664 485 L2664 483 L2665 481 L2665 479 L2666 476 L2666 473 L2666 470 L2666 467 L2666 464 L2666 460 L2666 457 L2666 453 L2664 449 L2663 446 L2661 442 L2658 439 L2656 435 L2653 432 L2651 430 L2648 427 L2645 426 L2643 424 L2641 423 L2639 423 L2635 422 L2633 422 L2631 422 L2629 422 L2627 422 L2625 422 L2623 422 L2621 423 L2619 424 L2618 426 L2616 427 L2615 429 L2613 431 L2612 433 L2611 435 L2610 438 L2609 442 L2609 445 L2608 448 L2608 452 L2608 456 L2608 459 L2608 463 L2608 467 L2608 470 L2608 474 L2608 478 L2610 483 L2611 486 L2613 490 L2616 494 L2619 498 L2622 501 L2625 505 L2629 509 L2634 511 L2637 514 L2642 516 L2646 519 L2652 521 L2658 523 L2664 525 L2670 527 L2675 529 L2682 530 L2689 531 L2696 532 L2703 533 L2709 534 L2715 535 L2721 535 L2728 535 L2733 535 L2738 535 L2744 535 L2748 535 L2752 535 L2757 534 L2760 534 L2762 532 L2765 531 L2767 530 L2770 528 L2772 527 L2773 525 L2775 524 L2776 523 L2777 520 L2778 518 L2778 515 L2779 513 L2779 511 L2779 508 L2779 505 L2779 502 L2779 499 L2779 496 L2778 492 L2777 488 L2774 484 L2770 480 L2766 475 L2763 472 L2759 467 L2754 463 L2749 460 L2744 457 L2739 454 L2733 452 L2727 450 L2722 450 L2716 449 L2711 449 L2705 449 L2700 449 L2694 449 L2689 449 L2683 449 L2678 450 L2672 452 L2666 454 L2660 457 L2656 459 L2653 461 L2650 463 L2647 466 L2643 468 L2640 472 L2639 473 L2638 474 L2637 476 L2636 478 L2636 480 L2635 482 L2634 485 L2634 488 L2634 491 L2634 493 L2634 496 L2634 499 L2636 503 L2637 505 L2640 508 L2643 511 L2646 514 L2650 517 L2655 520 L2659 522 L2664 525 L2670 528 L2676 531 L2681 533 L2687 535 L2693 537 L2699 539 L2706 541 L2713 543 L2720 545 L2727 546 L2732 547 L2739 549 L2745 550 L2751 551 L2756 552 L2761 552 L2765 553 L2768 553 L2770 553 L2772 553 L2774 553 L2775 553 L2776 553 L2777 553 L2777 552 L2777 551 L2777 550 L2776 549 L2776 547 L2774 546 L2773 544 L2771 543 L2770 541 L2768 539 L2765 537 L2762 535 L2760 534 L2757 533 L2754 532 L2750 531 L2747 531 L2744 531 L2741 531 L2739 531 L2736 531 L2734 531 L2731 531 L2728 531 L2726 531 L2723 532 L2721 533 L2718 535 L2716 537 L2714 539 L2710 541 L2708 545 L2705 548 L2703 552 L2700 555 L2697 560 L2694 564 L2693 569 L2693 570 L2692 571 L2692 573 L2691 576 L2691 579 L2691 582 L2691 586 L2691 589 L2691 593 L2691 598 L2691 602 L2693 606 L2695 611 L2695 614 L2696 617 L2698 620 L2699 623 L2700 627 L2702 629 L2703 632 L2704 635 L2706 638 L2706 640 L2707 642 L2708 644 L2709 646 L2709 648 L2709 649 L2709 650 L2708 650 L2707 650 L2705 651 L2703 651 L2701 651 L2700 651 L2698 651 L2695 649 L2690 648 L2685 646 L2678 644 L2669 641 L2661 637 L2651 634 L2641 630 L2630 625 L2619 621 L2608 615 L2597 610 L2586 604 L2575 599 L2564 593 L2553 588 L2542 582 L2530 575 L2521 570 L2511 565 L2502 559 L2492 554 L2484 548 L2475 543 L2468 538 L2460 531 L2453 526 L2447 522 L2443 518 L2438 514 L2435 509 L2430 503 L2426 497 L2422 492 L2422 491 L2421 489 L2421 486 L2421 483 L2421 480 L2422 477 L2424 474 L2426 473 L2430 471 L2435 469 L2439 467 L2445 466 L2452 466 L2460 466 L2469 466 L2480 466 L2490 467 L2503 469 L2515 471 L2527 474 L2540 478 L2554 482 L2571 487 L2588 493 L2604 498 L2621 503 L2637 506 L2645 507 L2656 511 L2667 516 L2679 521 L2680 521 L2680 522 L2684 524 L2691 528 L2699 532 L2705 536 L2711 540 L2715 543 L2719 547 L2721 549 L2722 551 L2722 552 L2720 554 L2718 555 L2714 557 L2710 558 L2704 561 L2698 563 L2691 565 L2684 567 L2675 568 L2665 571 L2656 572 L2646 573 L2636 574 L2626 574 L2616 574 L2605 574 L2594 574 L2584 574 L2573 575 L2562 575 L2553 575 L2542 575 L2533 575 L2525 574 L2517 573 L2510 572 L2503 571 L2496 570 L2490 569 L2485 568 L2480 567 L2476 566 L2473 565 L2470 565 L2468 564 L2466 563 L2465 563 L2464 562 L2463 561 L2463 560 L2463 558 L2463 557 L2463 556 L2463 554 L2464 553 L2467 551 L2469 550 L2472 548 L2475 547 L2479 546 L2483 545 L2487 544 L2493 543 L2498 543 L2504 543 L2510 543 L2517 543 L2524 543 L2532 543 L2540 543 L2548 544 L2556 545 L2565 547 L2572 548 L2579 550 L2587 552 L2594 553 L2601 554 L2606 556 L2612 558 L2616 559 L2617 559 L2618 559 L2619 560 L2619 561 L2618 562 L2617 562 L2616 563 L2614 563 L2612 564 L2609 565 L2604 566 L2600 567 L2596 567 L2590 567 L2584 567 L2577 567 L2569 567 L2560 567 L2550 567 L2540 567 L2530 567 L2520 567 L2509 567 L2498 566 L2487 564 L2477 563 L2466 562 L2456 561 L2447 559 L2437 558 L2429 557 L2421 556 L2414 555 L2407 554 L2400 553 L2395 552 L2389 551 L2384 550 L2379 549 L2375 548 L2371 547 L2367 546 L2364 544 L2361 542 L2358 541 L2356 539 L2354 537 L2352 536 L2351 533 L2349 530 L2349 528 L2349 525 L2349 523 L2349 521 L2349 519 L2349 516 L2349 515 L2350 514 L2353 512 L2355 511 L2356 510 L2358 510 L2359 510 L2360 510 L2361 510 L2363 510 L2364 510 L2366 511 L2368 512 L2369 514 L2371 515 L2372 517 L2374 519 L2375 520 L2376 521 L2377 523 L2378 525 L2379 527 L2380 529 L2380 532 L2381 534 L2381 536 L2381 539 L2382 541 L2382 543 L2382 545 L2382 548 L2382 550 L2382 552 L2382 553 L2381 555 L2380 556 L2380 557 L2379 558 L2378 559 L2376 561 L2374 562 L2373 564 L2370 566 L2368 567 L2366 569 L2363 571 L2359 573 L2356 575 L2355 575 L2353 576 L2350 577 L2347 577 L2343 578 L2339 578 L2335 578 L2330 578 L2326 578 L2323 578 L2319 578 L2316 578 L2313 578 L2310 578 L2308 578 L2305 578 L2303 578 L2301 578 L2300 577 L2298 577 L2297 575 L2295 574 L2294 573 L2293 571 L2292 569 L2292 566 L2291 564 L2291 561 L2291 558 L2291 556 L2291 554 L2291 553 L2292 552 L2294 550 L2296 548 L2300 545 L2302 543 L2306 542 L2311 540 L2315 539 L2320 538 L2324 538 L2329 538 L2335 538 L2340 538 L2344 538 L2350 538 L2354 539 L2360 541 L2364 543 L2370 545 L2376 548 L2382 550 L2388 552 L2392 554 L2398 557 L2403 559 L2407 561 L2412 564 L2415 566 L2419 568 L2421 570 L2423 572 L2425 573 L2425 575 L2426 576 L2426 577 L2426 578 L2426 580 L2426 581 L2426 582 L2426 584 L2425 585 L2423 587 L2423 588 L2422 589 L2419 590 L2419 591 L2417 591 L2415 593 L2412 594 L2409 595 L2404 597 L2400 599 L2396 600 L2391 600 L2386 601 L2380 601 L2375 601 L2369 601 L2364 601 L2358 601 L2353 601 L2349 601 L2344 601 L2339 601 L2335 601 L2332 601 L2329 601 L2326 601 L2323 601 L2321 601 L2319 600 L2317 599 L2314 598 L2312 596 L2311 595 L2310 592 L2309 590 L2309 588 L2309 585 L2309 582 L2309 578 L2309 575 L2309 572 L2309 571 L2310 570 L2313 569 L2317 567 L2321 566 L2325 565 L2331 564 L2337 564 L2342 564 L2347 564 L2354 564 L2361 564 L2369 566 L2379 570 L2398 575 L2408 578 L2419 581 L2430 585 L2439 589 L2449 593 L2458 596 L2466 601 L2473 605 L2481 609 L2487 613 L2493 617 L2497 620 L2502 624 L2506 626 L2509 630 L2511 632 L2512 634 L2514 637 L2514 638 L2514 640 L2514 642 L2514 644 L2514 645 L2514 647 L2514 648 L2512 651 L2511 652 L2509 654 L2506 656 L2503 657 L2500 660 L2497 662 L2492 664 L2487 666 L2482 668 L2476 670 L2469 672 L2461 673 L2452 674 L2443 674 L2434 674 L2424 674 L2414 674 L2403 674 L2394 674 L2383 672 L2372 671 L2361 669 L2352 668 L2342 667 L2332 666 L2322 663 L2313 661 L2303 659 L2295 657 L2288 655 L2281 653 L2274 651 L2268 648 L2261 645 L2255 642 L2250 639 L2245 637 L2241 633 L2237 629 L2234 626 L2232 621 L2229 616 L2227 612 L2226 607 L2225 603 L2225 600 L2225 598 L2226 595 L2227 591 L2230 588 L2234 584 L2237 581 L2242 578 L2248 576 L2254 574 L2261 572 L2269 571 L2278 570 L2287 570 L2297 570 L2307 570 L2318 570 L2329 570 L2340 572 L2353 574 L2365 577 L2380 578 L2393 580 L2405 582 L2417 584 L2430 588 L2442 591 L2453 594 L2462 597 L2472 600 L2480 602 L2487 605 L2493 607 L2499 610 L2502 611 L2503 611 L2504 612 L2504 613 L2504 614 L2504 615 L2504 616 L2504 618 L2503 619 L2502 620 L2501 622 L2499 625 L2498 627 L2496 629 L2493 632 L2491 634 L2489 636 L2486 639 L2484 641 L2482 643 L2479 645 L2474 648 L2469 650 L2465 651 L2460 654 L2456 656 L2451 658 L2447 660 L2442 661 L2438 662 L2434 664 L2430 665 L2426 666 L2423 666 L2420 667 L2416 668 L2413 669 L2410 670 L2408 670 L2406 671 L2404 671 L2402 671 L2401 671 L2399 671 L2399 670 L2399 668 L2399 667 L2399 666 L2399 665 L2400 664 L2403 663 L2406 663 L2410 663 L2414 663 L2418 663 L2423 663 L2429 663 L2436 664 L2443 666 L2450 669 L2457 672 L2465 675 L2474 680 L2484 684 L2493 688 L2503 694 L2513 699 L2522 704 L2530 708 L2539 712 L2548 718 L2558 723 L2567 728 L2577 733 L2583 736 L2584 737 L2588 739 L2591 742 L2593 744 L2597 748 L2599 753 L2599 754 L2598 754 L2597 754 L2596 755 L2594 756 L2593 756 L2592 756 L2591 756 L2589 757 L2587 757 L2583 758 L2579 758 L2573 758 L2568 758 L2561 758 L2554 758 L2546 758 L2538 758 L2530 758 L2519 758 L2510 757 L2500 755 L2490 754 L2479 751 L2468 749 L2457 747 L2445 745 L2434 742 L2422 738 L2411 735 L2400 732 L2389 728 L2378 725 L2366 721 L2354 716 L2343 712 L2274 668 L2269 663 L2264 658 L2255 644 L2255 641 L2255 639 L2255 637 L2256 636 L2259 634 L2261 633 L2264 633 L2308 631 L2314 631 L2322 631 L2329 631 L2337 632 L2345 634 L2350 635 L2351 635 L2353 636 L2357 638 L2363 641 L2369 644 L2375 647 L2379 651 L2385 653 L2390 657 L2395 661 L2398 665 L2401 667 L2402 669 L2404 672 L2405 675 L2407 678 L2409 684 L2410 688 L2411 693 L2411 698 L2411 705 L2411 710 L2411 717 L2411 723 L2410 728 L2408 735 L2405 745 L2402 752 L2372 796 L2370 798 L2366 800 L2360 804 L2353 808 L2347 811 L2340 815 L2331 820 L2324 823 L2317 826 L2310 828 L2303 830 L2295 833 L2287 835 L2281 836 L2274 837 L2268 838 L2266 838 L2263 838 L2260 838 L2258 838 L2255 838 L2252 837 L2250 837 L2247 836 L2245 834 L2243 833 L2241 831 L2239 829 L2238 827 L2236 824 L2236 821 L2235 816 L2234 812 L2233 806 L2233 801 L2233 795 L2233 789 L2233 782 L2233 774 L2233 766 L2235 759 L2237 753 L2239 746 L2242 739 L2246 732 L2250 726 L2255 719 L2260 715 L2291 699 L2297 697 L2304 695 L2312 694 L2320 693 L2327 692 L2334 691 L2341 690 L2346 690 L2352 690 L2356 690 L2360 690 L2364 690 L2369 690 L2372 691 L2375 692 L2377 693 L2379 695 L2381 696 L2383 698 L2383 699 L2383 700 L2384 702 L2384 703 L2384 705 L2384 707 L2384 709 L2384 711 L2384 714 L2384 717 L2384 720 L2383 723 L2381 725 L2380 729 L2378 733 L2377 733 L2376 734 L2373 737 L2370 739 L2365 743 L2361 746 L2325 760 L2315 762 L2306 765 L2296 767 L2286 769 L2277 772 L2267 774 L2259 775 L2251 776 L2244 777 L2237 778 L2233 779 L2227 780 L2222 780 L2218 780 L2215 780 L2212 780 L2209 780 L2206 780 L2204 780 L2204 779 L2204 778 L2204 776 L2204 773 L2206 770 L2208 766 L2210 761 L2213 755 L2216 749 L2220 742 L2225 735 L2229 728 L2234 719 L2239 710 L2245 703 L2251 696 L2300 652 L2306 648 L2313 645 L2323 642 L2330 639 L2339 637 L2346 635 L2353 633 L2360 631 L2367 629 L2374 628 L2379 627 L2385 627 L2391 627 L2398 627 L2404 628 L2408 629 L2413 630 L2416 632 L2419 634 L2423 636 L2426 639 L2428 640 L2431 643 L2432 645 L2434 647 L2434 649 L2435 653 L2436 656 L2436 659 L2436 662 L2436 665 L2436 669 L2436 673 L2435 675 L2433 677 L2431 680 L2427 685 L2423 690 L2420 694 L2415 698 L2407 704 L2401 709 L2395 714 L2392 715 L2386 717 L2378 720 L2368 723 L2357 727 L2346 730 L2335 733 L2323 737 L2311 739 L2299 741 L2285 743 L2272 745 L2260 748 L2178 750 L2170 750 L2163 749 L2158 748 L2155 747 L2150 745 L2146 743 L2143 742 L2143 741 L2143 739 L2143 737 L2143 735 L2143 732 L2143 728 L2145 723 L2147 718 L2150 714 L2154 709 L2158 704 L2161 700 L2166 697 L2172 694 L2179 690 L2187 685 L2194 682 L2280 662 L2290 661 L2301 660 L2312 658 L2322 657 L2332 657 L2339 657 L2340 657 L2342 657 L2343 657 L2344 658 L2344 659 L2343 659 L2343 660 L2342 660 L2341 661 L2339 662 L2338 665 L2336 667 L2332 670 L2329 672 L2327 674 L2326 674 L2325 674 L2323 675 L2318 678 L2311 681 L2304 684 L2299 690 L2290 695 L2279 701 L2268 705 L2256 710 L2242 713 L2226 718 L2210 722 L2194 727 L2175 732 L2158 737 L2139 743 L2126 745 L2125 745 L2120 746 L2116 748 L2053 756 L2045 757 L2037 758 L2030 759 L2026 760 L2023 760 L2020 760 L2018 760 L2017 760 L2017 759 L2017 758 L2017 757 L2018 756 L2020 753 L2022 751 L2024 749 L2026 747 L2030 745 L2034 742 L2039 740 L2043 738 L2051 735 L2058 732 L2066 730 L2074 728 L2083 726 L2092 724 L2100 722 L2107 721 L2115 720 L2124 719 L2132 719 L2140 719 L2146 719 L2153 719 L2160 719 L2165 719 L2172 719 L2177 719 L2183 719 L2187 719 L2191 719 L2195 720 L2197 721 L2199 722 L2201 722 L2202 723 L2203 724 L2203 725 L2203 726 L2203 727 L2202 728 L2200 730 L2196 732 L2193 734 L2190 736 L2185 739 L2180 741 L2174 744 L2167 746 L2160 748 L2155 750 L2085 761 L2076 761 L2065 761 L2056 761 L2047 761 L2036 761 L2025 761 L2016 762 L2006 762 L1997 761 L1988 759 L1978 757 L1968 755 L1959 753 L1951 751 L1942 748 L1934 745 L1927 742 L1919 739 L1912 736 L1905 731 L1899 728 L1894 725 L1888 721 L1884 717 L1879 713 L1874 708 L1870 704 L1866 700 L1864 695 L1862 690 L1860 685 L1858 681 L1857 678 L1857 675 L1856 672 L1856 668 L1856 665 L1856 662 L1856 659 L1856 655 L1856 653 L1857 650 L1859 647 L1861 645 L1864 641 L1866 639 L1868 637 L1871 635 L1873 632 L1876 630 L1880 628 L1884 626 L1888 624 L1891 623 L1894 622 L1897 621 L1901 621 L1905 621 L1909 621 L1915 621 L1920 621 L1925 621 L1930 622 L1936 624 L1940 626 L1945 628 L1950 629 L1955 632 L1960 635 L1965 638 L1969 641 L1974 645 L1979 648 L1983 652 L1986 657 L1989 662 L1992 666 L1995 671 L1998 676 L2001 680 L2003 686 L2006 692 L2008 698 L2010 704 L2011 707 L2011 710 L2011 714 L2011 721 L2011 727 L2010 734 L2009 743 L2007 752 L2004 762 L2001 770 L1956 844 L1947 854 L1937 864 L1925 873 L1914 883 L1899 895 L1884 907 L1868 918 L1850 927 L1831 939 L1810 949 L1785 961 L1759 970 L1732 980 L1704 988 L1677 996 L1647 1004 L1617 1012 L1600 1019 L1600 1023 L1600 1020 L1600 1018 L1600 1017 L1600 1014 L1600 1011 L1600 1008 L1600 1005 L1600 1001 L1600 997 L1600 993 L1600 990 L1600 985 L1600 982 L1600 978 L1600 972 L1602 965 L1605 959 L1608 952 L1612 945 L1616 937 L1622 929 L1627 923 L1629 920 L1636 913 L1643 906 L1653 896 L1665 887 L1677 877 L1689 866 L1704 854 L1720 843 L1736 832 L1750 822 L1866 750 L1882 741 L1926 718 L1937 713 L1948 708 L1957 705 L1967 702 L1975 700 L1982 698 L1989 697 L1995 696 L2001 695 L2006 695 L2010 695 L2013 695 L2016 695 L2019 695 L2021 695 L2023 695 L2024 695 L2025 696 L2025 698 L2025 699 L2025 701 L2025 703 L2025 706 L2025 710 L2025 714 L2025 720 L2023 727 L2021 734 L2018 742 L2016 748 L2012 754 L2007 763 L1955 834 L1946 845 L1935 855 L1924 865 L1911 876 L1900 886 L1885 896 L1871 906 L1857 918 L1843 928 L1826 939 L1812 950 L1799 958 L1785 968 L1772 976 L1760 982 L1751 987 L1750 987 L1749 987 L1744 990 L1736 993 L1728 997 L1720 1000 L1714 1003 L1707 1006 L1701 1008 L1695 1010 L1689 1011 L1685 1012 L1681 1013 L1678 1013 L1675 1013 L1672 1013 L1668 1013 L1665 1012 L1661 1011 L1658 1009 L1656 1007 L1652 1005 L1649 1002 L1645 999 L1642 995 L1638 991 L1633 987 L1628 980 L1623 974 L1618 967 L1612 960 L1606 952 L1600 944 L1600 932 L1600 922 L1600 912 L1600 901 L1592 890 L1583 878 L1574 866 L1542 822 L1542 821 L1501 711 L1502 706 L1504 700 L1507 695 L1511 689 L1514 684 L1519 679 L1523 676 L1528 672 L1534 668 L1541 664 L1547 660 L1554 657 L1560 654 L1567 651 L1574 649 L1581 647 L1595 644 L1611 643 L1618 643 L1625 643 L1633 643 L1640 643 L1645 644 L1651 645 L1656 647 L1662 650 L1665 652 L1668 654 L1672 657 L1674 659 L1676 663 L1677 666 L1677 669 L1677 673 L1677 677 L1677 681 L1677 687 L1677 692 L1675 698 L1674 704 L1672 710 L1671 710 L1669 712 L1665 718 L1659 726 L1653 733 L1646 742 L1637 751 L1627 759 L1615 770 L1614 771 L1613 771 L1608 772 L1598 779 L1584 788 L1565 799 L1544 811 L1520 822 L1495 833 L1469 846 L1440 858 L1415 869 L1387 881 L1359 891 L1334 898 L1310 899 L1285 899 L1261 899 L1242 899 L1221 899 L1198 899 L1180 899 L1162 899 L1148 899 L1132 899 L1117 899 L1104 899 L1091 899 L1077 898 L1065 897 L1053 896 L1041 893 L1030 890 L1019 887 L1010 884 L1000 880 L990 876 L980 871 L972 867 L963 863 L956 857 L949 852 L948 852 L945 849 L939 844 L933 838 L927 833 L921 827 L914 821 L908 814 L902 806 L896 799 L891 791 L885 783 L879 774 L874 766 L870 757 L866 749 L863 739 L860 732 L857 723 L855 716 L854 708 L853 700 L852 693 L852 685 L852 678 L852 673 L853 667 L855 661 L858 656 L858 655 L858 654 L860 651 L862 648 L864 647 L867 643 L872 640 L877 636 L883 632 L890 629 L897 626 L903 623 L910 620 L917 618 L925 616 L934 614 L943 613 L951 612 L960 612 L969 612 L975 612 L982 613 L989 615 L998 617 L1005 621 L1012 624 L1018 627 L1024 631 L1030 635 L1036 639 L1041 642 L1045 646 L1049 651 L1052 657 L1055 663 L1058 669 L1060 675 L1062 680 L1063 687 L1064 693 L1064 700 L1064 706 L1064 713 L1063 720 L1061 728 L1058 735 L1055 744 L1050 754 L1046 762 L1042 772 L1036 780 L1031 789 L1023 799 L1016 808 L1008 817 L999 827 L998 827 L998 828 L997 828 L992 832 L983 837 L975 843 L965 849 L898 880 L891 882 L890 882 L888 882 L885 882 L883 882 L881 882 L878 882 L876 881 L873 879 L871 878 L869 876 L867 875 L864 873 L863 871 L861 869 L860 866 L858 862 L856 858 L854 853 L853 849 L851 843 L849 836 L847 829 L845 821 L843 812 L842 803 L841 793 L839 783 L838 773 L837 764 L837 753 L837 743 L837 731 L837 720 L837 709 L837 699 L837 688 L838 679 L841 669 L844 659 L846 650 L849 641 L853 633 L856 626 L861 619 L866 612 L870 606 L874 600 L876 599 L879 596 L884 592 L888 589 L894 586 L903 583 L910 581 L917 579 L926 576 L936 574 L944 573 L953 572 L963 571 L972 571 L983 571 L993 571 L1003 571 L1012 571 L1022 571 L1032 572 L1042 573 L1051 575 L1061 577 L1072 581 L1081 584 L1090 587 L1098 590 L1106 594 L1113 598 L1119 601 L1125 604 L1129 608 L1134 613 L1138 617 L1142 621 L1145 626 L1147 631 L1149 635 L1151 640 L1152 644 L1153 648 L1154 654 L1154 660 L1154 665 L1154 671 L1152 676 L1150 682 L1147 687 L1144 693 L1141 697 L1141 698 L1137 701 L1131 706 L1122 711 L1114 717 L1104 722 L1093 728 L1082 733 L1069 739 L1069 740 L1067 740 L1061 741 L1051 743 L1039 747 L1026 749 L1011 751 L995 754 L980 756 L966 757 L951 757 L936 757 L920 757 L906 757 L891 757 L876 755 L861 752 L847 749 L835 746 L822 742 L809 738 L797 733 L787 729 L776 723 L765 718 L755 712 L747 707 L738 702 L731 696 L723 691 L717 686 L711 680 L705 674 L701 668 L697 663 L694 656 L691 649 L688 641 L686 632 L685 624 L684 616 L684 609 L684 602 L684 594 L685 588 L687 581 L690 574 L694 567 L699 558 L704 552 L711 545 L717 539 L723 532 L731 526 L739 519 L750 514 L758 510 L767 504 L776 500 L786 496 L797 491 L808 487 L820 484 L832 480 L843 478 L855 476 L866 475 L878 475 L890 475 L903 475 L915 475 L927 476 L939 478 L951 480 L963 483 L975 485 L986 488 L997 491 L1008 495 L1018 498 L1028 501 L1036 504 L1042 507 L1048 511 L1054 515 L1060 519 L1065 523 L1068 527 L1071 530 L1074 534 L1074 537 L1075 540 L1076 543 L1076 547 L1076 551 L1075 556 L1073 560 L1071 565 L1069 569 L1066 574 L1062 580 L1058 585 L1054 591 L1049 597 L1044 603 L1044 604 L1043 604 L1039 608 L1033 613 L1026 618 L1017 623 L1006 630 L995 636 L984 642 L974 648 L963 652 L950 658 L938 661 L927 664 L916 668 L909 670 L906 671 L899 673 L890 674 L880 676 L871 677 L861 678 L852 679 L844 679 L836 679 L828 679 L821 678 L814 676 L808 674 L802 672 L798 670 L793 668 L788 666 L785 663 L781 659 L778 657 L774 653 L772 650 L769 646 L767 642 L765 637 L764 633 L762 627 L760 622 L758 617 L757 610 L757 609 L757 607 L757 603 L757 597 L757 591 L757 583 L757 573 L758 565 L759 555 L760 547 L762 538 L765 529 L769 521 L772 515 L773 512 L776 507 L779 501 L783 495 L787 490 L791 486 L797 479 L802 474 L806 472 L811 468 L816 465 L821 462 L825 460 L830 458 L834 456 L839 454 L843 452 L852 450 L855 450 L858 450 L862 450 L866 450 L869 450 L873 450 L876 450 L879 450 L882 450 L885 450 L889 452 L891 453 L893 455 L895 457 L897 459 L898 462 L899 464 L900 466 L901 469 L901 472 L901 475 L901 479 L901 483 L901 487 L901 490 L899 495 L897 499 L895 505 L892 511 L888 517 L884 523 L880 529 L876 536 L871 542 L867 548 L862 553 L856 560 L850 565 L842 571 L836 576 L828 582 L819 587 L810 592 L803 598 L795 602 L785 606 L775 610 L765 615 L756 618 L747 621 L738 624 L731 626 L722 627 L713 630 L703 631 L694 631 L686 631 L679 631 L671 631 L670 631 L668 630 L664 628 L658 625 L651 622 L645 619 L639 616 L633 613 L627 609 L621 605 L616 602 L612 598 L607 593 L602 588 L598 583 L597 582 L597 581 L595 578 L593 572 L591 566 L589 559 L587 554 L585 548 L584 541 L583 532 L582 523 L581 515 L580 510 L580 504 L580 497 L582 490 L584 483 L586 476 L589 469 L592 463 L598 456 L603 450 L608 444 L613 438 L620 431 L626 426 L631 423 L632 423 L634 422 L639 419 L646 416 L655 413 L663 409 L671 406 L681 404 L689 401 L699 399 L708 398 L717 397 L726 397 L745 396 L753 396 L761 397 L769 398 L776 400 L783 402 L790 404 L797 406 L802 408 L808 411 L812 414 L817 417 L821 420 L824 424 L828 428 L831 432 L833 437 L835 441 L837 447 L838 453 L839 458 L839 465 L840 472 L840 479 L840 485 L840 493 L839 502 L837 510 L835 518 L833 528 L829 538 L825 546 L821 555 L817 564 L811 573 L805 583 L798 593 L795 597 L791 602 L785 608 L778 616 L770 623 L762 632 L754 640 L745 646 L735 653 L725 661 L715 666 L705 673 L696 678 L685 683 L675 687 L664 691 L654 696 L644 699 L633 702 L623 704 L612 707 L602 708 L593 708 L585 708 L578 708 L571 708 L566 708 L560 706 L556 704 L550 702 L545 699 L540 696 L536 694 L532 690 L529 686 L525 682 L521 677 L518 672 L515 667 L512 663 L511 657 L509 654 L509 653 L508 652 L507 648 L505 640 L503 632 L502 628 L502 625 L502 620 L502 613 L502 605 L502 597 L502 588 L502 580 L503 571 L504 564 L504 563 L506 559 L508 555 L510 550 L513 546 L516 540 L519 535 L523 530 L527 525 L531 521 L534 516 L538 512 L541 510 L546 507 L551 504 L555 502 L560 500 L564 499 L569 498 L573 497 L577 496 L582 495 L586 495 L588 495 L590 495 L592 496 L595 496 L598 497 L601 499 L605 500 L607 503 L609 505 L613 508 L615 510 L617 513 L618 517 L620 520 L622 524 L624 529 L626 533 L626 539 L627 545 L627 550 L627 557 L627 562 L627 569 L627 572 L627 575 L627 580 L626 586 L623 593 L620 600 L615 609 L612 617 L608 626 L604 633 L600 640 L595 647 L590 656 L585 663 L579 672 L574 679 L568 687 L561 694 L555 700 L549 707 L543 714 L536 720 L530 725 L524 730 L518 734 L512 738 L506 742 L468 755 L465 755 L461 755 L459 754 L456 754 L453 752 L451 750 L450 748 L447 746 L446 743 L444 739 L442 735 L440 730 L438 724 L436 719 L435 713 L432 705 L430 696 L428 688 L426 670 L425 661 L423 651 L422 642 L420 627 L419 620 L418 614 L417 606 L416 598 L414 589 L414 581 L414 575 L414 567 L414 559 L414 548 L414 539 L415 530 L417 521 L419 512 L422 503 L425 496 L428 490 L431 483 L434 477 L438 471 L442 466 L446 462 L450 458 L453 454 L457 452 L461 449 L466 446 L469 445 L474 443 L480 442 L485 441 L491 440 L496 439 L502 439 L507 439 L513 439 L519 439 L526 439 L533 439 L539 440 L546 442 L552 445 L557 448 L563 451 L569 455 L575 459 L581 463 L586 468 L591 473 L595 477 L599 483 L603 488 L603 489 L604 490 L605 493 L607 499 L609 505 L611 511 L613 518 L615 525 L616 533 L617 540 L618 548 L618 557 L618 564 L618 569 L618 575 L618 580 L616 587 L614 594 L611 603 L608 610 L605 617 L602 624 L598 630 L594 637 L589 645 L585 651 L581 657 L576 663 L571 668 L565 673 L559 678 L553 682 L547 686 L541 689 L534 692 L527 694 L520 696 L513 698 L505 699 L498 700 L491 700 L484 700 L479 700 L472 700 L467 700 L460 697 L454 695 L448 692 L442 688 L436 684 L430 679 L424 674 L417 669 L413 664 L406 658 L401 652 L396 644 L392 637 L382 620 L378 610 L375 604 L372 596 L369 586 L365 577 L362 566 L360 556 L357 546 L355 536 L352 525 L352 524 L352 521 L352 514 L352 504 L352 495 L352 485 L352 474 L353 464 L354 455 L357 444 L359 434 L362 426 L366 418 L370 410 L374 403 L383 390 L388 384 L393 377 L400 370 L405 364 L411 359 L418 354 L424 350 L431 346 L439 343 L446 341 L454 340 L462 339 L470 338 L478 338 L485 338 L493 338 L502 338 L510 338 L517 340 L524 342 L532 345 L536 347 L537 348 L538 349 L541 352 L545 355 L550 360 L554 365 L558 371 L562 377 L565 384 L567 391 L569 399 L570 408 L571 417 L571 426 L571 433 L571 441 L570 451 L568 460 L565 470 L562 481 L559 490 L555 501 L549 511 L542 522 L537 534 L530 543 L522 553 L515 565 L505 576 L496 586 L487 596 L477 605 L467 614 L457 623 L447 631 L436 639 L423 646 L412 652 L401 658 L389 664 L376 668 L365 672 L354 677 L343 680 L331 682 L321 683 L310 684 L299 684 L289 684 L288 684 L285 684 L280 683 L273 681 L264 678 L256 675 L247 671 L240 667 L234 662 L228 657 L223 652 L218 646 L214 640 L210 634 L207 626 L204 618 L202 610 L200 602 L197 594 L196 584 L195 575 L195 565 L195 556 L195 547 L195 540 L195 539 L197 534 L198 531 L198 530 L199 527 L203 520 L209 510 L215 500 L223 490 L231 482 L236 477 L244 469 L254 461 L268 452 L282 441 L295 433 L308 426 L324 416 L339 409 L355 401 L372 394 L392 387 L408 382 L425 377 L442 372 L460 368 L474 365 L487 361 L501 358 L513 355 L525 352 L537 350 L549 348 L560 347 L569 347 L579 347 L588 347 L595 347 L600 348 L605 349 L609 350 L613 352 L613 353 L614 353 L614 354 L614 356 L614 357 L614 358 L614 359 L612 363 L609 367 L605 372 L601 377 L595 383 L589 391 L583 397 L576 404 L567 412 L558 420 L548 427 L538 435 L527 444 L515 454 L503 463 L490 472 L474 481 L458 490 L442 500 L434 505 L421 512 L406 518 L389 525 L371 533 L354 540 L339 546 L325 550 L311 554 L299 557 L287 559 L276 560 L267 563 L259 563 L252 563 L247 563 L242 563 L239 561 L236 559 L233 558 L231 556 L230 554 L229 552 L229 550 L229 549 L229 546 L230 541 L232 537 L235 530 L239 521 L239 520 L240 517 L243 510 L249 501 L255 490 L263 479 L271 468 L279 456 L285 446 L293 436 L302 425 L312 413 L323 401 L334 388 L344 378 L356 368 L368 357 L381 346 L391 335 L406 322 L419 311 L433 299 L445 290 L457 281 L467 273 L477 265 L487 257 L497 251 L507 244 L513 240 L514 239 L518 236 L522 233 L527 231 L532 228 L538 226 L542 224 L545 222 L548 222 L551 221 L553 221 L555 221 L557 221 L558 221 L559 221 L560 222 L560 223 L560 226 L561 228 L561 231 L561 232 L561 233 L561 236 L561 241 L561 248 L561 256 L559 264 L556 273 L555 282 L552 292 L549 303 L546 314 L542 325 L539 337 L535 348 L530 358 L525 370 L520 378 L520 379 L518 382 L514 389 L510 398 L505 406 L498 415 L492 423 L485 433 L477 442 L470 451 L462 458 L455 466 L447 473 L437 480 L427 488 L417 494 L409 500 L400 505 L398 506 L393 507 L386 508 L377 509 L371 509 L363 509 L355 509 L348 509 L342 508 L335 506 L328 503 L321 499 L315 495 L309 489 L301 483 L295 477 L289 469 L284 463 L278 455 L274 447 L270 438 L265 427 L261 417 L257 406 L253 395 L250 384 L247 373 L243 362 L241 355 L239 344 L237 333 L235 323 L235 321 L234 319 L233 313 L232 306 L232 298 L232 287 L232 277 L232 263 L232 252 L232 240 L233 228 L235 215 L236 205 L238 194 L240 184 L243 173 L245 164 L249 154 L252 145 L256 135 L259 128 L263 123 L266 117 L270 110 L273 104 L275 100 L279 96 L282 91 L286 87 L291 82 L295 79 L299 76 L304 73 L308 71 L313 69 L319 68 L323 66 L328 65 L333 64 L338 63 L343 62 L349 62 L353 62 L356 62 L360 62 L365 63 L370 65 L376 67 L380 68 L386 71 L392 74 L397 78 L402 82 L408 87 L413 91 L417 96 L424 101 L466 175 L471 185 L475 194 L478 201 L481 209 L484 219 L487 226 L490 237 L494 248 L497 260 L499 271 L500 283 L501 295 L501 307 L501 318 L501 331 L501 343 L499 354 L496 366 L494 375 L492 384 L488 393 L484 403 L478 413 L473 423 L468 431 L460 440 L453 449 L446 456 L439 463 L429 470 L419 477 L409 483 L399 488 L388 494 L381 497 L374 499 L364 502 L352 504 L340 505 L328 506 L315 506 L303 506 L291 506 L277 506 L265 504 L253 502 L242 498 L231 494 L220 490 L209 484 L199 479 L191 472 L182 466 L175 459 L167 452 L162 447 L157 441 L153 433 L149 426 L145 419 L141 411 L138 402 L136 393 L135 383 L134 374 L134 364 L134 355 L134 344 L134 334 L134 323 L134 312 L136 302 L138 291 L142 278 L145 268 L148 258 L152 247 L155 236 L159 225 L165 214 L170 204 L173 198 L177 191 L183 184 L189 176 L195 167 L203 160 L212 152 L220 146 L227 141 L233 137 L240 133 L250 127 L258 122 L268 117 L278 113 L286 110 L296 107 L305 105 L315 102 L324 101 L334 100 L343 100 L352 100 L361 100 L370 100 L379 101 L388 103 L395 105 L403 108 L411 111 L419 114 L426 118 L433 122 L446 129 L452 134 L458 139 L463 144 L468 149 L477 161 L482 169 L486 176 L489 183 L491 191 L493 198 L495 205 L495 206 L495 207 L495 208 L495 209 L495 210 L495 215 L495 223 L495 231 L495 241 L494 251 L493 262 L490 273 L488 284 L485 295 L483 304 L481 314 L477 325 L474 336 L471 345 L468 356 L464 366 L460 376 L457 384 L454 393 L450 401 L445 408 L441 414 L437 420 L433 426 L429 432 L425 438 L422 443 L417 448 L412 452 L408 455 L404 457 L400 459 L396 461 L393 462 L390 462 L385 463 L382 463 L379 463 L376 463 L374 463 L371 463 L370 463 L368 461 L366 459 L363 456 L361 453 L359 450 L356 445 L355 441 L352 435 L350 429 L348 422 L346 414 L342 404 L340 394 L338 383 L336 374 L335 363 L334 352 L332 342 L330 331 L328 319 L327 307 L327 300 L327 299 L327 297 L327 290 L329 279 L331 267 L333 256 L335 244 L338 233 L343 221 L347 209 L353 196 L358 185 L364 176 L369 164 L376 153 L384 143 L390 135 L397 127 L404 120 L413 112 L423 104 L433 98 L446 91 L457 85 L468 80 L479 75 L490 71 L501 67 L513 64 L525 62 L627 58 L638 59 L649 60 L660 62 L671 64 L672 64 L673 65 L676 67 L682 71 L690 76 L694 80 L698 83 L703 88 L705 92 L708 98 L730 170 L730 171 L730 174 L730 181 L729 189 L727 197 L727 198 L723 207 L718 215 L713 224 L708 232 L704 237 L703 237 L701 238 L696 241 L689 244 L679 247 L669 252 L660 255 L649 258 L638 260 L616 264 L605 265 L595 265 L586 265 L576 265 L565 262 L556 260 L545 258 L537 256 L531 253 L523 250 L516 246 L510 242 L503 237 L496 231 L489 226 L483 220 L478 214 L473 208 L469 201 L466 193 L463 186 L460 178 L457 170 L455 161 L454 151 L453 141 L453 132 L453 123 L453 113 L455 104 L459 93 L462 83 L466 73 L472 63 L533 1 L547 0 L558 0 L571 0 L585 0 L596 0 L607 0 L620 0 L635 0 L651 0 L663 0 L678 0 L691 0 L699 0 L710 0 L722 0 L734 0 L748 0 L760 0 L773 0 L785 0 L797 0 L809 0 L822 0 L832 0 L843 0 L852 0 L861 0 L871 0 L880 1 L889 3 L897 5 L904 7 L911 9 L917 12 L923 15 L929 19 L933 22 L938 26 L943 31 L943 32 L944 34 L945 38 L945 43 L946 48 L947 55 L948 63 L949 72 L949 81 L949 90 L949 99 L949 109 L948 118 L946 129 L902 205 L891 217 L880 229 L864 245 L852 258 L839 270 L824 282 L818 285 L806 290 L777 301 L763 306 L755 308 L744 311 L733 313 L722 316 L713 317 L704 318 L696 319 L690 319 L685 319 L681 319 L679 319 L677 319 L676 318 L676 317 L676 314 L676 312 L676 310 L676 307 L676 304 L676 300 L678 294 L680 289 L682 280 L684 274 L685 271 L688 264 L692 256 L696 246 L700 236 L705 225 L710 215 L715 204 L719 194 L723 189 L728 181 L735 171 L740 161 L744 155 L745 154 L748 150 L754 143 L760 135 L767 128 L774 121 L782 113 L788 107 L794 101 L798 96 L799 95 L800 95 L803 92 L808 90 L812 88 L818 85 L823 83 L829 81 L836 79 L841 77 L848 75 L855 74 L861 73 L866 73 L873 73 L880 73 L888 73 L895 73 L903 73 L911 73 L918 73 L925 75 L932 77 L939 79 L946 82 L953 85 L960 89 L966 93 L972 97 L996 115 L997 119 L999 124 L1002 130 L1005 134 L1007 139 L1010 146 L1013 154 L1015 163 L1018 172 L1020 182 L1022 190 L1022 191 L1023 194 L1024 200 L1025 208 L1026 218 L1026 227 L1026 236 L1026 244 L1026 254 L1024 265 L1022 274 L1020 284 L1015 294 L1011 305 L1008 314 L1004 323 L998 330 L993 339 L990 343 L987 347 L983 352 L975 357 L967 362 L957 368 L946 373 L935 379 L923 384 L911 390 L899 395 L885 399 L873 402 L861 405 L847 407 L835 409 L822 410 L808 411 L797 411 L783 411 L771 411 L759 411 L747 409 L736 407 L725 404 L715 400 L704 397 L693 391 L684 387 L677 383 L669 378 L663 373 L657 368 L651 361 L647 357 L643 352 L642 349 L640 344 L638 338 L636 332 L634 325 L633 319 L633 318 L633 317 L633 313 L634 305 L635 297 L637 286 L640 276 L643 265 L648 255 L652 246 L655 240 L659 231 L666 220 L673 210 L679 200 L690 187 L700 175 L711 163 L721 152 L727 146 L736 140 L747 132 L759 123 L770 113 L782 105 L793 97 L804 90 L805 89 L808 87 L815 83 L825 78 L834 75 L845 71 L856 66 L941 49 L946 49 L953 49 L958 49 L963 49 L967 51 L972 53 L976 54 L980 56 L983 58 L985 60 L987 62 L989 65 L991 68 L991 71 L993 75 L994 80 L995 84 L996 87 L996 89 L996 94 L996 101 L981 177 L978 187 L974 198 L971 209 L968 220 L963 231 L959 242 L955 250 L950 262 L946 273 L940 284 L935 295 L928 305 L922 313 L921 314 L919 317 L914 323 L909 329 L902 335 L896 343 L890 350 L883 356 L871 369 L866 374 L860 379 L855 383 L851 385 L846 388 L843 390 L840 391 L839 391 L839 390 L839 389 L839 387 L839 384 L839 380 L839 374 L839 368 L839 360 L839 352 L839 342 L839 333 L840 323 L841 313 L843 302 L845 291 L847 279 L849 266 L851 253 L855 240 L858 228 L861 214 L862 214 L863 211 L863 210 L865 207 L870 197 L875 187 L881 177 L888 167 L890 163 L891 162 L892 159 L897 154 L904 147 L910 138 L918 131 L925 123 L930 119 L936 114 L942 108 L950 103 L957 96 L962 93 L967 89 L970 86 L971 86 L973 85 L978 85 L982 83 L988 82 L995 81 L1000 81 L1007 81 L1014 81 L1020 81 L1030 81 L1038 81 L1045 81 L1052 83 L1060 85 L1068 88 L1075 91 L1083 95 L1090 99 L1097 105 L1115 122 L1121 128 L1127 136 L1133 143 L1137 148 L1141 154 L1146 161 L1153 170 L1158 179 L1164 188 L1169 198 L1174 208 L1178 217 L1182 226 L1185 235 L1188 243 L1192 251 L1195 260 L1198 268 L1200 277 L1202 285 L1204 293 L1205 303 L1206 312 L1207 320 L1208 328 L1209 335 L1209 343 L1209 351 L1209 358 L1208 366 L1206 375 L1204 382 L1201 388 L1198 395 L1195 401 L1191 410 L1187 418 L1181 425 L1176 431 L1170 437 L1163 443 L1156 447 L1147 451 L1137 455 L1126 459 L1117 462 L1106 465 L1095 467 L1083 468 L1077 469 L1073 469 L1065 469 L1056 469 L1045 469 L1034 467 L1023 465 L1013 463 L1002 459 L992 457 L982 454 L977 451 L971 447 L964 443 L958 439 L954 435 L949 431 L944 428 L940 423 L937 418 L935 412 L933 406 L932 402 L932 401 L932 400 L931 396 L931 390 L931 383 L931 378 L931 371 L931 363 L931 356 L933 347 L935 337 L938 329 L938 328 L939 325 L942 319 L946 312 L950 305 L954 299 L960 290 L965 283 L970 274 L977 267 L983 259 L990 249 L996 241 L1003 232 L1010 222 L1018 212 L1026 203 L1033 196 L1042 187 L1050 179 L1060 170 L1070 162 L1078 155 L1079 155 L1082 154 L1090 149 L1099 146 L1108 143 L1119 140 L1130 136 L1140 134 L1149 132 L1150 132 L1152 132 L1157 132 L1164 132 L1170 132 L1180 132 L1188 132 L1196 133 L1204 135 L1211 137 L1217 140 L1224 143 L1233 148 L1240 151 L1246 155 L1251 160 L1256 164 L1258 167 L1259 169 L1259 172 L1261 177 L1263 186 L1264 194 L1267 202 L1268 212 L1268 220 L1268 229 L1268 240 L1268 250 L1268 261 L1265 272 L1263 284 L1261 295 L1258 307 L1254 318 L1250 330 L1244 343 L1238 354 L1231 365 L1224 376 L1217 387 L1211 400 L1203 411 L1192 423 L1182 433 L1181 434 L1179 435 L1176 436 L1169 442 L1160 448 L1150 455 L1139 461 L1128 468 L1115 475 L1104 481 L1093 486 L1082 491 L1072 494 L1062 497 L1053 500 L1045 502 L1038 504 L1031 505 L1025 506 L1020 506 L1014 506 L1010 506 L1006 506 L1003 506 L1001 505 L998 504 L997 501 L995 499 L995 496 L994 493 L993 489 L992 484 L992 479 L992 473 L992 467 L992 459 L992 452 L992 443 L992 432 L992 421 L993 410 L995 400 L999 387 L1002 375 L1005 363 L1005 362 L1007 359 L1010 350 L1014 339 L1020 328 L1026 316 L1032 305 L1039 294 L1046 282 L1052 272 L1058 264 L1064 254 L1070 247 L1075 239 L1080 232 L1085 226 L1090 220 L1095 215 L1095 214 L1096 214 L1097 212 L1100 210 L1104 206 L1107 204 L1112 201 L1117 198 L1121 195 L1126 192 L1131 191 L1135 189 L1139 188 L1144 187 L1148 186 L1152 185 L1157 185 L1161 185 L1164 185 L1168 185 L1171 185 L1175 185 L1179 185 L1183 185 L1188 187 L1191 188 L1195 190 L1199 192 L1202 195 L1207 199 L1212 202 L1217 206 L1221 210 L1226 215 L1231 220 L1235 225 L1239 230 L1243 236 L1248 243 L1252 249 L1257 256 L1262 264 L1266 272 L1270 281 L1275 292 L1279 300 L1283 310 L1287 320 L1292 329 L1295 338 L1299 347 L1303 357 L1306 366 L1309 374 L1312 382 L1314 391 L1316 396 L1316 397 L1316 398 L1317 402 L1318 409 L1319 416 L1320 422 L1320 428 L1320 435 L1320 442 L1320 447 L1320 453 L1320 454 L1320 456 L1319 459 L1318 461 L1316 464 L1315 468 L1312 471 L1310 473 L1308 477 L1306 479 L1303 481 L1300 484 L1298 486 L1294 488 L1292 489 L1291 489 L1290 489 L1287 489 L1283 489 L1279 489 L1273 489 L1268 489 L1261 489 L1255 489 L1248 487 L1241 485 L1236 483 L1229 481 L1220 478 L1213 475 L1210 474 L1209 473 L1206 472 L1202 469 L1197 465 L1191 461 L1185 456 L1147 409 L1141 396 L1138 389 L1135 382 L1133 378 L1133 375 L1132 369 L1131 362 L1130 355 L1129 347 L1129 339 L1129 332 L1129 324 L1129 316 L1131 308 L1134 301 L1137 294 L1141 285 L1145 278 L1151 270 L1156 264 L1162 257 L1168 249 L1176 243 L1183 237 L1191 230 L1198 225 L1207 220 L1207 219 L1208 219 L1213 216 L1220 213 L1228 209 L1237 205 L1244 200 L1252 197 L1259 195 L1266 193 L1276 190 L1286 188 L1293 186 L1301 185 L1308 184 L1311 184 L1316 184 L1324 184 L1332 184 L1340 185 L1348 186 L1358 188 L1368 190 L1376 192 L1383 194 L1390 197 L1398 201 L1406 204 L1413 207 L1420 210 L1426 214 L1432 219 L1438 224 L1439 225 L1440 226 L1442 230 L1444 234 L1444 235 L1445 238 L1445 244 L1446 249 L1446 255 L1446 262 L1446 268 L1446 276 L1446 286 L1446 295 L1445 305 L1443 314 L1441 324 L1439 333 L1435 342 L1435 346 L1434 347 L1432 349 L1428 357 L1422 364 L1417 371 L1412 379 L1406 386 L1399 394 L1393 401 L1386 408 L1378 415 L1370 420 L1364 425 L1357 429 L1350 434 L1342 438 L1337 441 L1331 444 L1324 447 L1318 449 L1312 451 L1305 453 L1301 453 L1296 454 L1292 455 L1288 455 L1285 455 L1283 455 L1281 455 L1278 455 L1276 455 L1274 454 L1272 453 L1270 453 L1268 451 L1267 450 L1265 448 L1264 446 L1262 443 L1261 440 L1260 435 L1259 431 L1258 427 L1257 421 L1256 418 L1256 417 L1256 415 L1255 411 L1254 406 L1253 398 L1252 331 L1254 320 L1256 309 L1258 298 L1260 289 L1262 278 L1265 267 L1268 257 L1270 248 L1273 238 L1277 228 L1282 218 L1285 209 L1289 200 L1294 192 L1299 184 L1303 177 L1306 170 L1311 164 L1316 158 L1321 152 L1329 145 L1335 139 L1342 134 L1349 129 L1386 115 L1395 113 L1405 111 L1416 109 L1426 108 L1436 108 L1447 108 L1459 108 L1471 108 L1483 108 L1495 109 L1508 112 L1521 115 L1534 118 L1548 123 L1561 126 L1571 130 L1578 132 L1579 132 L1583 134 L1594 138 L1607 144 L1623 150 L1643 159 L1666 168 L1689 179 L1712 190 L1735 200 L1761 212 L1785 224 L1811 239 L1838 254 L1864 267 L1895 283 L1924 298 L1951 313 L1980 328 L2009 344 L2038 361 L2067 376 L2093 391 L2120 406 L2146 421 L2173 436 L2197 450 L2224 465 L2250 480 L2274 493 L2300 508 L2327 523 L2350 535 L2374 548 L2395 560 L2416 570 L2435 582 L2453 592 L2471 602 L2487 611 L2502 619 L2515 626 L2528 633 L2541 638 L2552 644 L2563 649 L2573 654 L2582 658 L2591 661 L2599 666 L2600 666 L2602 667 L2605 668 L2608 670 L2613 672 L2617 674 L2622 675 L2626 676 L2631 677 L2634 678 L2637 679 L2640 679 L2643 680 L2646 681 L2649 681 L2652 681 L2655 681 L2659 681 L2663 681 L2664 681 L2667 682 L2674 683 L2682 684 L2693 685 L2705 687 L2718 689 L2730 691 L2746 695 L2759 697 L2774 699 L2790 702 L2805 704 L2820 705 L2834 706 L2849 709 L2862 710 L2876 711 L2879 715 L2879 716 L2879 717 L2879 719 L2879 720 L2879 721 L2879 722 L2879 723 L2879 724 L2879 725 L2879 727 L2879 728 L2879 729 L2879 730 L2879 731 L2879 732 L2879 733 L2879 734 L2879 735 L2878 735 L2876 735 L2874 735 L2872 736 L2869 737 L2866 738 L2863 738 L2860 739 L2855 740 L2851 741 L2847 742 L2841 743 L2835 744 L2830 744 L2824 744 L2819 744 L2814 744 L2807 744 L2801 744 L2796 744 L2792 744 L2791 744 L2789 744 L2784 744 L2777 744 L2772 744 L2766 744 L2763 744 L2761 744 L2757 744 L2751 744 L2746 744 L2739 744 L2732 743 L2725 743 L2718 742 L2712 741 L2705 740 L2698 739 L2690 738 L2681 737 L2675 736 L2666 735 L2658 734 L2649 732 L2640 731 L2631 729 L2622 728 L2613 727 L2604 725 L2596 724 L2588 723 L2579 722 L2570 721 L2563 720 L2556 719 L2548 718 L2540 716 L2532 715 L2525 714 L2518 713 L2517 713 L2514 712 L2510 712 L2504 712 L2499 712 L2493 712 L2488 712 L2483 712 L2477 712 L2473 712 L2469 712 L2463 712 L2459 712 L2455 712 L2450 712 L2446 712 L2443 712 L2440 712 L2436 712 L2432 713 L2429 714 L2426 714 L2423 715 L2421 716 L2418 717 L2415 717 L2413 718 L2411 720 L2409 720 L2391 729 L2389 731 L2387 732 L2384 733 L2382 735 L2380 736 L2378 737 L2375 738 L2373 740 L2371 741 L2370 741 L2369 741 L2366 741 L2364 741 L2362 742 L2359 742 L2356 742 L2353 742 L2350 743 L2347 743 L2343 743 L2340 743 L2336 743 L2332 743 L2328 743 L2324 743 L2320 743 L2317 743 L2312 743 L2308 743 L2304 742 L2301 741 L2298 741 L2293 740 L2291 740 L2288 740 L2285 740 L2283 740 L2281 740 L2279 740 L2278 740 L2276 740 L2275 740 L2274 740 L2272 740 L2270 740 L2270 741 L2269 741 L2268 741 L2267 742 L2265 743 L2264 744 L2263 745 L2262 746 L2261 746 L2260 747 L2259 748 L2257 750 L2256 751 L2255 752 L2254 754 L2253 755 L2252 756 L2251 758 L2251 760 L2250 762 L2249 764 L2248 767 L2247 769 L2246 771 L2245 774 L2245 777 L2243 780 L2242 784 L2242 786 L2241 789 L2240 792 L2239 795 L2238 798 L2237 801 L2236 804 L2235 808 L2234 811 L2234 814 L2233 816 L2232 819 L2231 821 L2230 823 L2229 826 L2228 829 L2227 831 L2226 834 L2225 836 L2225 838 L2224 841 L2223 843 L2222 845 L2222 847 L2221 849 L2221 852 L2221 853 L2221 855 L2221 856 L2221 858 L2221 860 L2221 861 L2221 862 L2222 863 L2223 864 L2225 866 L2226 866 L2227 867 L2230 868 L2232 868 L2234 869 L2236 869 L2238 869 L2240 869 L2243 869 L2245 869 L2247 869 L2249 869 L2250 869 L2252 869 L2255 869 L2257 869 L2259 869 L2260 868 L2263 866 L2264 866 L2266 864 L2268 863 L2271 861 L2273 860 L2275 858 L2277 856 L2281 853 L2284 851 L2288 847 L2290 845 L2294 841 L2299 836 L2302 833 L2307 828 L2311 823 L2315 817 L2320 811 L2325 805 L2332 799 L2337 791 L2342 784 L2349 775 L2354 765 L2360 755 L2365 746 L2372 737 L2377 730 L2382 721 L2386 713 L2415 663 L2417 657 L2417 654 L2417 650 L2417 647 L2417 643 L2417 639 L2417 633 L2417 629 L2415 625 L2412 620 L2409 615 L2406 612 L2404 609 L2401 607 L2397 605 L2393 603 L2388 602 L2384 601 L2380 600 L2375 599 L2371 599 L2366 599 L2360 599 L2355 599 L2350 599 L2343 599 L2336 599 L2329 599 L2323 599 L2315 599 L2305 599 L2296 598 L2286 598 L2277 598 L2268 599 L2257 600 L2246 602 L2235 604 L2226 607 L2215 610 L2205 614 L2195 619 L2185 623 L2176 627 L2175 627 L2174 629 L2170 632 L2166 637 L2161 642 L2154 649 L2149 655 L2144 663 L2140 670 L2137 677 L2132 686 L2130 693 L2128 700 L2126 708 L2125 716 L2125 723 L2125 729 L2125 736 L2135 784 L2140 791 L2174 829 L2181 835 L2190 841 L2200 846 L2209 852 L2220 857 L2232 863 L2243 868 L2255 873 L2267 877 L2280 882 L2292 885 L2305 889 L2319 892 L2331 895 L2344 899 L2357 901 L2363 902 L2373 904 L2384 906 L2396 907 L2409 908 L2421 909 L2434 909 L2446 909 L2458 909 L2469 909 L2478 909 L2489 909 L2498 909 L2506 908 L2515 907 L2521 906 L2528 905 L2535 903 L2541 901 L2542 901 L2543 901 L2544 900 L2546 899 L2548 897 L2549 896 L2551 895 L2552 892 L2553 890 L2554 888 L2554 886 L2554 884 L2554 881 L2554 878 L2554 875 L2554 872 L2554 868 L2552 863 L2550 858 L2548 853 L2545 846 L2541 838 L2537 832 L2532 825 L2525 818 L2519 810 L2514 804 L2513 803 L2509 800 L2501 795 L2491 788 L2480 782 L2469 776 L2458 771 L2447 765 L2434 759 L2423 755 L2411 752 L2400 748 L2389 745 L2378 743 L2308 739 L2303 739 L2302 739 L2300 739 L2296 739 L2292 739 L2288 740 L2282 741 L2275 743 L2269 745 L2262 747 L2256 749 L2251 750 L2244 752 L2238 754 L2232 757 L2226 760 L2220 763 L2215 765 L2209 767 L2202 769 L2196 772 L2190 774 L2183 778 L2177 779 L2170 781 L2163 783 L2156 785 L2149 787 L2142 789 L2135 791 L2128 793 L2121 795 L2114 797 L2107 800 L2099 802 L2092 804 L2085 806 L2076 809 L2069 811 L2062 813 L2055 815 L2047 818 L2040 821 L2033 823 L2024 825 L2016 827 L2008 830 L1999 833 L1992 835 L1984 837 L1976 840 L1967 843 L1960 845 L1953 848 L1943 851 L1936 853 L1928 855 L1921 858 L1915 860 L1914 860 L1912 861 L1909 862 L1903 864 L1898 867 L1894 869 L1889 872 L1885 873 L1879 875 L1874 877 L1871 879 L1868 880 L1866 882 L1863 883 L1861 885 L1859 886 L1858 887 L1857 888 L1856 889 L1855 889 L1855 890 L1855 891 L1855 892 L1854 893 L1853 894 L1852 895 L1851 896 L1850 897 L1849 898 L1848 898 L1847 899 L1847 900 L1846 900 L1845 901 L1844 902 L1843 903 L1843 904 L1842 905 L1841 906 L1840 907 L1839 908 L1839 909 L1838 909 L1838 910 L1837 910 L1837 911 L1837 912 L1836 912 L1835 913 L1834 914 L1833 915 L1832 916 L1831 917 L1830 918 L1829 918 L1829 919 L1828 919 L1828 920 L1827 921 L1826 921 L1825 921 L1824 921 L1823 921" style="stroke:black;stroke-width:1;fill:none;"></path>
</svg>
