<?xml version="1.0" encoding="UTF-8"?>
<!DOCTYPE svg PUBLIC "-//W3C//DTD SVG 1.0//EN" 
         "http://www.w3.org/TR/2001/REC-SVG-20010904/DTD/svg10.dtd"><svg xmlns="http://www.w3.org/2000/svg" width="7680" height="4320">
<path d="M1954 901 L1930 926 L1929 926 L1927 926 L1923 927 L1916 928 L1908 929 L1897 929 L1888 929 L1887 929 L1884 929 L1872 927 L1854 924 L1835 921 L1814 918 L1793 914 L1770 911 L1745 908 L1718 904 L1691 901 L1521 880 L1504 879 L1503 879 L1475 875 L1421 868 L1363 864 L1303 857 L1242 852 L1181 851 L1121 851 L1070 851 L1020 851 L977 851 L932 851 L880 851 L849 851 L823 851 L797 852 L775 853 L752 854 L732 855 L730 855 L716 857 L697 859 L681 862 L665 865 L648 865 L632 865 L618 865 L604 865 L589 865 L576 865 L564 865 L552 865 L540 865 L530 865 L520 865 L502 865 L491 865 L482 865 L481 865 L473 865 L461 865 L451 865 L438 865 L428 865 L418 865 L410 865 L403 865 L393 865 L388 865 L383 864 L379 864 L376 864 L373 863 L365 862 L364 862 L363 862 L362 862 L361 862 L358 861 L357 860 L353 859 L350 857 L349 856 L347 855 L346 854 L345 853 L343 852 L341 851 L340 851 L339 851 L338 850 L337 850 L336 849 L336 848 L336 847 L336 846 L335 845 L334 844 L334 843 L333 842 L333 841 L333 837 L332 836 L331 834 L331 832 L330 829 L330 826 L327 822 L326 819 L324 815 L322 811 L321 807 L319 804 L318 803 L317 802 L316 800 L315 799 L314 798 L313 797 L313 796 L313 795 L313 794 L309 767 L308 756 L306 745 L303 734 L301 720 L301 708 L299 695 L297 684 L296 683 L296 678 L295 669 L293 661 L292 651 L291 645 L285 597 L283 589 L281 579 L280 570 L278 561 L276 553 L273 541 L272 537 L272 536 L270 529 L268 523 L268 519 L268 517 L267 514 L265 508 L262 499 L259 490 L257 482 L256 473 L254 468 L252 461 L250 456 L249 452 L247 446 L241 421 L239 416 L238 411 L237 406 L236 404 L236 403 L234 400 L233 396 L231 392 L230 387 L228 382 L227 376 L227 374 L219 348 L217 343 L216 337 L213 331 L211 326 L209 320 L206 314 L205 313 L204 308 L201 304 L199 299 L196 293 L194 289 L192 285 L190 282 L189 278 L188 275 L187 272 L186 269 L186 265 L185 264 L185 261 L185 258 L185 255 L184 253 L184 252 L183 249 L183 247 L182 245 L181 244 L181 242 L181 241 L180 239 L179 238 L179 237 L179 236 L178 234 L178 233 L177 231 L176 228 L175 226 L174 224 L174 223 L173 221 L172 219 L170 214 L170 210 L169 206 L167 201 L167 198 L165 194 L165 191 L164 187 L162 184 L162 181 L160 177 L160 175 L159 173 L158 171 L158 170 L158 169 L157 168 L157 166 L157 165 L156 165 L156 164 L156 163 L156 162 L156 161 L156 163 L158 174 L162 188 L166 201 L170 215 L174 227 L178 240 L182 252 L185 263 L188 275 L191 284 L193 291 L194 297 L196 303 L197 308 L199 312 L199 315 L199 316 L199 317 L199 318 L199 319 L200 319 L201 318 L202 316 L205 311 L211 300 L219 288 L226 276 L234 263 L242 252 L249 243 L256 234 L261 226 L268 219 L276 210 L278 208 L279 207 L294 193 L298 190 L299 189 L300 188 L301 187 L302 187 L303 187 L304 187 L305 187 L306 187 L307 187 L308 187 L310 187 L313 190 L316 193 L319 199 L323 203 L326 209 L327 211 L328 213 L331 216 L334 222 L337 226 L339 233 L342 238 L345 244 L347 250 L357 282 L359 289 L361 294 L362 299 L364 305 L365 309 L366 313 L366 314 L367 316 L367 317 L368 319 L369 320 L370 320 L371 320 L373 320 L376 319 L382 316 L388 313 L395 310 L403 306 L410 301 L415 296 L421 290 L427 283 L428 280 L439 252 L439 248 L439 245 L439 242 L439 240 L439 239 L439 241 L440 246 L441 253 L443 262 L444 272 L446 282 L446 290 L448 299 L448 302 L448 303 L448 305 L448 310 L449 313 L450 316 L451 319 L452 320 L453 323 L454 323 L456 323 L457 322 L459 321 L460 320 L462 319 L466 317 L470 314 L474 309 L479 302 L483 297 L488 289 L493 277 L497 266 L499 254 L500 249 L509 206 L510 201 L510 200 L510 199 L511 199 L511 201 L512 206 L512 213 L514 224 L517 237 L521 250 L524 262 L528 274 L529 279 L537 326 L538 329 L538 330 L539 331 L540 332 L541 333 L542 333 L543 333 L544 332 L546 332 L549 330 L554 329 L559 326 L565 322 L571 318 L578 313 L585 308 L590 303 L596 295 L603 283 L625 236 L630 222 L633 217 L636 213 L637 212 L638 212 L639 212 L640 212 L641 212 L642 212 L643 214 L644 219 L646 225 L648 231 L649 237 L651 243 L654 251 L655 257 L656 264 L657 271 L657 277 L659 283 L660 288 L660 292 L661 296 L663 299 L663 301 L664 302 L665 303 L666 303 L667 303 L668 303 L669 302 L683 292 L689 284 L694 275 L697 267 L702 258 L704 249 L707 239 L709 232 L709 231 L710 226 L710 221 L710 216 L711 214 L712 210 L712 212 L712 217 L712 224 L712 228 L712 235 L713 242 L714 247 L719 284 L720 290 L721 296 L722 300 L723 304 L723 305 L724 307 L725 307 L726 308 L727 308 L729 308 L730 308 L731 308 L733 307 L735 306 L739 304 L743 303 L747 301 L751 299 L755 297 L757 295 L789 247 L795 233 L801 220 L807 207 L813 192 L817 180 L821 171 L824 162 L828 156 L831 152 L833 148 L833 147 L834 147 L835 147 L836 147 L837 147 L838 147 L839 147 L840 147 L842 150 L843 156 L847 165 L850 174 L853 184 L857 194 L860 204 L863 216 L867 226 L870 236 L871 244 L872 249 L873 255 L879 278 L879 279 L880 279 L881 279 L882 279 L884 279 L886 278 L890 277 L891 276 L892 275 L893 273 L896 270 L899 266 L904 258 L911 247 L920 234 L929 220 L937 208 L945 195 L951 184 L957 175 L962 166 L966 159 L970 152 L974 146 L977 141 L980 137 L982 134 L983 133 L984 132 L984 131 L985 131 L986 131 L987 131 L988 130 L989 130 L990 130 L991 131 L992 137 L995 145 L998 155 L999 165 L1001 175 L1003 185 L1005 195 L1006 202 L1007 211 L1009 217 L1010 223 L1012 228 L1013 233 L1014 237 L1016 241 L1016 242 L1020 250 L1021 250 L1022 250 L1023 250 L1024 250 L1025 250 L1026 249 L1027 249 L1031 247 L1036 245 L1042 243 L1047 238 L1054 233 L1060 227 L1067 221 L1076 214 L1082 209 L1084 208 L1088 205 L1090 204 L1118 189 L1124 187 L1129 184 L1130 184 L1131 184 L1132 184 L1133 184 L1134 184 L1135 184 L1136 184 L1137 185 L1138 189 L1139 196 L1140 205 L1142 215 L1145 227 L1148 241 L1150 254 L1154 265 L1157 277 L1158 280 L1158 284 L1160 289 L1162 295 L1164 300 L1166 304 L1167 307 L1169 309 L1170 310 L1171 311 L1172 311 L1173 311 L1174 311 L1175 311 L1176 310 L1178 309 L1181 308 L1186 306 L1191 303 L1198 297 L1206 290 L1214 281 L1222 273 L1234 257 L1235 256 L1240 250 L1245 243 L1247 240 L1248 239 L1250 236 L1253 230 L1258 223 L1264 216 L1266 211 L1268 209 L1268 211 L1265 218 L1262 227 L1262 228 L1261 236 L1261 240 L1262 293 L1262 300 L1263 307 L1264 313 L1266 317 L1267 321 L1268 323 L1269 323 L1270 324 L1271 324 L1272 324 L1273 324 L1276 323 L1279 321 L1281 320 L1286 319 L1288 317 L1289 315 L1293 312 L1297 307 L1302 301 L1307 293 L1312 285 L1317 279 L1322 272 L1325 268 L1326 266 L1327 266 L1328 264 L1331 262 L1334 261 L1338 259 L1341 257 L1343 255 L1346 254 L1350 252 L1353 250 L1356 249 L1359 248 L1360 248 L1362 248 L1363 248 L1364 248 L1365 249 L1366 250 L1367 251 L1369 255 L1374 266 L1377 275 L1382 285 L1388 297 L1390 301 L1392 306 L1401 328 L1413 353 L1427 383 L1442 418 L1459 456 L1474 491 L1489 528 L1500 564 L1510 597 L1517 624 L1523 649 L1528 673 L1531 695 L1531 713 L1531 728 L1531 746 L1528 758 L1521 773 L1520 775 L1519 775 L1513 779 L1503 785 L1488 791 L1475 797 L1460 803 L1441 808 L1419 812 L1396 815 L1371 817 L1349 820 L1324 820 L1299 820 L1274 820 L1250 820 L1226 818 L1192 814 L1172 811 L1153 804 L1132 799 L1113 791 L1097 785 L1083 776 L1067 764 L1050 750 L1037 738 L1024 724 L1013 712 L1002 697 L996 689 L990 678 L984 664 L978 651 L973 636 L968 624 L966 612 L964 599 L962 587 L961 576 L961 564 L961 553 L962 543 L965 533 L968 523 L972 514 L977 506 L983 497 L993 486 L999 480 L1007 475 L1014 471 L1022 468 L1031 464 L1040 461 L1048 460 L1057 458 L1065 457 L1074 457 L1083 457 L1093 457 L1103 460 L1112 463 L1123 468 L1132 474 L1139 478 L1146 484 L1151 491 L1156 499 L1162 508 L1165 517 L1167 524 L1168 531 L1168 544 L1168 552 L1165 562 L1159 573 L1152 584 L1141 596 L1131 607 L1117 618 L1101 629 L1082 642 L1062 653 L1040 665 L1018 675 L995 685 L973 693 L952 700 L933 705 L916 708 L903 710 L890 710 L886 709 L884 708 L879 705 L875 702 L870 698 L866 695 L863 690 L860 685 L859 679 L856 671 L854 663 L853 651 L853 639 L853 624 L853 605 L853 587 L853 568 L853 550 L859 485 L863 473 L867 462 L871 452 L876 442 L881 433 L884 426 L888 421 L891 417 L892 416 L893 415 L894 414 L895 414 L895 415 L895 420 L895 427 L894 436 L891 444 L887 456 L883 468 L878 479 L872 491 L867 503 L860 513 L856 519 L853 521 L849 526 L844 532 L839 537 L835 540 L832 541 L831 542 L830 542 L831 542 L834 541 L840 536 L849 529 L861 521 L876 512 L887 504 L901 496 L921 485 L941 476 L963 466 L989 457 L1017 449 L1046 441 L1078 432 L1117 425 L1159 418 L1203 412 L1235 409 L1288 404 L1341 403 L1403 403 L1466 403 L1529 401 L1594 401 L1660 401 L1760 401 L1828 401 L1896 401 L1964 401 L2034 401 L2108 401 L2176 401 L2242 403 L2309 408 L2372 412 L2435 412 L2522 412 L2574 412 L2620 412 L2664 412 L2705 412 L2741 412 L2774 412 L2800 412 L2823 412 L2844 411 L2879 408 L2879 406 L2879 405 L2879 404 L2879 403 L2879 402 L2879 401 L2879 400 L2879 398 L2879 396 L2879 393 L2879 388 L2879 381 L2879 371 L2879 358 L2879 341 L2879 327 L2879 318 L2879 304 L2879 286 L2879 261 L2879 242 L2879 225 L2879 211 L2879 197 L2879 180 L2879 166 L2879 150 L2879 136 L2877 124 L2873 110 L2868 95 L2863 81 L2852 63 L2843 52 L2834 43 L2826 34 L2816 26 L2807 21 L2796 14 L2786 10 L2776 7 L2764 5 L2753 4 L2737 4 L2727 4 L2717 4 L2706 5 L2700 7 L2691 11 L2683 14 L2674 18 L2664 22 L2653 28 L2642 34 L2630 41 L2616 49 L2602 58 L2586 69 L2570 81 L2554 91 L2538 102 L2523 113 L2508 124 L2484 140 L2469 149 L2457 160 L2446 168 L2437 177 L2430 187 L2424 195 L2420 203 L2416 211 L2415 216 L2414 220 L2414 225 L2414 231 L2417 237 L2420 242 L2425 246 L2429 249 L2434 252 L2441 254 L2446 256 L2451 257 L2456 257 L2461 257 L2466 257 L2470 257 L2477 255 L2481 254 L2484 252 L2487 251 L2491 250 L2494 248 L2495 248 L2497 246 L2498 241 L2500 236 L2500 230 L2500 224 L2499 216 L2494 205 L2487 193 L2472 175 L2460 161 L2444 146 L2426 130 L2410 117 L2408 116 L2391 107 L2370 95 L2347 85 L2335 81 L2203 61 L2174 59 L2143 60 L2116 63 L2113 64 L2094 70 L2062 84 L2026 101 L1994 119 L1964 140 L1933 163 L1908 185 L1889 204 L1878 220 L1860 249 L1860 250 L1858 256 L1854 270 L1853 280 L1853 281 L1855 286 L1860 292 L1868 298 L1879 306 L1895 313 L1901 316 L1902 316 L1918 319 L1941 321 L1979 326 L2005 327 L2033 327 L2061 327 L2086 327 L2112 326 L2139 321 L2165 317 L2189 311 L2211 305 L2230 296 L2245 289 L2257 282 L2270 267 L2275 255 L2278 245 L2278 234 L2278 225 L2275 217 L2266 201 L2255 186 L2238 171 L2221 158 L2201 146 L2182 137 L2162 132 L2143 129 L2123 128 L2105 128 L2094 128 L2016 158 L1992 173 L1970 188 L1949 206 L1933 222 L1924 233 L1917 243 L1909 257 L1904 273 L1901 288 L1901 291 L1901 292 L1902 295 L1907 300 L1913 305 L1922 311 L1933 315 L1946 318 L1960 320 L1961 320 L1965 320 L1985 320 L2008 318 L2032 314 L2055 312 L2082 308 L2106 304 L2117 302 L2124 299 L2148 289 L2163 282 L2178 275 L2189 267 L2195 261 L2199 254 L2201 248 L2201 239 L2201 233 L2200 226 L2196 221 L2191 218 L2183 216 L2173 214 L2164 214 L2154 214 L2141 216 L2136 217 L2131 219 L2115 226 L2095 235 L2086 241 L2027 282 L2014 299 L2010 310 L2005 323 L2002 336 L2001 347 L2001 358 L2006 369 L2014 378 L2025 386 L2041 394 L2061 403 L2082 410 L2108 416 L2133 421 L2165 426 L2203 428 L2241 428 L2299 428 L2338 427 L2374 421 L2405 417 L2432 410 L2455 401 L2476 390 L2492 379 L2506 366 L2516 352 L2525 327 L2528 307 L2526 288 L2520 270 L2517 266 L2505 252 L2474 226 L2448 212 L2422 200 L2394 192 L2369 189 L2344 189 L2318 192 L2294 199 L2265 209 L2237 223 L2211 237 L2187 253 L2169 266 L2148 289 L2135 306 L2133 311 L2128 326 L2126 345 L2125 365 L2128 384 L2135 401 L2147 416 L2163 432 L2183 447 L2207 459 L2238 471 L2271 480 L2303 488 L2342 496 L2405 506 L2440 511 L2472 513 L2500 513 L2524 513 L2544 512 L2561 508 L2572 504 L2580 499 L2586 491 L2590 484 L2591 475 L2591 474 L2591 472 L2587 466 L2578 451 L2563 431 L2544 412 L2508 385 L2474 368 L2440 354 L2404 345 L2373 339 L2344 338 L2316 340 L2292 346 L2283 349 L2275 354 L2259 368 L2253 375 L2250 380 L2240 397 L2234 418 L2230 439 L2231 460 L2234 480 L2241 498 L2257 526 L2274 540 L2295 552 L2320 565 L2346 575 L2379 585 L2412 596 L2456 607 L2496 615 L2535 622 L2576 628 L2608 631 L2635 634 L2660 634 L2681 634 L2699 629 L2715 622 L2724 615 L2728 608 L2730 601 L2730 590 L2729 578 L2720 563 L2706 546 L2686 527 L2661 508 L2627 489 L2587 475 L2524 462 L2484 459 L2443 459 L2402 464 L2357 474 L2316 484 L2277 499 L2241 516 L2208 532 L2182 546 L2159 560 L2144 570 L2137 579 L2133 585 L2132 592 L2133 595 L2138 598 L2146 600 L2158 602 L2181 603 L2208 603 L2243 603 L2281 603 L2325 603 L2372 603 L2413 603 L2443 601 L2469 597 L2492 594 L2510 589 L2523 581 L2525 577 L2526 571 L2521 563 L2507 555 L2482 545 L2445 531 L2396 517 L2296 489 L2214 475 L2135 464 L2063 457 L2024 456 L1678 482 L1655 490 L1640 499 L1636 504 L1635 510 L1638 516 L1651 525 L1676 534 L1712 544 L1798 567 L1873 583 L1960 598 L2056 617 L2157 632 L2258 650 L2323 658 L2328 659 L2359 666 L2390 671 L2412 674 L2423 676 L2423 677 L2421 677 L2407 678 L2385 678 L2349 678 L2297 679 L2232 679 L2147 679 L2057 675 L1633 669 L1584 669 L1550 669 L1527 669 L1516 671 L1516 672 L1516 673 L1521 675 L1542 679 L1572 685 L1622 693 L1695 703 L1837 720 L1942 732 L2051 748 L2159 761 L2311 779 L2402 786 L2476 790 L2525 790 L2555 788 L2575 783 L2583 778 L2585 772 L2582 763 L2572 752 L2561 743 L2341 626 L2299 607 L2062 520 L1765 451 L1725 447 L1700 447 L1685 447 L1684 448 L1684 450 L1689 455 L1703 464 L1729 477 L1767 496 L1817 521 L1911 565 L1979 597 L2052 632 L2118 666 L2178 693 L2227 719 L2366 794 L2388 811 L2387 811 L2384 813 L2375 814 L2362 814 L2339 813 L2313 808 L2277 794 L2237 779 L2188 755 L2159 739 L1817 503 L1765 466 L1721 437 L1691 417 L1671 405 L1662 399 L1659 396 L1659 395 L1661 395 L1669 394 L1678 394 L1690 394 L1708 394 L1743 397 L1769 401 L1798 405 L1830 413 L1861 424 L1892 439 L1920 458 L1938 474 L1957 498 L1976 525 L1990 558 L1995 582 L1998 614 L1999 641 L1997 675 L1986 722 L1968 780 L1947 833 L1902 918 L1865 970 L1738 1023 L1715 1023 L1697 1023 L1681 1020 L1667 1011 L1657 996 L1653 986 L1647 962 L1642 924 L1641 877 L1641 820 L1645 759 L1657 690 L1669 621 L1693 522 L1715 456 L1739 394 L1762 343 L1786 301 L1800 281 L1825 258 L1846 241 L1869 229 L1894 218 L1922 209 L1938 206 L1960 205 L1989 205 L2018 208 L2051 216 L2084 225 L2116 238 L2146 253 L2173 270 L2197 288 L2218 306 L2234 327 L2248 349 L2262 381 L2267 400 L2268 421 L2266 438 L2257 458 L2246 477 L2232 495 L2212 514 L2191 528 L2190 528 L2175 532 L2151 535 L2127 537 L2092 532 L2082 530 L2024 485 L2020 473 L2019 462 L2019 449 L2025 432 L2032 414 L2044 397 L2058 382 L2078 370 L2097 359 L2129 347 L2154 342 L2180 339 L2209 338 L2237 340 L2264 347 L2287 353 L2308 362 L2324 372 L2336 382 L2347 393 L2353 405 L2356 418 L2356 419 L2355 429 L2349 457 L2341 477 L2329 498 L2316 519 L2300 539 L2281 558 L2261 574 L2246 583 L2227 593 L2209 598 L2193 602 L2179 602 L2168 602 L2159 597 L2156 594 L2154 590 L2154 584 L2154 577 L2159 566 L2166 550 L2171 538 L2182 521 L2197 502 L2216 483 L2236 466 L2244 459 L2257 453 L2276 446 L2295 442 L2315 440 L2318 440 L2334 444 L2352 450 L2370 460 L2385 472 L2396 484 L2403 498 L2409 512 L2410 528 L2410 544 L2406 562 L2399 582 L2389 598 L2386 601 L2369 612 L2346 623 L2324 632 L2300 639 L2274 643 L2249 644 L2228 644 L2205 639 L2185 632 L2170 626 L2158 618 L2153 614 L2152 611 L2152 607 L2154 598 L2160 591 L2170 580 L2184 565 L2199 553 L2205 549 L2217 543 L2239 533 L2263 523 L2289 516 L2314 513 L2338 512 L2361 512 L2381 515 L2399 519 L2412 525 L2420 531 L2426 535 L2428 539 L2428 544 L2427 552 L2421 561 L2415 567 L2406 577 L2392 585 L2373 594 L2353 600 L2333 605 L2306 608 L2293 608 L2280 608 L2272 608 L2267 607 L2266 606 L2266 605 L2267 604 L2270 601 L2278 596 L2292 588 L2307 579 L2328 569 L2348 561 L2368 555 L2389 550 L2409 549 L2428 548 L2450 553 L2462 559 L2469 564 L2474 570 L2479 577 L2480 584 L2480 593 L2480 602 L2480 612 L2478 625 L2472 639 L2464 653 L2456 667 L2447 679 L2432 693 L2421 702 L2415 705 L2370 716 L2360 716 L2350 716 L2339 714 L2325 710 L2311 706 L2296 701 L2280 696 L2257 689 L2243 684 L2229 679 L2215 674 L2201 670 L2187 666 L2171 662 L2157 659 L2141 657 L2125 653 L2108 651 L2092 649 L2001 647 L1979 647 L1954 648 L1929 653 L1901 656 L1870 661 L1840 665 L1803 668 L1760 672 L1715 677 L1675 678 L1632 678 L1570 681 L1524 681 L1475 681 L1423 681 L1368 681 L1311 681 L1253 680 L1195 675 L1132 667 L1071 662 L1009 656 L949 648 L895 643 L838 637 L779 629 L718 619 L664 613 L442 568 L412 563 L385 556 L356 551 L329 546 L306 542 L283 538 L263 536 L243 533 L223 532 L204 530 L184 527 L175 525 L111 521 L110 521 L105 521 L95 521 L84 521 L72 521 L61 521 L50 521 L41 521 L32 521 L24 521 L15 523 L6 527 L0 531 L0 535 L0 540 L0 545 L0 551 L0 557 L0 558 L0 561 L0 569 L0 570 L0 578 L0 590 L0 604 L0 621 L1 639 L4 659 L6 678 L7 685 L7 689 L8 699 L10 710 L12 720 L13 729 L13 738 L13 747 L13 755 L13 762 L13 768 L14 773 L16 778 L18 783 L21 787 L24 792 L25 793 L27 794 L31 796 L38 799 L43 800 L52 802 L63 804 L75 807 L90 809 L102 810 L117 812 L134 816 L153 818 L170 819 L189 819 L211 819 L233 819 L254 815 L276 813 L299 808 L323 803 L346 798 L368 791 L392 785 L412 779 L435 770 L446 766 L545 719 L561 709 L582 700 L599 690 L617 679 L637 668 L659 657 L667 653 L670 650 L780 588 L806 574 L823 566 L847 555 L871 545 L898 535 L923 528 L964 518 L993 511 L1023 506 L1057 501 L1094 497 L1138 491 L1182 486 L1236 479 L1293 471 L1356 462 L1418 453 L1484 443 L1546 437 L1616 428 L1681 421 L1741 413 L1797 407 L1836 403 L1874 400 L1942 399 L1986 399 L2016 399 L2052 399 L2090 404 L2134 410 L2171 418 L2209 429 L2247 438 L2277 446 L2304 452 L2329 459 L2354 466 L2375 470 L2404 476 L2421 480 L2435 485 L2446 489 L2455 493 L2464 497 L2472 500 L2479 504 L2485 509 L2489 513 L2493 518 L2496 521 L2498 525 L2498 528 L2498 533 L2498 536 L2498 538 L2498 542 L2495 548 L2492 553 L2489 558 L2484 567 L2478 577 L2470 589 L2462 605 L2456 618 L2449 634 L2447 639 L2444 652 L2440 666 L2436 681 L2430 699 L2427 716 L2425 723 L2405 805 L2401 821 L2397 833 L2393 847 L2389 859 L2383 871 L2377 883 L2369 892 L2361 904 L2352 914 L2342 924 L2333 933 L2319 941 L2305 947 L2295 950 L2189 975 L2166 978 L2141 981 L2117 983 L2094 983 L2072 983 L2051 983 L2028 983 L2007 983 L1986 983 L1967 983 L1942 983 L1928 984 L1917 985 L1907 986 L1900 988 L1893 989 L1888 990 L1884 990 L1880 991 L1878 991 L1876 991 L1875 991 L1874 991 L1873 992 L1871 992 L1870 992 L1869 992 L1869 993 L1868 993 L1867 993 L1866 993 L1865 993 L1864 993 L1863 993 L1861 993 L1860 993 L1857 991 L1854 988 L1849 985 L1845 982 L1840 978 L1836 974 L1831 969 L1824 964 L1816 959 L1802 948 L1792 943 L1783 937 L1774 932 L1763 926 L1754 921 L1744 916 L1737 912 L1729 908 L1722 904 L1715 901 L1711 899 L1708 898 L1708 897 L1707 897 L1708 897 L1709 897 L1710 897 L1713 897 L1717 897 L1718 898 L1721 899 L1726 901 L1730 903 L1734 904 L1737 906 L1741 908 L1743 909 L1745 910 L1747 911 L1750 914 L1752 916 L1754 917 L1756 919 L1757 920 L1758 920 L1759 920 L1760 920" style="stroke:black;stroke-width:1;fill:none;"></path>
</svg>
