<?xml version="1.0" encoding="UTF-8"?>
<!DOCTYPE svg PUBLIC "-//W3C//DTD SVG 1.0//EN" 
         "http://www.w3.org/TR/2001/REC-SVG-20010904/DTD/svg10.dtd">
<svg xmlns="http://www.w3.org/2000/svg" width="2880" height="1024">
  <path d="M2448 279 L2002 871 L2002 870 L2003 870 L2004 870 L2005 870 L2007 870 L2008 870 L2009 870 L2010 870 L2013 870 L2016 870 L2021 870 L2026 870 L2033 870 L2040 870 L2046 870 L2054 870 L2061 870 L2069 870 L2077 870 L2085 872 L2094 873 L2102 874 L2110 875 L2117 876 L2125 876 L2133 876 L2142 876 L2150 876 L2157 876 L2165 876 L2174 876 L2181 876 L2189 876 L2197 876 L2205 876 L2212 876 L2220 876 L2228 876 L2235 876 L2243 876 L2249 876 L2256 876 L2264 876 L2271 876 L2278 876 L2284 876 L2291 876 L2298 876 L2304 876 L2311 876 L2318 876 L2325 876 L2331 876 L2337 876 L2344 876 L2349 876 L2356 876 L2361 876 L2368 876 L2375 876 L2379 876 L2380 876 L2382 876 L2386 876 L2391 876 L2395 876 L2401 876 L2406 876 L2413 876 L2420 876 L2426 876 L2433 876 L2441 876 L2449 877 L2456 878 L2464 879 L2472 879 L2479 880 L2487 880 L2495 881 L2504 882 L2512 883 L2521 884 L2529 885 L2539 887 L2547 888 L2555 889 L2563 890 L2573 891 L2581 892 L2588 894 L2595 895 L2603 896 L2610 897 L2617 898 L2624 899 L2631 900 L2637 901 L2644 902 L2651 903 L2658 903 L2664 904 L2669 905 L2675 905 L2680 905 L2684 905 L2688 905 L2692 905 L2695 905 L2698 905 L2701 905 L2704 905 L2706 905 L2708 905 L2709 905 L2710 905 L2711 905 L2711 904 L2711 903 L2711 901 L2711 898 L2711 894 L2711 890 L2711 885 L2711 880 L2711 873 L2711 867 L2711 861 L2711 854 L2711 846 L2711 838 L2711 832 L2712 825 L2713 817 L2714 808 L2715 800 L2717 791 L2718 783 L2719 773 L2721 764 L2722 754 L2723 746 L2725 736 L2737 664 L2738 657 L2743 622 L2744 616 L2745 609 L2745 604 L2745 598 L2745 595 L2745 593 L2745 590 L2745 587 L2745 585 L2745 582 L2745 579 L2745 575 L2745 572 L2745 569 L2745 566 L2745 563 L2745 560 L2745 557 L2745 554 L2745 550 L2745 547 L2745 544 L2745 541 L2745 537 L2745 534 L2746 531 L2747 528 L2747 523 L2748 519 L2749 516 L2750 512 L2750 507 L2751 503 L2752 499 L2753 498 L2753 497 L2753 496 L2753 492 L2753 489 L2754 485 L2755 481 L2756 477 L2757 472 L2758 468 L2759 464 L2759 459 L2760 455 L2760 454 L2760 453 L2760 450 L2761 447 L2762 444 L2762 441 L2763 438 L2764 434 L2764 431 L2764 428 L2765 425 L2765 422 L2766 419 L2767 416 L2767 413 L2767 410 L2767 407 L2768 404 L2768 401 L2769 399 L2769 397 L2770 394 L2770 392 L2770 389 L2770 387 L2771 384 L2771 382 L2772 379 L2772 377 L2772 375 L2773 374 L2773 372 L2773 369 L2773 367 L2774 366 L2775 364 L2775 361 L2775 360 L2776 359 L2777 357 L2777 355 L2778 353 L2778 352 L2778 350 L2778 348 L2779 346 L2780 345 L2780 343 L2780 342 L2780 341 L2780 340 L2780 338 L2780 336 L2781 336 L2781 335 L2781 334 L2781 333 L2781 331 L2781 330 L2781 329 L2781 328 L2781 327 L2781 326 L2781 325 L2781 324 L2781 323 L2782 322 L2782 321 L2782 320 L2782 319 L2781 319 L2780 319 L2778 319 L2776 320 L2774 320 L2771 321 L2769 322 L2766 323 L2763 323 L2759 324 L2755 324 L2752 324 L2748 324 L2742 324 L2739 324 L2735 324 L2731 324 L2728 324 L2724 324 L2721 324 L2717 324 L2713 324 L2709 324 L2705 324 L2700 324 L2694 324 L2689 324 L2683 324 L2677 324 L2670 324 L2663 324 L2656 324 L2648 324 L2640 324 L2632 324 L2624 324 L2616 324 L2608 324 L2599 324 L2591 324 L2583 324 L2575 323 L2566 322 L2557 321 L2547 320 L2539 319 L2531 318 L2522 317 L2512 316 L2504 315 L2495 314 L2486 313 L2480 312 L2471 311 L2464 309 L2456 308 L2448 307 L2441 306 L2433 305 L2425 304 L2418 303 L2410 302 L2402 301 L2393 300 L2387 299 L2380 298 L2374 297 L2367 296 L2362 295 L2355 294 L2348 294 L2342 293 L2337 292 L2330 291 L2324 291 L2319 291 L2311 291 L2305 290 L2300 289 L2294 288 L2289 287 L2283 287 L2280 287 L2276 286 L2273 285 L2269 285 L2264 284 L2260 283 L2255 282 L2251 282 L2247 282 L2243 281 L2240 281 L2236 280 L2232 279 L2230 279 L2226 278 L2223 278 L2220 277 L2217 277 L2215 276 L2212 275 L2210 275 L2208 274 L2205 274 L2203 273 L2201 272 L2200 272 L2198 272 L2197 271 L2196 270 L2195 270 L2194 270 L2193 270 L2192 269 L2192 270 L2192 272 L2192 274 L2192 276 L2192 279 L2192 282 L2192 286 L2192 290 L2192 294 L2192 298 L2192 302 L2192 307 L2192 311 L2192 315 L2192 319 L2192 323 L2192 328 L2192 333 L2192 338 L2191 342 L2190 345 L2189 350 L2189 354 L2189 359 L2189 365 L2188 369 L2188 375 L2187 380 L2187 384 L2187 390 L2186 395 L2186 401 L2185 405 L2185 409 L2185 412 L2184 415 L2184 418 L2184 421 L2183 425 L2182 430 L2181 434 L2180 439 L2180 443 L2180 447 L2179 451 L2178 456 L2177 460 L2177 461 L2176 462 L2176 465 L2175 467 L2174 471 L2173 474 L2173 478 L2173 481 L2172 484 L2172 488 L2171 492 L2170 496 L2170 499 L2169 502 L2169 505 L2169 508 L2169 511 L2168 514 L2167 517 L2167 519 L2167 522 L2166 524 L2166 527 L2166 530 L2166 533 L2165 536 L2164 539 L2164 542 L2164 544 L2163 546 L2163 548 L2163 550 L2162 553 L2162 556 L2162 558 L2161 559 L2161 561 L2161 563 L2161 565 L2161 566 L2161 567 L2161 568 L2161 569 L2161 570 L2161 571 L2161 572 L2161 573 L2161 574 L2161 575 L2161 576 L2160 577 L2159 577 L2158 577 L2157 578 L2156 578 L2155 578 L2152 579 L2150 580 L2148 581 L2145 581 L2142 581 L2139 582 L2135 583 L2130 583 L2126 584 L2120 585 L2116 586 L2111 586 L2105 586 L2100 586 L2094 586 L2089 586 L2084 586 L2039 587 L2033 587 L2028 587 L2022 587 L2017 587 L2010 587 L2006 586 L2000 585 L1995 584 L1989 583 L1983 582 L1978 581 L1972 580 L1967 580 L1961 579 L1955 578 L1951 577 L1947 577 L1942 577 L1937 577 L1933 576 L1929 576 L1923 575 L1919 574 L1915 573 L1910 573 L1907 572 L1903 571 L1899 570 L1896 570 L1893 570 L1890 570 L1887 570 L1882 569 L1879 568 L1876 567 L1873 567 L1870 567 L1867 566 L1864 565 L1861 564 L1858 564 L1855 564 L1852 563 L1849 562 L1844 561 L1841 561 L1838 560 L1835 560 L1832 560 L1829 559 L1826 558 L1823 557 L1820 556 L1817 556 L1814 555 L1812 554 L1809 553 L1806 553 L1804 553 L1802 553 L1801 552 L1799 552 L1797 551 L1796 551 L1795 551 L1793 551 L1792 551 L1792 550 L1791 550 L1790 550 L1789 550 L1788 549 L1787 549 L1787 548 L1786 548 L1785 548 L1784 548 L1783 548 L1782 548 L1781 548 L1780 548 L1779 548 L1778 547 L1777 547 L1776 547 L1775 547 L1773 547 L1772 546 L1770 546 L1768 545 L1765 545 L1763 545 L1761 545 L1758 544 L1755 544 L1752 543 L1749 542 L1745 542 L1740 541 L1736 540 L1732 540 L1726 539 L1721 538 L1714 537 L1707 536 L1700 535 L1692 533 L1685 531 L1676 529 L1667 527 L1657 524 L1648 521 L1637 519 L1626 516 L1615 514 L1604 510 L1593 507 L1581 505 L1569 503 L1557 499 L1543 496 L1530 494 L1518 491 L1504 488 L1491 485 L1475 481 L1460 479 L1445 476 L1427 474 L1409 471 L1388 467 L1365 464 L1344 461 L1323 457 L1300 454 L1277 451 L1256 449 L1232 444 L1207 441 L1183 437 L1157 432 L1134 429 L1105 424 L1084 422 L1074 421 L1057 418 L1035 414 L1015 411 L991 407 L965 402 L942 399 L919 396 L898 394 L875 389 L851 385 L830 382 L809 378 L786 375 L765 371 L745 368 L721 365 L704 363 L683 360 L665 357 L647 355 L629 352 L614 350 L599 347 L583 345 L568 343 L553 340 L539 339 L526 337 L513 335 L503 334 L494 333 L483 331 L471 329 L459 327 L447 326 L436 324 L425 322 L413 321 L402 319 L390 317 L379 316 L369 315 L358 314 L348 312 L339 311 L328 310 L319 309 L309 307 L302 306 L300 305 L296 304 L290 303 L283 302 L275 301 L268 300 L261 299 L255 299 L250 298 L244 298 L238 297 L232 296 L227 296 L221 295 L215 294 L210 294 L206 293 L201 293 L197 292 L193 292 L190 292 L187 292 L184 292 L181 292 L179 292 L177 292 L175 292 L172 292 L171 292 L170 292 L169 292 L168 291 L168 290 L168 289 L168 286 L168 284 L168 281 L168 278 L168 274 L168 272 L168 269 L168 265 L168 262 L168 258 L168 254 L168 251 L168 249 L168 245 L168 241 L168 236 L168 232 L168 230 L168 226 L168 223 L168 222 L168 221 L168 218 L169 212 L170 208 L171 204 L173 198 L175 192 L177 186 L178 181 L180 175 L180 169 L181 164 L183 158 L185 152 L187 148 L189 143 L191 139 L192 134 L194 130 L196 125 L199 120 L202 116 L203 112 L206 108 L209 104 L211 101 L214 97 L217 93 L219 89 L222 87 L224 85 L227 81 L229 79 L232 76 L263 53 L267 51 L272 48 L277 46 L280 45 L283 44 L287 43 L292 42 L295 41 L299 40 L304 38 L308 36 L313 35 L317 33 L322 33 L326 32 L329 31 L330 31 L332 30 L336 29 L339 29 L343 29 L349 28 L354 28 L360 27 L366 26 L370 26 L375 26 L379 26 L385 26 L391 26 L398 26 L405 26 L412 26 L420 26 L427 26 L433 27 L442 29 L453 31 L462 34 L471 36 L480 39 L481 39 L483 40 L489 43 L498 46 L506 49 L516 53 L526 58 L535 61 L545 65 L555 70 L565 75 L574 81 L584 86 L594 91 L603 97 L610 101 L619 106 L625 111 L625 112 L626 113 L626 114 L627 115 L629 117 L631 122 L634 126 L637 131 L639 136 L640 140 L642 145 L643 149 L644 152 L645 156 L645 162 L645 166 L645 170 L645 175 L645 180 L645 185 L644 190 L643 194 L642 198 L640 203 L639 207 L636 213 L633 219 L630 225 L627 231 L623 237 L620 243 L616 249 L612 255 L608 262 L604 269 L598 277 L593 284 L588 291 L583 299 L577 306 L571 313 L566 321 L561 327 L554 333 L548 339 L542 346 L537 352 L531 357 L526 362 L520 367 L515 372 L510 377 L504 382 L498 385 L492 389 L487 393 L482 396 L476 399 L470 402 L464 405 L460 408 L454 411 L449 414 L445 417 L439 419 L434 420 L430 422 L424 423 L420 425 L414 426 L410 427 L404 428 L400 429 L396 429 L391 429 L390 429 L388 429 L385 428 L381 427 L378 426 L373 425 L369 423 L364 420 L360 418 L355 415 L350 413 L346 410 L342 407 L337 403 L333 400 L328 395 L324 390 L320 384 L316 377 L313 371 L308 362 L305 355 L302 348 L299 339 L296 329 L294 318 L292 308 L291 299 L289 288 L289 277 L289 268 L289 257 L289 249 L290 246 L292 239 L295 232 L298 226 L302 219 L307 210 L311 203 L316 196 L321 189 L326 183 L332 178 L338 173 L345 168 L352 163 L359 159 L368 153 L377 149 L389 143 L398 139 L409 136 L420 132 L432 129 L441 127 L446 126 L456 125 L469 124 L478 123 L489 122 L501 122 L514 122 L526 122 L539 122 L554 122 L569 124 L584 127 L599 129 L615 133 L634 137 L648 142 L665 147 L681 152 L695 156 L710 161 L722 166 L734 171 L745 176 L755 181 L764 187 L773 192 L782 198 L791 204 L798 210 L804 215 L809 221 L813 227 L816 233 L818 240 L820 246 L820 247 L820 248 L820 252 L819 258 L815 266 L812 276 L809 286 L805 297 L799 309 L792 320 L786 331 L777 344 L769 358 L760 371 L750 385 L738 400 L728 414 L716 429 L702 444 L692 454 L691 454 L689 456 L682 463 L670 472 L656 484 L641 496 L627 508 L610 520 L593 531 L579 542 L563 553 L549 561 L536 568 L523 575 L512 581 L502 586 L493 591 L483 595 L473 598 L465 600 L457 602 L451 604 L445 605 L441 606 L437 606 L433 606 L431 606 L428 606 L426 606 L424 606 L424 605 L423 605 L423 604 L423 603 L422 601 L421 600 L421 598 L421 595 L421 592 L421 588 L421 582 L421 576 L421 568 L421 557 L421 546 L421 534 L423 522 L425 509 L429 494 L432 478 L438 458 L445 436 L453 414 L460 392 L469 367 L480 343 L491 318 L501 295 L504 285 L508 276 L516 263 L529 246 L542 229 L554 214 L567 199 L582 185 L599 173 L613 163 L626 156 L637 150 L638 149 L642 149 L653 146 L667 144 L680 142 L695 140 L710 139 L724 139 L739 139 L755 139 L772 139 L788 141 L800 142 L810 143 L822 146 L836 149 L851 152 L868 158 L883 164 L897 170 L913 178 L926 185 L941 192 L954 199 L968 208 L979 216 L989 224 L1000 231 L1010 239 L1020 247 L1028 253 L1031 257 L1036 263 L1041 270 L1047 278 L1052 285 L1056 295 L1060 305 L1063 313 L1065 323 L1067 332 L1068 342 L1069 352 L1069 363 L1069 374 L1069 382 L1069 394 L1068 406 L1066 418 L1063 431 L1061 446 L1057 462 L1052 479 L1047 495 L1042 515 L1038 531 L1033 547 L1028 564 L1022 583 L1019 599 L1014 613 L1009 630 L1004 644 L998 659 L993 671 L989 683 L983 696 L979 707 L975 716 L970 726 L966 736 L961 745 L956 752 L952 759 L947 766 L943 772 L939 778 L934 783 L930 788 L927 792 L923 795 L918 799 L915 802 L911 803 L908 805 L905 808 L901 809 L901 810 L900 810 L897 810 L896 810 L895 810 L893 810 L891 809 L888 809 L886 807 L884 806 L882 804 L878 802 L875 799 L873 797 L870 795 L868 791 L864 786 L860 781 L857 776 L853 768 L850 761 L848 757 L848 756 L847 756 L847 752 L845 744 L841 734 L838 723 L836 712 L834 700 L832 688 L829 676 L828 663 L828 649 L828 636 L828 623 L828 608 L828 594 L831 579 L833 565 L835 550 L839 534 L843 518 L847 504 L853 489 L859 477 L865 466 L871 455 L879 443 L887 433 L895 425 L903 416 L913 407 L925 398 L936 390 L944 385 L953 379 L965 374 L977 369 L991 365 L1004 361 L1018 357 L1031 354 L1046 352 L1062 350 L1077 347 L1092 346 L1108 345 L1123 345 L1137 345 L1152 345 L1165 346 L1180 347 L1193 350 L1207 351 L1217 353 L1230 355 L1240 358 L1253 362 L1264 365 L1275 369 L1286 374 L1295 378 L1306 382 L1316 387 L1326 392 L1335 398 L1343 403 L1349 408 L1357 415 L1364 421 L1372 427 L1377 433 L1383 441 L1388 448 L1392 454 L1397 461 L1401 469 L1404 477 L1407 486 L1409 494 L1411 501 L1413 510 L1414 520 L1415 528 L1416 537 L1416 545 L1416 550 L1416 555 L1416 563 L1415 571 L1413 581 L1411 590 L1408 600 L1405 610 L1401 619 L1398 629 L1394 639 L1390 647 L1385 657 L1382 662 L1378 668 L1374 675 L1369 682 L1363 690 L1356 697 L1350 705 L1344 712 L1337 720 L1330 727 L1323 735 L1317 741 L1310 747 L1302 754 L1295 759 L1287 764 L1280 769 L1274 774 L1267 779 L1259 783 L1254 786 L1250 787 L1248 787 L1246 787 L1243 787 L1241 787 L1239 786 L1236 785 L1234 785 L1232 783 L1230 782 L1229 781 L1227 780 L1225 778 L1224 777 L1222 775 L1221 773 L1219 771 L1218 768 L1217 764 L1216 762 L1215 759 L1215 753 L1215 745 L1215 737 L1215 728 L1215 717 L1215 707 L1215 695 L1215 683 L1215 670 L1215 656 L1217 641 L1220 628 L1224 616 L1226 609 L1229 599 L1233 588 L1238 576 L1243 563 L1248 554 L1253 544 L1260 534 L1268 524 L1275 514 L1283 505 L1289 498 L1297 490 L1304 483 L1305 482 L1306 481 L1311 479 L1317 475 L1325 472 L1333 468 L1341 465 L1348 463 L1357 461 L1365 459 L1374 458 L1380 457 L1389 456 L1397 456 L1405 456 L1414 456 L1424 457 L1432 458 L1439 459 L1448 461 L1519 484 L1527 488 L1535 492 L1543 496 L1550 500 L1558 504 L1565 509 L1571 514 L1577 519 L1583 524 L1588 529 L1594 534 L1599 540 L1604 545 L1608 551 L1613 557 L1617 563 L1621 569 L1624 575 L1629 582 L1633 588 L1635 594 L1639 601 L1641 607 L1645 614 L1647 620 L1650 626 L1653 633 L1655 639 L1658 645 L1660 651 L1663 657 L1664 660 L1666 666 L1669 671 L1672 676 L1674 681 L1677 687 L1680 693 L1684 697 L1688 702 L1693 708 L1698 714 L1703 719 L1708 724 L1713 729 L1718 734 L1724 738 L1729 741 L1733 745 L1739 748 L1745 752 L1753 755 L1760 758 L1768 761 L1775 764 L1785 767 L1793 770 L1803 774 L1812 776 L1822 779 L1832 781 L1841 782 L1851 784 L1860 785 L1871 786 L1882 788 L1894 788 L1904 788 L1915 788 L1927 788 L1940 788 L1953 788 L1968 788 L1982 788 L1997 788 L2011 787 L2026 785 L2044 783 L2062 780 L2073 779 L2085 778 L2100 775 L2118 773 L2136 770 L2159 766 L2181 762 L2204 757 L2226 751 L2250 745 L2274 739 L2454 689 L2473 684 L2578 655 L2589 651 L2600 648 L2610 645 L2618 642 L2626 639 L2634 636 L2641 633 L2647 630 L2654 627 L2658 625 L2663 623 L2668 620 L2671 618 L2674 617 L2678 614 L2681 612 L2683 610 L2686 608 L2688 606 L2689 605 L2691 603 L2692 600 L2694 598 L2695 596 L2697 594 L2697 592 L2697 591 L2698 589 L2699 586 L2700 583 L2700 580 L2701 576 L2701 571 L2702 567 L2703 563 L2704 558 L2705 553 L2705 547 L2705 542 L2706 536 L2707 531 L2707 525 L2707 520 L2708 514 L2709 509 L2710 503 L2710 499 L2711 493 L2713 487 L2715 482 L2716 477 L2718 473 L2719 470 L2719 469 L2719 468 L2720 466 L2722 462 L2723 459 L2725 455 L2727 450 L2729 446 L2730 441 L2733 436 L2735 432 L2737 426 L2740 420 L2742 416 L2744 411 L2745 407 L2747 402 L2749 398 L2751 392 L2752 388 L2752 384 L2753 381 L2754 378 L2755 374 L2756 371 L2756 368 L2757 365 L2758 362 L2759 358 L2759 356 L2759 353 L2759 350 L2759 347 L2759 344 L2759 342 L2759 340 L2759 338 L2759 337 L2759 336 L2758 335 L2757 335 L2757 334 L2757 333 L2757 332 L2756 332 L2756 331 L2755 330 L2755 329 L2754 328 L2754 327 L2752 325 L2751 324 L2749 323 L2748 321 L2747 319 L2745 317 L2744 315 L2742 313 L2740 310 L2737 307 L2734 305 L2730 302 L2726 298 L2721 296 L2716 293 L2710 290 L2706 287 L2700 284 L2694 281 L2687 278 L2681 274 L2677 272 L2674 271 L2670 269 L2665 266 L2659 264 L2654 262 L2649 259 L2643 257 L2637 255 L2632 252 L2628 250 L2623 248 L2619 247 L2613 244 L2608 242 L2604 240 L2599 238 L2595 236 L2591 235 L2587 232 L2584 230 L2579 229 L2576 226 L2572 224 L2569 223 L2564 221 L2561 219 L2558 217 L2554 216 L2551 214 L2547 212 L2544 212 L2540 210 L2537 208 L2534 208 L2531 207 L2529 206 L2528 206 L2527 205 L2526 205 L2523 205 L2521 205 L2518 205 L2516 205 L2513 205 L2511 205 L2508 205 L2505 205 L2503 205 L2500 205 L2497 205 L2496 205 L2495 205 L2493 206 L2490 207 L2486 208 L2483 210 L2479 212 L2473 215 L2467 218 L2462 220 L2455 224 L2449 227 L2441 231 L2432 235 L2424 239 L2416 243 L2408 249 L2399 254 L2391 261 L2382 266 L2375 271 L2365 278 L2357 284 L2349 291 L2340 297 L2332 304 L2324 310 L2315 317 L2306 323 L2299 330 L2292 335 L2291 335 L2289 337 L2285 340 L2280 345 L2274 350 L2269 354 L2268 355 L2266 356 L2262 360 L2256 366 L2251 371 L2245 377 L2238 383 L2232 389 L2226 396 L2221 401 L2216 407 L2211 413 L2206 419 L2201 425 L2198 430 L2195 434 L2191 439 L2188 445 L2184 451 L2181 457 L2178 463 L2174 469 L2171 475 L2168 479 L2164 485 L2162 491 L2159 497 L2156 504 L2153 510 L2150 515 L2147 521 L2144 526 L2141 531 L2138 537 L2136 543 L2133 550 L2130 557 L2127 565 L2124 570 L2122 576 L2119 583 L2116 591 L2113 596 L2111 602 L2108 609 L2106 616 L2103 622 L2100 629 L2097 637 L2072 691 L2068 699 L2064 706 L2060 713 L2055 720 L2050 726 L2045 734 L2039 741 L2034 747 L2028 755 L2023 761 L2018 767 L2013 773 L2006 779 L2000 785 L1994 792 L1989 798 L1983 803 L1977 809 L1972 814 L1966 819 L1959 824 L1954 829 L1950 834 L1945 838 L1940 843 L1935 847 L1930 851 L1927 854 L1922 858 L1918 861 L1915 864 L1911 867 L1909 869 L1908 870 L1907 871 L1905 872 L1903 873 L1902 875 L1899 876 L1898 877 L1896 879 L1895 881 L1894 883 L1892 884 L1891 886 L1889 888 L1888 892 L1887 894 L1886 897 L1884 900 L1883 903 L1881 907 L1880 909 L1878 912 L1876 914 L1876 915 L1876 916 L1875 916 L1874 917 L1873 919 L1871 920 L1870 922 L1868 923 L1867 925 L1866 926 L1864 927 L1863 929 L1860 930 L1860 931 L1859 931 L1858 932 L1857 933 L1856 934 L1854 935 L1854 936 L1853 936 L1852 937 L1850 938 L1849 938 L1849 939 L1848 939 L1847 940 L1846 941 L1845 942 L1844 942 L1844 943 L1843 943 L1842 943 L1842 944 L1841 945 L1840 946 L1839 946 L1838 947 L1837 947 L1837 946 L1837 944 L1838 943 L1839 942 L1840 939 L1841 939 L1842 938 L1842 937 L1844 936 L1844 935 L1845 934 L1846 933 L1847 933 L1848 932 L1849 931 L1849 930 L1850 930 L1851 929 L1852 928" style="stroke:black;stroke-width:1.0;fill:none;"></path>
</svg>
