<?xml version="1.0" encoding="UTF-8"?>
<!DOCTYPE svg PUBLIC "-//W3C//DTD SVG 1.0//EN" 
         "http://www.w3.org/TR/2001/REC-SVG-20010904/DTD/svg10.dtd">
<svg xmlns="http://www.w3.org/2000/svg" width="2880" height="1024">
  <path d="M1834 242 L569 443 L569 442 L569 440 L571 438 L572 436 L574 435 L575 432 L577 430 L578 428 L579 427 L579 426 L581 425 L582 423 L583 422 L585 420 L586 417 L588 416 L589 415 L590 413 L591 412 L593 410 L594 409 L594 408 L595 408 L595 407 L596 407 L597 405 L597 404 L598 403 L598 402 L599 400 L600 400 L600 399 L601 398 L602 397 L602 395 L603 395 L603 394 L603 393 L604 391 L605 390 L606 389 L606 388 L607 388 L607 386 L607 385 L607 384 L608 382 L609 380 L610 377 L611 375 L612 373 L613 370 L614 368 L615 365 L616 363 L616 359 L617 357 L617 356 L617 355 L618 353 L618 351 L619 349 L620 347 L620 344 L621 341 L621 339 L621 336 L621 334 L621 332 L621 329 L621 327 L621 325 L621 323 L622 320 L622 318 L622 316 L622 315 L622 314 L622 312 L622 309 L622 307 L622 306 L622 304 L622 302 L622 301 L622 300 L622 299 L621 297 L621 296 L620 295 L620 294 L620 293 L619 292 L619 291 L619 290 L618 288 L617 287 L617 285 L616 283 L616 281 L615 279 L614 277 L614 275 L613 273 L612 271 L612 270 L612 269 L611 267 L610 266 L610 265 L609 263 L608 261 L607 259 L607 257 L606 255 L605 252 L604 250 L604 248 L602 246 L601 244 L601 241 L599 239 L599 237 L597 235 L596 232 L596 231 L594 228 L593 226 L591 223 L590 221 L588 218 L586 215 L585 212 L582 209 L581 206 L579 204 L578 201 L576 199 L574 196 L572 194 L570 192 L568 190 L566 188 L564 185 L562 183 L560 179 L559 177 L557 176 L556 174 L554 172 L553 169 L551 167 L550 166 L548 164 L546 162 L545 160 L542 158 L540 157 L539 156 L538 155 L536 153 L535 152 L533 151 L532 149 L530 148 L528 146 L526 145 L525 143 L522 142 L520 140 L518 138 L516 137 L515 135 L514 134 L511 132 L509 131 L509 130 L507 130 L506 128 L505 127 L502 126 L501 125 L499 123 L496 122 L495 121 L493 119 L491 119 L489 117 L488 116 L486 114 L484 114 L482 112 L481 111 L478 110 L476 108 L475 107 L472 106 L470 105 L468 104 L467 103 L464 101 L462 100 L460 100 L458 99 L456 98 L454 98 L452 97 L451 96 L448 95 L447 95 L446 94 L443 93 L442 93 L440 93 L439 92 L437 91 L436 91 L435 91 L434 91 L433 91 L432 91 L431 90 L430 90 L430 89 L428 89 L427 89 L426 89 L424 89 L422 88 L421 87 L419 87 L417 87 L416 87 L414 87 L412 86 L411 85 L409 85 L407 84 L406 84 L405 83 L404 83 L402 83 L400 82 L399 81 L398 81 L397 80 L395 80 L394 79 L393 79 L391 79 L389 78 L388 77 L386 77 L384 77 L382 77 L380 76 L378 76 L376 76 L373 75 L371 75 L369 74 L367 74 L365 74 L363 74 L360 74 L358 74 L356 73 L354 72 L352 72 L350 72 L348 72 L347 72 L346 72 L344 72 L343 71 L341 71 L339 71 L337 71 L335 71 L332 71 L330 71 L328 71 L327 71 L326 71 L325 71 L324 71 L323 71 L322 71 L321 71 L320 71 L319 71 L318 71 L316 71 L315 71 L314 71 L312 71 L309 71 L308 71 L306 71 L305 71 L303 71 L301 71 L300 71 L299 71 L298 71 L297 71 L296 71 L295 71 L294 71 L292 71 L290 71 L289 71 L287 71 L286 71 L284 72 L283 72 L281 72 L279 73 L277 73 L275 74 L273 74 L271 75 L269 76 L267 76 L266 76 L263 76 L261 77 L259 78 L257 78 L255 79 L252 79 L250 80 L248 81 L247 82 L246 82 L245 82 L243 82 L241 83 L239 84 L237 85 L234 85 L232 85 L230 85 L227 85 L225 86 L223 87 L221 87 L218 87 L217 87 L215 88 L213 88 L211 89 L209 90 L208 90 L206 91 L205 91 L204 92 L203 92 L201 92 L199 93 L199 94 L197 94 L196 94 L195 95 L193 96 L192 96 L191 97 L190 98 L189 98 L187 99 L187 100 L186 100 L184 100 L183 101 L182 102 L181 103 L180 103 L179 104 L178 104 L177 104 L177 105 L176 105 L176 106 L175 106 L175 107 L174 107 L173 107 L172 108 L171 108 L171 109 L170 110 L169 112 L168 113 L167 114 L165 116 L165 117 L164 118 L162 120 L162 122 L160 124 L160 125 L159 126 L158 128 L158 129 L156 131 L155 133 L154 136 L152 138 L151 140 L149 142 L148 145 L146 148 L146 151 L145 153 L144 155 L143 157 L143 160 L142 162 L141 165 L140 167 L140 169 L140 171 L140 174 L139 175 L139 177 L138 179 L138 182 L138 184 L137 187 L137 190 L137 204 L137 206 L137 209 L137 211 L137 213 L137 215 L138 217 L139 220 L139 223 L140 225 L141 227 L142 229 L143 232 L144 235 L145 238 L145 241 L147 243 L148 245 L149 247 L151 251 L152 254 L154 256 L155 258 L157 261 L158 263 L160 265 L162 267 L164 269 L166 271 L168 273 L171 276 L173 278 L174 280 L177 282 L179 284 L181 286 L184 289 L187 291 L189 294 L192 295 L194 297 L195 297 L197 299 L199 300 L201 302 L205 303 L208 305 L211 307 L215 309 L219 312 L224 315 L229 316 L233 318 L238 320 L242 322 L248 324 L252 326 L257 327 L261 329 L266 332 L271 334 L277 337 L282 340 L288 342 L294 344 L300 346 L306 347 L310 350 L316 352 L322 355 L329 357 L335 359 L340 361 L346 363 L352 365 L358 367 L363 369 L369 371 L376 372 L382 373 L387 373 L394 374 L400 375 L405 376 L412 377 L418 378 L423 378 L429 378 L432 378 L434 378 L436 378 L440 378 L443 378 L447 378 L451 378 L455 378 L459 378 L463 378 L468 377 L471 375 L474 374 L477 374 L481 372 L484 370 L487 369 L489 367 L493 366 L496 364 L499 361 L500 361 L501 359 L503 357 L505 355 L509 352 L511 350 L513 348 L517 345 L520 341 L524 339 L527 335 L531 333 L535 329 L538 325 L540 323 L544 320 L547 318 L551 315 L555 312 L558 308 L559 307 L561 305 L565 303 L568 300 L570 298 L574 294 L579 291 L582 287 L587 283 L592 279 L596 276 L600 272 L605 268 L609 265 L611 264 L614 262 L618 259 L622 255 L627 251 L632 248 L635 245 L640 241 L645 237 L651 233 L655 230 L660 228 L665 224 L670 220 L674 217 L678 215 L682 211 L685 207 L689 205 L692 201 L696 198 L699 195 L703 192 L706 189 L707 189 L708 188 L708 187 L710 185 L712 182 L714 180 L717 178 L719 175 L721 173 L724 171 L726 168 L728 166 L730 165 L733 162 L736 161 L739 158 L743 155 L745 154 L748 152 L751 150 L754 148 L756 145 L760 144 L762 141 L765 140 L769 137 L769 136 L770 136 L770 135 L772 134 L776 132 L780 129 L784 127 L788 124 L793 121 L796 120 L797 120 L798 119 L800 118 L804 116 L807 114 L811 113 L816 111 L820 109 L825 107 L828 106 L832 104 L835 103 L838 101 L841 100 L845 98 L848 97 L851 96 L853 94 L856 93 L860 91 L862 90 L863 90 L864 89 L866 88 L868 88 L871 87 L873 86 L876 85 L878 85 L880 85 L883 85 L886 84 L888 83 L889 83 L890 83 L891 83 L892 83 L893 83 L894 83 L897 83 L898 83 L899 82 L899 81 L900 81 L901 81 L902 81 L903 81 L903 82 L904 82 L904 83 L905 83 L905 84 L906 85 L908 87 L909 89 L911 91 L912 93 L914 97 L924 118 L926 120 L926 122 L927 127 L929 130 L931 134 L933 140 L934 145 L937 151 L939 155 L941 161 L944 167 L946 172 L948 177 L951 183 L953 189 L956 195 L958 199 L961 203 L962 204 L963 206 L965 210 L968 214 L971 218 L975 223 L980 229 L984 234 L986 236 L989 240 L992 243 L996 247 L999 251 L1004 253 L1008 257 L1011 260 L1015 262 L1019 266 L1024 269 L1029 272 L1032 274 L1037 278 L1042 281 L1046 284 L1051 287 L1056 288 L1060 291 L1065 294 L1070 297 L1073 298 L1077 300 L1080 302 L1082 303 L1085 304 L1090 306 L1093 308 L1097 308 L1102 310 L1106 312 L1111 314 L1115 316 L1120 317 L1123 319 L1126 321 L1131 323 L1135 324 L1140 326 L1144 327 L1149 328 L1153 330 L1158 331 L1162 331 L1166 333 L1169 334 L1173 335 L1177 336 L1180 336 L1183 336 L1186 336 L1189 336 L1191 336 L1193 336 L1196 336 L1198 336 L1200 336 L1203 336 L1204 336 L1205 336 L1207 336 L1210 336 L1211 335 L1212 335 L1212 334 L1213 334 L1216 332 L1217 331 L1218 330 L1220 328 L1222 327 L1223 325 L1225 323 L1227 321 L1228 319 L1231 317 L1232 315 L1233 314 L1233 313 L1235 310 L1236 308 L1237 305 L1239 301 L1241 298 L1242 295 L1244 290 L1245 286 L1246 281 L1248 277 L1250 271 L1250 267 L1250 264 L1250 259 L1250 255 L1250 252 L1250 251 L1250 250 L1250 249 L1251 246 L1252 243 L1253 241 L1253 239 L1255 236 L1256 231 L1258 227 L1258 224 L1259 221 L1260 218 L1262 215 L1263 212 L1265 207 L1267 204 L1267 203 L1268 201 L1269 199 L1271 197 L1272 194 L1274 192 L1276 189 L1278 186 L1280 184 L1282 181 L1282 180 L1283 179 L1284 177 L1285 174 L1287 173 L1288 171 L1290 170 L1291 169 L1292 166 L1294 165 L1295 164 L1298 162 L1299 161 L1300 160 L1303 158 L1304 157 L1306 156 L1308 156 L1309 154 L1311 153 L1313 152 L1316 151 L1317 151 L1319 150 L1321 149 L1324 148 L1327 148 L1330 148 L1332 147 L1335 147 L1338 147 L1341 147 L1344 147 L1348 147 L1351 147 L1355 147 L1359 147 L1362 147 L1365 147 L1368 147 L1371 148 L1375 149 L1379 151 L1382 151 L1386 153 L1390 155 L1394 157 L1397 158 L1401 160 L1404 163 L1409 164 L1412 167 L1414 169 L1418 170 L1419 171 L1420 172 L1423 174 L1427 176 L1430 180 L1433 182 L1436 185 L1440 188 L1442 192 L1445 195 L1448 199 L1451 204 L1454 207 L1457 210 L1459 215 L1462 219 L1465 223 L1468 227 L1470 229 L1471 230 L1471 231 L1473 234 L1474 237 L1476 240 L1478 242 L1480 245 L1481 249 L1483 252 L1485 255 L1486 257 L1487 261 L1489 263 L1489 266 L1490 269 L1491 271 L1492 273 L1493 276 L1493 277 L1493 279 L1493 280 L1493 282 L1493 284 L1493 286 L1493 288 L1493 291 L1493 294 L1493 296 L1493 298 L1493 301 L1493 303 L1493 305 L1492 307 L1492 310 L1491 311 L1491 313 L1490 315 L1489 317 L1488 320 L1488 322 L1487 325 L1486 327 L1485 329 L1484 331 L1483 334 L1482 337 L1482 340 L1481 342 L1480 343 L1479 345 L1478 347 L1478 348 L1477 351 L1475 353 L1475 355 L1475 356 L1474 356 L1474 357 L1473 358 L1472 360 L1471 362 L1470 365 L1469 367 L1467 369 L1465 372 L1464 376 L1463 378 L1461 381 L1460 384 L1458 388 L1456 391 L1455 393 L1453 396 L1453 397 L1452 399 L1451 401 L1449 403 L1448 406 L1445 410 L1442 413 L1441 418 L1438 421 L1435 426 L1433 429 L1430 433 L1427 436 L1425 441 L1422 444 L1419 449 L1417 453 L1414 456 L1411 461 L1409 464 L1406 468 L1403 471 L1401 473 L1398 477 L1396 479 L1393 482 L1390 484 L1390 485 L1388 485 L1387 487 L1386 489 L1383 491 L1382 493 L1380 495 L1377 497 L1375 500 L1373 502 L1373 503 L1365 507 L1363 509 L1361 510 L1358 512 L1356 513 L1353 515 L1351 516 L1349 516 L1345 518 L1343 519 L1340 520 L1337 522 L1333 523 L1331 524 L1331 525 L1329 525 L1327 526 L1326 526 L1325 526 L1324 527 L1322 528 L1319 528 L1317 529 L1314 531 L1310 531 L1307 532 L1304 534 L1301 535 L1298 536 L1294 538 L1290 539 L1286 540 L1283 540 L1280 541 L1275 542 L1272 543 L1269 544 L1242 547 L1238 547 L1235 547 L1231 547 L1228 547 L1224 547 L1221 547 L1218 547 L1213 547 L1210 547 L1206 547 L1203 547 L1199 547 L1196 547 L1193 547 L1189 547 L1185 547 L1182 547 L1179 547 L1175 547 L1171 547 L1167 547 L1164 547 L1160 547 L1157 547 L1156 547 L1155 546 L1152 546 L1148 545 L1145 545 L1142 545 L1138 544 L1134 543 L1130 542 L1125 541 L1121 540 L1118 540 L1115 540 L1112 539 L1109 538 L1104 536 L1099 535 L1093 533 L1088 532 L1084 530 L1079 527 L1073 525 L1069 523 L1064 521 L1058 519 L1054 516 L1048 513 L1042 511 L1036 509 L1030 506 L1026 503 L1021 501 L1016 499 L1012 497 L1006 494 L1000 492 L996 490 L990 487 L984 485 L980 483 L975 482 L971 480 L966 478 L962 476 L961 476 L958 475 L955 473 L952 471 L946 470 L941 468 L936 466 L931 464 L926 462 L921 459 L915 458 L909 456 L905 455 L900 453 L897 451 L892 449 L889 449 L886 448 L883 447 L879 445 L875 444 L872 444 L869 443 L866 442 L863 441 L860 441 L858 440 L856 440 L853 439 L851 439 L849 438 L847 438 L845 438 L843 438 L840 438 L838 438 L835 438 L832 438 L829 438 L826 438 L823 438 L820 438 L817 438 L814 438 L811 438 L808 438 L807 438 L805 438 L802 437 L799 437 L795 437 L791 437 L787 437 L781 437 L777 437 L772 437 L766 437 L761 437 L757 437 L751 437 L746 437 L740 437 L735 437 L730 437 L723 437 L717 437 L712 437 L705 437 L700 437 L693 437 L688 437 L681 437 L676 437 L669 437 L661 437 L654 437 L649 437 L648 437 L645 437 L641 437 L638 437 L635 437 L630 437 L626 437 L621 437 L614 437 L609 437 L603 437 L596 437 L591 437 L586 437 L581 437 L576 437 L572 437 L566 437 L561 437 L556 437 L551 437 L546 437 L542 437 L536 437 L532 437 L528 437 L523 437 L519 437 L515 437 L510 437 L506 437 L502 437 L498 437 L493 437 L487 437 L482 437 L478 437 L474 437 L469 437 L465 437 L460 437 L454 437 L449 437 L445 437 L438 437 L433 437 L432 437 L430 437 L429 437 L427 437 L423 437 L420 437 L417 437 L413 437 L409 437 L404 437 L400 437 L397 437 L394 437 L391 437 L388 437 L385 437 L382 437 L379 437 L377 437 L375 437 L373 437 L370 437 L368 437 L365 437 L363 437 L362 437 L361 437 L360 437 L359 437 L358 437 L357 437 L355 437 L354 437 L353 437 L352 437 L351 438 L350 439 L348 439 L347 439 L347 440 L346 440 L345 441 L344 441 L343 441 L342 442 L340 442 L339 443 L338 444 L335 445 L334 445 L332 446 L330 447 L328 447 L325 449 L323 450 L321 450 L318 451 L316 452 L313 453 L310 454 L308 455 L307 456 L304 458 L302 459 L300 459 L298 460 L296 461 L293 462 L291 463 L289 463 L286 464 L285 464 L284 464 L283 464 L282 464 L280 464 L279 464 L279 465 L277 466 L276 466 L275 467 L273 468 L272 469 L270 470 L269 470 L268 471 L267 472 L266 472 L266 473 L264 473 L263 474 L261 475 L259 475 L257 476 L255 477 L253 478 L251 479 L249 481 L247 482 L245 484 L242 485 L239 487 L237 487 L235 489 L232 490 L230 493 L228 494 L226 497 L224 498 L223 499 L222 500 L220 500 L217 501 L215 503 L213 505 L211 507 L207 509 L205 511 L203 514 L199 516 L197 518 L195 519 L193 521 L190 522 L189 524 L187 525 L186 527 L185 529 L183 530 L182 532 L181 532 L181 533 L180 534 L179 536 L177 537 L176 538 L176 541 L174 543 L173 545 L172 546 L172 547 L171 548 L170 550 L169 553 L169 555 L167 557 L166 559 L166 561 L166 562 L166 563 L165 564 L164 566 L164 568 L164 569 L164 571 L164 573 L163 575 L163 576 L163 577 L162 578 L162 579 L162 580 L162 581 L162 583 L162 585 L162 587 L162 589 L162 591 L162 593 L162 595 L161 598 L161 600 L161 602 L161 604 L161 606 L161 608 L161 610 L161 613 L161 616 L161 618 L161 619 L161 621 L161 622 L161 623 L161 624 L161 625 L161 626 L161 627 L161 629 L161 632 L161 633 L161 635 L161 637 L161 639 L161 641 L161 643 L161 645 L161 647 L161 648 L161 649 L161 650 L161 651 L162 653 L163 655 L163 656 L163 657 L163 658 L164 660 L164 661 L165 663 L165 664 L166 665 L167 667 L167 668 L167 670 L168 672 L169 674 L169 675 L169 676 L170 678 L170 679 L170 680 L171 681 L171 682 L171 683 L172 684 L172 686 L172 687 L172 688 L173 691 L174 692 L174 693 L175 695 L176 696 L176 697 L176 698 L177 700 L178 701 L178 702 L180 704 L180 705 L182 707 L182 708 L183 708 L184 710 L184 712 L186 713 L187 715 L189 716 L190 718 L192 720 L194 722 L196 724 L198 726 L199 727 L200 729 L202 732 L203 734 L205 735 L206 737 L209 739 L211 741 L213 743 L215 744 L218 746 L220 747 L222 749 L224 750 L228 752 L230 754 L230 755 L231 755 L233 756 L235 758 L238 759 L240 760 L242 761 L245 763 L247 764 L251 765 L253 767 L255 768 L257 769 L259 770 L262 771 L265 773 L267 774 L269 774 L271 776 L274 776 L276 778 L278 779 L281 780 L283 782 L286 783 L286 784 L287 784 L288 784 L289 785 L291 787 L292 787 L294 789 L295 790 L297 791 L299 792 L301 794 L303 795 L304 795 L304 796 L306 796 L307 798 L308 799 L310 801 L311 802 L313 803 L315 804 L317 806 L319 807 L320 809 L321 809 L324 811 L325 811 L326 812 L327 813 L329 813 L330 815 L332 816 L333 817 L334 818 L335 818 L336 818 L336 819 L337 820 L338 820 L339 821 L340 821 L341 822 L342 823 L343 823 L344 823 L345 824 L346 824 L347 824 L348 824 L348 825 L349 825 L351 826 L352 827 L353 827 L354 827 L355 828 L356 828 L358 829 L359 829 L361 829 L362 830 L364 831 L365 831 L368 831 L369 832 L371 833 L373 833 L374 833 L376 834 L377 834 L379 834 L382 834 L384 835 L385 836 L387 836 L389 836 L392 837 L394 837 L396 838 L397 838 L400 838 L402 838 L404 839 L405 839 L407 840 L409 840 L412 841 L413 841 L414 841 L416 841 L418 841 L420 841 L422 842 L424 842 L426 843 L428 843 L430 843 L432 843 L434 844 L437 844 L439 844 L442 844 L445 845 L447 846 L449 846 L451 846 L453 847 L455 847 L458 848 L459 849 L461 849 L463 849 L465 849 L468 850 L470 850 L472 851 L474 852 L476 852 L479 853 L482 853 L482 854 L483 854 L484 854 L486 855 L488 855 L490 855 L493 856 L495 856 L498 857 L501 858 L503 858 L505 859 L508 859 L510 860 L513 860 L517 861 L520 861 L522 861 L525 861 L528 862 L532 863 L535 863 L539 864 L540 864 L541 864 L543 865 L546 865 L550 866 L553 866 L556 866 L558 866 L560 867 L563 868 L565 868 L567 869 L570 869 L573 870 L576 870 L579 871 L581 871 L584 871 L586 872 L587 872 L588 872 L589 872 L591 872 L594 872 L596 872 L599 872 L602 873 L604 873 L606 873 L608 873 L610 873 L612 873 L614 873 L617 873 L619 873 L621 873 L622 873 L623 873 L624 873 L625 873 L627 873 L629 873 L632 873 L634 873 L636 873 L637 873 L638 873 L641 872 L642 872 L644 871 L648 871 L650 871 L653 871 L655 870 L656 869 L658 869 L661 868 L663 867 L665 866 L667 866 L669 866 L672 864 L674 863 L676 863 L678 861 L680 860 L681 860 L682 859 L683 859 L686 858 L688 857 L690 856 L692 855 L694 854 L697 853 L700 853 L702 852 L705 850 L708 850 L710 849 L713 848 L716 847 L719 847 L722 846 L725 845 L727 844 L729 844 L731 843 L734 842 L737 841 L738 841 L740 840 L741 839 L743 839 L745 837 L746 837 L747 836 L749 834 L750 833 L752 832 L754 832 L756 830 L758 829 L760 829 L762 828 L764 827 L765 827 L767 825 L769 824 L770 823 L772 822 L773 822 L773 821 L774 821 L775 821 L775 820 L776 819 L777 818 L778 818 L779 817 L780 817 L780 816 L781 815 L782 814 L783 814 L784 813 L785 812 L786 811 L787 811 L787 810 L788 810 L789 809 L790 808 L791 807 L792 806 L793 806 L794 805 L794 804 L795 803 L796 802 L797 802 L797 801 L798 800 L800 799 L800 798 L801 798 L802 797 L804 795 L805 794 L807 792 L808 791 L809 790 L810 788 L811 787 L812 786 L813 785 L813 784 L815 782 L816 781 L817 780 L818 778 L819 777 L821 776 L822 774 L824 773 L824 772 L825 772 L825 771 L825 770 L827 768 L828 767 L830 765 L831 764 L832 762 L834 760 L835 759 L837 757 L838 755 L840 753 L841 752 L843 750 L843 749 L845 747 L846 745 L848 744 L850 741 L851 740 L852 738 L854 735 L855 732 L858 729 L859 727 L859 726 L860 724 L862 723 L863 721 L865 718 L866 716 L868 714 L869 712 L872 710 L875 709 L878 706 L881 704 L883 702 L885 700 L886 699 L888 698 L889 697 L891 694 L894 692 L896 690 L898 688 L900 687 L901 687 L901 686 L902 686 L903 684 L904 684 L904 683 L906 682 L907 680 L909 679 L912 677 L914 676 L916 674 L918 673 L921 672 L923 671 L925 669 L927 669 L928 668 L928 667 L930 666 L933 665 L935 665 L937 664 L940 663 L942 662 L944 662 L947 661 L951 660 L953 659 L956 659 L958 658 L961 658 L963 657 L965 656 L968 656 L970 656 L971 656 L973 656 L975 656 L977 656 L978 656 L980 655 L981 655 L983 655 L984 655 L985 655 L986 655 L988 655 L989 655 L990 655 L992 655 L993 655 L994 655 L995 655 L996 655 L997 655 L998 655 L999 655 L1000 655 L1001 655 L1002 655 L1003 655 L1004 655 L1005 655 L1006 656 L1007 656 L1008 657 L1010 658 L1011 658 L1012 659 L1013 659 L1013 660 L1014 661 L1015 662 L1016 662 L1017 663 L1017 664 L1018 665 L1019 666 L1020 666 L1020 667 L1021 668 L1021 669 L1022 669 L1022 670 L1023 670 L1024 671 L1024 672 L1025 674 L1025 675 L1026 675 L1026 676 L1027 676 L1028 678 L1028 679 L1029 680 L1030 682 L1030 683 L1031 685 L1033 688 L1033 690 L1034 692 L1036 694 L1036 696 L1038 699 L1039 701 L1039 703 L1040 705 L1042 707 L1042 710 L1044 712 L1045 713 L1046 715 L1047 717 L1049 719 L1050 721 L1052 724 L1053 726 L1055 728 L1056 730 L1058 732 L1059 734 L1061 736 L1062 739 L1065 741 L1066 743 L1067 744 L1069 747 L1070 749 L1072 750 L1074 753 L1076 754 L1078 756 L1079 757 L1081 759 L1082 761 L1084 762 L1086 764 L1087 765 L1090 767 L1091 768 L1093 769 L1095 771 L1097 772 L1099 774 L1101 775 L1101 776 L1102 776 L1103 777 L1105 779 L1107 779 L1109 781 L1111 781 L1113 782 L1116 784 L1119 785 L1122 786 L1124 788 L1126 788 L1129 790 L1132 791 L1135 792 L1137 793 L1140 794 L1142 795 L1144 796 L1148 797 L1150 797 L1153 798 L1156 799 L1158 799 L1161 800 L1164 800 L1167 800 L1170 801 L1173 801 L1174 801 L1175 801 L1177 801 L1178 801 L1179 801 L1181 801 L1184 801 L1186 801 L1189 801 L1192 801 L1195 801 L1198 801 L1202 801 L1205 801 L1208 801 L1211 801 L1214 801 L1217 801 L1219 801 L1222 801 L1225 801 L1227 801 L1229 801 L1231 800 L1234 800 L1236 799 L1237 798 L1239 798 L1241 798 L1243 797 L1244 796 L1245 796 L1248 795 L1249 794 L1250 794 L1252 793 L1254 792 L1255 791 L1257 791 L1259 789 L1260 789 L1262 788 L1263 786 L1264 786 L1266 784 L1268 783 L1270 781 L1271 780 L1272 779 L1273 778 L1275 776 L1276 774 L1277 773 L1278 771 L1280 770 L1281 768 L1282 766 L1284 764 L1284 761 L1286 758 L1288 754 L1288 752 L1290 749 L1291 746 L1291 743 L1292 740 L1293 736 L1294 733 L1295 730 L1295 728 L1296 726 L1297 724 L1298 721 L1298 718 L1299 714 L1300 712 L1301 710 L1305 688 L1305 686 L1306 683 L1306 681 L1307 678 L1307 676 L1307 674 L1308 671 L1309 669 L1310 667 L1311 665 L1312 663 L1313 660 L1314 659 L1315 657 L1315 655 L1316 652 L1323 639 L1324 638 L1325 635 L1326 634 L1328 632 L1329 629 L1331 627 L1331 626 L1332 625 L1333 624 L1334 623 L1336 622 L1337 620 L1338 619 L1341 619 L1341 618 L1342 618 L1344 617 L1345 616 L1346 616 L1347 616 L1347 615 L1348 615 L1349 615 L1350 614 L1350 613 L1351 613 L1352 612 L1353 612 L1354 612 L1357 611 L1359 611 L1360 611 L1362 611 L1364 611 L1367 611 L1369 611 L1370 611 L1371 611 L1373 611 L1375 611 L1377 611 L1378 612 L1380 613 L1383 613 L1385 614 L1385 615 L1386 615 L1386 616 L1388 616 L1389 617 L1390 618 L1392 618 L1394 620 L1396 621 L1398 623 L1400 624 L1401 626 L1403 627 L1404 629 L1406 630 L1407 632 L1409 634 L1410 636 L1412 638 L1413 640 L1414 643 L1415 645 L1415 646 L1420 658 L1421 659 L1422 661 L1422 663 L1424 665 L1425 667 L1426 671 L1428 674 L1429 676 L1430 679 L1431 681 L1432 684 L1433 686 L1434 689 L1435 691 L1435 693 L1436 696 L1437 698 L1438 700 L1438 702 L1439 704 L1439 706 L1440 709 L1440 711 L1440 713 L1440 716 L1440 718 L1440 720 L1440 722 L1440 724 L1440 727 L1440 729 L1440 731 L1440 733 L1440 735 L1440 736 L1440 737 L1440 738 L1440 739 L1440 740 L1439 741 L1438 742 L1438 744 L1438 746 L1437 748 L1435 750 L1435 752 L1434 754 L1432 756 L1431 758 L1430 760 L1429 762 L1427 764 L1427 765 L1426 766 L1425 767 L1424 769 L1422 770 L1421 772 L1420 774 L1418 775 L1417 777 L1416 777 L1416 778 L1415 778 L1414 779 L1413 780 L1411 780 L1410 781 L1409 781 L1408 781 L1407 781 L1406 781 L1405 781 L1403 782 L1402 782 L1401 782 L1399 782 L1398 783 L1397 784 L1395 784 L1394 784 L1393 785 L1392 785 L1391 785 L1390 785 L1389 785 L1387 785 L1386 785 L1385 785 L1384 785 L1382 785 L1381 785 L1380 785 L1378 785 L1377 785 L1376 785 L1373 783 L1372 782 L1370 781 L1369 780 L1367 778 L1365 778 L1364 776 L1362 775 L1359 773 L1357 772 L1356 771 L1355 770 L1354 769 L1353 767 L1352 766 L1350 764 L1348 763 L1347 762 L1346 760 L1344 758 L1343 758 L1343 756 L1342 755 L1341 753 L1339 750 L1338 749 L1337 747 L1337 745 L1336 744 L1335 743 L1335 741 L1335 740 L1335 739 L1335 738 L1335 737 L1335 736 L1335 734 L1335 733 L1335 731 L1335 729 L1335 727 L1335 704 L1336 700 L1337 696 L1338 692 L1338 689 L1339 686 L1340 682 L1342 678 L1343 675 L1344 671 L1346 666 L1347 662 L1349 657 L1349 654 L1350 654 L1350 652 L1351 649 L1352 647 L1354 646 L1354 643 L1356 641 L1357 638 L1357 637 L1358 637 L1358 636 L1358 635 L1358 634 L1359 632 L1361 631 L1361 630 L1362 629 L1362 627 L1363 625 L1364 624 L1365 621 L1366 617 L1368 615 L1369 613 L1371 611 L1371 609 L1372 608 L1372 607 L1373 607 L1373 606 L1375 604 L1376 602 L1378 600 L1381 597 L1382 595 L1384 593 L1386 591 L1388 588 L1391 586 L1393 584 L1395 581 L1398 580 L1400 578 L1402 577 L1404 575 L1407 574 L1408 573 L1409 573 L1410 573 L1411 573 L1412 573 L1413 573 L1414 573 L1415 573 L1416 573 L1417 573 L1418 573 L1419 573 L1420 573 L1421 573 L1423 574 L1424 575 L1425 575 L1426 576 L1427 576 L1428 578 L1430 579 L1431 581 L1433 582 L1434 584 L1436 585 L1437 586 L1438 588 L1452 605 L1454 608 L1455 611 L1457 614 L1459 616 L1460 618 L1461 619 L1462 619 L1462 620 L1462 621 L1463 623 L1464 624 L1464 625 L1465 627 L1466 629 L1466 630 L1466 632 L1467 634 L1467 635 L1468 636 L1468 637 L1468 638 L1469 639 L1469 640 L1469 641 L1469 642 L1469 643 L1469 644 L1468 644 L1467 644 L1466 644 L1465 644 L1464 644 L1462 644 L1461 644 L1460 643 L1458 641 L1457 640 L1455 638 L1453 637 L1451 635 L1449 634 L1446 632 L1443 629 L1441 627 L1438 623 L1434 620 L1431 616 L1430 616 L1429 614 L1427 612 L1400 585 L1396 582 L1394 579 L1393 577 L1390 574 L1389 572 L1387 569 L1387 568 L1386 567 L1385 566 L1384 563 L1382 561 L1381 559 L1380 557 L1379 554 L1379 552 L1378 550 L1376 548 L1376 546 L1375 543 L1375 542 L1375 540 L1374 538 L1374 536 L1373 522 L1373 520 L1373 518 L1373 515 L1373 512 L1373 510 L1373 508 L1373 505 L1373 503 L1374 501 L1375 499 L1375 496 L1375 493 L1375 490 L1376 488 L1377 485 L1378 482 L1378 480 L1379 478 L1379 476 L1380 473 L1381 470 L1381 467 L1381 464 L1382 462 L1383 459 L1384 456 L1384 454 L1384 451 L1384 450 L1385 449 L1385 448 L1386 447 L1386 446 L1386 445 L1387 443 L1389 441 L1390 440 L1391 437 L1393 435 L1394 433 L1396 431 L1397 428 L1400 426 L1401 424 L1404 421 L1406 419 L1407 418 L1410 415 L1411 414 L1412 413 L1413 412 L1415 410 L1416 409 L1417 409 L1417 408 L1418 408 L1419 407 L1420 406 L1421 406 L1422 405 L1423 405 L1425 403 L1427 402 L1431 400 L1434 399 L1438 397 L1442 396 L1445 394 L1449 392 L1454 391 L1458 390 L1464 388 L1470 387 L1475 385 L1481 384 L1485 383 L1491 381 L1497 380 L1504 379 L1510 378 L1516 377 L1523 376 L1530 375 L1537 374 L1543 374 L1552 373 L1561 372 L1572 370 L1583 369 L1592 369 L1601 369 L1611 369 L1620 369 L1629 369 L1640 369 L1649 369 L1660 369 L1670 369 L1680 369 L1690 369 L1702 369 L1713 369 L1725 369 L1736 369 L1748 369 L1759 369 L1770 369 L1782 369 L1794 369 L1805 369 L1815 369 L1826 369 L1838 369 L1848 370 L1858 371 L1866 373 L1867 373 L1879 375 L1888 377 L1899 378 L1910 379 L1920 381 L1931 384 L1941 386 L1952 388 L1962 389 L1973 391 L1984 393 L1996 395 L2007 399 L2018 401 L2030 403 L2042 405 L2054 408 L2065 411 L2076 413 L2086 416 L2097 418 L2106 422 L2117 425 L2125 427 L2135 429 L2143 431 L2144 431 L2145 432 L2149 433 L2155 435 L2161 436 L2168 438 L2174 440 L2179 442 L2185 443 L2191 445 L2196 447 L2201 448 L2207 450 L2211 451 L2215 453 L2220 453 L2223 454 L2226 455 L2229 456 L2232 456 L2235 457 L2238 458 L2241 459 L2244 460 L2247 460 L2249 460 L2251 460 L2253 460 L2255 460 L2256 460 L2259 460 L2260 460 L2261 460 L2262 460 L2264 460 L2266 460 L2268 459 L2270 458 L2272 458 L2275 457 L2277 455 L2279 455 L2282 453 L2286 451 L2288 450 L2291 448 L2294 447 L2298 445 L2301 442 L2304 441 L2308 439 L2310 438 L2313 436 L2315 435 L2318 432 L2320 431 L2321 429 L2323 428 L2324 426 L2325 426 L2325 425 L2325 424 L2326 423 L2326 421 L2327 420 L2327 419 L2327 417 L2327 416 L2327 415 L2327 413 L2327 412 L2327 409 L2327 408 L2327 406 L2327 405 L2327 404 L2327 403 L2326 402 L2325 399 L2324 398 L2323 396 L2321 392 L2320 390 L2319 388 L2317 385 L2316 383 L2314 380 L2314 377 L2312 375 L2310 372 L2308 368 L2306 366 L2304 364 L2303 361 L2301 358 L2300 356 L2298 354 L2297 352 L2295 350 L2294 348 L2293 347 L2292 346 L2291 344 L2290 343 L2289 342 L2288 341 L2288 340 L2287 339 L2286 339 L2285 338 L2284 336 L2283 336 L2282 334 L2281 333 L2280 332 L2279 331 L2278 330 L2276 328 L2275 327 L2273 325 L2272 322 L2270 320 L2269 318 L2267 316 L2266 312 L2264 309 L2263 306 L2261 303 L2259 300 L2258 297 L2256 294 L2253 289 L2252 286 L2250 281 L2247 277 L2244 272 L2242 267 L2239 263 L2235 258 L2231 252 L2227 247 L2223 241 L2215 230 L2211 224 L2206 219 L2202 213 L2197 208 L2192 202 L2187 196 L2182 190 L2178 184 L2173 179 L2115 124 L2107 117 L2106 117 L2104 115 L2100 112 L2094 108 L2092 107 L2090 105 L2085 101 L2078 97 L2071 92 L2065 88 L2064 88 L2063 87 L2062 87 L2057 86 L2052 84 L2047 82 L2043 80 L2038 79 L2033 78 L2028 77 L2024 77 L2020 77 L2016 77 L2012 77 L2007 77 L2003 77 L1999 77 L1995 77 L1992 77 L1987 79 L1984 81 L1981 82 L1976 85 L1973 88 L1969 90 L1964 94 L1961 97 L1957 100 L1954 104 L1951 108 L1947 114 L1943 120 L1939 128 L1935 135 L1933 141 L1932 142 L1931 144 L1930 149 L1928 156 L1926 164 L1923 172 L1920 183 L1918 194 L1916 205 L1915 217 L1915 230 L1915 242 L1915 254 L1915 268 L1916 280 L1917 293 L1919 305 L1921 317 L1925 329 L1928 342 L1933 353 L1937 365 L1943 376 L1949 387 L1956 397 L1962 407 L1970 416 L1978 424 L1988 432 L1996 439 L2006 445 L2016 450 L2026 454 L2037 458 L2048 462 L2060 464 L2072 466 L2084 468 L2096 469 L2108 469 L2121 469 L2133 469 L2145 468 L2159 466 L2172 464 L2184 460 L2198 457 L2210 453 L2221 448 L2232 444 L2243 439 L2253 434 L2263 428 L2272 422 L2280 415 L2289 409 L2297 401 L2303 395 L2309 389 L2314 382 L2318 376 L2322 368 L2325 361 L2328 354 L2329 351 L2330 345 L2331 340 L2332 333 L2332 327 L2332 322 L2332 315 L2332 309 L2332 303 L2331 296 L2328 289 L2325 283 L2321 277 L2317 272 L2312 266 L2308 260 L2303 255 L2298 250 L2292 245 L2286 242 L2280 238 L2274 235 L2267 232 L2259 229 L2252 226 L2245 224 L2238 222 L2229 220 L2221 218 L2214 217 L2206 217 L2198 217 L2189 217 L2180 217 L2169 217 L2159 217 L2151 218 L2143 220 L2142 220 L2141 220 L2141 221 L2139 221 L2133 223 L2125 226 L2117 229 L2106 234 L2095 239 L2086 243 L2076 248 L2066 253 L2058 259 L2049 264 L2041 269 L2032 276 L2022 282 L2013 288 L2009 292 L2008 292 L2007 294 L2003 297 L2001 300 L1998 304 L1996 307 L1994 312 L1992 315 L1991 318 L1991 321 L1991 324 L1991 327 L1991 329 L1991 332 L1991 334 L1992 335 L1992 336 L1994 338 L1995 339 L1996 340 L1999 341 L2002 342 L2005 343 L2009 344 L2013 344 L2019 345 L2026 345 L2032 345 L2039 345 L2047 345 L2057 345 L2066 345 L2075 345 L2086 344 L2097 343 L2108 342 L2118 340 L2129 338 L2140 335 L2151 331 L2162 329 L2173 326 L2184 322 L2193 319 L2203 316 L2213 312 L2221 307 L2230 304 L2238 300 L2246 296 L2253 292 L2260 288 L2267 283 L2273 279 L2279 275 L2285 271 L2290 269 L2291 269 L2291 268 L2292 267 L2294 265 L2295 262 L2298 259 L2299 257 L2301 254 L2302 251 L2303 248 L2304 246 L2304 244 L2304 243 L2304 241 L2304 239 L2304 238 L2304 237 L2304 236 L2303 235 L2302 234 L2301 234 L2299 234 L2297 234 L2295 234 L2293 234 L2290 234 L2287 234 L2284 234 L2280 234 L2275 236 L2271 237 L2265 239 L2260 240 L2251 242 L2243 245 L2236 248 L2227 252 L2217 259 L2208 264 L2198 271 L2188 276 L2178 283 L2169 289 L2159 297 L2152 304 L2148 308 L2142 316 L2135 324 L2129 333 L2123 343 L2118 353 L2112 362 L2108 372 L2105 381 L2102 389 L2100 397 L2099 404 L2099 411 L2099 418 L2099 424 L2100 430 L2100 431 L2101 431 L2102 431 L2104 432 L2108 434 L2112 435 L2118 437 L2124 438 L2132 439 L2140 440 L2149 440 L2157 440 L2168 440 L2179 438 L2190 436 L2201 434 L2212 431 L2222 427 L2233 424 L2244 418 L2259 412 L2271 407 L2283 401 L2298 394 L2313 386 L2326 379 L2342 370 L2356 361 L2369 353 L2380 345 L2392 336 L2404 325 L2414 314 L2423 304 L2432 294 L2440 284 L2447 274 L2453 263 L2459 252 L2462 241 L2466 230 L2468 221 L2469 211 L2470 201 L2470 191 L2470 180 L2468 171 L2464 161 L2460 151 L2455 142 L2448 132 L2441 123 L2434 114 L2425 105 L2416 98 L2406 91 L2395 85 L2384 78 L2374 73 L2363 70 L2351 67 L2339 64 L2327 60 L2313 58 L2300 57 L2288 56 L2276 56 L2263 56 L2251 57 L2239 58 L2228 59 L2227 59 L2224 61 L2217 63 L2209 67 L2198 73 L2198 74 L2196 76 L2192 82 L2186 91 L2182 99 L2179 109 L2177 118 L2176 128 L2175 135 L2175 139 L2175 146 L2178 155 L2182 165 L2186 176 L2192 187 L2200 198 L2208 208 L2217 220 L2227 229 L2238 238 L2252 248 L2268 258 L2286 266 L2303 273 L2321 279 L2340 286 L2362 292 L2383 296 L2407 301 L2427 303 L2453 306 L2478 308 L2503 309 L2525 309 L2550 309 L2574 309 L2596 309 L2619 309 L2641 308 L2664 305 L2685 302 L2705 299 L2726 295 L2745 291 L2757 288 L2769 284 L2783 280 L2796 274 L2805 270 L2814 264 L2821 259 L2829 254 L2835 248 L2839 242 L2842 236 L2845 230 L2846 224 L2847 219 L2847 212 L2847 205 L2844 199 L2840 193 L2836 186 L2830 178 L2826 174 L2823 172 L2816 167 L2806 162 L2795 155 L2782 150 L2770 144 L2754 138 L2594 108 L2572 108 L2553 108 L2531 108 L2520 108 L2508 108 L2493 110 L2475 113 L2457 117 L2440 122 L2424 127 L2410 132 L2397 136 L2397 137 L2393 139 L2387 144 L2380 151 L2374 158 L2369 165 L2365 172 L2361 179 L2358 188 L2355 196 L2354 203 L2354 206 L2354 208 L2354 212 L2356 218 L2359 225 L2363 232 L2367 238 L2374 246 L2380 252 L2387 259 L2396 265 L2406 270 L2413 275 L2414 275 L2416 275 L2423 277 L2434 280 L2446 284 L2458 287 L2472 289 L2485 292 L2499 294 L2514 296 L2528 297 L2543 298 L2558 299 L2572 301 L2585 302 L2599 302 L2612 302 L2625 302 L2637 302 L2649 299 L2661 297 L2672 294 L2682 291 L2692 287 L2700 284 L2708 281 L2714 278 L2720 275 L2726 271 L2731 267 L2735 265 L2738 262 L2740 259 L2741 256 L2743 252 L2744 249 L2745 246 L2745 242 L2745 239 L2745 236 L2745 233 L2743 228 L2741 224 L2737 219 L2734 215 L2729 212 L2724 208 L2718 205 L2712 201 L2704 198 L2695 195 L2686 191 L2676 189 L2667 187 L2657 185 L2646 184 L2636 183 L2625 183 L2614 183 L2602 183 L2589 183 L2577 183 L2564 184 L2552 186 L2538 190 L2525 193 L2511 196 L2499 201 L2485 207 L2472 212 L2461 218 L2449 225 L2437 231 L2426 239 L2415 247 L2405 255 L2395 263 L2385 272 L2376 281 L2369 288 L2361 297 L2356 305 L2350 313 L2346 322 L2343 331 L2340 338 L2338 345 L2336 351 L2335 356 L2335 362 L2335 367 L2335 372 L2337 376 L2339 380 L2342 383 L2347 387 L2351 390 L2357 393 L2366 396 L2374 399 L2383 401 L2394 403 L2404 404 L2413 405 L2424 406 L2435 406 L2445 406 L2456 406 L2458 406 L2465 406 L2475 404 L2488 402 L2500 398 L2512 395 L2524 392 L2535 387 L2546 383 L2557 377 L2568 373 L2577 367 L2586 362 L2593 357 L2599 352 L2605 347 L2609 341 L2613 335 L2616 327 L2618 320 L2619 313 L2620 307 L2620 300 L2620 293 L2618 285 L2616 278 L2612 270 L2608 263 L2602 255 L2596 247 L2590 240 L2582 231 L2573 223 L2563 216 L2553 209 L2542 202 L2531 197 L2519 191 L2506 185 L2493 181 L2479 177 L2466 174 L2450 171 L2435 168 L2420 167 L2406 166 L2391 166 L2377 166 L2362 166 L2347 166 L2332 168 L2317 171 L2301 174 L2283 178 L2270 183 L2258 186 L2247 191 L2236 196 L2225 202 L2215 208 L2209 212 L2205 215 L2201 220 L2194 227 L2188 237 L2182 246 L2178 254 L2174 263 L2170 272 L2168 282 L2167 291 L2167 299 L2167 308 L2169 316 L2171 325 L2175 334 L2179 342 L2184 351 L2185 352 L2189 354 L2197 358 L2207 364 L2218 369 L2232 374 L2246 378 L2263 384 L2279 389 L2298 393 L2316 397 L2337 401 L2355 403 L2373 406 L2393 407 L2411 410 L2428 411 L2445 411 L2461 411 L2473 411 L2474 411 L2477 411 L2483 410 L2493 408 L2503 406 L2514 402 L2523 397 L2533 393 L2534 392 L2535 391 L2538 387 L2541 384 L2542 379 L2544 375 L2546 369 L2547 363 L2547 358 L2547 353 L2547 347 L2547 340 L2545 333 L2542 326 L2539 319 L2535 312 L2530 304 L2524 297 L2519 291 L2513 285 L2505 278 L2497 272 L2487 266 L2478 261 L2469 257 L2459 252 L2449 249 L2438 246 L2429 244 L2419 242 L2408 240 L2398 239 L2387 239 L2376 239 L2364 240 L2352 242 L2341 244 L2331 247 L2318 252 L2307 256 L2296 262 L2285 267 L2272 274 L2261 280 L2250 286 L2239 294 L2227 303 L2215 313 L2205 323 L2196 333 L2187 343 L2180 354 L2172 366 L2162 377 L2155 388 L2149 398 L2144 409 L2138 419 L2134 429 L2131 439 L2127 448 L2125 458 L2124 465 L2123 472 L2123 478 L2123 484 L2123 489 L2123 493 L2123 496 L2125 500 L2125 503 L2127 505 L2128 506 L2129 506 L2130 506 L2130 507 L2131 507 L2133 508 L2135 508 L2136 508 L2137 508 L2138 508 L2139 507 L2140 507 L2142 506 L2144 505 L2145 504 L2148 502 L2149 501 L2151 499 L2155 495 L2158 492 L2160 488 L2163 483 L2166 479 L2169 474 L2170 470 L2173 464 L2176 458 L2178 451 L2181 445 L2184 438 L2186 432 L2188 427 L2190 424 L2190 423 L2190 422 L2191 419 L2192 416 L2193 413 L2193 410 L2193 407 L2193 404 L2194 402 L2194 399 L2194 397 L2194 395 L2194 393 L2194 391 L2194 390 L2194 389 L2194 388 L2194 387 L2193 387 L2192 387 L2191 387 L2190 387 L2189 387 L2188 388 L2187 389 L2186 389 L2185 389 L2184 389 L2182 390 L2181 391 L2179 392 L2177 394 L2175 395 L2174 396 L2171 399 L2169 401 L2166 405 L2164 407 L2161 410 L2159 414 L2158 414 L2158 415 L2156 416 L2155 418 L2153 422 L2151 424 L2149 426 L2146 429 L2144 432 L2141 434 L2140 437 L2138 439 L2136 441 L2135 443 L2133 446 L2132 448 L2130 450 L2129 452 L2127 453 L2125 455 L2124 458 L2122 460 L2120 463 L2119 465 L2117 468 L2115 469 L2114 471 L2112 473 L2111 475 L2110 477 L2109 478 L2109 479 L2108 479 L2108 480 L2108 481 L2107 481 L2107 482 L2106 484 L2105 485 L2104 487 L2104 488 L2103 490 L2102 491 L2102 492 L2102 493 L2102 494 L2101 494 L2101 495 L2100 497 L2099 498 L2097 500 L2096 502 L2095 504 L2094 505 L2092 508 L2091 510 L2090 510 L2089 511 L2088 512 L2087 514 L2085 516 L2084 517 L2083 518 L2083 519 L2082 519 L2081 520 L2080 521 L2078 522 L2077 524 L2076 524 L2076 525 L2074 526 L2074 527 L2073 527 L2072 529 L2070 530 L2068 531 L2067 533 L2065 534 L2064 536 L2062 537 L2060 539 L2058 541 L2056 543 L2053 546 L2052 547 L2050 549 L2047 552 L2045 554 L2043 556 L2040 559 L2037 561 L2035 563 L2032 566 L2029 569 L2025 573 L2023 575 L2019 579 L2019 580 L2017 580 L2013 583 L2010 584 L2007 587 L2003 590 L1998 592 L1995 595 L1992 597 L1988 598 L1985 600 L1983 601 L1981 601 L1978 603 L1976 604 L1975 604 L1974 604 L1973 605 L1972 606 L1971 606 L1971 607 L1970 607 L1970 608 L1969 608 L1967 609 L1966 609 L1966 610 L1965 611 L1964 611 L1962 612 L1961 613 L1960 613 L1958 614 L1956 615 L1955 617 L1952 618 L1950 620 L1948 621 L1947 623 L1944 624 L1942 626 L1940 627 L1937 630 L1934 632 L1932 634 L1930 636 L1927 637 L1924 640 L1922 641 L1920 643 L1917 644 L1915 646 L1913 648 L1912 649 L1910 650 L1908 651 L1906 652 L1904 654 L1903 655 L1901 656 L1900 657 L1899 659 L1897 660 L1895 663 L1893 665 L1891 667 L1889 669 L1888 670 L1888 671 L1887 671 L1887 672 L1886 674 L1884 675 L1883 677 L1881 680 L1880 681 L1879 682 L1877 684 L1876 686 L1876 687 L1875 688 L1873 689 L1870 691 L1868 694 L1866 696 L1863 698 L1861 701 L1859 703 L1856 705 L1854 709 L1850 711 L1847 715 L1844 717 L1842 720 L1840 722 L1837 724 L1835 727 L1832 730 L1831 733 L1828 736 L1826 738 L1826 739 L1825 739 L1824 740 L1821 743 L1820 744 L1819 746 L1817 749 L1816 751 L1815 751 L1814 752 L1813 753 L1812 756 L1810 757 L1809 759 L1808 761 L1806 764 L1805 766 L1803 768 L1803 770 L1801 773 L1800 774 L1799 775 L1799 776 L1797 779 L1797 780 L1796 781 L1795 782 L1794 785 L1794 786 L1793 788 L1792 790 L1792 791 L1791 793 L1791 794 L1790 795 L1789 797 L1789 798 L1789 800 L1788 801 L1788 802 L1787 803 L1787 804 L1787 805 L1787 806 L1787 807 L1787 808 L1787 809 L1787 810 L1787 811 L1787 812 L1787 813 L1787 814 L1786 815 L1786 816 L1786 817 L1786 818 L1785 818 L1785 819 L1785 820 L1784 821 L1783 821 L1783 822 L1783 820 L1783 819 L1783 817 L1784 813 L1786 808 L1790 802 L1794 796 L1796 792 L1800 784 L1804 778 L1809 771 L1815 762 L1820 753 L1826 744 L1832 735 L1837 728 L1843 719 L1848 711 L1853 703 L1859 696 L1864 689 L1869 681 L1873 675 L1877 671 L1880 666 L1882 664 L1884 661 L1886 659 L1886 658 L1887 657 L1887 659 L1887 663 L1886 669 L1884 675 L1882 682 L1879 691 L1876 702 L1874 713 L1870 723 L1867 734 L1864 746 L1862 757 L1858 769 L1855 780 L1852 792 L1848 803 L1845 813 L1842 824 L1840 834 L1838 843 L1836 851 L1834 859 L1832 866 L1831 872 L1830 876 L1829 881 L1828 883 L1828 884 L1829 884 L1830 884 L1831 884 L1832 884 L1833 884 L1834 883 L1835 882 L1836 881 L1838 879 L1842 876 L1844 873 L1849 870 L1854 865 L1854 864 L1855 864 L1856 861 L1859 856 L1860 853 L1863 847 L1867 841 L1870 835 L1874 829 L1877 822 L1880 816 L1883 810 L1886 804 L1889 799 L1891 796 L1892 793 L1894 791 L1895 788 L1897 787 L1897 786 L1897 788 L1897 790 L1896 794 L1895 798 L1894 804 L1893 810 L1892 818 L1891 826 L1889 835 L1887 845 L1886 853 L1884 863 L1882 872 L1880 879 L1879 888 L1877 896 L1876 901 L1874 908 L1873 913 L1872 917 L1871 920 L1871 922 L1870 925 L1870 926 L1871 926 L1871 925 L1872 924 L1873 923 L1875 922 L1879 918 L1882 915 L1886 911 L1891 905 L1896 899 L1901 894 L1907 886 L1914 879 L1920 870 L1927 860 L1933 851 L1941 839 L1947 828 L1954 817 L1960 807 L1968 796 L1976 785 L1984 773 L1990 762 L1998 751 L2005 741 L2013 730 L2021 720 L2027 711 L2032 704 L2032 703 L2034 702 L2037 699 L2042 695 L2046 690 L2049 686 L2053 683 L2056 679 L2060 676 L2063 674 L2066 672 L2068 671 L2070 669 L2071 669 L2071 670 L2071 671 L2071 674 L2071 678 L2068 685 L2065 692 L2063 698 L2063 699 L2062 700 L2059 705 L2056 712 L2052 724 L2049 731 L2043 740 L2038 750 L2031 762 L2024 773 L2019 784 L2013 795 L2008 806 L2002 817 L1997 827 L1991 837 L1987 844 L1983 851 L1980 857 L1978 863 L1976 867 L1976 871 L1976 874 L1976 876 L1976 877 L1977 877 L1978 876 L1979 875 L1981 874 L1984 872 L1986 870 L1991 866 L1996 862 L2001 858 L2006 853 L2012 846 L2018 839 L2022 833 L2022 832 L2023 831 L2027 826 L2032 820 L2038 811 L2044 801 L2051 792 L2057 784 L2064 775 L2069 768 L2074 760 L2079 753 L2085 744 L2090 737 L2094 731 L2098 726 L2102 721 L2104 718 L2107 714 L2108 712 L2110 709 L2112 707 L2112 706 L2112 705 L2112 706 L2111 710 L2108 713 L2105 718 L2103 724 L2100 728 L2096 734 L2092 739 L2089 745 L2085 752 L2081 758 L2077 766 L2073 772 L2069 778 L2065 784 L2062 790 L2059 794 L2056 798 L2054 801 L2052 804 L2050 808 L2050 810 L2049 811 L2049 812 L2049 811 L2049 810 L2049 809 L2052 807 L2054 805 L2056 801 L2060 796 L2064 791 L2068 787 L2072 779 L2076 773 L2081 767 L2086 760 L2092 754 L2096 748 L2101 742 L2107 735 L2112 728 L2117 721 L2123 713 L2128 708 L2133 704 L2136 699 L2141 693 L2145 687 L2149 682 L2152 678 L2155 675 L2157 671 L2159 669 L2162 666 L2165 662 L2166 660 L2167 659 L2167 658 L2168 657 L2169 656 L2169 655 L2169 654 L2170 654 L2170 655 L2169 657 L2168 660 L2166 665 L2163 669 L2160 675 L2157 681 L2154 687 L2151 693 L2148 700 L2145 705 L2143 711 L2139 717 L2136 722 L2133 728 L2131 734 L2129 740 L2127 744 L2125 749 L2123 753 L2123 757 L2122 759 L2122 761 L2122 762 L2122 763 L2122 764 L2123 764 L2124 764 L2126 763 L2127 762 L2129 760 L2131 758 L2134 756 L2137 752 L2141 748 L2144 745 L2147 741 L2148 740 L2149 739 L2152 735 L2154 732 L2157 729 L2160 725 L2163 721 L2166 718 L2169 714 L2172 712 L2174 710 L2176 708 L2178 706 L2181 704 L2183 703 L2184 702 L2185 702 L2185 701 L2186 701 L2187 701 L2187 703 L2186 706 L2184 710 L2183 714 L2181 718 L2178 723 L2175 729 L2172 735 L2169 742 L2166 749 L2163 756 L2159 764 L2155 772 L2150 780 L2146 787 L2142 796 L2138 803 L2135 809 L2131 816 L2127 822 L2124 828 L2122 833 L2120 837 L2118 842 L2117 845 L2116 847 L2115 848 L2115 849 L2115 850 L2115 851 L2116 851 L2117 851 L2118 851 L2121 850 L2123 848 L2126 847 L2130 844 L2133 842 L2139 836 L2148 831 L2155 826 L2163 819 L2170 813 L2179 807 L2187 799 L2195 793 L2200 789 L2206 784 L2212 780 L2212 779 L2214 776 L2218 771 L2225 765 L2233 759 L2242 752 L2251 746 L2258 739 L2265 734 L2273 729 L2279 724 L2284 720 L2289 715 L2292 712 L2295 710 L2299 707 L2301 705 L2302 704 L2303 703 L2303 704 L2302 707 L2299 711 L2297 715 L2294 720 L2290 725 L2286 731 L2280 738 L2275 747 L2274 747 L2274 748 L2273 748 L2271 750 L2267 755 L2265 757 L2265 758 L2263 759 L2261 763 L2259 765 L2255 769 L2252 772 L2251 774 L2248 778 L2247 780 L2247 781 L2248 781 L2250 779 L2254 778 L2257 775 L2262 772 L2268 768 L2273 765 L2276 763 L2281 759 L2287 755 L2293 750 L2300 745 L2306 741 L2312 737 L2318 732 L2323 729 L2329 724 L2334 721 L2339 718 L2343 714 L2348 710 L2352 708 L2355 705 L2357 703 L2358 702 L2359 701 L2359 700 L2360 700 L2360 699 L2361 699 L2360 699 L2360 701 L2358 703 L2356 708 L2352 713 L2347 719 L2341 725 L2335 733 L2328 742 L2322 750 L2316 757 L2312 762 L2311 762 L2309 763 L2305 768 L2299 774 L2293 779 L2285 785 L2278 792 L2272 797 L2267 802 L2262 806 L2258 808 L2256 810 L2254 812 L2252 813 L2252 814 L2253 814 L2254 814 L2257 813 L2260 812 L2265 809 L2271 805 L2277 801 L2283 797 L2286 794 L2292 790 L2301 785 L2309 780 L2315 776 L2316 775 L2320 773 L2329 768 L2340 764 L2351 760 L2362 754 L2372 750 L2382 744 L2391 740 L2400 736 L2409 730 L2416 726 L2422 722 L2428 719 L2433 715 L2437 713 L2442 710 L2445 708 L2447 707 L2448 706 L2449 706 L2449 705 L2450 704 L2450 705 L2448 706 L2446 707 L2444 710 L2441 712 L2438 716 L2434 719 L2429 724 L2424 729 L2418 735 L2412 741 L2407 746 L2401 753 L2395 758 L2389 763 L2381 769 L2374 776 L2373 776 L2371 777 L2369 779 L2366 782 L2363 783 L2361 785 L2359 787 L2358 787 L2358 788 L2359 788 L2361 788 L2363 786 L2364 786 L2365 786 L2368 782 L2374 778 L2382 773 L2388 769 L2394 764 L2402 758 L2412 753 L2422 748 L2432 742 L2442 737 L2452 731 L2459 727 L2466 723 L2473 719 L2482 713 L2490 709 L2496 705 L2502 701 L2509 697 L2515 693 L2519 690 L2524 686 L2527 684 L2531 681 L2533 679 L2536 677 L2538 674 L2539 672 L2541 670 L2541 669 L2541 668 L2541 667 L2541 666 L2540 666 L2539 666 L2538 666 L2537 667 L2536 667 L2534 668 L2533 669 L2532 670 L2529 672 L2524 676 L2519 680 L2513 685 L2506 690 L2498 695 L2490 702 L2482 708 L2475 714 L2467 721 L2460 727 L2453 732 L2445 739 L2438 745 L2430 752 L2424 757 L2418 763 L2412 768 L2407 773 L2402 777 L2399 780 L2398 780 L2398 781 L2397 782 L2397 783 L2398 783 L2399 783 L2400 782 L2402 781 L2404 780 L2408 778 L2411 776 L2416 774 L2421 771 L2430 766 L2437 763 L2443 759 L2450 756 L2458 752 L2466 748 L2473 745 L2480 741 L2488 738 L2496 733 L2504 730 L2512 727 L2520 724 L2527 721 L2533 718 L2540 715 L2546 712 L2551 709 L2554 708 L2557 706 L2562 703 L2564 702 L2567 700 L2569 699 L2571 698 L2572 697 L2573 697 L2573 699 L2571 700 L2569 702 L2565 706 L2561 710 L2556 715 L2550 720 L2546 723 L2541 728 L2535 733 L2527 740 L2521 745 L2514 751 L2506 759 L2498 765 L2489 773 L2484 777 L2482 778 L2478 781 L2477 781 L2475 782 L2473 785 L2471 787 L2469 788 L2468 790 L2468 791 L2468 792 L2469 792 L2471 792 L2473 792 L2477 792 L2482 791 L2486 789 L2494 787 L2502 785 L2513 782 L2525 779 L2537 776 L2549 772 L2563 770 L2567 769 L2576 766 L2589 762 L2602 759 L2618 754 L2634 751 L2643 748 L2653 746 L2665 743 L2676 740 L2686 736 L2696 733 L2704 730 L2712 727 L2719 724 L2725 720 L2729 717 L2732 716 L2734 714 L2737 713 L2737 712 L2735 712 L2732 712 L2729 713 L2723 714 L2718 717 L2709 721 L2702 724 L2692 728 L2683 732 L2674 735 L2667 739 L2666 739 L2664 739 L2659 741 L2652 744 L2645 747 L2639 750 L2632 753 L2625 756 L2619 759 L2618 760 L2616 761 L2615 761 L2614 763 L2613 763 L2613 764 L2613 765 L2613 766 L2613 767 L2613 768 L2613 769 L2614 769 L2614 770 L2615 770 L2616 771 L2617 771 L2618 772 L2619 772 L2622 772 L2624 773 L2626 773 L2627 773 L2628 773 L2629 773 L2630 773 L2631 773 L2632 773 L2630 773 L2629 773 L2627 774 L2624 776 L2622 778 L2619 781 L2614 783 L2609 785 L2605 788 L2601 790 L2600 790 L2597 792 L2594 793 L2592 795 L2590 796 L2588 798 L2585 799 L2585 800 L2584 800 L2584 801 L2584 802 L2585 802 L2587 801 L2590 800 L2595 798 L2602 796 L2609 794 L2617 792 L2623 790 L2624 790 L2625 789 L2631 787 L2639 784 L2649 781 L2660 779 L2672 776 L2683 772 L2693 769 L2701 767 L2711 764 L2718 762 L2725 760 L2731 757 L2735 755 L2736 755 L2736 754 L2735 754 L2733 755 L2732 756 L2730 757 L2726 760 L2723 764 L2718 766 L2713 770 L2708 775 L2702 780 L2697 785 L2691 790 L2686 795 L2683 798 L2682 798 L2681 800 L2678 804 L2677 807 L2674 810 L2672 814 L2671 818 L2670 821 L2669 824 L2669 827 L2669 829 L2669 831 L2669 833 L2670 835 L2673 837 L2676 838 L2680 840 L2685 842 L2691 844 L2697 845 L2706 846 L2715 847 L2724 847 L2734 847 L2744 847 L2756 847 L2770 847 L2781 847 L2796 847 L2809 846 L2824 846 L2837 845 L2851 843 L2863 842 L2875 841 L2879 839 L2879 838 L2879 837 L2879 835 L2879 833 L2879 831 L2879 830 L2879 828 L2879 827 L2879 826 L2879 825 L2879 824 L2879 823 L2878 823 L2878 822 L2876 822 L2875 822 L2873 822 L2871 822 L2868 822 L2865 822 L2861 822 L2855 822 L2849 822 L2842 822 L2834 822 L2826 822 L2816 823 L2806 824 L2796 825 L2787 826 L2778 827 L2769 829 L2759 831 L2750 832 L2746 833 L2745 833 L2743 834 L2740 835 L2738 835 L2735 836 L2734 837 L2733 837 L2732 838 L2732 839 L2732 840 L2733 841 L2734 841 L2735 841 L2737 841 L2740 842 L2743 843 L2748 844 L2752 844 L2757 844 L2762 844 L2768 844 L2773 844 L2777 844 L2783 844 L2784 844 L2785 844 L2787 843 L2790 843 L2792 842 L2794 841 L2795 841 L2795 840 L2794 840 L2792 840 L2790 840 L2786 840 L2780 840 L2773 840 L2769 840 L2767 840 L2763 840 L2755 840 L2745 840 L2736 840 L2726 840 L2715 840 L2704 840 L2694 840 L2684 840 L2675 840 L2666 840 L2659 840 L2654 840 L2648 840 L2644 840 L2641 840 L2639 840 L2637 840 L2636 840 L2638 840 L2640 840 L2645 839 L2649 839 L2650 839 L2652 838 L2659 837 L2668 836 L2677 835 L2687 833 L2696 832 L2704 831 L2712 829 L2721 828 L2727 827 L2733 826 L2737 825 L2742 824 L2745 824 L2747 823 L2748 822 L2747 822 L2746 822 L2744 822 L2742 822 L2739 822 L2736 822 L2733 822 L2729 822 L2724 822 L2718 822 L2712 822 L2705 822 L2704 822 L2701 823 L2695 825 L2687 827 L2679 829 L2672 831 L2666 833 L2660 835 L2656 837 L2651 838 L2647 839 L2642 841 L2639 843 L2637 844 L2634 846 L2633 847 L2632 848 L2632 849 L2631 849 L2630 850 L2628 850 L2627 850 L2626 850 L2624 850 L2623 850 L2621 850 L2619 850 L2618 850 L2617 850 L2616 850 L2617 850 L2618 849 L2619 848 L2622 848 L2624 848 L2627 847 L2630 845 L2634 843 L2638 841 L2643 839 L2648 838 L2653 836 L2654 836 L2656 835 L2658 833 L2659 832 L2661 830 L2662 829 L2663 828 L2663 827 L2663 826 L2663 825 L2663 824 L2662 824 L2662 823 L2661 823 L2659 823 L2657 823 L2654 823 L2651 823 L2647 823 L2642 823 L2635 823 L2627 823 L2619 823 L2608 824 L2601 825 L2598 826 L2591 828 L2580 831 L2568 835 L2556 838 L2542 843 L2528 846 L2516 849 L2503 853 L2490 857 L2478 861 L2467 864 L2457 868 L2448 871 L2441 873 L2435 875 L2434 875 L2434 876 L2433 876 L2434 876 L2435 876 L2436 876 L2439 876 L2444 877 L2448 878 L2455 878 L2463 878 L2473 878 L2484 878 L2497 878 L2510 878 L2525 878 L2542 877 L2562 874 L2579 873 L2600 870 L2623 867 L2643 864 L2661 862 L2679 859 L2697 857 L2712 854 L2726 853 L2727 853 L2729 852 L2732 851 L2735 850 L2738 848 L2739 847 L2739 846 L2739 845 L2738 844 L2737 844 L2736 843 L2734 842 L2731 842 L2728 841 L2725 840 L2719 839 L2714 839 L2707 839 L2698 839 L2687 839 L2675 839 L2662 839 L2649 839 L2634 839 L2619 839 L2603 842 L2585 843 L2562 847 L2541 850 L2517 854 L2499 858 L2480 862 L2461 868 L2445 873 L2426 877 L2409 882 L2393 886 L2381 889 L2371 892 L2371 893 L2370 894 L2367 895 L2366 897 L2364 899 L2364 902 L2363 904 L2363 906 L2363 908 L2363 910 L2364 912 L2366 913 L2369 916 L2372 917 L2376 919 L2382 921 L2389 922 L2397 923 L2407 924 L2417 924 L2429 925 L2443 925 L2455 925 L2468 925 L2477 925 L2488 925 L2500 925 L2512 925 L2524 925 L2534 923 L2545 922 L2556 920 L2564 918 L2565 918 L2567 917 L2569 916 L2570 916 L2570 915 L2571 914 L2570 914 L2569 913 L2567 912 L2566 912 L2563 912 L2558 911 L2552 910 L2545 909 L2537 908 L2527 907 L2515 906 L2503 905 L2490 903 L2475 903 L2461 903 L2445 903 L2428 903 L2406 902 L2386 901 L2369 901 L2353 901 L2336 901 L2322 901 L2310 901 L2309 901 L2307 901 L2303 901 L2299 901 L2296 901 L2295 901 L2297 901 L2300 901 L2303 901 L2308 902 L2314 902 L2322 902 L2330 902 L2340 902 L2350 902 L2360 902 L2371 903 L2382 903 L2394 903 L2406 902 L2416 901 L2426 900 L2435 899 L2445 898 L2453 897 L2460 896 L2464 895 L2467 893 L2472 891 L2474 891 L2475 890 L2475 889 L2474 889 L2473 889 L2472 888 L2470 887 L2467 887 L2463 886 L2457 885 L2450 884 L2442 883 L2434 882 L2424 882 L2414 882 L2403 882 L2393 882 L2383 882 L2378 882 L2370 881 L2363 881 L2352 881 L2340 881 L2328 882 L2316 884 L2305 885 L2295 888 L2285 889 L2277 891 L2269 893 L2262 895 L2257 896 L2253 897 L2249 899 L2247 901 L2247 902 L2247 903 L2248 903 L2250 904 L2251 904 L2253 904 L2255 905 L2258 905 L2262 906 L2265 906 L2268 906 L2270 906 L2273 906 L2276 906 L2279 906 L2282 906 L2285 906 L2288 906 L2289 906 L2290 906 L2291 905 L2292 904 L2292 903 L2291 902 L2290 901 L2289 900 L2287 899 L2283 897 L2280 895 L2277 895 L2274 893 L2270 891 L2265 889 L2259 887 L2252 885 L2242 883 L2233 881 L2223 880 L2214 878 L2204 877 L2195 876 L2185 875 L2180 874 L2172 874 L2163 874 L2152 874 L2142 874 L2131 874 L2120 874 L2110 874 L2099 874 L2087 874 L2075 874 L2065 874 L2053 874 L2042 874 L2030 874 L2021 874 L2020 874 L2018 874 L2010 874 L2000 874 L1986 875 L1972 876 L1957 877 L1943 879 L1926 879 L1912 880 L1900 880 L1893 880 L1883 880 L1869 880 L1855 880 L1840 880 L1826 880 L1811 880 L1797 880 L1782 880 L1768 880 L1751 880 L1737 880 L1722 880 L1709 878 L1696 877 L1682 876 L1669 874 L1656 872 L1644 871 L1631 869 L1620 865 L1610 863 L1599 860 L1588 858 L1578 854 L1569 851 L1560 849 L1553 846 L1546 844 L1539 841 L1531 838 L1524 836 L1517 834 L1509 831 L1504 829 L1498 827 L1491 825 L1484 823 L1478 821 L1471 820 L1460 818 L1452 816 L1445 814 L1439 812 L1433 809 L1428 807 L1421 806 L1414 804 L1408 802 L1401 800 L1395 799 L1393 798 L1384 796 L1375 794 L1368 792 L1361 790 L1350 788 L1342 786 L1333 783 L1324 781 L1315 780 L1305 778 L1296 777 L1286 775 L1276 774 L1266 773 L1257 772 L1246 770 L1236 769 L1227 766 L1217 765 L1207 764 L1197 762 L1187 760 L1177 759 L1166 757 L1156 756 L1147 754 L1139 752 L1129 749 L1120 748 L1111 746 L1102 745 L1094 744 L1085 742 L1077 741 L1069 739 L1062 737 L1055 736 L1047 735 L1039 734 L1032 732 L1025 731 L1017 729 L1008 727 L1001 726 L993 724 L984 722 L975 720 L968 718 L960 716 L950 713 L942 711 L934 708 L924 706 L913 703 L904 700 L894 698 L884 694 L876 692 L866 690 L861 688 L860 688 L857 688 L850 686 L842 683 L834 681 L826 679 L816 676 L806 673 L798 671 L790 669 L780 665 L770 663 L762 660 L754 658 L744 655 L736 652 L730 650 L729 650 L727 649 L723 647 L716 645 L708 643 L699 640 L692 637 L685 633 L678 630 L671 627 L664 624 L657 621 L649 618 L642 615 L635 612 L628 609 L622 607 L615 604 L609 601 L602 599 L595 597 L589 595 L583 592 L580 591 L578 590 L574 588 L570 587 L566 585 L561 583 L557 581 L553 580 L549 579 L545 577 L540 575 L536 573 L531 572 L527 571 L522 569 L519 568 L516 567 L513 567 L510 566 L505 565 L502 563 L499 563 L496 562 L493 561 L490 560 L487 559 L485 559 L481 558 L479 558 L477 558 L474 557 L472 556 L470 556 L468 556 L465 556 L463 556 L461 555 L460 555 L458 554 L456 554 L455 554 L454 553 L452 553 L451 552 L450 552 L449 551 L448 551 L447 551 L447 550 L446 550 L445 549 L444 549 L443 548 L441 547 L440 547 L439 546 L438 546 L436 545 L435 545 L434 544 L431 544 L430 543 L428 543 L426 543 L424 543 L421 542 L420 542 L418 542 L416 541 L414 541 L411 541 L409 541 L407 541 L404 541 L402 541 L400 541 L397 541 L395 541 L393 541 L391 541 L388 541 L385 541 L383 541 L381 541 L379 541 L377 541 L374 541 L372 541 L370 541 L367 541 L365 541 L363 541 L361 541 L359 541 L356 541 L354 541 L352 541 L350 541 L349 541 L348 540 L348 539 L347 539 L346 539 L344 538 L343 538 L342 538 L341 538 L340 537 L340 536 L338 536 L338 535 L337 535 L336 535 L335 535 L334 534 L333 534 L331 534 L330 533 L329 533 L328 533 L327 533 L325 533 L325 532 L324 532 L323 532 L322 532 L321 532 L320 532 L319 532 L318 532 L317 532 L316 532 L315 532 L314 532 L313 532 L312 532 L311 532 L310 532 L309 532 L308 532 L307 532 L306 532 L305 532 L304 532 L303 532 L302 532 L301 532 L300 532 L299 532 L298 532 L297 532 L296 532 L295 532 L293 532 L292 532 L291 532 L289 532 L288 532 L287 532 L286 533 L284 533 L283 534 L282 534 L281 534 L280 534 L279 534 L277 534 L276 534 L275 534 L273 534 L272 534 L271 534 L270 534 L269 534 L268 534 L266 534 L265 534 L264 534 L263 534 L262 534 L261 534 L260 534 L259 534 L258 534 L257 534 L256 534 L255 534 L254 534 L254 535 L253 535 L252 535 L252 536 L251 536 L250 537 L249 537 L248 537 L247 538 L246 538 L245 538 L244 539 L242 540 L241 540 L240 541 L239 541 L238 542 L237 542 L235 542 L234 543 L233 543 L231 544 L230 544 L229 545 L228 546 L227 546" style="stroke:black;stroke-width:0.3;fill:none;"></path>
</svg>
