<?xml version="1.0" encoding="UTF-8"?>
<!DOCTYPE svg PUBLIC "-//W3C//DTD SVG 1.0//EN" 
         "http://www.w3.org/TR/2001/REC-SVG-20010904/DTD/svg10.dtd">
<svg xmlns="http://www.w3.org/2000/svg" width="11520" height="4096">
  <path d="M7336 968 L2276 1772 L2276 1768 L2276 1760 L2284 1752 L2288 1744 L2296 1740 L2300 1728 L2308 1720 L2312 1712 L2316 1708 L2316 1704 L2324 1700 L2328 1692 L2332 1688 L2340 1680 L2344 1668 L2352 1664 L2356 1660 L2360 1652 L2364 1648 L2372 1640 L2376 1636 L2376 1632 L2380 1632 L2380 1628 L2384 1628 L2388 1620 L2388 1616 L2392 1612 L2392 1608 L2396 1600 L2400 1600 L2400 1596 L2404 1592 L2408 1588 L2408 1580 L2412 1580 L2412 1576 L2412 1572 L2416 1564 L2420 1560 L2424 1556 L2424 1552 L2428 1552 L2428 1544 L2428 1540 L2428 1536 L2432 1528 L2436 1520 L2440 1508 L2444 1500 L2448 1492 L2452 1480 L2456 1472 L2460 1460 L2464 1452 L2464 1436 L2468 1428 L2468 1424 L2468 1420 L2472 1412 L2472 1404 L2476 1396 L2480 1388 L2480 1376 L2484 1364 L2484 1356 L2484 1344 L2484 1336 L2484 1328 L2484 1316 L2484 1308 L2484 1300 L2484 1292 L2488 1280 L2488 1272 L2488 1264 L2488 1260 L2488 1256 L2488 1248 L2488 1236 L2488 1228 L2488 1224 L2488 1216 L2488 1208 L2488 1204 L2488 1200 L2488 1196 L2484 1188 L2484 1184 L2480 1180 L2480 1176 L2480 1172 L2476 1168 L2476 1164 L2476 1160 L2472 1152 L2468 1148 L2468 1140 L2464 1132 L2464 1124 L2460 1116 L2456 1108 L2456 1100 L2452 1092 L2448 1084 L2448 1080 L2448 1076 L2444 1068 L2440 1064 L2440 1060 L2436 1052 L2432 1044 L2428 1036 L2428 1028 L2424 1020 L2420 1008 L2416 1000 L2416 992 L2408 984 L2404 976 L2404 964 L2396 956 L2396 948 L2388 940 L2384 928 L2384 924 L2376 912 L2372 904 L2364 892 L2360 884 L2352 872 L2344 860 L2340 848 L2328 836 L2324 824 L2316 816 L2312 804 L2304 796 L2296 784 L2288 776 L2280 768 L2272 760 L2264 752 L2256 740 L2248 732 L2240 716 L2236 708 L2228 704 L2224 696 L2216 688 L2212 676 L2204 668 L2200 664 L2192 656 L2184 648 L2180 640 L2168 632 L2160 628 L2156 624 L2152 620 L2144 612 L2140 608 L2132 604 L2128 596 L2120 592 L2112 584 L2104 580 L2100 572 L2088 568 L2080 560 L2072 552 L2064 548 L2060 540 L2056 536 L2044 528 L2036 524 L2036 520 L2028 520 L2024 512 L2020 508 L2008 504 L2004 500 L1996 492 L1984 488 L1980 484 L1972 476 L1964 476 L1956 468 L1952 464 L1944 456 L1936 456 L1928 448 L1924 444 L1912 440 L1904 432 L1900 428 L1888 424 L1880 420 L1872 416 L1868 412 L1856 404 L1848 400 L1840 400 L1832 396 L1824 392 L1816 392 L1808 388 L1804 384 L1792 380 L1788 380 L1784 376 L1772 372 L1768 372 L1760 372 L1756 368 L1748 364 L1744 364 L1740 364 L1736 364 L1732 364 L1728 364 L1724 360 L1720 360 L1720 356 L1712 356 L1708 356 L1704 356 L1696 356 L1688 352 L1684 348 L1676 348 L1668 348 L1664 348 L1656 348 L1648 344 L1644 340 L1636 340 L1628 336 L1624 336 L1620 332 L1616 332 L1608 332 L1600 328 L1596 324 L1592 324 L1588 320 L1580 320 L1576 316 L1572 316 L1564 316 L1556 312 L1552 308 L1544 308 L1536 308 L1528 308 L1520 304 L1512 304 L1504 304 L1492 300 L1484 300 L1476 296 L1468 296 L1460 296 L1452 296 L1440 296 L1432 296 L1424 292 L1416 288 L1408 288 L1400 288 L1392 288 L1388 288 L1384 288 L1376 288 L1372 284 L1364 284 L1356 284 L1348 284 L1340 284 L1328 284 L1320 284 L1312 284 L1308 284 L1304 284 L1300 284 L1296 284 L1292 284 L1288 284 L1284 284 L1280 284 L1276 284 L1272 284 L1264 284 L1260 284 L1256 284 L1248 284 L1236 284 L1232 284 L1224 284 L1220 284 L1212 284 L1204 284 L1200 284 L1196 284 L1192 284 L1188 284 L1184 284 L1180 284 L1176 284 L1168 284 L1160 284 L1156 284 L1148 284 L1144 284 L1136 288 L1132 288 L1124 288 L1116 292 L1108 292 L1100 296 L1092 296 L1084 300 L1076 304 L1068 304 L1064 304 L1052 304 L1044 308 L1036 312 L1028 312 L1020 316 L1008 316 L1000 320 L992 324 L988 328 L984 328 L980 328 L972 328 L964 332 L956 336 L948 340 L936 340 L928 340 L920 340 L908 340 L900 344 L892 348 L884 348 L872 348 L868 348 L860 352 L852 352 L844 356 L836 360 L832 360 L824 364 L820 364 L816 368 L812 368 L804 368 L796 372 L796 376 L788 376 L784 376 L780 380 L772 384 L768 384 L764 388 L760 392 L756 392 L748 396 L748 400 L744 400 L736 400 L732 404 L728 408 L724 412 L720 412 L716 416 L712 416 L708 416 L708 420 L704 420 L704 424 L700 424 L700 428 L696 428 L692 428 L688 432 L684 432 L684 436 L680 440 L676 448 L672 452 L668 456 L660 464 L660 468 L656 472 L648 480 L648 488 L640 496 L640 500 L636 504 L632 512 L632 516 L624 524 L620 532 L616 544 L608 552 L604 560 L596 568 L592 580 L584 592 L584 604 L580 612 L576 620 L572 628 L572 640 L568 648 L564 660 L560 668 L560 676 L560 684 L560 696 L556 700 L556 708 L552 716 L552 728 L552 736 L548 748 L548 760 L548 816 L548 824 L548 836 L548 844 L548 852 L548 860 L552 868 L556 880 L556 892 L560 900 L564 908 L568 916 L572 928 L576 940 L580 952 L580 964 L588 972 L592 980 L596 988 L604 1004 L608 1016 L616 1024 L620 1032 L628 1044 L632 1052 L640 1060 L648 1068 L656 1076 L664 1084 L672 1092 L684 1104 L692 1112 L696 1120 L708 1128 L716 1136 L724 1144 L736 1156 L748 1164 L756 1176 L768 1180 L776 1188 L780 1188 L788 1196 L796 1200 L804 1208 L820 1212 L832 1220 L844 1228 L860 1236 L876 1248 L896 1260 L916 1264 L932 1272 L952 1280 L968 1288 L992 1296 L1008 1304 L1028 1308 L1044 1316 L1064 1328 L1084 1336 L1108 1348 L1128 1360 L1152 1368 L1176 1376 L1200 1384 L1224 1388 L1240 1400 L1264 1408 L1288 1420 L1316 1428 L1340 1436 L1360 1444 L1384 1452 L1408 1460 L1432 1468 L1452 1476 L1476 1484 L1504 1488 L1528 1492 L1548 1492 L1576 1496 L1600 1500 L1620 1504 L1648 1508 L1672 1512 L1692 1512 L1716 1512 L1728 1512 L1736 1512 L1744 1512 L1760 1512 L1772 1512 L1788 1512 L1804 1512 L1820 1512 L1836 1512 L1852 1512 L1872 1508 L1884 1500 L1896 1496 L1908 1496 L1924 1488 L1936 1480 L1948 1476 L1956 1468 L1972 1464 L1984 1456 L1996 1444 L2000 1444 L2004 1436 L2012 1428 L2020 1420 L2036 1408 L2044 1400 L2052 1392 L2068 1380 L2080 1364 L2096 1356 L2108 1340 L2124 1332 L2140 1316 L2152 1300 L2160 1292 L2176 1280 L2188 1272 L2204 1260 L2220 1248 L2232 1232 L2236 1228 L2244 1220 L2260 1212 L2272 1200 L2280 1192 L2296 1176 L2316 1164 L2328 1148 L2348 1132 L2368 1116 L2384 1104 L2400 1088 L2420 1072 L2436 1060 L2444 1056 L2456 1048 L2472 1036 L2488 1020 L2508 1004 L2528 992 L2540 980 L2560 964 L2580 948 L2604 932 L2620 920 L2640 912 L2660 896 L2680 880 L2696 868 L2712 860 L2728 844 L2740 828 L2756 820 L2768 804 L2784 792 L2796 780 L2812 768 L2824 756 L2828 756 L2832 752 L2832 748 L2840 740 L2848 728 L2856 720 L2868 712 L2876 700 L2884 692 L2896 684 L2904 672 L2912 664 L2920 660 L2932 648 L2944 644 L2956 632 L2972 620 L2980 616 L2992 608 L3004 600 L3016 592 L3024 580 L3040 576 L3048 564 L3060 560 L3076 548 L3076 544 L3080 544 L3080 540 L3088 536 L3104 528 L3120 516 L3136 508 L3152 496 L3172 484 L3184 480 L3188 480 L3192 476 L3200 472 L3216 464 L3228 456 L3244 452 L3264 444 L3280 436 L3300 428 L3312 424 L3328 416 L3340 412 L3352 404 L3364 400 L3380 392 L3392 388 L3404 384 L3412 376 L3424 372 L3440 364 L3448 360 L3452 360 L3456 356 L3464 352 L3472 352 L3484 348 L3492 344 L3504 340 L3512 340 L3520 340 L3532 340 L3544 336 L3552 332 L3556 332 L3560 332 L3564 332 L3568 332 L3572 332 L3576 332 L3588 332 L3592 332 L3596 328 L3596 324 L3600 324 L3604 324 L3608 324 L3612 324 L3612 328 L3616 328 L3616 332 L3620 332 L3620 336 L3624 340 L3632 348 L3636 356 L3644 364 L3648 372 L3656 388 L3696 472 L3704 480 L3704 488 L3708 508 L3716 520 L3724 536 L3732 560 L3736 580 L3748 604 L3756 620 L3764 644 L3776 668 L3784 688 L3792 708 L3804 732 L3812 756 L3824 780 L3832 796 L3844 812 L3848 816 L3852 824 L3860 840 L3872 856 L3884 872 L3900 892 L3920 916 L3936 936 L3944 944 L3956 960 L3968 972 L3984 988 L3996 1004 L4016 1012 L4032 1028 L4044 1040 L4060 1048 L4076 1064 L4096 1076 L4116 1088 L4128 1096 L4148 1112 L4168 1124 L4184 1136 L4204 1148 L4224 1152 L4240 1164 L4260 1176 L4280 1188 L4292 1192 L4308 1200 L4320 1208 L4328 1212 L4340 1216 L4360 1224 L4372 1232 L4388 1232 L4408 1240 L4424 1248 L4444 1256 L4460 1264 L4480 1268 L4492 1276 L4504 1284 L4524 1292 L4540 1296 L4560 1304 L4576 1308 L4596 1312 L4612 1320 L4632 1324 L4648 1324 L4664 1332 L4676 1336 L4692 1340 L4708 1344 L4720 1344 L4732 1344 L4744 1344 L4756 1344 L4764 1344 L4772 1344 L4784 1344 L4792 1344 L4800 1344 L4812 1344 L4816 1344 L4820 1344 L4828 1344 L4840 1344 L4844 1340 L4848 1340 L4848 1336 L4852 1336 L4864 1328 L4868 1324 L4872 1320 L4880 1312 L4888 1308 L4892 1300 L4900 1292 L4908 1284 L4912 1276 L4924 1268 L4928 1260 L4932 1256 L4932 1252 L4940 1240 L4944 1232 L4948 1220 L4956 1204 L4964 1192 L4968 1180 L4976 1160 L4980 1144 L4984 1124 L4992 1108 L5000 1084 L5000 1068 L5000 1056 L5000 1036 L5000 1020 L5000 1008 L5000 1004 L5000 1000 L5000 996 L5004 984 L5008 972 L5012 964 L5012 956 L5020 944 L5024 924 L5032 908 L5032 896 L5036 884 L5040 872 L5048 860 L5052 848 L5060 828 L5068 816 L5068 812 L5072 804 L5076 796 L5084 788 L5088 776 L5096 768 L5104 756 L5112 744 L5120 736 L5128 724 L5128 720 L5132 716 L5136 708 L5140 696 L5148 692 L5152 684 L5160 680 L5164 676 L5168 664 L5176 660 L5180 656 L5192 648 L5196 644 L5200 640 L5212 632 L5216 628 L5224 624 L5232 624 L5236 616 L5244 612 L5252 608 L5264 604 L5268 604 L5276 600 L5284 596 L5296 592 L5308 592 L5320 592 L5328 588 L5340 588 L5352 588 L5364 588 L5376 588 L5392 588 L5404 588 L5420 588 L5436 588 L5448 588 L5460 588 L5472 588 L5484 592 L5500 596 L5516 604 L5528 604 L5544 612 L5560 620 L5576 628 L5588 632 L5604 640 L5616 652 L5636 656 L5648 668 L5656 676 L5672 680 L5676 684 L5680 688 L5692 696 L5708 704 L5720 720 L5732 728 L5744 740 L5760 752 L5768 768 L5780 780 L5792 796 L5804 816 L5816 828 L5828 840 L5836 860 L5848 876 L5860 892 L5872 908 L5880 916 L5884 920 L5884 924 L5892 936 L5896 948 L5904 960 L5912 968 L5920 980 L5924 996 L5932 1008 L5940 1020 L5944 1028 L5948 1044 L5956 1052 L5956 1064 L5960 1076 L5964 1084 L5968 1092 L5972 1104 L5972 1108 L5972 1116 L5972 1120 L5972 1128 L5972 1136 L5972 1144 L5972 1152 L5972 1164 L5972 1176 L5972 1184 L5972 1192 L5972 1204 L5972 1212 L5972 1220 L5968 1228 L5968 1240 L5964 1244 L5964 1252 L5960 1260 L5956 1268 L5952 1280 L5952 1288 L5948 1300 L5944 1308 L5940 1316 L5936 1324 L5932 1336 L5928 1348 L5928 1360 L5924 1368 L5920 1372 L5916 1380 L5912 1388 L5912 1392 L5908 1404 L5900 1412 L5900 1420 L5900 1424 L5896 1424 L5896 1428 L5892 1432 L5888 1440 L5884 1448 L5880 1460 L5876 1468 L5868 1476 L5860 1488 L5856 1504 L5852 1512 L5844 1524 L5840 1536 L5832 1552 L5824 1564 L5820 1572 L5812 1584 L5812 1588 L5808 1596 L5804 1604 L5796 1612 L5792 1624 L5780 1640 L5768 1652 L5764 1672 L5752 1684 L5740 1704 L5732 1716 L5720 1732 L5708 1744 L5700 1764 L5688 1776 L5676 1796 L5668 1812 L5656 1824 L5644 1844 L5636 1856 L5624 1872 L5612 1884 L5604 1892 L5592 1908 L5584 1916 L5572 1928 L5560 1936 L5560 1940 L5552 1940 L5548 1948 L5544 1956 L5532 1964 L5528 1972 L5520 1980 L5508 1988 L5500 2000 L5492 2008 L5492 2012 L5460 2028 L5452 2036 L5444 2040 L5432 2048 L5424 2052 L5412 2060 L5404 2064 L5396 2064 L5380 2072 L5372 2076 L5360 2080 L5348 2088 L5332 2092 L5324 2096 L5324 2100 L5316 2100 L5308 2104 L5304 2104 L5300 2104 L5296 2108 L5288 2112 L5276 2112 L5268 2116 L5256 2124 L5240 2124 L5228 2128 L5216 2136 L5204 2140 L5192 2144 L5176 2152 L5160 2156 L5144 2160 L5132 2160 L5120 2164 L5100 2168 L5088 2172 L5076 2176 L4968 2188 L4952 2188 L4940 2188 L4924 2188 L4912 2188 L4896 2188 L4884 2188 L4872 2188 L4852 2188 L4840 2188 L4824 2188 L4812 2188 L4796 2188 L4784 2188 L4772 2188 L4756 2188 L4740 2188 L4728 2188 L4716 2188 L4700 2188 L4684 2188 L4668 2188 L4656 2188 L4640 2188 L4628 2188 L4624 2188 L4620 2184 L4608 2184 L4592 2180 L4580 2180 L4568 2180 L4552 2176 L4536 2172 L4520 2168 L4500 2164 L4484 2160 L4472 2160 L4460 2160 L4448 2156 L4436 2152 L4416 2144 L4396 2140 L4372 2132 L4352 2128 L4336 2120 L4316 2108 L4292 2100 L4276 2092 L4256 2084 L4232 2076 L4216 2064 L4192 2052 L4168 2044 L4144 2036 L4120 2024 L4104 2012 L4084 2004 L4064 1996 L4048 1988 L4024 1976 L4000 1968 L3984 1960 L3960 1948 L3936 1940 L3920 1932 L3900 1928 L3884 1920 L3864 1912 L3848 1904 L3844 1904 L3832 1900 L3820 1892 L3808 1884 L3784 1880 L3764 1872 L3744 1864 L3724 1856 L3704 1848 L3684 1836 L3660 1832 L3636 1824 L3620 1820 L3600 1812 L3588 1804 L3568 1796 L3556 1796 L3544 1792 L3532 1788 L3516 1780 L3500 1776 L3488 1776 L3476 1772 L3464 1768 L3452 1764 L3440 1764 L3432 1760 L3424 1760 L3412 1756 L3404 1756 L3396 1752 L3388 1752 L3380 1752 L3372 1752 L3360 1752 L3352 1752 L3340 1752 L3328 1752 L3316 1752 L3304 1752 L3292 1752 L3280 1752 L3268 1752 L3256 1752 L3244 1752 L3232 1752 L3228 1752 L3220 1752 L3208 1748 L3196 1748 L3180 1748 L3164 1748 L3148 1748 L3124 1748 L3108 1748 L3088 1748 L3064 1748 L3044 1748 L3028 1748 L3004 1748 L2984 1748 L2960 1748 L2940 1748 L2920 1748 L2892 1748 L2868 1748 L2848 1748 L2820 1748 L2800 1748 L2772 1748 L2752 1748 L2724 1748 L2704 1748 L2676 1748 L2644 1748 L2616 1748 L2596 1748 L2592 1748 L2580 1748 L2564 1748 L2552 1748 L2540 1748 L2520 1748 L2504 1748 L2484 1748 L2456 1748 L2436 1748 L2412 1748 L2384 1748 L2364 1748 L2344 1748 L2324 1748 L2304 1748 L2288 1748 L2264 1748 L2244 1748 L2224 1748 L2204 1748 L2184 1748 L2168 1748 L2144 1748 L2128 1748 L2112 1748 L2092 1748 L2076 1748 L2060 1748 L2040 1748 L2024 1748 L2008 1748 L1992 1748 L1972 1748 L1948 1748 L1928 1748 L1912 1748 L1896 1748 L1876 1748 L1860 1748 L1840 1748 L1816 1748 L1796 1748 L1780 1748 L1752 1748 L1732 1748 L1728 1748 L1720 1748 L1716 1748 L1708 1748 L1692 1748 L1680 1748 L1668 1748 L1652 1748 L1636 1748 L1616 1748 L1600 1748 L1588 1748 L1576 1748 L1564 1748 L1552 1748 L1540 1748 L1528 1748 L1516 1748 L1508 1748 L1500 1748 L1492 1748 L1480 1748 L1472 1748 L1460 1748 L1452 1748 L1448 1748 L1444 1748 L1440 1748 L1436 1748 L1432 1748 L1428 1748 L1420 1748 L1416 1748 L1412 1748 L1408 1748 L1404 1752 L1400 1756 L1392 1756 L1388 1756 L1388 1760 L1384 1760 L1380 1764 L1376 1764 L1372 1764 L1368 1768 L1360 1768 L1356 1772 L1352 1776 L1340 1780 L1336 1780 L1328 1784 L1320 1788 L1312 1788 L1300 1796 L1292 1800 L1284 1800 L1272 1804 L1264 1808 L1252 1812 L1240 1816 L1232 1820 L1228 1824 L1216 1832 L1208 1836 L1200 1836 L1192 1840 L1184 1844 L1172 1848 L1164 1852 L1156 1852 L1144 1856 L1140 1856 L1136 1856 L1132 1856 L1128 1856 L1120 1856 L1116 1856 L1116 1860 L1108 1864 L1104 1864 L1100 1868 L1092 1872 L1088 1876 L1080 1880 L1076 1880 L1072 1884 L1068 1888 L1064 1888 L1064 1892 L1056 1892 L1052 1896 L1044 1900 L1036 1900 L1028 1904 L1020 1908 L1012 1912 L1004 1916 L996 1924 L988 1928 L980 1936 L968 1940 L956 1948 L948 1948 L940 1956 L928 1960 L920 1972 L912 1976 L904 1988 L896 1992 L892 1996 L888 2000 L880 2000 L868 2004 L860 2012 L852 2020 L844 2028 L828 2036 L820 2044 L812 2056 L796 2064 L788 2072 L780 2076 L772 2084 L760 2088 L756 2096 L748 2100 L744 2108 L740 2116 L732 2120 L728 2128 L724 2128 L724 2132 L720 2136 L716 2144 L708 2148 L704 2152 L704 2164 L696 2172 L692 2180 L688 2184 L688 2188 L684 2192 L680 2200 L676 2212 L676 2220 L668 2228 L664 2236 L664 2244 L664 2248 L664 2252 L660 2256 L656 2264 L656 2272 L656 2276 L656 2284 L656 2292 L652 2300 L652 2304 L652 2308 L648 2312 L648 2316 L648 2320 L648 2324 L648 2332 L648 2340 L648 2348 L648 2356 L648 2364 L648 2372 L648 2380 L644 2392 L644 2400 L644 2408 L644 2416 L644 2424 L644 2432 L644 2440 L644 2452 L644 2464 L644 2472 L644 2476 L644 2484 L644 2488 L644 2492 L644 2496 L644 2500 L644 2504 L644 2508 L644 2516 L644 2528 L644 2532 L644 2540 L644 2548 L644 2556 L644 2564 L644 2572 L644 2580 L644 2588 L644 2592 L644 2596 L644 2600 L644 2604 L648 2612 L652 2620 L652 2624 L652 2628 L652 2632 L656 2640 L656 2644 L660 2652 L660 2656 L664 2660 L668 2668 L668 2672 L668 2680 L672 2688 L676 2696 L676 2700 L676 2704 L680 2712 L680 2716 L680 2720 L684 2724 L684 2728 L684 2732 L688 2736 L688 2744 L688 2748 L688 2752 L692 2764 L696 2768 L696 2772 L700 2780 L704 2784 L704 2788 L704 2792 L708 2800 L712 2804 L712 2808 L720 2816 L720 2820 L728 2828 L728 2832 L732 2832 L736 2840 L736 2848 L744 2852 L748 2860 L756 2864 L760 2872 L768 2880 L776 2888 L784 2896 L792 2904 L796 2908 L800 2916 L808 2928 L812 2936 L820 2940 L824 2948 L836 2956 L844 2964 L852 2972 L860 2976 L872 2984 L880 2988 L888 2996 L896 3000 L912 3008 L920 3016 L920 3020 L924 3020 L932 3024 L940 3032 L952 3036 L960 3040 L968 3044 L980 3052 L988 3056 L1004 3060 L1012 3068 L1020 3072 L1028 3076 L1036 3080 L1048 3084 L1060 3092 L1068 3096 L1076 3096 L1084 3104 L1096 3104 L1104 3112 L1112 3116 L1124 3120 L1132 3128 L1144 3132 L1144 3136 L1148 3136 L1152 3136 L1156 3140 L1164 3148 L1168 3148 L1176 3156 L1180 3160 L1188 3164 L1196 3168 L1204 3176 L1212 3180 L1216 3180 L1216 3184 L1224 3184 L1228 3192 L1232 3196 L1240 3204 L1244 3208 L1252 3212 L1260 3216 L1268 3224 L1276 3228 L1280 3236 L1284 3236 L1296 3244 L1300 3244 L1304 3248 L1308 3252 L1316 3252 L1320 3260 L1328 3264 L1332 3268 L1336 3272 L1340 3272 L1344 3272 L1344 3276 L1348 3280 L1352 3280 L1356 3284 L1360 3284 L1364 3288 L1368 3292 L1372 3292 L1376 3292 L1380 3296 L1384 3296 L1388 3296 L1392 3296 L1392 3300 L1396 3300 L1404 3304 L1408 3308 L1412 3308 L1416 3308 L1420 3312 L1424 3312 L1432 3316 L1436 3316 L1444 3316 L1448 3320 L1456 3324 L1460 3324 L1472 3324 L1476 3328 L1484 3332 L1492 3332 L1496 3332 L1504 3336 L1508 3336 L1516 3336 L1528 3336 L1536 3340 L1540 3344 L1548 3344 L1556 3344 L1568 3348 L1576 3348 L1584 3352 L1588 3352 L1600 3352 L1608 3352 L1616 3356 L1620 3356 L1628 3360 L1636 3360 L1648 3364 L1652 3364 L1656 3364 L1664 3364 L1672 3364 L1680 3364 L1688 3368 L1696 3368 L1704 3372 L1712 3372 L1720 3372 L1728 3372 L1736 3376 L1748 3376 L1756 3376 L1768 3376 L1780 3380 L1788 3384 L1796 3384 L1804 3384 L1812 3388 L1820 3388 L1832 3392 L1836 3396 L1844 3396 L1852 3396 L1860 3396 L1872 3400 L1880 3400 L1888 3404 L1896 3408 L1904 3408 L1916 3412 L1928 3412 L1928 3416 L1932 3416 L1936 3416 L1944 3420 L1952 3420 L1960 3420 L1972 3424 L1980 3424 L1992 3428 L2004 3432 L2012 3432 L2020 3436 L2032 3436 L2040 3440 L2052 3440 L2068 3444 L2080 3444 L2088 3444 L2100 3444 L2112 3448 L2128 3452 L2140 3452 L2156 3456 L2160 3456 L2164 3456 L2172 3460 L2184 3460 L2200 3464 L2212 3464 L2224 3464 L2232 3464 L2240 3468 L2252 3472 L2260 3472 L2268 3476 L2280 3476 L2292 3480 L2304 3480 L2316 3484 L2324 3484 L2336 3484 L2344 3488 L2348 3488 L2352 3488 L2356 3488 L2364 3488 L2376 3488 L2384 3488 L2396 3488 L2408 3492 L2416 3492 L2424 3492 L2432 3492 L2440 3492 L2448 3492 L2456 3492 L2468 3492 L2476 3492 L2484 3492 L2488 3492 L2492 3492 L2496 3492 L2500 3492 L2508 3492 L2516 3492 L2528 3492 L2536 3492 L2544 3492 L2548 3492 L2552 3492 L2564 3488 L2568 3488 L2576 3484 L2592 3484 L2600 3484 L2612 3484 L2620 3480 L2624 3476 L2632 3476 L2644 3472 L2652 3468 L2660 3464 L2668 3464 L2676 3464 L2688 3456 L2696 3452 L2704 3452 L2712 3444 L2720 3440 L2724 3440 L2728 3436 L2732 3436 L2744 3432 L2752 3428 L2760 3424 L2768 3420 L2776 3416 L2788 3412 L2800 3412 L2808 3408 L2820 3400 L2832 3400 L2840 3396 L2852 3392 L2864 3388 L2876 3388 L2888 3384 L2900 3380 L2908 3376 L2916 3376 L2924 3372 L2936 3368 L2948 3364 L2952 3364 L2960 3360 L2964 3356 L2972 3356 L2980 3348 L2984 3348 L2988 3344 L2996 3336 L3000 3332 L3008 3328 L3016 3328 L3024 3320 L3032 3316 L3040 3316 L3048 3312 L3056 3308 L3060 3308 L3068 3300 L3076 3296 L3080 3292 L3088 3288 L3092 3288 L3092 3284 L3096 3284 L3100 3284 L3100 3280 L3104 3276 L3108 3272 L3112 3272 L3116 3268 L3120 3268 L3120 3264 L3124 3260 L3128 3256 L3132 3256 L3136 3252 L3140 3248 L3144 3244 L3148 3244 L3148 3240 L3152 3240 L3156 3236 L3160 3232 L3164 3228 L3168 3224 L3172 3224 L3176 3220 L3176 3216 L3180 3212 L3184 3208 L3188 3208 L3188 3204 L3192 3200 L3200 3196 L3200 3192 L3204 3192 L3208 3188 L3216 3180 L3220 3176 L3228 3168 L3232 3164 L3236 3160 L3240 3152 L3244 3148 L3248 3144 L3252 3140 L3252 3136 L3260 3128 L3264 3124 L3268 3120 L3272 3112 L3276 3108 L3284 3104 L3288 3096 L3296 3092 L3296 3088 L3300 3088 L3300 3084 L3300 3080 L3308 3072 L3312 3068 L3320 3060 L3324 3056 L3328 3048 L3336 3040 L3340 3036 L3348 3028 L3352 3020 L3360 3012 L3364 3008 L3372 3000 L3372 2996 L3380 2988 L3384 2980 L3392 2976 L3400 2964 L3404 2960 L3408 2952 L3416 2940 L3420 2928 L3432 2916 L3436 2908 L3436 2904 L3440 2896 L3448 2892 L3452 2884 L3460 2872 L3464 2864 L3472 2856 L3476 2848 L3488 2840 L3500 2836 L3512 2824 L3524 2816 L3532 2808 L3540 2800 L3544 2796 L3552 2792 L3556 2788 L3564 2776 L3576 2768 L3584 2760 L3592 2752 L3600 2748 L3604 2748 L3604 2744 L3608 2744 L3612 2736 L3616 2736 L3616 2732 L3624 2728 L3628 2720 L3636 2716 L3648 2708 L3656 2704 L3664 2696 L3672 2692 L3684 2688 L3692 2684 L3700 2676 L3708 2676 L3712 2672 L3712 2668 L3720 2664 L3732 2660 L3740 2660 L3748 2656 L3760 2652 L3768 2648 L3776 2648 L3788 2644 L3804 2640 L3812 2636 L3824 2636 L3832 2632 L3844 2632 L3852 2628 L3860 2624 L3872 2624 L3880 2624 L3884 2624 L3892 2624 L3900 2624 L3908 2624 L3912 2624 L3920 2620 L3924 2620 L3932 2620 L3936 2620 L3940 2620 L3944 2620 L3952 2620 L3956 2620 L3960 2620 L3968 2620 L3972 2620 L3976 2620 L3980 2620 L3984 2620 L3988 2620 L3992 2620 L3996 2620 L4000 2620 L4004 2620 L4008 2620 L4012 2620 L4016 2620 L4020 2620 L4024 2624 L4028 2624 L4032 2628 L4040 2632 L4044 2632 L4048 2636 L4052 2636 L4052 2640 L4056 2644 L4060 2648 L4064 2648 L4068 2652 L4068 2656 L4072 2660 L4076 2664 L4080 2664 L4080 2668 L4084 2672 L4084 2676 L4088 2676 L4088 2680 L4092 2680 L4096 2684 L4096 2688 L4100 2696 L4100 2700 L4104 2700 L4104 2704 L4108 2704 L4112 2712 L4112 2716 L4116 2720 L4120 2728 L4120 2732 L4124 2740 L4132 2752 L4132 2760 L4136 2768 L4144 2776 L4144 2784 L4152 2796 L4156 2804 L4156 2812 L4160 2820 L4168 2828 L4168 2840 L4176 2848 L4180 2852 L4184 2860 L4188 2868 L4196 2876 L4200 2884 L4208 2896 L4212 2904 L4220 2912 L4224 2920 L4232 2928 L4236 2936 L4244 2944 L4248 2956 L4260 2964 L4264 2972 L4268 2976 L4276 2988 L4280 2996 L4288 3000 L4296 3012 L4304 3016 L4312 3024 L4316 3028 L4324 3036 L4328 3044 L4336 3048 L4344 3056 L4348 3060 L4360 3068 L4364 3072 L4372 3076 L4380 3084 L4388 3088 L4396 3096 L4404 3100 L4404 3104 L4408 3104 L4412 3108 L4420 3116 L4428 3116 L4436 3124 L4444 3124 L4452 3128 L4464 3136 L4476 3140 L4488 3144 L4496 3152 L4504 3152 L4516 3160 L4528 3164 L4540 3168 L4548 3172 L4560 3176 L4568 3180 L4576 3184 L4592 3188 L4600 3188 L4612 3192 L4624 3196 L4632 3196 L4644 3200 L4656 3200 L4668 3200 L4680 3204 L4692 3204 L4696 3204 L4700 3204 L4708 3204 L4712 3204 L4716 3204 L4724 3204 L4736 3204 L4744 3204 L4756 3204 L4768 3204 L4780 3204 L4792 3204 L4808 3204 L4820 3204 L4832 3204 L4844 3204 L4856 3204 L4868 3204 L4876 3204 L4888 3204 L4900 3204 L4908 3204 L4916 3204 L4924 3200 L4936 3200 L4944 3196 L4948 3192 L4956 3192 L4964 3192 L4972 3188 L4976 3184 L4980 3184 L4992 3180 L4996 3176 L5000 3176 L5008 3172 L5016 3168 L5020 3164 L5028 3164 L5036 3156 L5040 3156 L5048 3152 L5052 3144 L5056 3144 L5064 3136 L5072 3132 L5080 3124 L5084 3120 L5088 3116 L5092 3112 L5100 3104 L5104 3096 L5108 3092 L5112 3084 L5120 3080 L5124 3072 L5128 3064 L5136 3056 L5136 3044 L5144 3032 L5152 3016 L5152 3008 L5160 2996 L5164 2984 L5164 2972 L5168 2960 L5172 2944 L5176 2932 L5180 2920 L5180 2912 L5184 2904 L5188 2896 L5192 2884 L5192 2872 L5196 2856 L5200 2848 L5204 2840 L5220 2752 L5220 2744 L5224 2732 L5224 2724 L5228 2712 L5228 2704 L5228 2696 L5232 2684 L5236 2676 L5240 2668 L5244 2660 L5248 2652 L5252 2640 L5256 2636 L5260 2628 L5260 2620 L5264 2608 L5292 2556 L5296 2552 L5300 2540 L5304 2536 L5312 2528 L5316 2516 L5324 2508 L5324 2504 L5328 2500 L5332 2496 L5336 2492 L5344 2488 L5348 2480 L5352 2476 L5364 2476 L5364 2472 L5368 2472 L5376 2468 L5380 2464 L5384 2464 L5388 2464 L5388 2460 L5392 2460 L5396 2460 L5400 2456 L5400 2452 L5404 2452 L5408 2448 L5412 2448 L5416 2448 L5428 2444 L5436 2444 L5440 2444 L5448 2444 L5456 2444 L5468 2444 L5476 2444 L5480 2444 L5484 2444 L5492 2444 L5500 2444 L5508 2444 L5512 2448 L5520 2452 L5532 2452 L5540 2456 L5540 2460 L5544 2460 L5544 2464 L5552 2464 L5556 2468 L5560 2472 L5568 2472 L5576 2480 L5584 2484 L5592 2492 L5600 2496 L5604 2504 L5612 2508 L5616 2516 L5624 2520 L5628 2528 L5636 2536 L5640 2544 L5648 2552 L5652 2560 L5656 2572 L5660 2580 L5660 2584 L5680 2632 L5684 2636 L5688 2644 L5688 2652 L5696 2660 L5700 2668 L5704 2684 L5712 2696 L5716 2704 L5720 2716 L5724 2724 L5728 2736 L5732 2744 L5736 2756 L5740 2764 L5740 2772 L5744 2784 L5748 2792 L5752 2800 L5752 2808 L5756 2816 L5756 2824 L5760 2836 L5760 2844 L5760 2852 L5760 2864 L5760 2872 L5760 2880 L5760 2888 L5760 2896 L5760 2908 L5760 2916 L5760 2924 L5760 2932 L5760 2940 L5760 2944 L5760 2948 L5760 2952 L5760 2956 L5760 2960 L5756 2964 L5752 2968 L5752 2976 L5752 2984 L5748 2992 L5740 3000 L5740 3008 L5736 3016 L5728 3024 L5724 3032 L5720 3040 L5716 3048 L5708 3056 L5708 3060 L5704 3064 L5700 3068 L5696 3076 L5688 3080 L5684 3088 L5680 3096 L5672 3100 L5668 3108 L5664 3108 L5664 3112 L5660 3112 L5656 3116 L5652 3120 L5644 3120 L5640 3124 L5636 3124 L5632 3124 L5628 3124 L5624 3124 L5620 3124 L5612 3128 L5608 3128 L5604 3128 L5596 3128 L5592 3132 L5588 3136 L5580 3136 L5576 3136 L5572 3140 L5568 3140 L5564 3140 L5560 3140 L5556 3140 L5548 3140 L5544 3140 L5540 3140 L5536 3140 L5528 3140 L5524 3140 L5520 3140 L5512 3140 L5508 3140 L5504 3140 L5492 3132 L5488 3128 L5480 3124 L5476 3120 L5468 3112 L5460 3112 L5456 3104 L5448 3100 L5436 3092 L5428 3088 L5424 3084 L5420 3080 L5416 3076 L5412 3068 L5408 3064 L5400 3056 L5392 3052 L5388 3048 L5384 3040 L5376 3032 L5372 3032 L5372 3024 L5368 3020 L5364 3012 L5356 3000 L5352 2996 L5348 2988 L5348 2980 L5344 2976 L5340 2972 L5340 2964 L5340 2960 L5340 2956 L5340 2952 L5340 2948 L5340 2944 L5340 2936 L5340 2932 L5340 2924 L5340 2916 L5340 2908 L5340 2816 L5344 2800 L5348 2784 L5352 2768 L5352 2756 L5356 2744 L5360 2728 L5368 2712 L5372 2700 L5376 2684 L5384 2664 L5388 2648 L5396 2628 L5396 2616 L5400 2616 L5400 2608 L5404 2596 L5408 2588 L5416 2584 L5416 2572 L5424 2564 L5428 2552 L5428 2548 L5432 2548 L5432 2544 L5432 2540 L5432 2536 L5436 2528 L5444 2524 L5444 2520 L5448 2516 L5448 2508 L5452 2500 L5456 2496 L5460 2484 L5464 2468 L5472 2460 L5476 2452 L5484 2444 L5484 2436 L5488 2432 L5488 2428 L5492 2428 L5492 2424 L5500 2416 L5504 2408 L5512 2400 L5524 2388 L5528 2380 L5536 2372 L5544 2364 L5552 2352 L5564 2344 L5572 2336 L5580 2324 L5592 2320 L5600 2312 L5608 2308 L5616 2300 L5628 2296 L5632 2292 L5636 2292 L5640 2292 L5644 2292 L5648 2292 L5652 2292 L5656 2292 L5660 2292 L5664 2292 L5668 2292 L5672 2292 L5676 2292 L5680 2292 L5684 2292 L5692 2296 L5696 2300 L5700 2300 L5704 2304 L5708 2304 L5712 2312 L5720 2316 L5724 2324 L5732 2328 L5736 2336 L5744 2340 L5748 2344 L5752 2352 L5808 2420 L5816 2432 L5820 2444 L5828 2456 L5836 2464 L5840 2472 L5844 2476 L5848 2476 L5848 2480 L5848 2484 L5852 2492 L5856 2496 L5856 2500 L5860 2508 L5864 2516 L5864 2520 L5864 2528 L5868 2536 L5868 2540 L5872 2544 L5872 2548 L5872 2552 L5876 2556 L5876 2560 L5876 2564 L5876 2568 L5876 2572 L5876 2576 L5872 2576 L5868 2576 L5864 2576 L5860 2576 L5856 2576 L5848 2576 L5844 2576 L5840 2572 L5832 2564 L5828 2560 L5820 2552 L5812 2548 L5804 2540 L5796 2536 L5784 2528 L5772 2516 L5764 2508 L5752 2492 L5736 2480 L5724 2464 L5720 2464 L5716 2456 L5708 2448 L5600 2340 L5584 2328 L5576 2316 L5572 2308 L5560 2296 L5556 2288 L5548 2276 L5548 2272 L5544 2268 L5540 2264 L5536 2252 L5528 2244 L5524 2236 L5520 2228 L5516 2216 L5516 2208 L5512 2200 L5504 2192 L5504 2184 L5500 2172 L5500 2168 L5500 2160 L5496 2152 L5496 2144 L5492 2088 L5492 2080 L5492 2072 L5492 2060 L5492 2048 L5492 2040 L5492 2032 L5492 2020 L5492 2012 L5496 2004 L5500 1996 L5500 1984 L5500 1972 L5500 1960 L5504 1952 L5508 1940 L5512 1928 L5512 1920 L5516 1912 L5516 1904 L5520 1892 L5524 1880 L5524 1868 L5524 1856 L5528 1848 L5532 1836 L5536 1824 L5536 1816 L5536 1804 L5536 1800 L5540 1796 L5540 1792 L5544 1788 L5544 1784 L5544 1780 L5548 1772 L5556 1764 L5560 1760 L5564 1748 L5572 1740 L5576 1732 L5584 1724 L5588 1712 L5600 1704 L5604 1696 L5616 1684 L5624 1676 L5628 1672 L5640 1660 L5644 1656 L5648 1652 L5652 1648 L5660 1640 L5664 1636 L5668 1636 L5668 1632 L5672 1632 L5676 1628 L5680 1624 L5684 1624 L5688 1620 L5692 1620 L5700 1612 L5708 1608 L5724 1600 L5736 1596 L5752 1588 L5768 1584 L5780 1576 L5796 1568 L5816 1564 L5832 1560 L5856 1552 L5880 1548 L5900 1540 L5924 1536 L5940 1532 L5964 1524 L5988 1520 L6016 1516 L6040 1512 L6064 1508 L6092 1504 L6120 1500 L6148 1496 L6172 1496 L6208 1492 L6244 1488 L6288 1480 L6332 1476 L6368 1476 L6404 1476 L6444 1476 L6480 1476 L6516 1476 L6560 1476 L6596 1476 L6640 1476 L6680 1476 L6720 1476 L6760 1476 L6808 1476 L6852 1476 L6900 1476 L6944 1476 L6992 1476 L7036 1476 L7080 1476 L7128 1476 L7176 1476 L7220 1476 L7260 1476 L7304 1476 L7352 1476 L7392 1480 L7432 1484 L7464 1492 L7468 1492 L7516 1500 L7552 1508 L7596 1512 L7640 1516 L7680 1524 L7724 1536 L7764 1544 L7808 1552 L7848 1556 L7892 1564 L7936 1572 L7984 1580 L8028 1596 L8072 1604 L8120 1612 L8168 1620 L8216 1632 L8260 1644 L8304 1652 L8344 1664 L8388 1672 L8424 1688 L8468 1700 L8500 1708 L8540 1716 L8572 1724 L8576 1724 L8580 1728 L8596 1732 L8620 1740 L8644 1744 L8672 1752 L8696 1760 L8716 1768 L8740 1772 L8764 1780 L8784 1788 L8804 1792 L8828 1800 L8844 1804 L8860 1812 L8880 1812 L8892 1816 L8904 1820 L8916 1824 L8928 1824 L8940 1828 L8952 1832 L8964 1836 L8976 1840 L8988 1840 L8996 1840 L9004 1840 L9012 1840 L9020 1840 L9024 1840 L9036 1840 L9040 1840 L9044 1840 L9048 1840 L9056 1840 L9064 1840 L9072 1836 L9080 1832 L9088 1832 L9100 1828 L9108 1820 L9116 1820 L9128 1812 L9144 1804 L9152 1800 L9164 1792 L9176 1788 L9192 1780 L9204 1768 L9216 1764 L9232 1756 L9240 1752 L9252 1744 L9260 1740 L9272 1728 L9280 1724 L9284 1716 L9292 1712 L9296 1704 L9300 1704 L9300 1700 L9300 1696 L9304 1692 L9304 1684 L9308 1680 L9308 1676 L9308 1668 L9308 1664 L9308 1660 L9308 1652 L9308 1648 L9308 1636 L9308 1632 L9308 1624 L9308 1620 L9308 1616 L9308 1612 L9304 1608 L9300 1596 L9296 1592 L9292 1584 L9284 1568 L9280 1560 L9276 1552 L9268 1540 L9264 1532 L9256 1520 L9256 1508 L9248 1500 L9240 1488 L9232 1472 L9224 1464 L9216 1456 L9212 1444 L9204 1432 L9200 1424 L9192 1416 L9188 1408 L9180 1400 L9176 1392 L9172 1388 L9168 1384 L9164 1376 L9160 1372 L9156 1368 L9152 1364 L9152 1360 L9148 1356 L9144 1356 L9140 1352 L9136 1344 L9132 1344 L9128 1336 L9124 1332 L9120 1328 L9116 1324 L9112 1320 L9104 1312 L9100 1308 L9092 1300 L9088 1288 L9080 1280 L9076 1272 L9068 1264 L9064 1248 L9056 1236 L9052 1224 L9044 1212 L9036 1200 L9032 1188 L9024 1176 L9012 1156 L9008 1144 L9000 1124 L8988 1108 L8976 1088 L8968 1068 L8956 1052 L8940 1032 L8924 1008 L8908 988 L8892 964 L8860 920 L8844 896 L8824 876 L8808 852 L8788 832 L8768 808 L8748 784 L8728 760 L8712 736 L8692 716 L8460 496 L8428 468 L8424 468 L8416 460 L8400 448 L8376 432 L8368 428 L8360 420 L8340 404 L8312 388 L8284 368 L8260 352 L8256 352 L8252 348 L8248 348 L8228 344 L8208 336 L8188 328 L8172 320 L8152 316 L8132 312 L8112 308 L8096 308 L8080 308 L8064 308 L8048 308 L8028 308 L8012 308 L7996 308 L7980 308 L7968 308 L7948 316 L7936 324 L7924 328 L7904 340 L7892 352 L7876 360 L7856 376 L7844 388 L7828 400 L7816 416 L7804 432 L7788 456 L7772 480 L7756 512 L7740 540 L7732 564 L7728 568 L7724 576 L7720 596 L7712 624 L7704 656 L7692 688 L7680 732 L7672 776 L7664 820 L7660 868 L7660 920 L7660 968 L7660 1016 L7660 1072 L7664 1120 L7668 1172 L7676 1220 L7684 1268 L7700 1316 L7712 1368 L7732 1412 L7748 1460 L7772 1504 L7796 1548 L7824 1588 L7848 1628 L7880 1664 L7912 1696 L7952 1728 L7984 1756 L8024 1780 L8064 1800 L8104 1816 L8148 1832 L8192 1848 L8240 1856 L8288 1864 L8336 1872 L8384 1876 L8432 1876 L8484 1876 L8532 1876 L8580 1872 L8636 1864 L8688 1856 L8736 1840 L8792 1828 L8840 1812 L8884 1792 L8928 1776 L8972 1756 L9012 1736 L9052 1712 L9088 1688 L9120 1660 L9156 1636 L9188 1604 L9212 1580 L9236 1556 L9256 1528 L9272 1504 L9288 1472 L9300 1444 L9312 1416 L9316 1404 L9320 1380 L9324 1360 L9328 1332 L9328 1308 L9328 1288 L9328 1260 L9328 1236 L9328 1212 L9324 1184 L9312 1156 L9300 1132 L9284 1108 L9268 1088 L9248 1064 L9232 1040 L9212 1020 L9192 1000 L9168 980 L9144 968 L9120 952 L9096 940 L9068 928 L9036 916 L9008 904 L8980 896 L8952 888 L8916 880 L8884 872 L8856 868 L8824 868 L8792 868 L8756 868 L8720 868 L8676 868 L8636 868 L8604 872 L8572 880 L8568 880 L8564 880 L8564 884 L8556 884 L8532 892 L8500 904 L8468 916 L8424 936 L8380 956 L8344 972 L8304 992 L8264 1012 L8232 1036 L8196 1056 L8164 1076 L8128 1104 L8088 1128 L8052 1152 L8036 1168 L8032 1168 L8028 1176 L8012 1188 L8004 1200 L7992 1216 L7984 1228 L7976 1248 L7968 1260 L7964 1272 L7964 1284 L7964 1296 L7964 1308 L7964 1316 L7964 1328 L7964 1336 L7968 1340 L7968 1344 L7976 1352 L7980 1356 L7984 1360 L7996 1364 L8008 1368 L8020 1372 L8036 1376 L8052 1376 L8076 1380 L8104 1380 L8128 1380 L8156 1380 L8188 1380 L8228 1380 L8264 1380 L8300 1380 L8344 1376 L8388 1372 L8432 1368 L8472 1360 L8516 1352 L8560 1340 L8604 1324 L8648 1316 L8692 1304 L8736 1288 L8772 1276 L8812 1264 L8852 1248 L8884 1228 L8920 1216 L8952 1200 L8984 1184 L9012 1168 L9040 1152 L9068 1132 L9092 1116 L9116 1100 L9140 1084 L9160 1076 L9164 1076 L9164 1072 L9168 1068 L9176 1060 L9180 1048 L9192 1036 L9196 1028 L9204 1016 L9208 1004 L9212 992 L9216 984 L9216 976 L9216 972 L9216 964 L9216 956 L9216 952 L9216 948 L9216 944 L9212 940 L9208 936 L9204 936 L9196 936 L9188 936 L9180 936 L9172 936 L9160 936 L9148 936 L9136 936 L9120 936 L9100 944 L9084 948 L9060 956 L9040 960 L9004 968 L8972 980 L8944 992 L8908 1008 L8868 1036 L8832 1056 L8792 1084 L8752 1104 L8712 1132 L8676 1156 L8636 1188 L8608 1216 L8592 1232 L8568 1264 L8540 1296 L8516 1332 L8492 1372 L8472 1412 L8448 1448 L8432 1488 L8420 1524 L8408 1556 L8400 1588 L8396 1616 L8396 1644 L8396 1672 L8396 1696 L8400 1720 L8400 1724 L8404 1724 L8408 1724 L8416 1728 L8432 1736 L8448 1740 L8472 1748 L8496 1752 L8528 1756 L8560 1760 L8596 1760 L8628 1760 L8672 1760 L8716 1752 L8760 1744 L8804 1736 L8848 1724 L8888 1708 L8932 1696 L8976 1672 L9036 1648 L9084 1628 L9132 1604 L9192 1576 L9252 1544 L9304 1516 L9368 1480 L9424 1444 L9476 1412 L9520 1380 L9568 1344 L9616 1300 L9656 1256 L9692 1216 L9728 1176 L9760 1136 L9788 1096 L9812 1052 L9836 1008 L9848 964 L9864 920 L9872 884 L9876 844 L9880 804 L9880 764 L9880 720 L9872 684 L9856 644 L9840 604 L9820 568 L9792 528 L9764 492 L9736 456 L9700 420 L9664 392 L9624 364 L9580 340 L9536 312 L9496 292 L9452 280 L9404 268 L9356 256 L9308 240 L9252 232 L9200 228 L9152 224 L9104 224 L9052 224 L9004 228 L8956 232 L8912 236 L8908 236 L8896 244 L8868 252 L8836 268 L8792 292 L8792 296 L8784 304 L8768 328 L8744 364 L8728 396 L8716 436 L8708 472 L8704 512 L8700 540 L8700 556 L8700 584 L8712 620 L8728 660 L8744 704 L8768 748 L8800 792 L8832 832 L8868 880 L8908 916 L8952 952 L9008 992 L9072 1032 L9144 1064 L9212 1092 L9284 1116 L9360 1144 L9448 1168 L9532 1184 L9628 1204 L9708 1212 L9812 1224 L9912 1232 L10012 1236 L10100 1236 L10200 1236 L10296 1236 L10384 1236 L10476 1236 L10564 1232 L10656 1220 L10740 1208 L10820 1196 L10904 1180 L10980 1164 L11028 1152 L11076 1136 L11132 1120 L11184 1096 L11220 1080 L11256 1056 L11284 1036 L11316 1016 L11340 992 L11356 968 L11368 944 L11380 920 L11384 896 L11388 876 L11388 848 L11388 820 L11376 796 L11360 772 L11344 744 L11320 712 L11304 696 L11292 688 L11264 668 L11224 648 L11180 620 L11128 600 L11080 576 L11016 552 L10376 432 L10288 432 L10212 432 L10124 432 L10080 432 L10032 432 L9972 440 L9900 452 L9828 468 L9760 488 L9696 508 L9640 528 L9588 544 L9588 548 L9572 556 L9548 576 L9520 604 L9496 632 L9476 660 L9460 688 L9444 716 L9432 752 L9420 784 L9416 812 L9416 824 L9416 832 L9416 848 L9424 872 L9436 900 L9452 928 L9468 952 L9496 984 L9520 1008 L9548 1036 L9584 1060 L9624 1080 L9652 1100 L9656 1100 L9664 1100 L9692 1108 L9736 1120 L9784 1136 L9832 1148 L9888 1156 L9940 1168 L9996 1176 L10056 1184 L10112 1188 L10172 1192 L10232 1196 L10288 1204 L10340 1208 L10396 1208 L10448 1208 L10500 1208 L10548 1208 L10596 1196 L10644 1188 L10688 1176 L10728 1164 L10768 1148 L10800 1136 L10832 1124 L10856 1112 L10880 1100 L10904 1084 L10924 1068 L10940 1060 L10952 1048 L10960 1036 L10964 1024 L10972 1008 L10976 996 L10980 984 L10980 968 L10980 956 L10980 944 L10980 932 L10972 912 L10964 896 L10948 876 L10936 860 L10916 848 L10896 832 L10872 820 L10848 804 L10816 792 L10780 780 L10744 764 L10704 756 L10668 748 L10628 740 L10584 736 L10544 732 L10500 732 L10456 732 L10408 732 L10356 732 L10308 732 L10256 736 L10208 744 L10152 760 L10100 772 L10044 784 L9996 804 L9940 828 L9888 848 L9844 872 L9796 900 L9748 924 L9704 956 L9660 988 L9620 1020 L9580 1052 L9540 1088 L9504 1124 L9476 1152 L9444 1188 L9424 1220 L9400 1252 L9384 1288 L9372 1324 L9360 1352 L9352 1380 L9344 1404 L9340 1424 L9340 1448 L9340 1468 L9340 1488 L9348 1504 L9356 1520 L9368 1532 L9388 1548 L9404 1560 L9428 1572 L9464 1584 L9496 1596 L9532 1604 L9576 1612 L9616 1616 L9652 1620 L9696 1624 L9740 1624 L9780 1624 L9824 1624 L9832 1624 L9860 1624 L9900 1616 L9952 1608 L10000 1592 L10048 1580 L10096 1568 L10140 1548 L10184 1532 L10228 1508 L10272 1492 L10308 1468 L10344 1448 L10372 1428 L10396 1408 L10420 1388 L10436 1364 L10452 1340 L10464 1308 L10472 1280 L10476 1252 L10480 1228 L10480 1200 L10480 1172 L10472 1140 L10464 1112 L10448 1080 L10432 1052 L10408 1020 L10384 988 L10360 960 L10328 924 L10292 892 L10252 864 L10212 836 L10168 808 L10124 788 L10076 764 L10024 740 L9972 724 L9916 708 L9864 696 L9800 684 L9740 672 L9680 668 L9624 664 L9564 664 L9508 664 L9448 664 L9388 664 L9328 672 L9268 684 L9204 696 L9132 712 L9080 732 L9032 744 L8988 764 L8944 784 L8900 808 L8860 832 L8836 848 L8820 860 L8804 880 L8776 908 L8752 948 L8728 984 L8712 1016 L8696 1052 L8680 1088 L8672 1128 L8668 1164 L8668 1196 L8668 1232 L8676 1264 L8684 1300 L8700 1336 L8716 1368 L8736 1404 L8740 1408 L8756 1416 L8788 1432 L8828 1456 L8872 1476 L8928 1496 L8984 1512 L9052 1536 L9116 1556 L9192 1572 L9264 1588 L9348 1604 L9420 1612 L9492 1624 L9572 1628 L9644 1640 L9712 1644 L9780 1644 L9844 1644 L9892 1644 L9896 1644 L9908 1644 L9932 1640 L9972 1632 L10012 1624 L10056 1608 L10092 1588 L10132 1572 L10136 1568 L10140 1564 L10152 1548 L10164 1536 L10168 1516 L10176 1500 L10184 1476 L10188 1452 L10188 1432 L10188 1412 L10188 1388 L10188 1360 L10180 1332 L10168 1304 L10156 1276 L10140 1248 L10120 1216 L10096 1188 L10076 1164 L10052 1140 L10020 1112 L9988 1088 L9948 1064 L9912 1044 L9876 1028 L9836 1008 L9796 996 L9752 984 L9716 976 L9676 968 L9632 960 L9592 956 L9548 956 L9504 956 L9456 960 L9408 968 L9364 976 L9324 988 L9272 1008 L9228 1024 L9184 1048 L9140 1068 L9088 1096 L9044 1120 L9000 1144 L8956 1176 L8908 1212 L8860 1252 L8820 1292 L8784 1332 L8748 1372 L8720 1416 L8688 1464 L8648 1508 L8620 1552 L8596 1592 L8576 1636 L8552 1676 L8536 1716 L8524 1756 L8508 1792 L8500 1832 L8496 1860 L8492 1888 L8492 1912 L8492 1936 L8492 1956 L8492 1972 L8492 1984 L8500 2000 L8500 2012 L8508 2020 L8512 2024 L8516 2024 L8520 2024 L8520 2028 L8524 2028 L8532 2032 L8540 2032 L8544 2032 L8548 2032 L8552 2032 L8556 2028 L8560 2028 L8568 2024 L8576 2020 L8580 2016 L8592 2008 L8596 2004 L8604 1996 L8620 1980 L8632 1968 L8640 1952 L8652 1932 L8664 1916 L8676 1896 L8680 1880 L8692 1856 L8704 1832 L8712 1804 L8724 1780 L8736 1752 L8744 1728 L8752 1708 L8760 1696 L8760 1692 L8760 1688 L8764 1676 L8768 1664 L8772 1652 L8772 1640 L8772 1628 L8772 1616 L8776 1608 L8776 1596 L8776 1588 L8776 1580 L8776 1572 L8776 1564 L8776 1560 L8776 1556 L8776 1552 L8776 1548 L8772 1548 L8768 1548 L8764 1548 L8760 1548 L8756 1548 L8752 1552 L8748 1556 L8744 1556 L8740 1556 L8736 1556 L8728 1560 L8724 1564 L8716 1568 L8708 1576 L8700 1580 L8696 1584 L8684 1596 L8676 1604 L8664 1620 L8656 1628 L8644 1640 L8636 1656 L8632 1656 L8632 1660 L8624 1664 L8620 1672 L8612 1688 L8604 1696 L8596 1704 L8584 1716 L8576 1728 L8564 1736 L8560 1748 L8552 1756 L8544 1764 L8540 1772 L8532 1784 L8528 1792 L8520 1800 L8516 1808 L8508 1812 L8500 1820 L8496 1832 L8488 1840 L8480 1852 L8476 1860 L8468 1872 L8460 1876 L8456 1884 L8448 1892 L8444 1900 L8440 1908 L8436 1912 L8436 1916 L8432 1916 L8432 1920 L8432 1924 L8428 1924 L8428 1928 L8424 1936 L8420 1940 L8416 1948 L8416 1952 L8412 1960 L8408 1964 L8408 1968 L8408 1972 L8408 1976 L8404 1976 L8404 1980 L8400 1988 L8396 1992 L8388 2000 L8384 2008 L8380 2016 L8376 2020 L8368 2032 L8364 2040 L8360 2040 L8356 2044 L8352 2048 L8348 2056 L8340 2064 L8336 2068 L8332 2072 L8332 2076 L8328 2076 L8324 2080 L8320 2084 L8312 2088 L8308 2096 L8304 2096 L8304 2100 L8296 2104 L8296 2108 L8292 2108 L8288 2116 L8280 2120 L8272 2124 L8268 2132 L8260 2136 L8256 2144 L8248 2148 L8240 2156 L8232 2164 L8224 2172 L8212 2184 L8208 2188 L8200 2196 L8188 2208 L8180 2216 L8172 2224 L8160 2236 L8148 2244 L8140 2252 L8128 2264 L8116 2276 L8100 2292 L8092 2300 L8076 2316 L8076 2320 L8068 2320 L8052 2332 L8040 2336 L8028 2348 L8012 2360 L7992 2368 L7980 2380 L7968 2388 L7952 2392 L7940 2400 L7932 2404 L7924 2404 L7912 2412 L7904 2416 L7900 2416 L7896 2416 L7892 2420 L7888 2424 L7884 2424 L7884 2428 L7880 2428 L7880 2432 L7876 2432 L7868 2436 L7864 2436 L7864 2440 L7860 2444 L7856 2444 L7848 2448 L7844 2452 L7840 2452 L7832 2456 L7824 2460 L7820 2468 L7808 2472 L7800 2480 L7792 2484 L7788 2492 L7776 2496 L7768 2504 L7760 2508 L7748 2520 L7736 2528 L7728 2536 L7720 2544 L7708 2548 L7696 2560 L7688 2564 L7680 2572 L7668 2576 L7660 2584 L7652 2592 L7648 2596 L7640 2600 L7632 2604 L7624 2608 L7616 2616 L7612 2620 L7604 2624 L7600 2628 L7596 2636 L7588 2640 L7580 2652 L7572 2660 L7564 2668 L7556 2676 L7552 2680 L7552 2684 L7548 2684 L7548 2688 L7544 2696 L7536 2700 L7532 2708 L7524 2720 L7520 2724 L7516 2728 L7508 2736 L7504 2744 L7504 2748 L7500 2752 L7492 2756 L7480 2764 L7472 2776 L7464 2784 L7452 2792 L7444 2804 L7436 2812 L7424 2820 L7416 2836 L7400 2844 L7388 2860 L7376 2868 L7368 2880 L7360 2888 L7348 2896 L7340 2908 L7328 2920 L7324 2932 L7312 2944 L7304 2952 L7304 2956 L7300 2956 L7296 2960 L7284 2972 L7280 2976 L7276 2984 L7268 2996 L7264 3004 L7260 3004 L7256 3008 L7252 3012 L7248 3024 L7240 3028 L7236 3036 L7232 3044 L7224 3056 L7220 3064 L7212 3072 L7212 3080 L7204 3092 L7200 3096 L7196 3100 L7196 3104 L7188 3116 L7188 3120 L7184 3124 L7180 3128 L7176 3140 L7176 3144 L7172 3152 L7168 3160 L7168 3164 L7164 3172 L7164 3176 L7160 3180 L7156 3188 L7156 3192 L7156 3200 L7152 3204 L7152 3208 L7148 3212 L7148 3216 L7148 3220 L7148 3224 L7148 3228 L7148 3232 L7148 3236 L7148 3240 L7148 3244 L7148 3248 L7148 3252 L7148 3256 L7144 3260 L7144 3264 L7144 3268 L7144 3272 L7140 3272 L7140 3276 L7140 3280 L7136 3284 L7132 3284 L7132 3288 L7132 3280 L7132 3276 L7132 3268 L7136 3252 L7144 3232 L7160 3208 L7176 3184 L7184 3168 L7200 3136 L7216 3112 L7236 3084 L7260 3048 L7280 3012 L7304 2976 L7328 2940 L7348 2912 L7372 2876 L7392 2844 L7412 2812 L7436 2784 L7456 2756 L7476 2724 L7492 2700 L7508 2684 L7520 2664 L7528 2656 L7536 2644 L7544 2636 L7544 2632 L7548 2628 L7548 2636 L7548 2652 L7544 2676 L7536 2700 L7528 2728 L7516 2764 L7504 2808 L7496 2852 L7480 2892 L7468 2936 L7456 2984 L7448 3028 L7432 3076 L7420 3120 L7408 3168 L7392 3212 L7380 3252 L7368 3296 L7360 3336 L7352 3372 L7344 3404 L7336 3436 L7328 3464 L7324 3488 L7320 3504 L7316 3524 L7312 3532 L7312 3536 L7316 3536 L7320 3536 L7324 3536 L7328 3536 L7332 3536 L7336 3532 L7340 3528 L7344 3524 L7352 3516 L7368 3504 L7376 3492 L7396 3480 L7416 3460 L7416 3456 L7420 3456 L7424 3444 L7436 3424 L7440 3412 L7452 3388 L7468 3364 L7480 3340 L7496 3316 L7508 3288 L7520 3264 L7532 3240 L7544 3216 L7556 3196 L7564 3184 L7568 3172 L7576 3164 L7580 3152 L7588 3148 L7588 3144 L7588 3152 L7588 3160 L7584 3176 L7580 3192 L7576 3216 L7572 3240 L7568 3272 L7564 3304 L7556 3340 L7548 3380 L7544 3412 L7536 3452 L7528 3488 L7520 3516 L7516 3552 L7508 3584 L7504 3604 L7496 3632 L7492 3652 L7488 3668 L7484 3680 L7484 3688 L7480 3700 L7480 3704 L7484 3704 L7484 3700 L7488 3696 L7492 3692 L7500 3688 L7516 3672 L7528 3660 L7544 3644 L7564 3620 L7584 3596 L7604 3576 L7628 3544 L7656 3516 L7680 3480 L7708 3440 L7732 3404 L7764 3356 L7788 3312 L7816 3268 L7840 3228 L7872 3184 L7904 3140 L7936 3092 L7960 3048 L7992 3004 L8020 2964 L8052 2920 L8084 2880 L8108 2844 L8128 2816 L8128 2812 L8136 2808 L8148 2796 L8168 2780 L8184 2760 L8196 2744 L8212 2732 L8224 2716 L8240 2704 L8252 2696 L8264 2688 L8272 2684 L8280 2676 L8284 2676 L8284 2680 L8284 2684 L8284 2696 L8284 2712 L8272 2740 L8260 2768 L8252 2792 L8252 2796 L8248 2800 L8236 2820 L8224 2848 L8208 2896 L8196 2924 L8172 2960 L8152 3000 L8124 3048 L8096 3092 L8076 3136 L8052 3180 L8032 3224 L8008 3268 L7988 3308 L7964 3348 L7948 3376 L7932 3404 L7920 3428 L7912 3452 L7904 3468 L7904 3484 L7904 3496 L7904 3504 L7904 3508 L7908 3508 L7912 3504 L7916 3500 L7924 3496 L7936 3488 L7944 3480 L7964 3464 L7984 3448 L8004 3432 L8024 3412 L8048 3384 L8072 3356 L8088 3332 L8088 3328 L8092 3324 L8108 3304 L8128 3280 L8152 3244 L8176 3204 L8204 3168 L8228 3136 L8256 3100 L8276 3072 L8296 3040 L8316 3012 L8340 2976 L8360 2948 L8376 2924 L8392 2904 L8408 2884 L8416 2872 L8428 2856 L8432 2848 L8440 2836 L8448 2828 L8448 2824 L8448 2820 L8448 2824 L8444 2840 L8432 2852 L8420 2872 L8412 2896 L8400 2912 L8384 2936 L8368 2956 L8356 2980 L8340 3008 L8324 3032 L8308 3064 L8292 3088 L8276 3112 L8260 3136 L8248 3160 L8236 3176 L8224 3192 L8216 3204 L8208 3216 L8200 3232 L8200 3240 L8196 3244 L8196 3248 L8196 3244 L8196 3240 L8196 3236 L8208 3228 L8216 3220 L8224 3204 L8240 3184 L8256 3164 L8272 3148 L8288 3116 L8304 3092 L8324 3068 L8344 3040 L8368 3016 L8384 2992 L8404 2968 L8428 2940 L8448 2912 L8468 2884 L8492 2852 L8512 2832 L8532 2816 L8544 2796 L8564 2772 L8580 2748 L8596 2728 L8608 2712 L8620 2700 L8628 2684 L8636 2676 L8648 2664 L8660 2648 L8664 2640 L8668 2636 L8668 2632 L8672 2628 L8676 2624 L8676 2620 L8676 2616 L8680 2616 L8680 2620 L8676 2628 L8672 2640 L8664 2660 L8652 2676 L8640 2700 L8628 2724 L8616 2748 L8604 2772 L8592 2800 L8580 2820 L8572 2844 L8556 2868 L8544 2888 L8532 2912 L8524 2936 L8516 2960 L8508 2976 L8500 2996 L8492 3012 L8492 3028 L8488 3036 L8488 3044 L8488 3048 L8488 3052 L8488 3056 L8492 3056 L8496 3056 L8504 3052 L8508 3048 L8516 3040 L8524 3032 L8536 3024 L8548 3008 L8564 2992 L8576 2980 L8588 2964 L8592 2960 L8596 2956 L8608 2940 L8616 2928 L8628 2916 L8640 2900 L8652 2884 L8664 2872 L8676 2856 L8688 2848 L8696 2840 L8704 2832 L8712 2824 L8724 2816 L8732 2812 L8736 2808 L8740 2808 L8740 2804 L8744 2804 L8748 2804 L8748 2812 L8744 2824 L8736 2840 L8732 2856 L8724 2872 L8712 2892 L8700 2916 L8688 2940 L8676 2968 L8664 2996 L8652 3024 L8636 3056 L8620 3088 L8600 3120 L8584 3148 L8568 3184 L8552 3212 L8540 3236 L8524 3264 L8508 3288 L8496 3312 L8488 3332 L8480 3348 L8472 3368 L8468 3380 L8464 3388 L8460 3392 L8460 3396 L8460 3400 L8460 3404 L8464 3404 L8468 3404 L8472 3404 L8484 3400 L8492 3392 L8504 3388 L8520 3376 L8532 3368 L8556 3344 L8592 3324 L8620 3304 L8652 3276 L8680 3252 L8716 3228 L8748 3196 L8780 3172 L8800 3156 L8824 3136 L8848 3120 L8848 3116 L8856 3104 L8872 3084 L8900 3060 L8932 3036 L8968 3008 L9004 2984 L9032 2956 L9060 2936 L9092 2916 L9116 2896 L9136 2880 L9156 2860 L9168 2848 L9180 2840 L9196 2828 L9204 2820 L9208 2816 L9212 2812 L9212 2816 L9208 2828 L9196 2844 L9188 2860 L9176 2880 L9160 2900 L9144 2924 L9120 2952 L9100 2988 L9096 2988 L9096 2992 L9092 2992 L9084 3000 L9068 3020 L9060 3028 L9060 3032 L9052 3036 L9044 3052 L9036 3060 L9020 3076 L9008 3088 L9004 3096 L8992 3112 L8988 3120 L8988 3124 L8992 3124 L9000 3116 L9016 3112 L9028 3100 L9048 3088 L9072 3072 L9092 3060 L9104 3052 L9124 3036 L9148 3020 L9172 3000 L9200 2980 L9224 2964 L9248 2948 L9272 2928 L9292 2916 L9316 2896 L9336 2884 L9356 2872 L9372 2856 L9392 2840 L9408 2832 L9420 2820 L9428 2812 L9432 2808 L9436 2804 L9436 2800 L9440 2800 L9440 2796 L9444 2796 L9440 2796 L9440 2804 L9432 2812 L9424 2832 L9408 2852 L9388 2876 L9364 2900 L9340 2932 L9312 2968 L9288 3000 L9264 3028 L9248 3048 L9244 3048 L9236 3052 L9220 3072 L9196 3096 L9172 3116 L9140 3140 L9112 3168 L9088 3188 L9068 3208 L9048 3224 L9032 3232 L9024 3240 L9016 3248 L9008 3252 L9008 3256 L9012 3256 L9016 3256 L9028 3252 L9040 3248 L9060 3236 L9084 3220 L9108 3204 L9132 3188 L9144 3176 L9168 3160 L9204 3140 L9236 3120 L9260 3104 L9264 3100 L9280 3092 L9316 3072 L9360 3056 L9404 3040 L9448 3016 L9488 3000 L9528 2976 L9564 2960 L9600 2944 L9636 2920 L9664 2904 L9688 2888 L9712 2876 L9732 2860 L9748 2852 L9768 2840 L9780 2832 L9788 2828 L9792 2824 L9796 2824 L9796 2820 L9800 2816 L9800 2820 L9792 2824 L9784 2828 L9776 2840 L9764 2848 L9752 2864 L9736 2876 L9716 2896 L9696 2916 L9672 2940 L9648 2964 L9628 2984 L9604 3012 L9580 3032 L9556 3052 L9524 3076 L9496 3104 L9492 3104 L9484 3108 L9476 3116 L9464 3128 L9452 3132 L9444 3140 L9436 3148 L9432 3148 L9432 3152 L9436 3152 L9444 3152 L9452 3144 L9456 3144 L9460 3144 L9472 3128 L9496 3112 L9528 3092 L9552 3076 L9576 3056 L9608 3032 L9648 3012 L9688 2992 L9728 2968 L9768 2948 L9808 2924 L9836 2908 L9864 2892 L9892 2876 L9928 2852 L9960 2836 L9984 2820 L10008 2804 L10036 2788 L10060 2772 L10076 2760 L10096 2744 L10108 2736 L10124 2724 L10132 2716 L10144 2708 L10152 2696 L10156 2688 L10164 2680 L10164 2676 L10164 2672 L10164 2668 L10164 2664 L10160 2664 L10156 2664 L10152 2664 L10148 2668 L10144 2668 L10136 2672 L10132 2676 L10128 2680 L10116 2688 L10096 2704 L10076 2720 L10052 2740 L10024 2760 L9992 2780 L9960 2808 L9928 2832 L9900 2856 L9868 2884 L9840 2908 L9812 2928 L9780 2956 L9752 2980 L9720 3008 L9696 3028 L9672 3052 L9648 3072 L9628 3092 L9608 3108 L9596 3120 L9592 3120 L9592 3124 L9588 3128 L9588 3132 L9592 3132 L9596 3132 L9600 3128 L9608 3124 L9616 3120 L9632 3112 L9644 3104 L9664 3096 L9684 3084 L9720 3064 L9748 3052 L9772 3036 L9800 3024 L9832 3008 L9864 2992 L9892 2980 L9920 2964 L9952 2952 L9984 2932 L10016 2920 L10048 2908 L10080 2896 L10108 2884 L10132 2872 L10160 2860 L10184 2848 L10204 2836 L10216 2832 L10228 2824 L10248 2812 L10256 2808 L10268 2800 L10276 2796 L10284 2792 L10288 2788 L10292 2788 L10292 2796 L10284 2800 L10276 2808 L10260 2824 L10244 2840 L10224 2860 L10200 2880 L10184 2892 L10164 2912 L10140 2932 L10108 2960 L10084 2980 L10056 3004 L10024 3036 L9992 3060 L9956 3092 L9936 3108 L9928 3112 L9912 3124 L9908 3124 L9900 3128 L9892 3140 L9884 3148 L9876 3152 L9872 3160 L9872 3164 L9872 3168 L9876 3168 L9884 3168 L9892 3168 L9908 3168 L9928 3164 L9944 3156 L9976 3148 L10008 3140 L10052 3128 L10100 3116 L10148 3104 L10196 3088 L10252 3080 L10268 3076 L10304 3064 L10356 3048 L10408 3036 L10472 3016 L10536 3004 L10572 2992 L10612 2984 L10660 2972 L10704 2960 L10744 2944 L10784 2932 L10816 2920 L10848 2908 L10876 2896 L10900 2880 L10916 2868 L10928 2864 L10936 2856 L10948 2852 L10948 2848 L10940 2848 L10928 2848 L10916 2852 L10892 2856 L10872 2868 L10836 2884 L10808 2896 L10768 2912 L10732 2928 L10696 2940 L10668 2956 L10664 2956 L10656 2956 L10636 2964 L10608 2976 L10580 2988 L10556 3000 L10528 3012 L10500 3024 L10476 3036 L10472 3040 L10464 3044 L10460 3044 L10456 3052 L10452 3052 L10452 3056 L10452 3060 L10452 3064 L10452 3068 L10452 3072 L10452 3076 L10456 3076 L10456 3080 L10460 3080 L10464 3084 L10468 3084 L10472 3088 L10476 3088 L10488 3088 L10496 3092 L10504 3092 L10508 3092 L10512 3092 L10516 3092 L10520 3092 L10524 3092 L10528 3092 L10520 3092 L10516 3092 L10508 3096 L10496 3104 L10488 3112 L10476 3124 L10456 3132 L10436 3140 L10420 3152 L10404 3160 L10400 3160 L10388 3168 L10376 3172 L10368 3180 L10360 3184 L10352 3192 L10340 3196 L10340 3200 L10336 3200 L10336 3204 L10336 3208 L10340 3208 L10348 3204 L10360 3200 L10380 3192 L10408 3184 L10436 3176 L10468 3168 L10492 3160 L10496 3160 L10500 3156 L10524 3148 L10556 3136 L10596 3124 L10640 3116 L10688 3104 L10732 3088 L10772 3076 L10804 3068 L10844 3056 L10872 3048 L10900 3040 L10924 3028 L10940 3020 L10944 3020 L10944 3016 L10940 3016 L10932 3020 L10928 3024 L10920 3028 L10904 3040 L10892 3056 L10872 3064 L10852 3080 L10832 3100 L10808 3120 L10788 3140 L10764 3160 L10744 3180 L10732 3192 L10728 3192 L10724 3200 L10712 3216 L10708 3228 L10696 3240 L10688 3256 L10684 3272 L10680 3284 L10676 3296 L10676 3308 L10676 3316 L10676 3324 L10676 3332 L10680 3340 L10692 3348 L10704 3352 L10720 3360 L10740 3368 L10764 3376 L10788 3380 L10824 3384 L10860 3388 L10896 3388 L10936 3388 L10976 3388 L11024 3388 L11080 3388 L11124 3388 L11184 3388 L11236 3384 L11296 3384 L11348 3380 L11404 3372 L11452 3368 L11500 3364 L11516 3356 L11516 3352 L11516 3348 L11516 3340 L11516 3332 L11516 3324 L11516 3320 L11516 3312 L11516 3308 L11516 3304 L11516 3300 L11516 3296 L11516 3292 L11512 3292 L11512 3288 L11504 3288 L11500 3288 L11492 3288 L11484 3288 L11472 3288 L11460 3288 L11444 3288 L11420 3288 L11396 3288 L11368 3288 L11336 3288 L11304 3288 L11264 3292 L11224 3296 L11184 3300 L11148 3304 L11112 3308 L11076 3316 L11036 3324 L11000 3328 L10984 3332 L10980 3332 L10972 3336 L10960 3340 L10952 3340 L10940 3344 L10936 3348 L10932 3348 L10928 3352 L10928 3356 L10928 3360 L10932 3364 L10936 3364 L10940 3364 L10948 3364 L10960 3368 L10972 3372 L10992 3376 L11008 3376 L11028 3376 L11048 3376 L11072 3376 L11092 3376 L11108 3376 L11132 3376 L11136 3376 L11140 3376 L11148 3372 L11160 3372 L11168 3368 L11176 3364 L11180 3364 L11180 3360 L11176 3360 L11168 3360 L11160 3360 L11144 3360 L11120 3360 L11092 3360 L11076 3360 L11068 3360 L11052 3360 L11020 3360 L10980 3360 L10944 3360 L10904 3360 L10860 3360 L10816 3360 L10776 3360 L10736 3360 L10700 3360 L10664 3360 L10636 3360 L10616 3360 L10592 3360 L10576 3360 L10564 3360 L10556 3360 L10548 3360 L10544 3360 L10552 3360 L10560 3360 L10580 3356 L10596 3356 L10600 3356 L10608 3352 L10636 3348 L10672 3344 L10708 3340 L10748 3332 L10784 3328 L10816 3324 L10848 3316 L10884 3312 L10908 3308 L10932 3304 L10948 3300 L10968 3296 L10980 3296 L10988 3292 L10992 3288 L10988 3288 L10984 3288 L10976 3288 L10968 3288 L10956 3288 L10944 3288 L10932 3288 L10916 3288 L10896 3288 L10872 3288 L10848 3288 L10820 3288 L10816 3288 L10804 3292 L10780 3300 L10748 3308 L10716 3316 L10688 3324 L10664 3332 L10640 3340 L10624 3348 L10604 3352 L10588 3356 L10568 3364 L10556 3372 L10548 3376 L10536 3384 L10532 3388 L10528 3392 L10528 3396 L10524 3396 L10520 3400 L10512 3400 L10508 3400 L10504 3400 L10496 3400 L10492 3400 L10484 3400 L10476 3400 L10472 3400 L10468 3400 L10464 3400 L10468 3400 L10472 3396 L10476 3392 L10488 3392 L10496 3392 L10508 3388 L10520 3380 L10536 3372 L10552 3364 L10572 3356 L10592 3352 L10612 3344 L10616 3344 L10624 3340 L10632 3332 L10636 3328 L10644 3320 L10648 3316 L10652 3312 L10652 3308 L10652 3304 L10652 3300 L10652 3296 L10648 3296 L10648 3292 L10644 3292 L10636 3292 L10628 3292 L10616 3292 L10604 3292 L10588 3292 L10568 3292 L10540 3292 L10508 3292 L10476 3292 L10432 3296 L10404 3300 L10392 3304 L10364 3312 L10320 3324 L10272 3340 L10224 3352 L10168 3372 L10112 3384 L10064 3396 L10012 3412 L9960 3428 L9912 3444 L9868 3456 L9828 3472 L9792 3484 L9764 3492 L9740 3500 L9736 3500 L9736 3504 L9732 3504 L9736 3504 L9740 3504 L9744 3504 L9756 3504 L9776 3508 L9792 3512 L9820 3512 L9852 3512 L9892 3512 L9936 3512 L9988 3512 L10040 3512 L10100 3512 L10168 3508 L10248 3496 L10316 3492 L10400 3480 L10492 3468 L10572 3456 L10644 3448 L10716 3436 L10788 3428 L10848 3416 L10904 3412 L10908 3412 L10916 3408 L10928 3404 L10940 3400 L10952 3392 L10956 3388 L10956 3384 L10956 3380 L10952 3376 L10948 3376 L10944 3372 L10936 3368 L10924 3368 L10912 3364 L10900 3360 L10876 3356 L10856 3356 L10828 3356 L10792 3356 L10748 3356 L10700 3356 L10648 3356 L10596 3356 L10536 3356 L10476 3356 L10412 3368 L10340 3372 L10248 3388 L10164 3400 L10068 3416 L9996 3432 L9920 3448 L9844 3472 L9780 3492 L9704 3508 L9636 3528 L9572 3544 L9524 3556 L9484 3568 L9484 3572 L9480 3576 L9468 3580 L9464 3588 L9456 3596 L9456 3608 L9452 3616 L9452 3624 L9452 3632 L9452 3640 L9456 3648 L9464 3652 L9476 3664 L9488 3668 L9504 3676 L9528 3684 L9556 3688 L9588 3692 L9628 3696 L9668 3696 L9716 3700 L9772 3700 L9820 3700 L9872 3700 L9908 3700 L9952 3700 L10000 3700 L10048 3700 L10096 3700 L10136 3692 L10180 3688 L10224 3680 L10256 3672 L10260 3672 L10268 3668 L10276 3664 L10280 3664 L10280 3660 L10284 3656 L10280 3656 L10276 3652 L10268 3648 L10264 3648 L10252 3648 L10232 3644 L10208 3640 L10180 3636 L10148 3632 L10108 3628 L10060 3624 L10012 3620 L9960 3612 L9900 3612 L9844 3612 L9780 3612 L9712 3612 L9624 3608 L9544 3604 L9476 3604 L9412 3604 L9344 3604 L9288 3604 L9240 3604 L9236 3604 L9228 3604 L9212 3604 L9196 3604 L9184 3604 L9180 3604 L9188 3604 L9200 3604 L9212 3604 L9232 3608 L9256 3608 L9288 3608 L9320 3608 L9360 3608 L9400 3608 L9440 3608 L9484 3612 L9528 3612 L9576 3612 L9624 3608 L9664 3604 L9704 3600 L9740 3596 L9780 3592 L9812 3588 L9840 3584 L9856 3580 L9868 3572 L9888 3564 L9896 3564 L9900 3560 L9900 3556 L9896 3556 L9892 3556 L9888 3552 L9880 3548 L9868 3548 L9852 3544 L9828 3540 L9800 3536 L9768 3532 L9736 3528 L9696 3528 L9656 3528 L9612 3528 L9572 3528 L9532 3528 L9512 3528 L9480 3524 L9452 3524 L9408 3524 L9360 3524 L9312 3528 L9264 3536 L9220 3540 L9180 3552 L9140 3556 L9108 3564 L9076 3572 L9048 3580 L9028 3584 L9012 3588 L8996 3596 L8988 3604 L8988 3608 L8988 3612 L8992 3612 L9000 3616 L9004 3616 L9012 3616 L9020 3620 L9032 3620 L9048 3624 L9060 3624 L9072 3624 L9080 3624 L9092 3624 L9104 3624 L9116 3624 L9128 3624 L9140 3624 L9152 3624 L9156 3624 L9160 3624 L9164 3620 L9168 3616 L9168 3612 L9164 3608 L9160 3604 L9156 3600 L9148 3596 L9132 3588 L9120 3580 L9108 3580 L9096 3572 L9080 3564 L9060 3556 L9036 3548 L9008 3540 L8968 3532 L8932 3524 L8892 3520 L8856 3512 L8816 3508 L8780 3504 L8740 3500 L8720 3496 L8688 3496 L8652 3496 L8608 3496 L8568 3496 L8524 3496 L8480 3496 L8440 3496 L8396 3496 L8348 3496 L8300 3496 L8260 3496 L8212 3496 L8168 3496 L8120 3496 L8084 3496 L8080 3496 L8072 3496 L8040 3496 L8000 3496 L7944 3500 L7888 3504 L7828 3508 L7772 3516 L7704 3516 L7648 3520 L7600 3520 L7572 3520 L7532 3520 L7476 3520 L7420 3520 L7360 3520 L7304 3520 L7244 3520 L7188 3520 L7128 3520 L7072 3520 L7004 3520 L6948 3520 L6888 3520 L6836 3512 L6784 3508 L6728 3504 L6676 3496 L6624 3488 L6576 3484 L6524 3476 L6480 3460 L6440 3452 L6396 3440 L6352 3432 L6312 3416 L6276 3404 L6240 3396 L6212 3384 L6184 3376 L6156 3364 L6124 3352 L6096 3344 L6068 3336 L6036 3324 L6016 3316 L5992 3308 L5964 3300 L5936 3292 L5912 3284 L5884 3280 L5840 3272 L5808 3264 L5780 3256 L5756 3248 L5732 3236 L5712 3228 L5684 3224 L5656 3216 L5632 3208 L5604 3200 L5580 3196 L5572 3192 L5536 3184 L5500 3176 L5472 3168 L5444 3160 L5400 3152 L5368 3144 L5332 3132 L5296 3124 L5260 3120 L5220 3112 L5184 3108 L5144 3100 L5104 3096 L5064 3092 L5028 3088 L4984 3080 L4944 3076 L4908 3064 L4868 3060 L4828 3056 L4788 3048 L4748 3040 L4708 3036 L4664 3028 L4624 3024 L4588 3016 L4556 3008 L4516 2996 L4480 2992 L4444 2984 L4408 2980 L4376 2976 L4340 2968 L4308 2964 L4276 2956 L4248 2948 L4220 2944 L4188 2940 L4156 2936 L4128 2928 L4100 2924 L4068 2916 L4032 2908 L4004 2904 L3972 2896 L3936 2888 L3900 2880 L3872 2872 L3840 2864 L3800 2852 L3768 2844 L3736 2832 L3696 2824 L3652 2812 L3616 2800 L3576 2792 L3536 2776 L3504 2768 L3464 2760 L3444 2752 L3440 2752 L3428 2752 L3400 2744 L3368 2732 L3336 2724 L3304 2716 L3264 2704 L3224 2692 L3192 2684 L3160 2676 L3120 2660 L3080 2652 L3048 2640 L3016 2632 L2976 2620 L2944 2608 L2920 2600 L2916 2600 L2908 2596 L2892 2588 L2864 2580 L2832 2572 L2796 2560 L2768 2548 L2740 2532 L2712 2520 L2684 2508 L2656 2496 L2628 2484 L2596 2472 L2568 2460 L2540 2448 L2512 2436 L2488 2428 L2460 2416 L2436 2404 L2408 2396 L2380 2388 L2356 2380 L2332 2368 L2320 2364 L2312 2360 L2296 2352 L2280 2348 L2264 2340 L2244 2332 L2228 2324 L2212 2320 L2196 2316 L2180 2308 L2160 2300 L2144 2292 L2124 2288 L2108 2284 L2088 2276 L2076 2272 L2064 2268 L2052 2268 L2040 2264 L2020 2260 L2008 2252 L1996 2252 L1984 2248 L1972 2244 L1960 2240 L1948 2236 L1940 2236 L1924 2232 L1916 2232 L1908 2232 L1896 2228 L1888 2224 L1880 2224 L1872 2224 L1860 2224 L1852 2224 L1844 2220 L1840 2220 L1832 2216 L1824 2216 L1820 2216 L1816 2212 L1808 2212 L1804 2208 L1800 2208 L1796 2204 L1792 2204 L1788 2204 L1788 2200 L1784 2200 L1780 2196 L1776 2196 L1772 2192 L1764 2188 L1760 2188 L1756 2184 L1752 2184 L1744 2180 L1740 2180 L1736 2176 L1724 2176 L1720 2172 L1712 2172 L1704 2172 L1696 2172 L1684 2168 L1680 2168 L1672 2168 L1664 2164 L1656 2164 L1644 2164 L1636 2164 L1628 2164 L1616 2164 L1608 2164 L1600 2164 L1588 2164 L1580 2164 L1572 2164 L1564 2164 L1552 2164 L1540 2164 L1532 2164 L1524 2164 L1516 2164 L1508 2164 L1496 2164 L1488 2164 L1480 2164 L1468 2164 L1460 2164 L1452 2164 L1444 2164 L1436 2164 L1424 2164 L1416 2164 L1408 2164 L1400 2164 L1396 2164 L1392 2160 L1392 2156 L1388 2156 L1384 2156 L1376 2152 L1372 2152 L1368 2152 L1364 2152 L1360 2148 L1360 2144 L1352 2144 L1352 2140 L1348 2140 L1344 2140 L1340 2140 L1336 2136 L1332 2136 L1324 2136 L1320 2132 L1316 2132 L1312 2132 L1308 2132 L1300 2132 L1300 2128 L1296 2128 L1292 2128 L1288 2128 L1284 2128 L1280 2128 L1276 2128 L1272 2128 L1268 2128 L1264 2128 L1260 2128 L1256 2128 L1252 2128 L1248 2128 L1244 2128 L1240 2128 L1236 2128 L1232 2128 L1228 2128 L1224 2128 L1220 2128 L1216 2128 L1212 2128 L1208 2128 L1204 2128 L1200 2128 L1196 2128 L1192 2128 L1188 2128 L1184 2128 L1180 2128 L1172 2128 L1168 2128 L1164 2128 L1156 2128 L1152 2128 L1148 2128 L1144 2132 L1136 2132 L1132 2136 L1128 2136 L1124 2136 L1120 2136 L1116 2136 L1108 2136 L1104 2136 L1100 2136 L1092 2136 L1088 2136 L1084 2136 L1080 2136 L1076 2136 L1072 2136 L1064 2136 L1060 2136 L1056 2136 L1052 2136 L1048 2136 L1044 2136 L1040 2136 L1036 2136 L1032 2136 L1028 2136 L1024 2136 L1020 2136 L1016 2136 L1016 2140 L1012 2140 L1008 2140 L1008 2144 L1004 2144 L1000 2148 L996 2148 L992 2148 L988 2152 L984 2152 L980 2152 L976 2156 L968 2160 L964 2160 L960 2164 L956 2164 L952 2168 L948 2168 L940 2168 L936 2172 L932 2172 L924 2176 L920 2176 L916 2180 L912 2184 L908 2184" style="stroke:black;stroke-width:0.3;fill:none;"></path>
</svg>
